<?xml version="1.0" standalone="no"?>
<!DOCTYPE svg PUBLIC "-//W3C//DTD SVG 1.1//EN" "http://www.w3.org/Graphics/SVG/1.1/DTD/svg11.dtd" >
<svg xmlns="http://www.w3.org/2000/svg" xmlns:xlink="http://www.w3.org/1999/xlink" version="1.1">
<metadata>
Created by FontForge 20201107 at Sat Jul 30 12:51:12 2016
 By 
Copyright (c) 2003 by Bitstream, Inc. All Rights Reserved.
Copyright (c) 2006 by Tavmjong Bah. All Rights Reserved.
DejaVu changes are in public domain

</metadata>
<defs>
<font id="DejaVuSansCondensed-BoldOblique" horiz-adv-x="1544" >
  <font-face 
    font-family="DejaVu Sans Condensed"
    font-weight="700"
    font-style="oblique"
    font-stretch="semi-condensed"
    units-per-em="2048"
    panose-1="2 11 8 6 3 3 4 11 2 4"
    ascent="1556"
    descent="-492"
    x-height="1120"
    cap-height="1493"
    bbox="-1966 -789 3694.81 2295"
    underline-thickness="90"
    underline-position="-175"
    slope="-11"
    unicode-range="U+0020-1F643"
  />
<missing-glyph horiz-adv-x="1106" 
d="M92 -362v1806h921v-1806h-921zM195 -248h716v1577h-716v-1577z" />
    <glyph glyph-name="uniFB00" unicode="ff" horiz-adv-x="1534" 
d="M996 1556l-41 -235h-178q-69 0 -100 -27q-33 -28 -44 -96l-14 -78h369l14 78q32 183 139 270q107 88 300 88h247l-42 -235h-178q-68 0 -100 -27q-32 -28 -44 -96l-14 -78h276l-45 -256h-276l-151 -864h-322l151 864h-369l-151 -864h-322l151 864h-160l45 256h160l13 78
q33 183 140 270q107 88 300 88h246z" />
    <glyph glyph-name="fi" unicode="fi" horiz-adv-x="1450" 
d="M1147 1556h324l-52 -292h-324zM995 1556l-42 -235h-177q-68 0 -99 -27.5t-43 -94.5l-15 -79h776l-197 -1120h-322l150 864h-451l-151 -864h-324l151 864h-159l45 256h158l15 78q33 186 138.5 272t299.5 86h247z" />
    <glyph glyph-name="fl" unicode="fl" horiz-adv-x="1450" 
d="M748 1556h723l-273 -1556h-322l228 1321h-328q-68 0 -99 -27.5t-43 -94.5l-15 -79h273l-44 -256h-273l-151 -864h-324l151 864h-159l45 256h158l15 78q33 186 138.5 272t299.5 86z" />
    <glyph glyph-name="uniFB03" unicode="ffi" horiz-adv-x="2097" 
d="M996 1556l-41 -235h-178q-69 0 -100 -27q-33 -28 -44 -96l-14 -78h369l14 78q32 183 139 270q107 88 300 88h247l-42 -235h-178q-68 0 -98 -27q-32 -28 -43 -96l-14 -78h689l-196 -1120h-325l152 864h-365l-151 -864h-325l151 864h-369l-151 -864h-322l151 864h-160
l45 256h160l13 78q33 183 140 270q107 88 300 88h246zM1754 1556h325l-51 -292h-325z" />
    <glyph glyph-name="uniFB04" unicode="ffl" horiz-adv-x="2098" 
d="M996 1556l-41 -235h-178q-69 0 -100 -27q-33 -28 -44 -96l-14 -78h369l14 78q32 183 139 270q107 88 300 88h640l-273 -1556h-325l231 1321h-246q-68 0 -100 -27q-32 -28 -44 -96l-14 -78h253l-45 -256h-253l-151 -864h-322l151 864h-369l-151 -864h-322l151 864h-160
l45 256h160l13 78q33 183 140 270q107 88 300 88h246z" />
    <glyph glyph-name=".notdef" horiz-adv-x="1106" 
d="M92 -362v1806h921v-1806h-921zM195 -248h716v1577h-716v-1577z" />
    <glyph glyph-name=".null" horiz-adv-x="0" 
 />
    <glyph glyph-name="nonmarkingreturn" horiz-adv-x="682" 
 />
    <glyph glyph-name="space" unicode=" " horiz-adv-x="641" 
 />
    <glyph glyph-name="exclam" unicode="!" horiz-adv-x="840" 
d="M389 1493h325l-102 -573l-118 -418h-232l25 418zM190 356h324l-62 -356h-325z" />
    <glyph glyph-name="quotedbl" unicode="&#x22;" horiz-adv-x="960" 
d="M785 1493v-555h-213v555h213zM389 1493v-555h-213v555h213z" />
    <glyph glyph-name="numbersign" unicode="#" horiz-adv-x="1282" 
d="M922 872h-238l-63 -274h238zM820 1470l-86 -385h237l87 385h199l-87 -385h267l-47 -213h-268l-62 -274h268l-49 -215h-266l-86 -383h-199l86 383h-237l-87 -383h-200l86 383h-256l47 215h253l63 274h-254l47 213h257l86 385h201z" />
    <glyph glyph-name="dollar" unicode="$" horiz-adv-x="1282" 
d="M536 -301h-145l53 301q-115 5 -213 26.5t-181 59.5l44 262q86 -55 183.5 -85.5t205.5 -34.5l55 311q-189 31 -275 111.5t-86 223.5q0 199 134.5 321.5t364.5 131.5l40 229h144l-38 -227q91 -6 175.5 -23t163.5 -44l-44 -254q-57 37 -143 60.5t-193 30.5l-51 -288
q192 -36 284 -117t92 -215q0 -220 -135.5 -345t-381.5 -134zM590 836l45 262q-75 -8 -120 -48.5t-45 -101.5q0 -48 29 -75.5t91 -36.5zM679 512l-50 -285q89 5 137 48t48 118q0 51 -32.5 79.5t-102.5 39.5z" />
    <glyph glyph-name="percent" unicode="%" horiz-adv-x="1846" 
d="M1408 616q-77 0 -127 -84t-50 -217q0 -87 27.5 -130.5t83.5 -43.5q78 0 127.5 84t49.5 219q0 85 -28.5 128.5t-82.5 43.5zM1434 784q141 0 226 -85.5t85 -225.5q0 -224 -119 -363t-312 -139q-141 0 -226 86.5t-85 227.5q0 222 119 360.5t312 138.5zM479 -29h-221
l1112 1549h220zM535 1520q140 0 225.5 -86t85.5 -226q0 -223 -120 -362t-313 -139q-141 0 -226 85t-85 226q0 222 120 362t313 140zM507 1352q-78 0 -127.5 -84.5t-49.5 -216.5q0 -88 27.5 -132.5t82.5 -44.5q78 0 127.5 85t49.5 221q0 84 -28 128t-82 44z" />
    <glyph glyph-name="ampersand" unicode="&#x26;" horiz-adv-x="1607" 
d="M789 915l268 -374q55 63 95.5 151t66.5 203h279q-38 -175 -109.5 -318t-179.5 -255l230 -322h-394l-76 106q-106 -68 -212 -101.5t-217 -33.5q-220 0 -354.5 123t-134.5 322q0 151 86 277.5t267 240.5q-23 44 -35 89t-12 93q0 176 136 290t351 114q82 0 168 -14.5
t177 -43.5l-48 -278q-78 48 -149 71t-142 23q-78 0 -123 -36t-45 -97q0 -38 27 -96.5t80 -133.5zM518 743q-72 -51 -109.5 -117.5t-37.5 -142.5q0 -107 68.5 -180.5t170.5 -73.5q54 0 107 21t107 63z" />
    <glyph glyph-name="quotesingle" unicode="'" horiz-adv-x="564" 
d="M389 1493v-555h-213v555h213z" />
    <glyph glyph-name="parenleft" unicode="(" horiz-adv-x="842" 
d="M544 -270h-262q-70 166 -105 325.5t-35 317.5q0 295 114.5 589.5t344.5 591.5h261q-210 -310 -313 -613.5t-103 -608.5q0 -150 24.5 -299.5t73.5 -302.5z" />
    <glyph glyph-name="parenright" unicode=")" horiz-adv-x="842" 
d="M269 1554h264q69 -164 103 -323.5t34 -319.5q0 -298 -113.5 -592.5t-342.5 -588.5h-264q210 310 313.5 614t103.5 610q0 150 -24 298.5t-74 301.5z" />
    <glyph glyph-name="asterisk" unicode="*" horiz-adv-x="963" 
d="M927 1217l-297 -173l297 -174l-68 -141l-300 184v-344h-153v344l-301 -184l-68 141l301 174l-301 173l68 141l301 -182v344h153v-344l300 182z" />
    <glyph glyph-name="plus" unicode="+" 
d="M879 1284v-524h470v-236h-470v-524h-214v524h-470v236h470v524h214z" />
    <glyph glyph-name="comma" unicode="," horiz-adv-x="700" 
d="M148 387h324l-54 -305l-289 -373h-192l157 373z" />
    <glyph glyph-name="hyphen" unicode="-" horiz-adv-x="765" 
d="M98 735h565l-51 -291h-566z" />
    <glyph glyph-name="period" unicode="." horiz-adv-x="700" 
d="M153 387h324l-67 -387h-325z" />
    <glyph glyph-name="slash" unicode="/" horiz-adv-x="673" 
d="M591 1493h209l-768 -1683h-209z" />
    <glyph glyph-name="zero" unicode="0" horiz-adv-x="1282" 
d="M551 233q69 0 122.5 46t89.5 135q25 63 46 143.5t39 190.5q15 89 23 164t8 128q0 112 -36 164.5t-111 52.5q-70 0 -123.5 -44.5t-88.5 -135.5q-27 -65 -49 -148t-38 -181q-15 -90 -23.5 -167t-8.5 -130q0 -111 37 -164.5t113 -53.5zM1217 983q0 -199 -49.5 -387
t-138.5 -330q-91 -146 -220 -220.5t-287 -74.5q-220 0 -337.5 139t-117.5 400q0 196 49 384.5t137 328.5q93 147 220.5 222t287.5 75q219 0 337.5 -139.5t118.5 -397.5z" />
    <glyph glyph-name="one" unicode="1" horiz-adv-x="1282" 
d="M127 266h306l168 965l-327 -72l46 262l325 72h330l-214 -1227h305l-46 -266h-941z" />
    <glyph glyph-name="two" unicode="2" horiz-adv-x="1282" 
d="M455 283h585l-50 -283h-976l51 285l571 479q94 80 143 162t49 159q0 82 -50.5 127t-141.5 45q-85 0 -190.5 -37.5t-237.5 -115.5l58 317q122 50 240 74.5t233 24.5q205 0 323 -98.5t118 -268.5q0 -146 -72 -266t-317 -324z" />
    <glyph glyph-name="three" unicode="3" horiz-adv-x="1282" 
d="M870 805q102 -26 158.5 -105t56.5 -194q0 -248 -176.5 -391.5t-486.5 -143.5q-117 0 -222.5 18.5t-199.5 55.5l51 297q80 -52 174.5 -80.5t189.5 -28.5q152 0 240.5 63.5t88.5 170.5q0 89 -67.5 133.5t-203.5 44.5h-137l44 248h146q141 0 223.5 57t82.5 154
q0 76 -57.5 116t-166.5 40q-76 0 -166 -22t-187 -64l49 282q106 32 209 48t204 16q228 0 342.5 -84t114.5 -250q0 -149 -79.5 -248.5t-224.5 -132.5z" />
    <glyph glyph-name="four" unicode="4" horiz-adv-x="1282" 
d="M760 1165l-478 -614h369zM751 1493h394l-167 -942h192l-48 -279h-191l-48 -272h-329l49 272h-605l59 330z" />
    <glyph glyph-name="five" unicode="5" horiz-adv-x="1282" 
d="M326 1493h861l-49 -283h-585l-41 -231q40 12 82.5 18.5t85.5 6.5q206 0 322.5 -104.5t116.5 -289.5q0 -294 -179.5 -466.5t-485.5 -172.5q-113 0 -219 24.5t-211 74.5l53 303q100 -72 194 -106t192 -34q142 0 227.5 82.5t85.5 216.5q0 96 -65 152.5t-176 56.5
q-76 0 -163.5 -21.5t-192.5 -66.5z" />
    <glyph glyph-name="six" unicode="6" horiz-adv-x="1282" 
d="M667 737q-103 0 -168.5 -94t-65.5 -242q0 -89 40.5 -138.5t112.5 -49.5q102 0 168 92.5t66 233.5q0 96 -39.5 147t-113.5 51zM1217 1454l-49 -276q-77 44 -150 66t-146 22q-167 0 -270.5 -100t-126.5 -281q70 51 144.5 75.5t158.5 24.5q165 0 270.5 -109t105.5 -278
q0 -276 -162.5 -452.5t-418.5 -176.5q-229 0 -355 144.5t-126 408.5q0 204 55.5 389.5t156.5 319.5q108 143 255 215t331 72q85 0 165 -16t162 -48z" />
    <glyph glyph-name="seven" unicode="7" horiz-adv-x="1282" 
d="M266 1493h1013l-41 -219l-748 -1274h-346l711 1210h-637z" />
    <glyph glyph-name="eight" unicode="8" horiz-adv-x="1282" 
d="M619 668q-105 0 -175.5 -79.5t-70.5 -195.5q0 -83 45.5 -131.5t125.5 -48.5q107 0 177 78.5t70 195.5q0 83 -46.5 132t-125.5 49zM398 795q-97 45 -145.5 117t-48.5 173q0 203 150 319t415 116q212 0 329 -88t117 -248q0 -142 -81.5 -243t-232.5 -146q110 -47 162 -126
t52 -200q0 -230 -161.5 -364t-443.5 -134q-222 0 -346 98.5t-124 274.5q0 159 95 278.5t263 172.5zM737 1278q-92 0 -147 -59.5t-55 -157.5q0 -68 40 -110t105 -42q92 0 147.5 59.5t55.5 157.5q0 69 -40 110.5t-106 41.5z" />
    <glyph glyph-name="nine" unicode="9" horiz-adv-x="1282" 
d="M76 33l47 276q79 -45 151.5 -66.5t145.5 -21.5q168 0 271.5 100t124.5 281q-69 -51 -143 -75.5t-157 -24.5q-165 0 -270.5 109t-105.5 278q0 276 162.5 452.5t418.5 176.5q229 0 355 -144.5t126 -408.5q0 -203 -56 -388.5t-158 -320.5q-108 -143 -254 -215t-330 -72
q-85 0 -166 16t-162 48zM625 750q102 0 168 94t66 241q0 91 -39.5 140t-112.5 49q-101 0 -168 -93t-67 -233q0 -96 39.5 -147t113.5 -51z" />
    <glyph glyph-name="colon" unicode=":" horiz-adv-x="737" 
d="M271 1120h325l-67 -387h-325zM144 387h324l-68 -387h-324z" />
    <glyph glyph-name="semicolon" unicode=";" horiz-adv-x="737" 
d="M144 387h324l-53 -305l-288 -373h-192l155 373zM271 1120h325l-67 -387h-325z" />
    <glyph glyph-name="less" unicode="&#x3c;" 
d="M1349 973l-867 -332l867 -330v-250l-1154 463v236l1154 463v-250z" />
    <glyph glyph-name="equal" unicode="=" 
d="M195 987h1154v-235h-1154v235zM195 532h1154v-237h-1154v237z" />
    <glyph glyph-name="greater" unicode="&#x3e;" 
d="M195 973v250l1154 -463v-236l-1154 -463v250l869 330z" />
    <glyph glyph-name="question" unicode="?" horiz-adv-x="1069" 
d="M255 356h324l-63 -356h-324zM605 504h-325l7 49q15 80 54 142.5t157 164.5l66 58q71 61 103.5 114t32.5 107q0 57 -36.5 87.5t-104.5 30.5q-72 0 -162.5 -33.5t-194.5 -99.5l56 314q115 42 209.5 62t181.5 20q175 0 274 -85.5t99 -234.5q0 -119 -48 -213t-163 -196
l-69 -60q-72 -62 -97.5 -100.5t-32.5 -81.5z" />
    <glyph glyph-name="at" unicode="@" horiz-adv-x="1843" 
d="M931 801q-96 0 -164.5 -105t-68.5 -250q0 -84 36.5 -128t106.5 -44q95 0 161.5 100.5t66.5 246.5q0 86 -36 133t-102 47zM1032 246q-40 -75 -107.5 -116.5t-148.5 -41.5q-129 0 -202.5 94.5t-73.5 261.5q0 221 127.5 382t304.5 161q75 0 131.5 -42t74.5 -111l21 133h183
l-120 -693q136 22 227.5 163.5t91.5 332.5q0 213 -148 348t-385 135q-176 0 -328 -76t-258 -219q-83 -110 -126 -242t-43 -274q0 -269 149 -439.5t383 -170.5q106 0 210 43.5t197 126.5l99 -158q-132 -98 -260.5 -147t-256.5 -49q-122 0 -234 41t-201 118q-126 108 -191 267
t-65 360q0 176 54 340t156 301q132 176 317 270.5t398 94.5q149 0 276 -46.5t227 -138.5q95 -89 146 -208.5t51 -249.5q0 -315 -184 -512t-483 -197q-4 0 -12 -1t-12 -1q-5 0 -8 0.5t-5 1.5z" />
    <glyph glyph-name="A" unicode="A" horiz-adv-x="1426" 
d="M905 272h-536l-133 -272h-356l760 1493h396l238 -1493h-330zM500 543h360l-81 575z" />
    <glyph glyph-name="B" unicode="B" horiz-adv-x="1404" 
d="M737 915q93 0 145 52t52 143q0 59 -36.5 90t-104.5 31h-194l-55 -316h193zM634 262q119 0 183 63t64 181q0 75 -44 111t-135 36h-204l-69 -391h205zM1045 799q88 -28 136 -102.5t48 -184.5q0 -241 -161.5 -376.5t-453.5 -135.5h-575l262 1493h519q239 0 354 -78t115 -241
q0 -137 -67.5 -240.5t-176.5 -134.5z" />
    <glyph glyph-name="C" unicode="C" horiz-adv-x="1352" 
d="M1117 70q-124 -49 -238.5 -74t-216.5 -25q-271 0 -433 165t-162 437q0 179 51 337.5t151 289.5q118 154 284 237t358 83q104 0 209.5 -27.5t214.5 -83.5l-56 -309q-87 73 -174 107t-187 34q-208 0 -348.5 -178t-140.5 -445q0 -172 86.5 -270t238.5 -98q91 0 193 36.5
t229 114.5z" />
    <glyph glyph-name="D" unicode="D" horiz-adv-x="1530" 
d="M598 1202l-162 -911h125q242 0 383 151t141 408q0 174 -92 263t-274 89h-121zM301 1493h364q261 0 391.5 -34.5t217.5 -115.5t131 -196.5t44 -261.5q0 -203 -75 -382.5t-211 -301.5q-119 -109 -276 -155t-483 -46h-365z" />
    <glyph glyph-name="E" unicode="E" horiz-adv-x="1259" 
d="M301 1493h934l-51 -291h-588l-49 -278h554l-53 -291h-552l-60 -342h607l-49 -291h-955z" />
    <glyph glyph-name="F" unicode="F" horiz-adv-x="1259" 
d="M301 1493h934l-51 -291h-588l-49 -278h554l-53 -291h-552l-111 -633h-346z" />
    <glyph glyph-name="G" unicode="G" horiz-adv-x="1512" 
d="M1256 111q-132 -71 -273 -105.5t-303 -34.5q-286 0 -449.5 161.5t-163.5 440.5q0 181 51 339.5t153 289.5q124 160 293 239t386 79q120 0 242.5 -28t241.5 -83l-53 -309q-110 71 -215 106t-211 35q-232 0 -378 -172t-146 -442q0 -179 85 -278t240 -99q50 0 100.5 7.5
t101.5 23.5l52 290h-212l44 258h539z" />
    <glyph glyph-name="H" unicode="H" horiz-adv-x="1542" 
d="M301 1493h346l-100 -569h511l99 569h347l-262 -1493h-346l110 633h-510l-111 -633h-346z" />
    <glyph glyph-name="I" unicode="I" horiz-adv-x="685" 
d="M301 1493h346l-262 -1493h-346z" />
    <glyph glyph-name="J" unicode="J" horiz-adv-x="685" 
d="M301 1493h346l-236 -1348q-52 -292 -204.5 -423.5t-442.5 -131.5h-70l51 291h54q107 0 175 67.5t91 196.5z" />
    <glyph glyph-name="K" unicode="K" horiz-adv-x="1428" 
d="M301 1493h346l-94 -537l571 537h419l-771 -725l581 -768h-407l-452 623l-109 -623h-346z" />
    <glyph glyph-name="L" unicode="L" horiz-adv-x="1174" 
d="M301 1493h346l-211 -1202h607l-49 -291h-955z" />
    <glyph glyph-name="M" unicode="M" horiz-adv-x="1834" 
d="M301 1493h425l173 -793l454 793h443l-262 -1493h-329l192 1102l-466 -815h-187l-185 815l-192 -1102h-328z" />
    <glyph glyph-name="N" unicode="N" horiz-adv-x="1542" 
d="M301 1493h387l307 -1034l181 1034h328l-262 -1493h-387l-308 1034l-180 -1034h-328z" />
    <glyph glyph-name="O" unicode="O" horiz-adv-x="1566" 
d="M1134 881q0 176 -71.5 268t-207.5 92q-180 0 -302 -179.5t-122 -449.5q0 -172 71 -267t198 -95q104 0 184.5 48.5t137.5 143.5q54 91 83 205t29 234zM905 1520q269 0 432 -165.5t163 -432.5q0 -182 -50 -344t-145 -291q-117 -159 -277 -237.5t-368 -78.5
q-268 0 -430.5 165t-162.5 433q0 183 49.5 345t145.5 292q115 158 275 236t368 78z" />
    <glyph glyph-name="P" unicode="P" horiz-adv-x="1350" 
d="M301 1493h575q211 0 330.5 -107.5t119.5 -298.5q0 -117 -40 -222.5t-113 -184.5q-80 -85 -191 -123.5t-278 -38.5h-229l-90 -518h-346zM599 1214l-73 -417h191q123 0 187.5 64t64.5 186q0 81 -46 124t-134 43h-190z" />
    <glyph glyph-name="Q" unicode="Q" horiz-adv-x="1566" 
d="M684 -27q-10 -1 -20 -1.5t-32 -0.5q-102 0 -192 31t-164 92q-99 81 -154 206.5t-55 268.5q0 183 49.5 345.5t145.5 291.5q116 159 275 236.5t368 77.5q269 0 432 -165.5t163 -432.5q0 -314 -137 -550.5t-382 -344.5l206 -326h-330zM1134 881q0 176 -71.5 268t-207.5 92
q-180 0 -302 -179.5t-122 -449.5q0 -172 71 -267t198 -95q104 0 184.5 48.5t137.5 143.5q54 91 83 205t29 234z" />
    <glyph glyph-name="R" unicode="R" horiz-adv-x="1419" 
d="M677 831q118 0 178.5 61t60.5 179q0 74 -42 108.5t-132 34.5h-143l-68 -383h146zM485 565l-100 -565h-346l262 1493h512q221 0 335.5 -92t114.5 -271q0 -181 -90 -298t-244 -134q70 -16 117 -79.5t82 -194.5l114 -424h-345l-101 371q-30 111 -73.5 152.5t-126.5 41.5
h-111z" />
    <glyph glyph-name="S" unicode="S" horiz-adv-x="1327" 
d="M1226 1446l-56 -316q-102 56 -201 83.5t-193 27.5q-130 0 -202.5 -45t-72.5 -125q0 -51 32 -79.5t132 -55.5l142 -39q179 -50 262 -144.5t83 -244.5q0 -243 -166 -390t-446 -147q-130 0 -259.5 27t-252.5 80l55 325q119 -77 232 -115t223 -38q119 0 193.5 54t74.5 138
q0 55 -33.5 85.5t-146.5 62.5l-141 39q-157 43 -233 136t-76 241q0 233 160.5 373.5t432.5 140.5q109 0 223.5 -18.5t233.5 -55.5z" />
    <glyph glyph-name="T" unicode="T" horiz-adv-x="1257" 
d="M140 1493h1239l-51 -291h-447l-211 -1202h-346l211 1202h-447z" />
    <glyph glyph-name="U" unicode="U" horiz-adv-x="1496" 
d="M301 1493h346l-157 -894q-8 -48 -12.5 -85t-4.5 -65q0 -98 47.5 -146.5t141.5 -48.5q126 0 193 78.5t100 265.5l157 895h346l-157 -895q-58 -330 -221.5 -478.5t-467.5 -148.5q-238 0 -362.5 113.5t-124.5 329.5q0 36 4.5 80.5t14.5 103.5z" />
    <glyph glyph-name="V" unicode="V" horiz-adv-x="1426" 
d="M140 1493h330l164 -1116l557 1116h357l-759 -1493h-413z" />
    <glyph glyph-name="W" unicode="W" horiz-adv-x="2033" 
d="M197 1493h321l41 -1085l422 1085h329l44 -1085l408 1085h345l-579 -1493h-392l-45 1135l-435 -1135h-401z" />
    <glyph glyph-name="X" unicode="X" horiz-adv-x="1421" 
d="M914 756l330 -756h-352l-219 500l-393 -500h-374l604 766l-318 727h353l207 -469l368 469h377z" />
    <glyph glyph-name="Y" unicode="Y" horiz-adv-x="1334" 
d="M116 1493h347l228 -553l400 553h400l-663 -870l-109 -623h-346l109 623z" />
    <glyph glyph-name="Z" unicode="Z" horiz-adv-x="1336" 
d="M234 1493h1130l-43 -238l-871 -964h724l-52 -291h-1170l41 238l874 964h-684z" />
    <glyph glyph-name="bracketleft" unicode="[" horiz-adv-x="842" 
d="M301 1556h558l-41 -225h-250l-242 -1376h253l-41 -225h-556z" />
    <glyph glyph-name="backslash" unicode="\" horiz-adv-x="673" 
d="M310 -190l-180 1683h200l178 -1683h-198z" />
    <glyph glyph-name="bracketright" unicode="]" horiz-adv-x="842" 
d="M507 -270h-558l38 225h252l243 1376h-253l38 225h559z" />
    <glyph glyph-name="asciicircum" unicode="^" 
d="M883 1493l475 -557h-217l-369 301l-368 -301h-218l476 557h221z" />
    <glyph glyph-name="underscore" unicode="_" horiz-adv-x="921" 
d="M940 -293v-190h-958v190h958z" />
    <glyph glyph-name="grave" unicode="`" horiz-adv-x="921" 
d="M496 1638l188 -376h-177l-266 376h255z" />
    <glyph glyph-name="a" unicode="a" horiz-adv-x="1243" 
d="M607 504q-121 0 -182.5 -41.5t-61.5 -122.5q0 -61 36.5 -96t100.5 -35q98 0 165 66.5t89 187.5l7 41h-154zM1110 639l-113 -639h-322l27 166q-79 -100 -167.5 -147.5t-191.5 -47.5q-143 0 -227 82.5t-84 222.5q0 214 148.5 327.5t429.5 113.5h190l4 28q2 14 2.5 20
t0.5 11q0 66 -56 99.5t-167 33.5q-100 0 -193.5 -23t-180.5 -69l48 273q101 28 207 42.5t219 14.5q224 0 333 -85.5t109 -260.5q0 -34 -4 -74.5t-12 -87.5z" />
    <glyph glyph-name="b" unicode="b" horiz-adv-x="1319" 
d="M748 887q-124 0 -203 -127.5t-79 -331.5q0 -92 44.5 -144.5t123.5 -52.5q122 0 201 125.5t79 321.5q0 102 -42.5 155.5t-123.5 53.5zM410 162l-30 -162h-323l271 1556h324l-105 -600q74 98 155 144.5t177 46.5q170 0 269 -120t99 -327q0 -129 -34.5 -251t-99.5 -222
q-82 -126 -185 -191t-221 -65q-103 0 -175.5 46.5t-121.5 144.5z" />
    <glyph glyph-name="c" unicode="c" horiz-adv-x="1092" 
d="M1071 1085l-51 -292q-65 48 -128 73t-123 25q-158 0 -258 -117.5t-100 -300.5q0 -117 62.5 -181.5t175.5 -64.5q75 0 148 25t139 74l-50 -293q-80 -31 -161 -46.5t-163 -15.5q-237 0 -365.5 118.5t-128.5 336.5q0 137 47.5 266t135.5 232q98 113 225 168t293 55
q76 0 151.5 -15.5t150.5 -46.5z" />
    <glyph glyph-name="d" unicode="d" horiz-adv-x="1319" 
d="M566 231q124 0 202 127t78 332q0 93 -43.5 145t-122.5 52q-122 0 -201 -125.5t-79 -321.5q0 -102 42.5 -155.5t123.5 -53.5zM905 956l105 600h325l-273 -1556h-325l30 162q-74 -98 -155 -144.5t-177 -46.5q-170 0 -269 120t-99 327q0 129 34.5 251t99.5 222
q82 126 185 191t221 65q103 0 175.5 -46.5t122.5 -144.5z" />
    <glyph glyph-name="e" unicode="e" horiz-adv-x="1250" 
d="M1159 518l-11 -57h-754q0 -6 -1 -17.5t-1 -17.5q0 -109 59 -163t177 -54q102 0 215 34t237 101l-50 -278q-117 -48 -233.5 -71.5t-237.5 -23.5q-236 0 -364 121t-128 342q0 128 40.5 248.5t119.5 220.5q93 120 222 182t286 62q205 0 325 -121t120 -326q0 -40 -5 -84.5
t-16 -97.5zM855 682q3 13 4 26.5t1 26.5q0 80 -43 127t-117 47q-94 0 -160.5 -57.5t-101.5 -169.5h417z" />
    <glyph glyph-name="f" unicode="f" horiz-adv-x="801" 
d="M995 1556l-42 -235h-177q-68 0 -99 -27.5t-43 -94.5l-15 -79h273l-44 -256h-273l-151 -864h-324l151 864h-159l45 256h158l15 78q33 186 138.5 272t299.5 86h247z" />
    <glyph glyph-name="g" unicode="g" horiz-adv-x="1319" 
d="M770 190q-77 -98 -157 -144t-175 -46q-171 0 -270.5 122.5t-99.5 334.5q0 113 35 226.5t99 213.5q80 121 182.5 184.5t220.5 63.5q106 0 178.5 -46t121.5 -145l27 166h325l-170 -973q-52 -301 -223 -445t-475 -144q-94 0 -180.5 16t-171.5 49l48 279q76 -54 152.5 -80.5
t156.5 -26.5q160 0 246 76t116 242zM680 887q-118 0 -197 -119t-79 -299q0 -102 42.5 -155.5t123.5 -53.5q118 0 197 118.5t79 295.5q0 104 -42.5 158.5t-123.5 54.5z" />
    <glyph glyph-name="h" unicode="h" horiz-adv-x="1312" 
d="M1189 682l-120 -682h-323l102 584q11 57 16.5 96.5t5.5 62.5q0 64 -32 99t-90 35q-100 0 -171.5 -86.5t-99.5 -239.5l-97 -551h-323l271 1556h324l-105 -600q89 97 179 144t188 47q140 0 215.5 -81t75.5 -228q0 -32 -4 -71t-12 -85z" />
    <glyph glyph-name="i" unicode="i" horiz-adv-x="631" 
d="M253 1120h324l-197 -1120h-323zM328 1556h324l-51 -292h-325z" />
    <glyph glyph-name="j" unicode="j" horiz-adv-x="631" 
d="M253 1120h324l-194 -1100q-41 -235 -154 -348.5t-305 -113.5h-160l41 235h56q91 0 133 45.5t65 181.5zM328 1556h324l-51 -292h-325z" />
    <glyph glyph-name="k" unicode="k" horiz-adv-x="1225" 
d="M328 1556h324l-147 -843l435 407h379l-585 -518l425 -602h-368l-327 483l-84 -483h-323z" />
    <glyph glyph-name="l" unicode="l" horiz-adv-x="631" 
d="M328 1556h324l-272 -1556h-323z" />
    <glyph glyph-name="m" unicode="m" horiz-adv-x="1920" 
d="M1156 934q74 103 169 158t198 55q135 0 213 -82.5t78 -226.5q0 -30 -4.5 -68.5t-12.5 -87.5l-119 -682h-325l101 584l3 15q23 124 23 159q0 55 -28 87t-77 32q-93 0 -157 -84.5t-92 -241.5l-97 -551h-325l103 584q14 75 19.5 113.5t5.5 60.5q0 56 -28 87.5t-78 31.5
q-89 0 -156 -87.5t-93 -238.5l-97 -551h-323l196 1120h324l-30 -164q76 95 161.5 143t177.5 48q105 0 179.5 -59.5t90.5 -153.5z" />
    <glyph glyph-name="n" unicode="n" horiz-adv-x="1312" 
d="M1189 682l-120 -682h-323l102 584q11 57 16.5 96.5t5.5 62.5q0 64 -32 99t-90 35q-100 0 -171.5 -86.5t-99.5 -239.5l-97 -551h-323l196 1120h324l-30 -164q89 97 179 144t188 47q140 0 215.5 -81t75.5 -228q0 -32 -4 -71t-12 -85z" />
    <glyph glyph-name="o" unicode="o" horiz-adv-x="1266" 
d="M691 891q-125 0 -206 -126t-81 -321q0 -106 43.5 -161.5t127.5 -55.5q125 0 206 126.5t81 322.5q0 105 -43.5 160t-127.5 55zM717 1147q225 0 354 -127t129 -346q0 -127 -40.5 -246.5t-118.5 -218.5q-91 -118 -216.5 -178t-279.5 -60q-222 0 -350 127t-128 346
q0 126 41 246.5t119 220.5q90 116 214.5 176t275.5 60z" />
    <glyph glyph-name="p" unicode="p" horiz-adv-x="1319" 
d="M410 162l-104 -588h-324l271 1546h324l-30 -164q74 98 155 144.5t177 46.5q170 0 269 -120t99 -327q0 -129 -34.5 -251t-99.5 -222q-82 -126 -185 -191t-221 -65q-103 0 -175.5 46.5t-121.5 144.5zM748 887q-124 0 -203 -127.5t-79 -331.5q0 -92 44.5 -144.5t123.5 -52.5
q122 0 201 125.5t79 321.5q0 102 -42.5 155.5t-123.5 53.5z" />
    <glyph glyph-name="q" unicode="q" horiz-adv-x="1319" 
d="M905 956l27 164h325l-271 -1546h-324l103 588q-72 -98 -153 -144.5t-177 -46.5q-170 0 -269 120t-99 327q0 129 34.5 251t99.5 222q82 126 185 191t221 65q103 0 175.5 -46.5t122.5 -144.5zM566 231q124 0 202 127t78 332q0 93 -43.5 145t-122.5 52q-122 0 -201 -125.5
t-79 -321.5q0 -102 42.5 -155.5t123.5 -53.5z" />
    <glyph glyph-name="r" unicode="r" horiz-adv-x="909" 
d="M948 815q-34 21 -74.5 32t-86.5 11q-124 0 -205.5 -88t-109.5 -254l-92 -516h-323l196 1120h324l-35 -192q64 106 159.5 162.5t212.5 56.5q18 0 39.5 -2t50.5 -6z" />
    <glyph glyph-name="s" unicode="s" horiz-adv-x="1097" 
d="M1032 1085l-47 -278q-95 50 -188.5 76t-177.5 26q-95 0 -147 -27.5t-52 -78.5q0 -30 29 -48t113 -38l59 -12q195 -46 273.5 -118.5t78.5 -201.5q0 -195 -137.5 -304.5t-385.5 -109.5q-104 0 -212 18t-220 54l49 281q87 -57 186.5 -86t203.5 -29q102 0 153.5 27t51.5 79
q0 36 -29 56t-119 41l-59 12q-172 40 -246 118t-74 216q0 187 127.5 288t363.5 101q104 0 204.5 -15.5t201.5 -46.5z" />
    <glyph glyph-name="t" unicode="t" horiz-adv-x="881" 
d="M663 1438l-55 -318h330l-46 -256h-330l-82 -474q-4 -16 -5.5 -27t-1.5 -21q0 -46 27.5 -66t92.5 -20h167l-46 -256h-271q-146 0 -222.5 68t-76.5 196q0 28 2.5 60t8.5 65l83 475h-159l44 256h161l55 318h324z" />
    <glyph glyph-name="u" unicode="u" horiz-adv-x="1312" 
d="M125 436l118 684h323l-102 -583q-10 -57 -15.5 -97t-5.5 -63q0 -63 31.5 -98t89.5 -35q100 0 172 86t99 239l97 551h324l-196 -1120h-325l30 164q-83 -97 -174 -145t-191 -48q-138 0 -213.5 81t-75.5 229q0 35 3.5 74t10.5 81z" />
    <glyph glyph-name="v" unicode="v" horiz-adv-x="1201" 
d="M116 1120h297l131 -782l379 782h327l-592 -1120h-341z" />
    <glyph glyph-name="w" unicode="w" horiz-adv-x="1702" 
d="M160 1120h297l35 -770l304 770h256l37 -768l302 768h317l-461 -1120h-342l-33 770l-308 -770h-334z" />
    <glyph glyph-name="x" unicode="x" horiz-adv-x="1188" 
d="M408 573l-268 547h335l150 -332l261 332h351l-459 -545l280 -575h-335l-159 354l-290 -354h-350z" />
    <glyph glyph-name="y" unicode="y" horiz-adv-x="1201" 
d="M122 1120h304l138 -776l358 776h344l-638 -1226q-107 -207 -198 -271.5t-235 -64.5h-195l33 235h102q79 0 123 29.5t78 103.5l29 60z" />
    <glyph glyph-name="z" unicode="z" horiz-adv-x="1072" 
d="M201 1120h879l-44 -250l-628 -614h521l-44 -256h-901l42 250l630 614h-499z" />
    <glyph glyph-name="braceleft" unicode="{" horiz-adv-x="1312" 
d="M942 -109l-38 -225h-197q-161 0 -242.5 61.5t-81.5 184.5q0 22 3.5 52t9.5 70l33 193q6 30 8.5 57.5t2.5 49.5q0 88 -41 124t-146 36h-58l41 223h56q126 0 185 58t85 208l36 205q33 193 138 280.5t302 87.5h195l-39 -225h-63q-125 0 -171 -43.5t-72 -185.5l-29 -166
q-27 -156 -80.5 -227.5t-155.5 -96.5q72 -21 105 -66t33 -122q0 -30 -3.5 -63.5t-11.5 -73.5l-29 -166q-8 -46 -10.5 -70t-2.5 -41q0 -67 36.5 -93t140.5 -26h61z" />
    <glyph glyph-name="bar" unicode="|" horiz-adv-x="673" 
d="M438 1565v-2048h-204v2048h204z" />
    <glyph glyph-name="braceright" unicode="}" horiz-adv-x="1312" 
d="M120 -109h63q126 0 172 44.5t71 185.5l29 166q27 155 81 227t157 98q-72 19 -106 64t-34 123q0 24 4 58t11 79l30 166q7 42 9.5 67t2.5 43q0 68 -36.5 93.5t-140.5 25.5h-60l38 225h197q162 0 242.5 -61t80.5 -184q0 -28 -3.5 -58.5t-9.5 -64.5l-35 -205q-5 -30 -8 -57
t-3 -49q0 -88 42 -124t146 -36h57l-41 -223h-54q-127 0 -186 -58.5t-85 -208.5l-34 -192q-33 -193 -138.5 -281t-302.5 -88h-195z" />
    <glyph glyph-name="asciitilde" unicode="~" 
d="M1349 850v-244q-95 -80 -175.5 -114.5t-167.5 -34.5q-96 0 -225 58q-12 6 -20 9q-6 3 -19 9q-140 61 -224 61q-80 0 -157 -38.5t-166 -121.5v244q97 80 177 114.5t166 34.5q96 0 225 -58q14 -6 20 -9t20 -9q139 -61 224 -61q77 0 153 37.5t169 122.5z" />
    <glyph glyph-name="nonbreakingspace" unicode="&#xa0;" horiz-adv-x="641" 
 />
    <glyph glyph-name="exclamdown" unicode="&#xa1;" horiz-adv-x="840" 
d="M651 764h-325l63 356h325zM452 -373h-325l102 573l117 418h233l-26 -418z" />
    <glyph glyph-name="cent" unicode="&#xa2;" horiz-adv-x="1282" 
d="M667 856q-92 -46 -147.5 -150.5t-55.5 -232.5q0 -74 26 -128.5t72 -80.5zM1124 1085l-51 -292q-68 50 -128.5 74t-118.5 24h-8l-115 -664q80 2 151.5 26.5t135.5 72.5l-50 -293q-65 -25 -135.5 -40t-146.5 -20l-50 -286h-145l49 290q-181 22 -285 138.5t-104 298.5
q0 291 164 492t430 235l50 291h146l-50 -287q61 -2 127 -17t134 -43z" />
    <glyph glyph-name="sterling" unicode="&#xa3;" horiz-adv-x="1282" 
d="M1274 1466l-50 -286q-53 37 -116 57t-127 20q-113 0 -176 -61.5t-86 -194.5l-30 -170h336l-40 -239h-338l-57 -326h486l-46 -266h-1017l46 266h203l57 326h-173l40 239h175l30 170q46 270 182 394.5t384 124.5q83 0 162 -13.5t155 -40.5z" />
    <glyph glyph-name="currency" unicode="&#xa4;" horiz-adv-x="1172" 
d="M391 268l-187 -207l-137 154l186 207q-25 49 -38 102.5t-13 116.5t14 117t40 100l-188 205l138 154l186 -207q44 30 92.5 44.5t103.5 14.5q48 0 97 -13.5t100 -41.5l186 207l137 -154l-186 -207q26 -55 38.5 -110t12.5 -109q0 -63 -13 -115.5t-40 -99.5l186 -207
l-138 -153l-187 206q-41 -30 -89 -44.5t-104 -14.5q-52 0 -101 13.5t-96 41.5zM588 422q82 0 139.5 63.5t57.5 155.5t-57.5 155.5t-139.5 63.5t-139.5 -63.5t-57.5 -155.5q0 -93 56.5 -156t140.5 -63z" />
    <glyph glyph-name="yen" unicode="&#xa5;" horiz-adv-x="1282" 
d="M1165 416h-409l-74 -416h-343l74 416h-402l35 194h400l13 76l-26 76h-361l33 192h262l-193 539h331l175 -500l347 500h364l-396 -539h264l-33 -192h-367l-53 -76l-17 -76h409z" />
    <glyph glyph-name="brokenbar" unicode="&#xa6;" horiz-adv-x="673" 
d="M438 1432v-758h-204v758h204zM438 408v-758h-204v758h204z" />
    <glyph glyph-name="section" unicode="&#xa7;" horiz-adv-x="921" 
d="M911 1462l-39 -227q-81 40 -145.5 59t-119.5 19q-72 0 -114.5 -30.5t-42.5 -80.5q0 -30 22 -55t73 -51l81 -41q158 -78 215.5 -153.5t57.5 -186.5q0 -123 -69.5 -218t-201.5 -153q52 -36 76 -80t24 -98q0 -162 -127 -261.5t-339 -99.5q-76 0 -157 14.5t-166 43.5l43 237
q92 -43 164 -64.5t127 -21.5q69 0 112.5 31.5t43.5 79.5q0 31 -21.5 54.5t-92.5 60.5l-121 61q-108 54 -158 127.5t-50 175.5q0 123 66 218.5t193 154.5q-47 41 -69.5 87t-22.5 99q0 156 124.5 256.5t323.5 100.5q75 0 152.5 -14.5t157.5 -43.5zM400 854
q-72 -21 -110.5 -65.5t-38.5 -106.5q0 -61 43.5 -104t190.5 -107q72 27 111.5 72.5t39.5 101.5q0 61 -51 107.5t-185 101.5z" />
    <glyph glyph-name="dieresis" unicode="&#xa8;" horiz-adv-x="921" 
d="M322 1585h214l-44 -246h-212zM680 1585h212l-44 -246h-212z" />
    <glyph glyph-name="copyright" unicode="&#xa9;" horiz-adv-x="1843" 
d="M1191 1126v-215q-52 37 -101.5 54.5t-101.5 17.5q-102 0 -159 -64t-57 -178q0 -115 57 -178t159 -63q58 0 109.5 18t93.5 53v-213q-59 -22 -118 -33.5t-115 -11.5q-189 0 -303.5 117t-114.5 311q0 195 114.5 311.5t303.5 116.5q63 0 120.5 -10.5t112.5 -32.5zM922 1331
q-109 0 -202.5 -43.5t-172.5 -130.5q-78 -87 -117 -190.5t-39 -225.5q0 -121 39 -224.5t117 -190.5q78 -86 172 -129t203 -43q110 0 203 42.5t171 129.5t117.5 190.5t39.5 224.5q0 122 -39.5 225.5t-117.5 190.5q-79 88 -172.5 131t-201.5 43zM922 1485q136 0 254.5 -55
t216.5 -164t146.5 -240t48.5 -285q0 -152 -48.5 -282.5t-146.5 -239.5t-216.5 -164t-254.5 -55q-137 0 -255.5 55t-216.5 164t-146.5 239.5t-48.5 282.5q0 154 48.5 285t146.5 240t216.5 164t255.5 55z" />
    <glyph glyph-name="ordfeminine" unicode="&#xaa;" horiz-adv-x="1039" 
d="M114 573h734l-35 -200h-734zM623 1081q-133 0 -183.5 -28.5t-50.5 -98.5q0 -44 28 -70t75 -26q76 0 134.5 56.5t73.5 144.5l4 22h-81zM962 1165l-77 -448h-223l22 125q-59 -76 -127 -111t-159 -35q-113 0 -175.5 55.5t-62.5 155.5q0 155 111 233.5t330 78.5h127l4 20
q1 4 1.5 9t0.5 16q0 44 -35 67t-103 23q-79 0 -157.5 -17.5t-154.5 -52.5l31 180q88 28 167 42t146 14q168 0 255.5 -64t87.5 -186q0 -31 -2 -56.5t-7 -48.5z" />
    <glyph glyph-name="guillemotleft" unicode="&#xab;" horiz-adv-x="1197" 
d="M1095 1063l-45 -252l-311 -229l232 -222l-39 -223l-379 369l33 186zM654 1063l-44 -252l-311 -229l232 -222l-39 -223l-380 369l34 186z" />
    <glyph glyph-name="logicalnot" unicode="&#xac;" 
d="M195 909h1154v-622h-211v385h-943v237z" />
    <glyph glyph-name="sfthyphen" unicode="&#xad;" horiz-adv-x="765" 
d="M98 735h565l-51 -291h-566z" />
    <glyph glyph-name="registered" unicode="&#xae;" horiz-adv-x="1843" 
d="M922 1331q-109 0 -202.5 -43.5t-172.5 -130.5q-78 -87 -117 -190.5t-39 -225.5q0 -121 39 -224.5t117 -190.5q78 -86 172 -129t203 -43q110 0 203 42.5t171 129.5t117.5 190.5t39.5 224.5q0 122 -39.5 225.5t-117.5 190.5q-79 88 -172.5 131t-201.5 43zM870 1036h-31
v-207h31q70 0 106 26.5t36 78.5t-35 77t-107 25zM904 1174q158 0 236.5 -59.5t78.5 -180.5q0 -86 -47.5 -142t-133.5 -73q37 -22 68.5 -62t58.5 -98l99 -221h-206l-96 213q-34 78 -60 110.5t-52 32.5h-11v-356h-192v836h257zM922 1485q136 0 254.5 -55t216.5 -164
t146.5 -240t48.5 -285q0 -152 -48.5 -282.5t-146.5 -239.5t-216.5 -164t-254.5 -55q-137 0 -255.5 55t-216.5 164t-146.5 239.5t-48.5 282.5q0 154 48.5 285t146.5 240t216.5 164t255.5 55z" />
    <glyph glyph-name="macron" unicode="&#xaf;" horiz-adv-x="921" 
d="M319 1556h567l-33 -188h-568z" />
    <glyph glyph-name="degree" unicode="&#xb0;" horiz-adv-x="921" 
d="M461 1372q-65 0 -110 -50t-45 -122t44.5 -121t110.5 -49q65 0 110 49.5t45 120.5q0 72 -45.5 122t-109.5 50zM461 1534q59 0 114 -25.5t98 -72.5q43 -48 65 -108t22 -128q0 -67 -22 -127.5t-63 -105.5q-43 -48 -99 -73.5t-117 -25.5q-127 0 -213 95.5t-86 236.5t87 237.5
t214 96.5z" />
    <glyph glyph-name="plusminus" unicode="&#xb1;" 
d="M879 1284v-354h470v-236h-470v-354h-214v354h-470v236h470v354h214zM195 238h1154v-238h-1154v238z" />
    <glyph glyph-name="twosuperior" unicode="&#xb2;" horiz-adv-x="807" 
d="M382 836h339l-30 -168h-608l28 153l329 266q72 58 107 107.5t35 91.5q0 40 -29 63t-81 23q-62 0 -128 -23t-130 -67l33 186q74 26 141 39t130 13q134 0 205.5 -54.5t71.5 -154.5q0 -79 -48.5 -153.5t-156.5 -158.5z" />
    <glyph glyph-name="threesuperior" unicode="&#xb3;" horiz-adv-x="807" 
d="M599 1120q68 -13 103 -59.5t35 -122.5q0 -137 -105.5 -211t-299.5 -74q-72 0 -137 12t-121 35l30 172q52 -36 105.5 -54.5t107.5 -18.5q98 0 153.5 38t55.5 105q0 54 -45 79.5t-138 25.5h-69l25 137h77q96 0 146.5 29t50.5 83q0 38 -34 57t-101 19q-48 0 -105.5 -13
t-126.5 -40l28 166q65 17 131.5 26t132.5 9q139 0 214 -50t75 -143q0 -81 -51 -137t-137 -70z" />
    <glyph glyph-name="acute" unicode="&#xb4;" horiz-adv-x="921" 
d="M730 1638h264l-395 -376h-181z" />
    <glyph glyph-name="mu" unicode="&#xb5;" horiz-adv-x="1356" 
d="M-50 -428l271 1548h324l-114 -651q-3 -21 -5 -41t-2 -37q0 -73 38.5 -112t112.5 -39q92 0 146 56t75 173l115 651h324l-131 -749q-3 -21 -5 -38.5t-2 -31.5q0 -29 12 -43t38 -14q15 0 32.5 5.5t35.5 16.5l-45 -250q-51 -23 -95.5 -34t-84.5 -11q-79 0 -123.5 38
t-62.5 120q-56 -79 -124 -118.5t-147 -39.5q-67 0 -109 23.5t-61 71.5l-87 -494h-326z" />
    <glyph glyph-name="paragraph" unicode="&#xb6;" horiz-adv-x="1172" 
d="M644 1493h468l-296 -1690h-171l269 1543h-170l-271 -1543h-169l148 846q-151 20 -233 112t-82 240q0 215 140.5 353.5t366.5 138.5z" />
    <glyph glyph-name="periodcentered" unicode="&#xb7;" horiz-adv-x="700" 
d="M223 905h324l-68 -387h-324z" />
    <glyph glyph-name="cedilla" unicode="&#xb8;" horiz-adv-x="921" 
d="M413 0q33 -52 48.5 -96t15.5 -86q0 -104 -68 -161.5t-191 -57.5q-44 0 -88 6.5t-90 19.5l27 156q36 -17 72.5 -26t70.5 -9q59 0 93.5 28.5t34.5 75.5q0 26 -12.5 60.5t-40.5 89.5h128z" />
    <glyph glyph-name="onesuperior" unicode="&#xb9;" horiz-adv-x="807" 
d="M151 825h185l92 521l-210 -52l27 160l219 49h198l-120 -678h186l-28 -157h-577z" />
    <glyph glyph-name="ordmasculine" unicode="&#xba;" horiz-adv-x="1039" 
d="M647 1520q165 0 261 -90.5t96 -243.5q0 -219 -132.5 -353.5t-351.5 -134.5q-164 0 -262 91.5t-98 242.5q0 217 134 352.5t353 135.5zM120 573h740l-34 -200h-741zM625 1350q-89 0 -148 -92.5t-59 -233.5q0 -76 32 -116t92 -40q89 0 147.5 92t58.5 234q0 75 -32 115.5
t-91 40.5z" />
    <glyph glyph-name="guillemotright" unicode="&#xbb;" horiz-adv-x="1197" 
d="M105 135l44 254l310 229l-230 222l38 223l378 -371l-31 -186zM545 135l45 254l309 229l-232 222l40 223l378 -371l-31 -186z" />
    <glyph glyph-name="onequarter" unicode="&#xbc;" horiz-adv-x="1908" 
d="M130 825h185l92 521l-210 -52l27 160l219 49h198l-120 -678h186l-28 -157h-577zM534 -29h-220l1111 1549h221zM1472 640l-271 -323h215zM1490 835h223l-90 -518h123l-27 -155h-123l-29 -162h-207l29 162h-352l29 168z" />
    <glyph glyph-name="onehalf" unicode="&#xbd;" horiz-adv-x="1908" 
d="M130 825h185l92 521l-210 -52l27 160l219 49h198l-120 -678h186l-28 -157h-577zM1497 168h339l-30 -168h-608l28 153l329 266q72 58 107 107.5t35 91.5q0 40 -29 63t-81 23q-62 0 -128 -23t-130 -67l33 186q74 26 141 39t130 13q134 0 205.5 -54.5t71.5 -154.5
q0 -79 -48.5 -153.5t-156.5 -158.5zM534 -29h-220l1111 1549h221z" />
    <glyph glyph-name="threequarters" unicode="&#xbe;" horiz-adv-x="1908" 
d="M612 1120q68 -13 103 -59.5t35 -122.5q0 -137 -105.5 -211t-299.5 -74q-72 0 -137 12t-121 35l30 172q52 -36 105.5 -54.5t107.5 -18.5q98 0 153.5 38t55.5 105q0 54 -45 79.5t-138 25.5h-69l25 137h77q96 0 146.5 29t50.5 83q0 38 -34 57t-101 19q-48 0 -105.5 -13
t-126.5 -40l28 166q65 17 131.5 26t132.5 9q139 0 214 -50t75 -143q0 -81 -51 -137t-137 -70zM534 -29h-220l1111 1549h221zM1472 640l-271 -323h215zM1490 835h223l-90 -518h123l-27 -155h-123l-29 -162h-207l29 162h-352l29 168z" />
    <glyph glyph-name="questiondown" unicode="&#xbf;" horiz-adv-x="1069" 
d="M487 616h324l-9 -51q-14 -80 -52.5 -141.5t-156.5 -163.5l-67 -60q-72 -61 -103.5 -113t-31.5 -106q0 -57 36 -87.5t104 -30.5q72 0 163.5 34t193.5 99l-55 -314q-114 -42 -209 -62t-181 -20q-176 0 -275.5 85.5t-99.5 234.5q0 119 48 213t162 196l68 60
q75 65 100.5 102.5t32.5 79.5zM837 764h-325l63 356h324z" />
    <glyph glyph-name="Agrave" unicode="&#xc0;" horiz-adv-x="1426" 
d="M905 272h-536l-133 -272h-356l760 1493h396l238 -1493h-330zM500 543h360l-81 575zM846 1899l129 -264h-160l-207 264h238z" />
    <glyph glyph-name="Aacute" unicode="&#xc1;" horiz-adv-x="1426" 
d="M905 272h-536l-133 -272h-356l760 1493h396l238 -1493h-330zM500 543h360l-81 575zM931 1899h252l-287 -264h-186z" />
    <glyph glyph-name="Acircumflex" unicode="&#xc2;" horiz-adv-x="1426" 
d="M905 272h-536l-133 -272h-356l760 1493h396l238 -1493h-330zM500 543h360l-81 575zM719 1899h313l137 -264h-153l-148 161l-208 -161h-161z" />
    <glyph glyph-name="Atilde" unicode="&#xc3;" horiz-adv-x="1426" 
d="M905 272h-536l-133 -272h-356l760 1493h396l238 -1493h-330zM500 543h360l-81 575zM848 1686l-45 37q-21 19 -36 25.5t-31 6.5q-32 0 -55.5 -32t-33.5 -88h-123q23 128 82 197t144 69q34 0 63 -12t61 -39l47 -41q15 -13 31 -20t31 -7q35 0 58.5 30.5t32.5 88.5h125
q-24 -128 -83 -197t-142 -69q-35 0 -63.5 11t-62.5 40z" />
    <glyph glyph-name="Adieresis" unicode="&#xc4;" horiz-adv-x="1426" 
d="M905 272h-536l-133 -272h-356l760 1493h396l238 -1493h-330zM500 543h360l-81 575zM603 1899h212l-42 -246h-212zM958 1899h215l-45 -246h-212z" />
    <glyph glyph-name="Aring" unicode="&#xc5;" horiz-adv-x="1426" 
d="M716 1616q0 -54 34.5 -92.5t82.5 -38.5q49 0 83.5 38.5t34.5 92.5t-35 92.5t-83 38.5t-82.5 -38.5t-34.5 -92.5zM1040 1456l234 -1456h-330l-39 272h-536l-133 -272h-356l743 1458q-24 37 -35 75.5t-11 82.5q0 117 75 201t181 84t181 -84t75 -201q0 -48 -11.5 -86.5
t-37.5 -73.5zM500 543h360l-81 575z" />
    <glyph glyph-name="AE" unicode="&#xc6;" horiz-adv-x="1999" 
d="M886 1237l-337 -610h339l107 610h-109zM697 1493h1279l-52 -291h-588l-47 -278h552l-51 -291h-553l-59 -342h606l-50 -291h-955l62 350h-443l-196 -350h-346z" />
    <glyph glyph-name="Ccedilla" unicode="&#xc7;" horiz-adv-x="1352" 
d="M1117 70q-124 -49 -238.5 -74t-216.5 -25q-271 0 -433 165t-162 437q0 179 51 337.5t151 289.5q118 154 284 237t358 83q104 0 209.5 -27.5t214.5 -83.5l-56 -309q-87 73 -174 107t-187 34q-208 0 -348.5 -178t-140.5 -445q0 -172 86.5 -270t238.5 -98q91 0 193 36.5
t229 114.5zM778 0q33 -52 48.5 -96t15.5 -86q0 -104 -68 -161.5t-191 -57.5q-44 0 -88 6.5t-90 19.5l27 156q36 -17 72.5 -26t70.5 -9q59 0 93.5 28.5t34.5 75.5q0 26 -12.5 60.5t-40.5 89.5h128z" />
    <glyph glyph-name="Egrave" unicode="&#xc8;" horiz-adv-x="1259" 
d="M301 1493h934l-51 -291h-588l-49 -278h554l-53 -291h-552l-60 -342h607l-49 -291h-955zM809 1899l129 -264h-160l-207 264h238z" />
    <glyph glyph-name="Eacute" unicode="&#xc9;" horiz-adv-x="1259" 
d="M301 1493h934l-51 -291h-588l-49 -278h554l-53 -291h-552l-60 -342h607l-49 -291h-955zM894 1899h252l-287 -264h-186z" />
    <glyph glyph-name="Ecircumflex" unicode="&#xca;" horiz-adv-x="1259" 
d="M301 1493h934l-51 -291h-588l-49 -278h554l-53 -291h-552l-60 -342h607l-49 -291h-955zM682 1899h313l137 -264h-153l-148 161l-208 -161h-161z" />
    <glyph glyph-name="Edieresis" unicode="&#xcb;" horiz-adv-x="1259" 
d="M301 1493h934l-51 -291h-588l-49 -278h554l-53 -291h-552l-60 -342h607l-49 -291h-955zM566 1899h212l-42 -246h-212zM921 1899h215l-45 -246h-212z" />
    <glyph glyph-name="Igrave" unicode="&#xcc;" horiz-adv-x="685" 
d="M301 1493h346l-262 -1493h-346zM488 1899l129 -264h-160l-207 264h238z" />
    <glyph glyph-name="Iacute" unicode="&#xcd;" horiz-adv-x="685" 
d="M301 1493h346l-262 -1493h-346zM573 1899h252l-287 -264h-186z" />
    <glyph glyph-name="Icircumflex" unicode="&#xce;" horiz-adv-x="685" 
d="M301 1493h346l-262 -1493h-346zM361 1899h313l137 -264h-153l-148 161l-208 -161h-161z" />
    <glyph glyph-name="Idieresis" unicode="&#xcf;" horiz-adv-x="685" 
d="M301 1493h346l-262 -1493h-346zM245 1899h212l-42 -246h-212zM600 1899h215l-45 -246h-212z" />
    <glyph glyph-name="Eth" unicode="&#xd0;" horiz-adv-x="1557" 
d="M626 1202l-51 -299h221l-45 -260h-222l-63 -352h124q243 0 385 151.5t142 407.5q0 174 -93 263t-276 89h-122zM330 1493h365q261 0 391.5 -34.5t216.5 -115.5q87 -81 132 -197t45 -261q0 -201 -76 -381t-212 -303q-118 -109 -275 -155t-484 -46h-365l113 643h-185l46 260
h185z" />
    <glyph glyph-name="Ntilde" unicode="&#xd1;" horiz-adv-x="1542" 
d="M301 1493h387l307 -1034l181 1034h328l-262 -1493h-387l-308 1034l-180 -1034h-328zM892 1686l-45 37q-21 19 -36 25.5t-31 6.5q-32 0 -55.5 -32t-33.5 -88h-123q23 128 82 197t144 69q34 0 63 -12t61 -39l47 -41q15 -13 31 -20t31 -7q35 0 58.5 30.5t32.5 88.5h125
q-24 -128 -83 -197t-142 -69q-35 0 -63.5 11t-62.5 40z" />
    <glyph glyph-name="Ograve" unicode="&#xd2;" horiz-adv-x="1566" 
d="M1134 881q0 176 -71.5 268t-207.5 92q-180 0 -302 -179.5t-122 -449.5q0 -172 71 -267t198 -95q104 0 184.5 48.5t137.5 143.5q54 91 83 205t29 234zM905 1520q269 0 432 -165.5t163 -432.5q0 -182 -50 -344t-145 -291q-117 -159 -277 -237.5t-368 -78.5
q-268 0 -430.5 165t-162.5 433q0 183 49.5 345t145.5 292q115 158 275 236t368 78zM954 1899l129 -264h-160l-207 264h238z" />
    <glyph glyph-name="Oacute" unicode="&#xd3;" horiz-adv-x="1566" 
d="M1134 881q0 176 -71.5 268t-207.5 92q-180 0 -302 -179.5t-122 -449.5q0 -172 71 -267t198 -95q104 0 184.5 48.5t137.5 143.5q54 91 83 205t29 234zM905 1520q269 0 432 -165.5t163 -432.5q0 -182 -50 -344t-145 -291q-117 -159 -277 -237.5t-368 -78.5
q-268 0 -430.5 165t-162.5 433q0 183 49.5 345t145.5 292q115 158 275 236t368 78zM1039 1899h252l-287 -264h-186z" />
    <glyph glyph-name="Ocircumflex" unicode="&#xd4;" horiz-adv-x="1566" 
d="M1134 881q0 176 -71.5 268t-207.5 92q-180 0 -302 -179.5t-122 -449.5q0 -172 71 -267t198 -95q104 0 184.5 48.5t137.5 143.5q54 91 83 205t29 234zM905 1520q269 0 432 -165.5t163 -432.5q0 -182 -50 -344t-145 -291q-117 -159 -277 -237.5t-368 -78.5
q-268 0 -430.5 165t-162.5 433q0 183 49.5 345t145.5 292q115 158 275 236t368 78zM827 1899h313l137 -264h-153l-148 161l-208 -161h-161z" />
    <glyph glyph-name="Otilde" unicode="&#xd5;" horiz-adv-x="1566" 
d="M1134 881q0 176 -71.5 268t-207.5 92q-180 0 -302 -179.5t-122 -449.5q0 -172 71 -267t198 -95q104 0 184.5 48.5t137.5 143.5q54 91 83 205t29 234zM905 1520q269 0 432 -165.5t163 -432.5q0 -182 -50 -344t-145 -291q-117 -159 -277 -237.5t-368 -78.5
q-268 0 -430.5 165t-162.5 433q0 183 49.5 345t145.5 292q115 158 275 236t368 78zM956 1686l-45 37q-21 19 -36 25.5t-31 6.5q-32 0 -55.5 -32t-33.5 -88h-123q23 128 82 197t144 69q34 0 63 -12t61 -39l47 -41q15 -13 31 -20t31 -7q35 0 58.5 30.5t32.5 88.5h125
q-24 -128 -83 -197t-142 -69q-35 0 -63.5 11t-62.5 40z" />
    <glyph glyph-name="Odieresis" unicode="&#xd6;" horiz-adv-x="1566" 
d="M1134 881q0 176 -71.5 268t-207.5 92q-180 0 -302 -179.5t-122 -449.5q0 -172 71 -267t198 -95q104 0 184.5 48.5t137.5 143.5q54 91 83 205t29 234zM905 1520q269 0 432 -165.5t163 -432.5q0 -182 -50 -344t-145 -291q-117 -159 -277 -237.5t-368 -78.5
q-268 0 -430.5 165t-162.5 433q0 183 49.5 345t145.5 292q115 158 275 236t368 78zM711 1899h212l-42 -246h-212zM1066 1899h215l-45 -246h-212z" />
    <glyph glyph-name="multiply" unicode="&#xd7;" 
d="M1314 1075l-391 -434l391 -432l-151 -168l-391 432l-390 -432l-152 168l391 432l-391 434l152 168l390 -434l391 434z" />
    <glyph glyph-name="Oslash" unicode="&#xd8;" horiz-adv-x="1566" 
d="M1076 1128q-36 57 -90.5 85t-128.5 28q-182 0 -303 -178.5t-121 -450.5q0 -22 3 -74v-6zM142 258q-38 74 -56.5 152.5t-18.5 158.5q0 183 49.5 345t145.5 292q116 159 275 236.5t368 77.5q134 0 238.5 -39t184.5 -117l232 215l92 -123l-233 -213q41 -76 61 -157t20 -166
q0 -182 -50 -344t-145 -291q-117 -158 -277 -236t-368 -78q-133 0 -239 41t-189 123l-227 -213l-91 123zM485 371q35 -59 90 -90t125 -31q104 0 184.5 48.5t137.5 143.5q54 92 84 206.5t30 230.5q0 25 -6 78q-1 8 -2 12z" />
    <glyph glyph-name="Ugrave" unicode="&#xd9;" horiz-adv-x="1496" 
d="M301 1493h346l-157 -894q-8 -48 -12.5 -85t-4.5 -65q0 -98 47.5 -146.5t141.5 -48.5q126 0 193 78.5t100 265.5l157 895h346l-157 -895q-58 -330 -221.5 -478.5t-467.5 -148.5q-238 0 -362.5 113.5t-124.5 329.5q0 36 4.5 80.5t14.5 103.5zM883 1899l129 -264h-160
l-207 264h238z" />
    <glyph glyph-name="Uacute" unicode="&#xda;" horiz-adv-x="1496" 
d="M301 1493h346l-157 -894q-8 -48 -12.5 -85t-4.5 -65q0 -98 47.5 -146.5t141.5 -48.5q126 0 193 78.5t100 265.5l157 895h346l-157 -895q-58 -330 -221.5 -478.5t-467.5 -148.5q-238 0 -362.5 113.5t-124.5 329.5q0 36 4.5 80.5t14.5 103.5zM968 1899h252l-287 -264h-186z
" />
    <glyph glyph-name="Ucircumflex" unicode="&#xdb;" horiz-adv-x="1496" 
d="M301 1493h346l-157 -894q-8 -48 -12.5 -85t-4.5 -65q0 -98 47.5 -146.5t141.5 -48.5q126 0 193 78.5t100 265.5l157 895h346l-157 -895q-58 -330 -221.5 -478.5t-467.5 -148.5q-238 0 -362.5 113.5t-124.5 329.5q0 36 4.5 80.5t14.5 103.5zM756 1899h313l137 -264h-153
l-148 161l-208 -161h-161z" />
    <glyph glyph-name="Udieresis" unicode="&#xdc;" horiz-adv-x="1496" 
d="M301 1493h346l-157 -894q-8 -48 -12.5 -85t-4.5 -65q0 -98 47.5 -146.5t141.5 -48.5q126 0 193 78.5t100 265.5l157 895h346l-157 -895q-58 -330 -221.5 -478.5t-467.5 -148.5q-238 0 -362.5 113.5t-124.5 329.5q0 36 4.5 80.5t14.5 103.5zM640 1899h212l-42 -246h-212z
M995 1899h215l-45 -246h-212z" />
    <glyph glyph-name="Yacute" unicode="&#xdd;" horiz-adv-x="1334" 
d="M116 1493h347l228 -553l400 553h400l-663 -870l-109 -623h-346l109 623zM898 1899h252l-287 -264h-186z" />
    <glyph glyph-name="Thorn" unicode="&#xde;" horiz-adv-x="1368" 
d="M301 1493h346l-39 -223h222q211 0 331 -107.5t120 -298.5q0 -117 -39.5 -221.5t-113.5 -183.5q-80 -86 -192 -125t-278 -39h-222l-51 -295h-346zM559 993l-72 -420h183q123 0 188 65t65 187q0 82 -45.5 125t-133.5 43h-185z" />
    <glyph glyph-name="germandbls" unicode="&#xdf;" horiz-adv-x="1325" 
d="M251 1114q38 224 177 333t385 109q203 0 309 -88t106 -258q0 -20 -2.5 -44t-6.5 -51l-14 -73q-136 -5 -216 -51.5t-80 -118.5q0 -55 92 -127q8 -6 13 -10l55 -43q76 -59 111 -128.5t35 -160.5q0 -193 -125 -312.5t-330 -119.5q-71 0 -138.5 12.5t-134.5 36.5l44 244
q50 -27 100 -41t97 -14q74 0 119 38t45 99q0 40 -21 72.5t-90 87.5l-55 43q-60 47 -87 97.5t-27 113.5q0 138 82.5 237t237.5 148q1 6 1.5 14t0.5 23q0 67 -37 102t-108 35q-91 0 -144 -53.5t-72 -165.5l-193 -1100h-323z" />
    <glyph glyph-name="agrave" unicode="&#xe0;" horiz-adv-x="1243" 
d="M607 504q-121 0 -182.5 -41.5t-61.5 -122.5q0 -61 36.5 -96t100.5 -35q98 0 165 66.5t89 187.5l7 41h-154zM1110 639l-113 -639h-322l27 166q-79 -100 -167.5 -147.5t-191.5 -47.5q-143 0 -227 82.5t-84 222.5q0 214 148.5 327.5t429.5 113.5h190l4 28q2 14 2.5 20
t0.5 11q0 66 -56 99.5t-167 33.5q-100 0 -193.5 -23t-180.5 -69l48 273q101 28 207 42.5t219 14.5q224 0 333 -85.5t109 -260.5q0 -34 -4 -74.5t-12 -87.5zM658 1638l188 -376h-177l-266 376h255z" />
    <glyph glyph-name="aacute" unicode="&#xe1;" horiz-adv-x="1243" 
d="M607 504q-121 0 -182.5 -41.5t-61.5 -122.5q0 -61 36.5 -96t100.5 -35q98 0 165 66.5t89 187.5l7 41h-154zM1110 639l-113 -639h-322l27 166q-79 -100 -167.5 -147.5t-191.5 -47.5q-143 0 -227 82.5t-84 222.5q0 214 148.5 327.5t429.5 113.5h190l4 28q2 14 2.5 20
t0.5 11q0 66 -56 99.5t-167 33.5q-100 0 -193.5 -23t-180.5 -69l48 273q101 28 207 42.5t219 14.5q224 0 333 -85.5t109 -260.5q0 -34 -4 -74.5t-12 -87.5zM892 1638h264l-395 -376h-181z" />
    <glyph glyph-name="acircumflex" unicode="&#xe2;" horiz-adv-x="1243" 
d="M607 504q-121 0 -182.5 -41.5t-61.5 -122.5q0 -61 36.5 -96t100.5 -35q98 0 165 66.5t89 187.5l7 41h-154zM1110 639l-113 -639h-322l27 166q-79 -100 -167.5 -147.5t-191.5 -47.5q-143 0 -227 82.5t-84 222.5q0 214 148.5 327.5t429.5 113.5h190l4 28q2 14 2.5 20
t0.5 11q0 66 -56 99.5t-167 33.5q-100 0 -193.5 -23t-180.5 -69l48 273q101 28 207 42.5t219 14.5q224 0 333 -85.5t109 -260.5q0 -34 -4 -74.5t-12 -87.5zM652 1638h236l164 -376h-160l-140 225l-217 -225h-178z" />
    <glyph glyph-name="atilde" unicode="&#xe3;" horiz-adv-x="1243" 
d="M607 504q-121 0 -182.5 -41.5t-61.5 -122.5q0 -61 36.5 -96t100.5 -35q98 0 165 66.5t89 187.5l7 41h-154zM1110 639l-113 -639h-322l27 166q-79 -100 -167.5 -147.5t-191.5 -47.5q-143 0 -227 82.5t-84 222.5q0 214 148.5 327.5t429.5 113.5h190l4 28q2 14 2.5 20
t0.5 11q0 66 -56 99.5t-167 33.5q-100 0 -193.5 -23t-180.5 -69l48 273q101 28 207 42.5t219 14.5q224 0 333 -85.5t109 -260.5q0 -34 -4 -74.5t-12 -87.5zM734 1364l-45 37q-2 2 -9 7q-34 30 -61 30q-30 0 -53.5 -34.5t-32.5 -94.5h-126q24 137 83 210.5t144 73.5
q32 0 62 -13.5t64 -43.5l47 -43q17 -15 32 -23t29 -8q34 0 57.5 33.5t32.5 95.5h126q-24 -136 -82.5 -210t-142.5 -74q-31 0 -58 11.5t-67 45.5z" />
    <glyph glyph-name="adieresis" unicode="&#xe4;" horiz-adv-x="1243" 
d="M607 504q-121 0 -182.5 -41.5t-61.5 -122.5q0 -61 36.5 -96t100.5 -35q98 0 165 66.5t89 187.5l7 41h-154zM1110 639l-113 -639h-322l27 166q-79 -100 -167.5 -147.5t-191.5 -47.5q-143 0 -227 82.5t-84 222.5q0 214 148.5 327.5t429.5 113.5h190l4 28q2 14 2.5 20
t0.5 11q0 66 -56 99.5t-167 33.5q-100 0 -193.5 -23t-180.5 -69l48 273q101 28 207 42.5t219 14.5q224 0 333 -85.5t109 -260.5q0 -34 -4 -74.5t-12 -87.5zM484 1585h214l-44 -246h-212zM842 1585h212l-44 -246h-212z" />
    <glyph glyph-name="aring" unicode="&#xe5;" horiz-adv-x="1243" 
d="M607 504q-121 0 -182.5 -41.5t-61.5 -122.5q0 -61 36.5 -96t100.5 -35q98 0 165 66.5t89 187.5l7 41h-154zM1110 639l-113 -639h-322l27 166q-79 -100 -167.5 -147.5t-191.5 -47.5q-143 0 -227 82.5t-84 222.5q0 214 148.5 327.5t429.5 113.5h190l4 28q2 14 2.5 20
t0.5 11q0 66 -56 99.5t-167 33.5q-100 0 -193.5 -23t-180.5 -69l48 273q101 28 207 42.5t219 14.5q224 0 333 -85.5t109 -260.5q0 -34 -4 -74.5t-12 -87.5zM1013 1524q0 -120 -74 -202.5t-181 -82.5q-108 0 -182.5 82.5t-74.5 202.5t74.5 202t182.5 82q107 0 181 -82
t74 -202zM892 1524q0 65 -38 107t-96 42q-60 0 -97.5 -42t-37.5 -107t38 -107.5t97 -42.5q58 0 96 42t38 108z" />
    <glyph glyph-name="ae" unicode="&#xe6;" horiz-adv-x="1931" 
d="M607 504q-121 0 -182.5 -41.5t-61.5 -122.5q0 -61 36.5 -96t100.5 -35q98 0 165 66.5t89 187.5l7 41h-154zM262 1090q105 28 205.5 42.5t194.5 14.5q134 0 222 -36.5t139 -113.5q86 77 181.5 113.5t213.5 36.5q200 0 320 -122t120 -323q0 -45 -4.5 -91t-13.5 -93l-13 -57
h-752q0 -6 -1 -17.5t-1 -17.5q0 -109 59 -163t177 -54q100 0 212.5 33.5t237.5 101.5l-48 -278q-118 -48 -235.5 -71.5t-238.5 -23.5q-156 0 -262.5 51.5t-165.5 155.5q-105 -105 -216 -156t-236 -51q-153 0 -239 81t-86 222q0 216 148.5 329.5t433.5 113.5h184l6 29
q2 13 2.5 19t0.5 11q0 66 -55.5 99.5t-163.5 33.5q-103 0 -196 -23t-178 -69zM1535 682q3 13 4.5 26.5t1.5 26.5q0 80 -43.5 127t-116.5 47q-95 0 -162 -58t-100 -169h416z" />
    <glyph glyph-name="ccedilla" unicode="&#xe7;" horiz-adv-x="1092" 
d="M1071 1085l-51 -292q-65 48 -128 73t-123 25q-158 0 -258 -117.5t-100 -300.5q0 -117 62.5 -181.5t175.5 -64.5q75 0 148 25t139 74l-50 -293q-80 -31 -161 -46.5t-163 -15.5q-237 0 -365.5 118.5t-128.5 336.5q0 137 47.5 266t135.5 232q98 113 225 168t293 55
q76 0 151.5 -15.5t150.5 -46.5zM621 0q33 -52 48.5 -96t15.5 -86q0 -104 -68 -161.5t-191 -57.5q-44 0 -88 6.5t-90 19.5l27 156q36 -17 72.5 -26t70.5 -9q59 0 93.5 28.5t34.5 75.5q0 26 -12.5 60.5t-40.5 89.5h128z" />
    <glyph glyph-name="egrave" unicode="&#xe8;" horiz-adv-x="1250" 
d="M1159 518l-11 -57h-754q0 -6 -1 -17.5t-1 -17.5q0 -109 59 -163t177 -54q102 0 215 34t237 101l-50 -278q-117 -48 -233.5 -71.5t-237.5 -23.5q-236 0 -364 121t-128 342q0 128 40.5 248.5t119.5 220.5q93 120 222 182t286 62q205 0 325 -121t120 -326q0 -40 -5 -84.5
t-16 -97.5zM855 682q3 13 4 26.5t1 26.5q0 80 -43 127t-117 47q-94 0 -160.5 -57.5t-101.5 -169.5h417zM700 1638l188 -376h-177l-266 376h255z" />
    <glyph glyph-name="eacute" unicode="&#xe9;" horiz-adv-x="1250" 
d="M1159 518l-11 -57h-754q0 -6 -1 -17.5t-1 -17.5q0 -109 59 -163t177 -54q102 0 215 34t237 101l-50 -278q-117 -48 -233.5 -71.5t-237.5 -23.5q-236 0 -364 121t-128 342q0 128 40.5 248.5t119.5 220.5q93 120 222 182t286 62q205 0 325 -121t120 -326q0 -40 -5 -84.5
t-16 -97.5zM855 682q3 13 4 26.5t1 26.5q0 80 -43 127t-117 47q-94 0 -160.5 -57.5t-101.5 -169.5h417zM934 1638h264l-395 -376h-181z" />
    <glyph glyph-name="ecircumflex" unicode="&#xea;" horiz-adv-x="1250" 
d="M1159 518l-11 -57h-754q0 -6 -1 -17.5t-1 -17.5q0 -109 59 -163t177 -54q102 0 215 34t237 101l-50 -278q-117 -48 -233.5 -71.5t-237.5 -23.5q-236 0 -364 121t-128 342q0 128 40.5 248.5t119.5 220.5q93 120 222 182t286 62q205 0 325 -121t120 -326q0 -40 -5 -84.5
t-16 -97.5zM855 682q3 13 4 26.5t1 26.5q0 80 -43 127t-117 47q-94 0 -160.5 -57.5t-101.5 -169.5h417zM694 1638h236l164 -376h-160l-140 225l-217 -225h-178z" />
    <glyph glyph-name="edieresis" unicode="&#xeb;" horiz-adv-x="1250" 
d="M1159 518l-11 -57h-754q0 -6 -1 -17.5t-1 -17.5q0 -109 59 -163t177 -54q102 0 215 34t237 101l-50 -278q-117 -48 -233.5 -71.5t-237.5 -23.5q-236 0 -364 121t-128 342q0 128 40.5 248.5t119.5 220.5q93 120 222 182t286 62q205 0 325 -121t120 -326q0 -40 -5 -84.5
t-16 -97.5zM855 682q3 13 4 26.5t1 26.5q0 80 -43 127t-117 47q-94 0 -160.5 -57.5t-101.5 -169.5h417zM526 1585h214l-44 -246h-212zM884 1585h212l-44 -246h-212z" />
    <glyph glyph-name="igrave" unicode="&#xec;" horiz-adv-x="631" 
d="M253 1120h324l-197 -1120h-323zM369 1638l188 -376h-177l-266 376h255z" />
    <glyph glyph-name="iacute" unicode="&#xed;" horiz-adv-x="631" 
d="M253 1120h324l-197 -1120h-323zM603 1638h264l-395 -376h-181z" />
    <glyph glyph-name="icircumflex" unicode="&#xee;" horiz-adv-x="631" 
d="M253 1120h324l-197 -1120h-323zM363 1638h236l164 -376h-160l-140 225l-217 -225h-178z" />
    <glyph glyph-name="idieresis" unicode="&#xef;" horiz-adv-x="631" 
d="M253 1120h324l-197 -1120h-323zM195 1585h214l-44 -246h-212zM553 1585h212l-44 -246h-212z" />
    <glyph glyph-name="eth" unicode="&#xf0;" horiz-adv-x="1266" 
d="M862 743q-47 27 -92.5 40.5t-92.5 13.5q-126 0 -199.5 -94t-73.5 -252q0 -109 45 -166.5t130 -57.5q126 0 207 126.5t81 324.5q0 13 -4 53q0 7 -1 12zM1084 1100q57 -92 86.5 -198t29.5 -222q0 -130 -41 -251.5t-119 -221.5q-91 -116 -216.5 -176t-279.5 -60
q-217 0 -347 125t-130 330q0 280 163.5 454.5t427.5 174.5q44 0 83 -7t72 -20l-136 215l-347 -108l-31 129l306 94l-123 198h316l74 -116l347 106l31 -127l-306 -94z" />
    <glyph glyph-name="ntilde" unicode="&#xf1;" horiz-adv-x="1312" 
d="M1189 682l-120 -682h-323l102 584q11 57 16.5 96.5t5.5 62.5q0 64 -32 99t-90 35q-100 0 -171.5 -86.5t-99.5 -239.5l-97 -551h-323l196 1120h324l-30 -164q89 97 179 144t188 47q140 0 215.5 -81t75.5 -228q0 -32 -4 -71t-12 -85zM767 1364l-45 37q-2 2 -9 7
q-34 30 -61 30q-30 0 -53.5 -34.5t-32.5 -94.5h-126q24 137 83 210.5t144 73.5q32 0 62 -13.5t64 -43.5l47 -43q17 -15 32 -23t29 -8q34 0 57.5 33.5t32.5 95.5h126q-24 -136 -82.5 -210t-142.5 -74q-31 0 -58 11.5t-67 45.5z" />
    <glyph glyph-name="ograve" unicode="&#xf2;" horiz-adv-x="1266" 
d="M691 891q-125 0 -206 -126t-81 -321q0 -106 43.5 -161.5t127.5 -55.5q125 0 206 126.5t81 322.5q0 105 -43.5 160t-127.5 55zM717 1147q225 0 354 -127t129 -346q0 -127 -40.5 -246.5t-118.5 -218.5q-91 -118 -216.5 -178t-279.5 -60q-222 0 -350 127t-128 346
q0 126 41 246.5t119 220.5q90 116 214.5 176t275.5 60zM670 1638l188 -376h-177l-266 376h255z" />
    <glyph glyph-name="oacute" unicode="&#xf3;" horiz-adv-x="1266" 
d="M691 891q-125 0 -206 -126t-81 -321q0 -106 43.5 -161.5t127.5 -55.5q125 0 206 126.5t81 322.5q0 105 -43.5 160t-127.5 55zM717 1147q225 0 354 -127t129 -346q0 -127 -40.5 -246.5t-118.5 -218.5q-91 -118 -216.5 -178t-279.5 -60q-222 0 -350 127t-128 346
q0 126 41 246.5t119 220.5q90 116 214.5 176t275.5 60zM904 1638h264l-395 -376h-181z" />
    <glyph glyph-name="ocircumflex" unicode="&#xf4;" horiz-adv-x="1266" 
d="M691 891q-125 0 -206 -126t-81 -321q0 -106 43.5 -161.5t127.5 -55.5q125 0 206 126.5t81 322.5q0 105 -43.5 160t-127.5 55zM717 1147q225 0 354 -127t129 -346q0 -127 -40.5 -246.5t-118.5 -218.5q-91 -118 -216.5 -178t-279.5 -60q-222 0 -350 127t-128 346
q0 126 41 246.5t119 220.5q90 116 214.5 176t275.5 60zM664 1638h236l164 -376h-160l-140 225l-217 -225h-178z" />
    <glyph glyph-name="otilde" unicode="&#xf5;" horiz-adv-x="1266" 
d="M691 891q-125 0 -206 -126t-81 -321q0 -106 43.5 -161.5t127.5 -55.5q125 0 206 126.5t81 322.5q0 105 -43.5 160t-127.5 55zM717 1147q225 0 354 -127t129 -346q0 -127 -40.5 -246.5t-118.5 -218.5q-91 -118 -216.5 -178t-279.5 -60q-222 0 -350 127t-128 346
q0 126 41 246.5t119 220.5q90 116 214.5 176t275.5 60zM746 1364l-45 37q-2 2 -9 7q-34 30 -61 30q-30 0 -53.5 -34.5t-32.5 -94.5h-126q24 137 83 210.5t144 73.5q32 0 62 -13.5t64 -43.5l47 -43q17 -15 32 -23t29 -8q34 0 57.5 33.5t32.5 95.5h126q-24 -136 -82.5 -210
t-142.5 -74q-31 0 -58 11.5t-67 45.5z" />
    <glyph glyph-name="odieresis" unicode="&#xf6;" horiz-adv-x="1266" 
d="M691 891q-125 0 -206 -126t-81 -321q0 -106 43.5 -161.5t127.5 -55.5q125 0 206 126.5t81 322.5q0 105 -43.5 160t-127.5 55zM717 1147q225 0 354 -127t129 -346q0 -127 -40.5 -246.5t-118.5 -218.5q-91 -118 -216.5 -178t-279.5 -60q-222 0 -350 127t-128 346
q0 126 41 246.5t119 220.5q90 116 214.5 176t275.5 60zM496 1585h214l-44 -246h-212zM854 1585h212l-44 -246h-212z" />
    <glyph glyph-name="divide" unicode="&#xf7;" 
d="M634 395h277v-309h-277v309zM634 1198h277v-309h-277v309zM195 760h1154v-236h-1154v236z" />
    <glyph glyph-name="oslash" unicode="&#xf8;" horiz-adv-x="1266" 
d="M814 842q-20 24 -51 36.5t-72 12.5q-126 0 -202 -119.5t-85 -333.5zM137 174q-35 59 -52.5 127.5t-17.5 144.5q0 126 40.5 245.5t119.5 219.5q90 117 214.5 176.5t279.5 59.5q93 0 170.5 -23t138.5 -69l173 168l88 -111l-165 -162q37 -59 55.5 -128t18.5 -148
q0 -127 -40.5 -246.5t-118.5 -218.5q-91 -116 -217 -177t-279 -61q-98 0 -176.5 24.5t-139.5 74.5l-174 -172l-87 112zM448 283q23 -28 54 -42t73 -14q127 0 204 124t83 341z" />
    <glyph glyph-name="ugrave" unicode="&#xf9;" horiz-adv-x="1312" 
d="M125 436l118 684h323l-102 -583q-10 -57 -15.5 -97t-5.5 -63q0 -63 31.5 -98t89.5 -35q100 0 172 86t99 239l97 551h324l-196 -1120h-325l30 164q-83 -97 -174 -145t-191 -48q-138 0 -213.5 81t-75.5 229q0 35 3.5 74t10.5 81zM691 1638l188 -376h-177l-266 376h255z" />
    <glyph glyph-name="uacute" unicode="&#xfa;" horiz-adv-x="1312" 
d="M125 436l118 684h323l-102 -583q-10 -57 -15.5 -97t-5.5 -63q0 -63 31.5 -98t89.5 -35q100 0 172 86t99 239l97 551h324l-196 -1120h-325l30 164q-83 -97 -174 -145t-191 -48q-138 0 -213.5 81t-75.5 229q0 35 3.5 74t10.5 81zM925 1638h264l-395 -376h-181z" />
    <glyph glyph-name="ucircumflex" unicode="&#xfb;" horiz-adv-x="1312" 
d="M125 436l118 684h323l-102 -583q-10 -57 -15.5 -97t-5.5 -63q0 -63 31.5 -98t89.5 -35q100 0 172 86t99 239l97 551h324l-196 -1120h-325l30 164q-83 -97 -174 -145t-191 -48q-138 0 -213.5 81t-75.5 229q0 35 3.5 74t10.5 81zM685 1638h236l164 -376h-160l-140 225
l-217 -225h-178z" />
    <glyph glyph-name="udieresis" unicode="&#xfc;" horiz-adv-x="1312" 
d="M125 436l118 684h323l-102 -583q-10 -57 -15.5 -97t-5.5 -63q0 -63 31.5 -98t89.5 -35q100 0 172 86t99 239l97 551h324l-196 -1120h-325l30 164q-83 -97 -174 -145t-191 -48q-138 0 -213.5 81t-75.5 229q0 35 3.5 74t10.5 81zM517 1585h214l-44 -246h-212zM875 1585h212
l-44 -246h-212z" />
    <glyph glyph-name="yacute" unicode="&#xfd;" horiz-adv-x="1201" 
d="M122 1120h304l138 -776l358 776h344l-638 -1226q-107 -207 -198 -271.5t-235 -64.5h-195l33 235h102q79 0 123 29.5t78 103.5l29 60zM870 1638h264l-395 -376h-181z" />
    <glyph glyph-name="thorn" unicode="&#xfe;" horiz-adv-x="1319" 
d="M410 162l-104 -588h-324l346 1982h324l-105 -600q74 98 155 144.5t177 46.5q170 0 269 -120t99 -327q0 -129 -34.5 -251t-99.5 -222q-82 -126 -185 -191t-221 -65q-103 0 -175.5 46.5t-121.5 144.5zM748 887q-124 0 -203 -127.5t-79 -331.5q0 -92 44.5 -144.5
t123.5 -52.5q122 0 201 125.5t79 321.5q0 102 -42.5 155.5t-123.5 53.5z" />
    <glyph glyph-name="ydieresis" unicode="&#xff;" horiz-adv-x="1201" 
d="M122 1120h304l138 -776l358 776h344l-638 -1226q-107 -207 -198 -271.5t-235 -64.5h-195l33 235h102q79 0 123 29.5t78 103.5l29 60zM462 1585h214l-44 -246h-212zM820 1585h212l-44 -246h-212z" />
    <glyph glyph-name="Amacron" unicode="&#x100;" horiz-adv-x="1426" 
d="M905 272h-536l-133 -272h-356l760 1493h396l238 -1493h-330zM500 543h360l-81 575zM571 1871h567l-33 -188h-568z" />
    <glyph glyph-name="amacron" unicode="&#x101;" horiz-adv-x="1243" 
d="M607 504q-121 0 -182.5 -41.5t-61.5 -122.5q0 -61 36.5 -96t100.5 -35q98 0 165 66.5t89 187.5l7 41h-154zM1110 639l-113 -639h-322l27 166q-79 -100 -167.5 -147.5t-191.5 -47.5q-143 0 -227 82.5t-84 222.5q0 214 148.5 327.5t429.5 113.5h190l4 28q2 14 2.5 20
t0.5 11q0 66 -56 99.5t-167 33.5q-100 0 -193.5 -23t-180.5 -69l48 273q101 28 207 42.5t219 14.5q224 0 333 -85.5t109 -260.5q0 -34 -4 -74.5t-12 -87.5zM442 1562h567l-33 -188h-568z" />
    <glyph glyph-name="Abreve" unicode="&#x102;" horiz-adv-x="1426" 
d="M607 1916h127v-9q0 -65 39 -100t111 -35q73 0 119.5 35.5t72.5 108.5h136q-30 -143 -122.5 -220t-232.5 -77q-126 0 -189.5 62t-63.5 183q0 21 0.5 31.5t2.5 20.5zM905 272h-536l-133 -272h-356l760 1493h396l238 -1493h-330zM500 543h360l-81 575z" />
    <glyph glyph-name="abreve" unicode="&#x103;" horiz-adv-x="1243" 
d="M473 1581h127v-9q0 -65 39 -100t111 -35q73 0 119.5 35.5t72.5 108.5h136q-30 -143 -122.5 -220t-232.5 -77q-126 0 -189.5 62t-63.5 183q0 21 0.5 31.5t2.5 20.5zM607 504q-121 0 -182.5 -41.5t-61.5 -122.5q0 -61 36.5 -96t100.5 -35q98 0 165 66.5t89 187.5l7 41h-154
zM1110 639l-113 -639h-322l27 166q-79 -100 -167.5 -147.5t-191.5 -47.5q-143 0 -227 82.5t-84 222.5q0 214 148.5 327.5t429.5 113.5h190l4 28q2 14 2.5 20t0.5 11q0 66 -56 99.5t-167 33.5q-100 0 -193.5 -23t-180.5 -69l48 273q101 28 207 42.5t219 14.5q224 0 333 -85.5
t109 -260.5q0 -34 -4 -74.5t-12 -87.5z" />
    <glyph glyph-name="Aogonek" unicode="&#x104;" horiz-adv-x="1426" 
d="M951 0h128q-64 -74 -87.5 -114t-23.5 -68q0 -34 22.5 -53t62.5 -19q33 0 70 8t76 23l-26 -152q-52 -13 -92.5 -19.5t-75.5 -6.5q-95 0 -145 34.5t-50 100.5q0 65 33.5 128t107.5 138zM905 272h-536l-133 -272h-356l760 1493h396l238 -1493h-330zM500 543h360l-81 575z
" />
    <glyph glyph-name="aogonek" unicode="&#x105;" horiz-adv-x="1243" 
d="M676 0h128q-64 -74 -87.5 -114t-23.5 -68q0 -34 22.5 -53t62.5 -19q33 0 70 8t76 23l-26 -152q-52 -13 -92.5 -19.5t-75.5 -6.5q-95 0 -145 34.5t-50 100.5q0 65 33.5 128t107.5 138zM607 504q-121 0 -182.5 -41.5t-61.5 -122.5q0 -61 36.5 -96t100.5 -35q98 0 165 66.5
t89 187.5l7 41h-154zM1110 639l-113 -639h-322l27 166q-79 -100 -167.5 -147.5t-191.5 -47.5q-143 0 -227 82.5t-84 222.5q0 214 148.5 327.5t429.5 113.5h190l4 28q2 14 2.5 20t0.5 11q0 66 -56 99.5t-167 33.5q-100 0 -193.5 -23t-180.5 -69l48 273q101 28 207 42.5
t219 14.5q224 0 333 -85.5t109 -260.5q0 -34 -4 -74.5t-12 -87.5z" />
    <glyph glyph-name="Cacute" unicode="&#x106;" horiz-adv-x="1352" 
d="M1117 70q-124 -49 -238.5 -74t-216.5 -25q-271 0 -433 165t-162 437q0 179 51 337.5t151 289.5q118 154 284 237t358 83q104 0 209.5 -27.5t214.5 -83.5l-56 -309q-87 73 -174 107t-187 34q-208 0 -348.5 -178t-140.5 -445q0 -172 86.5 -270t238.5 -98q91 0 193 36.5
t229 114.5zM1056 1899h252l-287 -264h-186z" />
    <glyph glyph-name="cacute" unicode="&#x107;" horiz-adv-x="1092" 
d="M1071 1085l-51 -292q-65 48 -128 73t-123 25q-158 0 -258 -117.5t-100 -300.5q0 -117 62.5 -181.5t175.5 -64.5q75 0 148 25t139 74l-50 -293q-80 -31 -161 -46.5t-163 -15.5q-237 0 -365.5 118.5t-128.5 336.5q0 137 47.5 266t135.5 232q98 113 225 168t293 55
q76 0 151.5 -15.5t150.5 -46.5zM925 1638h264l-395 -376h-181z" />
    <glyph glyph-name="Ccircumflex" unicode="&#x108;" horiz-adv-x="1352" 
d="M844 1899h313l137 -264h-153l-148 161l-208 -161h-161zM1117 70q-124 -49 -238.5 -74t-216.5 -25q-271 0 -433 165t-162 437q0 179 51 337.5t151 289.5q118 154 284 237t358 83q104 0 209.5 -27.5t214.5 -83.5l-56 -309q-87 73 -174 107t-187 34q-208 0 -348.5 -178
t-140.5 -445q0 -172 86.5 -270t238.5 -98q91 0 193 36.5t229 114.5z" />
    <glyph glyph-name="ccircumflex" unicode="&#x109;" horiz-adv-x="1092" 
d="M685 1638h236l164 -376h-160l-140 225l-217 -225h-178zM1071 1085l-51 -292q-65 48 -128 73t-123 25q-158 0 -258 -117.5t-100 -300.5q0 -117 62.5 -181.5t175.5 -64.5q75 0 148 25t139 74l-50 -293q-80 -31 -161 -46.5t-163 -15.5q-237 0 -365.5 118.5t-128.5 336.5
q0 137 47.5 266t135.5 232q98 113 225 168t293 55q76 0 151.5 -15.5t150.5 -46.5z" />
    <glyph glyph-name="Cdotaccent" unicode="&#x10a;" horiz-adv-x="1352" 
d="M890 1899h247l-42 -246h-247zM1117 70q-124 -49 -238.5 -74t-216.5 -25q-271 0 -433 165t-162 437q0 179 51 337.5t151 289.5q118 154 284 237t358 83q104 0 209.5 -27.5t214.5 -83.5l-56 -309q-87 73 -174 107t-187 34q-208 0 -348.5 -178t-140.5 -445q0 -172 86.5 -270
t238.5 -98q91 0 193 36.5t229 114.5z" />
    <glyph glyph-name="cdotaccent" unicode="&#x10b;" horiz-adv-x="1092" 
d="M645 1555h322l-50 -292h-322zM1071 1085l-51 -292q-65 48 -128 73t-123 25q-158 0 -258 -117.5t-100 -300.5q0 -117 62.5 -181.5t175.5 -64.5q75 0 148 25t139 74l-50 -293q-80 -31 -161 -46.5t-163 -15.5q-237 0 -365.5 118.5t-128.5 336.5q0 137 47.5 266t135.5 232
q98 113 225 168t293 55q76 0 151.5 -15.5t150.5 -46.5z" />
    <glyph glyph-name="Ccaron" unicode="&#x10c;" horiz-adv-x="1352" 
d="M1117 70q-124 -49 -238.5 -74t-216.5 -25q-271 0 -433 165t-162 437q0 179 51 337.5t151 289.5q118 154 284 237t358 83q104 0 209.5 -27.5t214.5 -83.5l-56 -309q-87 73 -174 107t-187 34q-208 0 -348.5 -178t-140.5 -445q0 -172 86.5 -270t238.5 -98q91 0 193 36.5
t229 114.5zM1130 1635h-314l-123 264h155l133 -162l208 162h160z" />
    <glyph glyph-name="ccaron" unicode="&#x10d;" horiz-adv-x="1092" 
d="M1071 1085l-51 -292q-65 48 -128 73t-123 25q-158 0 -258 -117.5t-100 -300.5q0 -117 62.5 -181.5t175.5 -64.5q75 0 148 25t139 74l-50 -293q-80 -31 -161 -46.5t-163 -15.5q-237 0 -365.5 118.5t-128.5 336.5q0 137 47.5 266t135.5 232q98 113 225 168t293 55
q76 0 151.5 -15.5t150.5 -46.5zM872 1262h-234l-165 376h158l141 -227l219 227h177z" />
    <glyph glyph-name="Dcaron" unicode="&#x10e;" horiz-adv-x="1530" 
d="M1044 1635h-314l-123 264h155l133 -162l208 162h160zM598 1202l-162 -911h125q242 0 383 151t141 408q0 174 -92 263t-274 89h-121zM301 1493h364q261 0 391.5 -34.5t217.5 -115.5t131 -196.5t44 -261.5q0 -203 -75 -382.5t-211 -301.5q-119 -109 -276 -155t-483 -46
h-365z" />
    <glyph glyph-name="dcaron" unicode="&#x10f;" horiz-adv-x="1319" 
d="M566 231q124 0 202 127t78 332q0 93 -43.5 145t-122.5 52q-122 0 -201 -125.5t-79 -321.5q0 -102 42.5 -155.5t123.5 -53.5zM905 956l105 600h325l-273 -1556h-325l30 162q-74 -98 -155 -144.5t-177 -46.5q-170 0 -269 120t-99 327q0 129 34.5 251t99.5 222
q82 126 185 191t221 65q103 0 175.5 -46.5t122.5 -144.5zM1483 1554h263l-193 -376h-181z" />
    <glyph glyph-name="Dcroat" unicode="&#x110;" horiz-adv-x="1557" 
d="M626 1202l-51 -299h221l-45 -260h-222l-63 -352h124q243 0 385 151.5t142 407.5q0 174 -93 263t-276 89h-122zM330 1493h365q261 0 391.5 -34.5t216.5 -115.5q87 -81 132 -197t45 -261q0 -201 -76 -381t-212 -303q-118 -109 -275 -155t-484 -46h-365l113 643h-185l46 260
h185z" />
    <glyph glyph-name="dcroat" unicode="&#x111;" horiz-adv-x="1319" 
d="M566 231q124 0 202 127t78 332q0 93 -43.5 145t-122.5 52q-122 0 -201 -125.5t-79 -321.5q0 -102 42.5 -155.5t123.5 -53.5zM905 956l52 295h-356l33 189h356l20 116h325l-21 -116h192l-34 -189h-191l-219 -1251h-325l30 162q-74 -98 -155 -144.5t-177 -46.5
q-170 0 -269 120t-99 327q0 129 34.5 251t99.5 222q82 126 185 191t221 65q103 0 175.5 -46.5t122.5 -144.5z" />
    <glyph glyph-name="Emacron" unicode="&#x112;" horiz-adv-x="1259" 
d="M301 1493h934l-51 -291h-588l-49 -278h554l-53 -291h-552l-60 -342h607l-49 -291h-955zM495 1871h567l-33 -188h-568z" />
    <glyph glyph-name="emacron" unicode="&#x113;" horiz-adv-x="1250" 
d="M1159 518l-11 -57h-754q0 -6 -1 -17.5t-1 -17.5q0 -109 59 -163t177 -54q102 0 215 34t237 101l-50 -278q-117 -48 -233.5 -71.5t-237.5 -23.5q-236 0 -364 121t-128 342q0 128 40.5 248.5t119.5 220.5q93 120 222 182t286 62q205 0 325 -121t120 -326q0 -40 -5 -84.5
t-16 -97.5zM855 682q3 13 4 26.5t1 26.5q0 80 -43 127t-117 47q-94 0 -160.5 -57.5t-101.5 -169.5h417zM496 1563h567l-33 -188h-568z" />
    <glyph glyph-name="Ebreve" unicode="&#x114;" horiz-adv-x="1259" 
d="M555 1899h129q9 -60 45.5 -87.5t107.5 -27.5q65 0 112.5 30.5t68.5 84.5h137q-35 -129 -124 -196.5t-222 -67.5q-123 0 -188.5 67.5t-65.5 192.5v4zM301 1493h934l-51 -291h-588l-49 -278h554l-53 -291h-552l-60 -342h607l-49 -291h-955z" />
    <glyph glyph-name="ebreve" unicode="&#x115;" horiz-adv-x="1250" 
d="M513 1606h127v-9q0 -65 39 -100t111 -35q73 0 119.5 35.5t72.5 108.5h136q-30 -143 -122.5 -220t-232.5 -77q-126 0 -189.5 62t-63.5 183q0 21 0.5 31.5t2.5 20.5zM1159 518l-11 -57h-754q0 -6 -1 -17.5t-1 -17.5q0 -109 59 -163t177 -54q102 0 215 34t237 101l-50 -278
q-117 -48 -233.5 -71.5t-237.5 -23.5q-236 0 -364 121t-128 342q0 128 40.5 248.5t119.5 220.5q93 120 222 182t286 62q205 0 325 -121t120 -326q0 -40 -5 -84.5t-16 -97.5zM855 682q3 13 4 26.5t1 26.5q0 80 -43 127t-117 47q-94 0 -160.5 -57.5t-101.5 -169.5h417z" />
    <glyph glyph-name="Edotaccent" unicode="&#x116;" horiz-adv-x="1259" 
d="M728 1899h247l-42 -246h-247zM301 1493h934l-51 -291h-588l-49 -278h554l-53 -291h-552l-60 -342h607l-49 -291h-955z" />
    <glyph glyph-name="edotaccent" unicode="&#x117;" horiz-adv-x="1250" 
d="M654 1555h322l-50 -292h-322zM1159 518l-11 -57h-754q0 -6 -1 -17.5t-1 -17.5q0 -109 59 -163t177 -54q102 0 215 34t237 101l-50 -278q-117 -48 -233.5 -71.5t-237.5 -23.5q-236 0 -364 121t-128 342q0 128 40.5 248.5t119.5 220.5q93 120 222 182t286 62
q205 0 325 -121t120 -326q0 -40 -5 -84.5t-16 -97.5zM855 682q3 13 4 26.5t1 26.5q0 80 -43 127t-117 47q-94 0 -160.5 -57.5t-101.5 -169.5h417z" />
    <glyph glyph-name="Eogonek" unicode="&#x118;" horiz-adv-x="1259" 
d="M748 0h128q-64 -74 -87.5 -114t-23.5 -68q0 -34 22.5 -53t62.5 -19q33 0 70 8t76 23l-26 -152q-52 -13 -92.5 -19.5t-75.5 -6.5q-95 0 -145 34.5t-50 100.5q0 65 33.5 128t107.5 138zM301 1493h934l-51 -291h-588l-49 -278h554l-53 -291h-552l-60 -342h607l-49 -291h-955
z" />
    <glyph glyph-name="eogonek" unicode="&#x119;" horiz-adv-x="1250" 
d="M676 0h128q-64 -74 -87.5 -114t-23.5 -68q0 -34 22.5 -53t62.5 -19q33 0 70 8t76 23l-26 -152q-52 -13 -92.5 -19.5t-75.5 -6.5q-95 0 -145 34.5t-50 100.5q0 65 33.5 128t107.5 138zM1159 518l-11 -57h-754q0 -6 -1 -17.5t-1 -17.5q0 -109 59 -163t177 -54q102 0 215 34
t237 101l-50 -278q-117 -48 -233.5 -71.5t-237.5 -23.5q-236 0 -364 121t-128 342q0 128 40.5 248.5t119.5 220.5q93 120 222 182t286 62q205 0 325 -121t120 -326q0 -40 -5 -84.5t-16 -97.5zM855 682q3 13 4 26.5t1 26.5q0 80 -43 127t-117 47q-94 0 -160.5 -57.5
t-101.5 -169.5h417z" />
    <glyph glyph-name="Ecaron" unicode="&#x11a;" horiz-adv-x="1259" 
d="M301 1493h934l-51 -291h-588l-49 -278h554l-53 -291h-552l-60 -342h607l-49 -291h-955zM1001 1635h-314l-123 264h155l133 -162l208 162h160z" />
    <glyph glyph-name="ecaron" unicode="&#x11b;" horiz-adv-x="1250" 
d="M1159 518l-11 -57h-754q0 -6 -1 -17.5t-1 -17.5q0 -109 59 -163t177 -54q102 0 215 34t237 101l-50 -278q-117 -48 -233.5 -71.5t-237.5 -23.5q-236 0 -364 121t-128 342q0 128 40.5 248.5t119.5 220.5q93 120 222 182t286 62q205 0 325 -121t120 -326q0 -40 -5 -84.5
t-16 -97.5zM855 682q3 13 4 26.5t1 26.5q0 80 -43 127t-117 47q-94 0 -160.5 -57.5t-101.5 -169.5h417zM872 1262h-234l-165 376h158l141 -227l219 227h177z" />
    <glyph glyph-name="Gcircumflex" unicode="&#x11c;" horiz-adv-x="1512" 
d="M856 1899h313l137 -264h-153l-148 161l-208 -161h-161zM1256 111q-132 -71 -273 -105.5t-303 -34.5q-286 0 -449.5 161.5t-163.5 440.5q0 181 51 339.5t153 289.5q124 160 293 239t386 79q120 0 242.5 -28t241.5 -83l-53 -309q-110 71 -215 106t-211 35q-232 0 -378 -172
t-146 -442q0 -179 85 -278t240 -99q50 0 100.5 7.5t101.5 23.5l52 290h-212l44 258h539z" />
    <glyph glyph-name="gcircumflex" unicode="&#x11d;" horiz-adv-x="1319" 
d="M689 1638h236l164 -376h-160l-140 225l-217 -225h-178zM770 190q-77 -98 -157 -144t-175 -46q-171 0 -270.5 122.5t-99.5 334.5q0 113 35 226.5t99 213.5q80 121 182.5 184.5t220.5 63.5q106 0 178.5 -46t121.5 -145l27 166h325l-170 -973q-52 -301 -223 -445t-475 -144
q-94 0 -180.5 16t-171.5 49l48 279q76 -54 152.5 -80.5t156.5 -26.5q160 0 246 76t116 242zM680 887q-118 0 -197 -119t-79 -299q0 -102 42.5 -155.5t123.5 -53.5q118 0 197 118.5t79 295.5q0 104 -42.5 158.5t-123.5 54.5z" />
    <glyph glyph-name="Gbreve" unicode="&#x11e;" horiz-adv-x="1512" 
d="M1256 111q-132 -71 -273 -105.5t-303 -34.5q-286 0 -449.5 161.5t-163.5 440.5q0 181 51 339.5t153 289.5q124 160 293 239t386 79q120 0 242.5 -28t241.5 -83l-53 -309q-110 71 -215 106t-211 35q-232 0 -378 -172t-146 -442q0 -179 85 -278t240 -99q50 0 100.5 7.5
t101.5 23.5l52 290h-212l44 258h539zM649 1899h129q9 -60 45.5 -87.5t107.5 -27.5q65 0 112.5 30.5t68.5 84.5h137q-35 -129 -124 -196.5t-222 -67.5q-123 0 -188.5 67.5t-65.5 192.5v4z" />
    <glyph glyph-name="gbreve" unicode="&#x11f;" horiz-adv-x="1319" 
d="M770 190q-77 -98 -157 -144t-175 -46q-171 0 -270.5 122.5t-99.5 334.5q0 113 35 226.5t99 213.5q80 121 182.5 184.5t220.5 63.5q106 0 178.5 -46t121.5 -145l27 166h325l-170 -973q-52 -301 -223 -445t-475 -144q-94 0 -180.5 16t-171.5 49l48 279q76 -54 152.5 -80.5
t156.5 -26.5q160 0 246 76t116 242zM680 887q-118 0 -197 -119t-79 -299q0 -102 42.5 -155.5t123.5 -53.5q118 0 197 118.5t79 295.5q0 104 -42.5 158.5t-123.5 54.5zM508 1606h127v-9q0 -65 39 -100t111 -35q73 0 119.5 35.5t72.5 108.5h136q-30 -143 -122.5 -220
t-232.5 -77q-126 0 -189.5 62t-63.5 183q0 21 0.5 31.5t2.5 20.5z" />
    <glyph glyph-name="Gdotaccent" unicode="&#x120;" horiz-adv-x="1512" 
d="M890 1899h247l-42 -246h-247zM1256 111q-132 -71 -273 -105.5t-303 -34.5q-286 0 -449.5 161.5t-163.5 440.5q0 181 51 339.5t153 289.5q124 160 293 239t386 79q120 0 242.5 -28t241.5 -83l-53 -309q-110 71 -215 106t-211 35q-232 0 -378 -172t-146 -442
q0 -179 85 -278t240 -99q50 0 100.5 7.5t101.5 23.5l52 290h-212l44 258h539z" />
    <glyph glyph-name="gdotaccent" unicode="&#x121;" horiz-adv-x="1319" 
d="M649 1555h322l-50 -292h-322zM770 190q-77 -98 -157 -144t-175 -46q-171 0 -270.5 122.5t-99.5 334.5q0 113 35 226.5t99 213.5q80 121 182.5 184.5t220.5 63.5q106 0 178.5 -46t121.5 -145l27 166h325l-170 -973q-52 -301 -223 -445t-475 -144q-94 0 -180.5 16
t-171.5 49l48 279q76 -54 152.5 -80.5t156.5 -26.5q160 0 246 76t116 242zM680 887q-118 0 -197 -119t-79 -299q0 -102 42.5 -155.5t123.5 -53.5q118 0 197 118.5t79 295.5q0 104 -42.5 158.5t-123.5 54.5z" />
    <glyph glyph-name="Gcommaaccent" unicode="&#x122;" horiz-adv-x="1512" 
d="M552 -160h292l-252 -298h-173zM1256 111q-132 -71 -273 -105.5t-303 -34.5q-286 0 -449.5 161.5t-163.5 440.5q0 181 51 339.5t153 289.5q124 160 293 239t386 79q120 0 242.5 -28t241.5 -83l-53 -309q-110 71 -215 106t-211 35q-232 0 -378 -172t-146 -442
q0 -179 85 -278t240 -99q50 0 100.5 7.5t101.5 23.5l52 290h-212l44 258h539z" />
    <glyph glyph-name="gcommaaccent" unicode="&#x123;" horiz-adv-x="1319" 
d="M898 1269h-292l252 298h173zM770 190q-77 -98 -157 -144t-175 -46q-171 0 -270.5 122.5t-99.5 334.5q0 113 35 226.5t99 213.5q80 121 182.5 184.5t220.5 63.5q106 0 178.5 -46t121.5 -145l27 166h325l-170 -973q-52 -301 -223 -445t-475 -144q-94 0 -180.5 16t-171.5 49
l48 279q76 -54 152.5 -80.5t156.5 -26.5q160 0 246 76t116 242zM680 887q-118 0 -197 -119t-79 -299q0 -102 42.5 -155.5t123.5 -53.5q118 0 197 118.5t79 295.5q0 104 -42.5 158.5t-123.5 54.5z" />
    <glyph glyph-name="Hcircumflex" unicode="&#x124;" horiz-adv-x="1542" 
d="M814 1899h313l137 -264h-153l-148 161l-208 -161h-161zM301 1493h346l-100 -569h511l99 569h347l-262 -1493h-346l110 633h-510l-111 -633h-346z" />
    <glyph glyph-name="hcircumflex" unicode="&#x125;" horiz-adv-x="1312" 
d="M384 1899h313l137 -264h-153l-148 161l-208 -161h-161zM1189 682l-120 -682h-323l102 584q11 57 16.5 96.5t5.5 62.5q0 64 -32 99t-90 35q-100 0 -171.5 -86.5t-99.5 -239.5l-97 -551h-323l271 1556h324l-105 -600q89 97 179 144t188 47q140 0 215.5 -81t75.5 -228
q0 -32 -4 -71t-12 -85z" />
    <glyph glyph-name="Hbar" unicode="&#x126;" horiz-adv-x="1794" 
d="M426 1493h346l-32 -187h511l32 187h347l-32 -187h126l-35 -194h-126l-194 -1112h-347l111 633h-511l-111 -633h-346l194 1112h-126l34 194h126zM706 1112l-33 -188h511l33 188h-511z" />
    <glyph glyph-name="hbar" unicode="&#x127;" horiz-adv-x="1456" 
d="M1290 682l-119 -682h-324l91 520q25 142 29 202q1 15 1 28q0 34 -7 53q-13 35 -42 55q-28 19 -70 19q-101 0 -173.5 -86.5t-99.5 -239.5l-96 -551h-322l219 1255h-144l33 194h144l19 107h323l-19 -107h326l-33 -194h-327l-52 -299q90 98 180 144q90 47 189 47
q174 0 244 -119q45 -76 45 -196q0 -68 -15 -150z" />
    <glyph glyph-name="Itilde" unicode="&#x128;" horiz-adv-x="685" 
d="M490 1686l-45 37q-21 19 -36 25.5t-31 6.5q-32 0 -55.5 -32t-33.5 -88h-123q23 128 82 197t144 69q34 0 63 -12t61 -39l47 -41q15 -13 31 -20t31 -7q35 0 58.5 30.5t32.5 88.5h125q-24 -128 -83 -197t-142 -69q-35 0 -63.5 11t-62.5 40zM301 1493h346l-262 -1493h-346z
" />
    <glyph glyph-name="itilde" unicode="&#x129;" horiz-adv-x="631" 
d="M445 1364l-45 37q-2 2 -9 7q-34 30 -61 30q-30 0 -53.5 -34.5t-32.5 -94.5h-126q24 137 83 210.5t144 73.5q32 0 62 -13.5t64 -43.5l47 -43q17 -15 32 -23t29 -8q34 0 57.5 33.5t32.5 95.5h126q-24 -136 -82.5 -210t-142.5 -74q-31 0 -58 11.5t-67 45.5zM253 1120h324
l-197 -1120h-323z" />
    <glyph glyph-name="Imacron" unicode="&#x12a;" horiz-adv-x="685" 
d="M301 1493h346l-262 -1493h-346zM200 1871h567l-33 -188h-568z" />
    <glyph glyph-name="imacron" unicode="&#x12b;" horiz-adv-x="631" 
d="M253 1120h324l-197 -1120h-323zM174 1563h567l-33 -188h-568z" />
    <glyph glyph-name="Ibreve" unicode="&#x12c;" horiz-adv-x="685" 
d="M234 1899h129q9 -60 45.5 -87.5t107.5 -27.5q65 0 112.5 30.5t68.5 84.5h137q-35 -129 -124 -196.5t-222 -67.5q-123 0 -188.5 67.5t-65.5 192.5v4zM301 1493h346l-262 -1493h-346z" />
    <glyph glyph-name="ibreve" unicode="&#x12d;" horiz-adv-x="631" 
d="M182 1606h127v-9q0 -65 39 -100t111 -35q73 0 119.5 35.5t72.5 108.5h136q-30 -143 -122.5 -220t-232.5 -77q-126 0 -189.5 62t-63.5 183q0 21 0.5 31.5t2.5 20.5zM253 1120h324l-197 -1120h-323z" />
    <glyph glyph-name="Iogonek" unicode="&#x12e;" horiz-adv-x="685" 
d="M301 1493h346l-262 -1493h-346zM257 0h128q-64 -74 -87.5 -114t-23.5 -68q0 -34 22.5 -53t62.5 -19q33 0 70 8t76 23l-26 -152q-52 -13 -92.5 -19.5t-75.5 -6.5q-95 0 -145 34.5t-50 100.5q0 65 33.5 128t107.5 138z" />
    <glyph glyph-name="iogonek" unicode="&#x12f;" horiz-adv-x="631" 
d="M252 0h128q-64 -74 -87.5 -114t-23.5 -68q0 -34 22.5 -53t62.5 -19q33 0 70 8t76 23l-26 -152q-52 -13 -92.5 -19.5t-75.5 -6.5q-95 0 -145 34.5t-50 100.5q0 65 33.5 128t107.5 138zM253 1120h324l-197 -1120h-323zM328 1556h324l-51 -292h-325z" />
    <glyph glyph-name="Idotaccent" unicode="&#x130;" horiz-adv-x="685" 
d="M301 1493h346l-262 -1493h-346zM407 1899h247l-42 -246h-247z" />
    <glyph glyph-name="dotlessi" unicode="&#x131;" horiz-adv-x="631" 
d="M253 1120h324l-197 -1120h-323z" />
    <glyph glyph-name="IJ" unicode="&#x132;" horiz-adv-x="1371" 
d="M301 1493h346l-262 -1493h-346zM986 1493h346l-236 -1348q-52 -292 -204.5 -423.5t-442.5 -131.5h-70l51 291h54q107 0 175 67.5t91 196.5z" />
    <glyph glyph-name="ij" unicode="&#x133;" horiz-adv-x="1263" 
d="M253 1120h324l-197 -1120h-323zM328 1556h324l-51 -292h-325zM885 1120h324l-194 -1100q-41 -235 -154 -348.5t-305 -113.5h-160l41 235h56q91 0 133 45.5t65 181.5zM960 1556h324l-51 -292h-325z" />
    <glyph glyph-name="Jcircumflex" unicode="&#x134;" horiz-adv-x="685" 
d="M385 1899h313l137 -264h-153l-148 161l-208 -161h-161zM301 1493h346l-236 -1348q-52 -292 -204.5 -423.5t-442.5 -131.5h-70l51 291h54q107 0 175 67.5t91 196.5z" />
    <glyph glyph-name="jcircumflex" unicode="&#x135;" horiz-adv-x="631" 
d="M388 1638h236l164 -376h-160l-140 225l-217 -225h-178zM253 1120h324l-194 -1100q-41 -235 -154 -348.5t-305 -113.5h-160l41 235h56q91 0 133 45.5t65 181.5z" />
    <glyph glyph-name="Kcommaaccent" unicode="&#x136;" horiz-adv-x="1428" 
d="M567 -131h292l-252 -298h-173zM301 1493h346l-94 -537l571 537h419l-771 -725l581 -768h-407l-452 623l-109 -623h-346z" />
    <glyph glyph-name="kcommaaccent" unicode="&#x137;" horiz-adv-x="1225" 
d="M479 -131h292l-252 -298h-173zM328 1556h324l-147 -843l435 407h379l-585 -518l425 -602h-368l-327 483l-84 -483h-323z" />
    <glyph glyph-name="kgreenlandic" unicode="&#x138;" horiz-adv-x="1225" 
d="M253 1120h322l-72 -411l443 411h374l-582 -514l425 -606h-391l-311 467l-82 -467h-322z" />
    <glyph glyph-name="Lacute" unicode="&#x139;" horiz-adv-x="1174" 
d="M651 1900h252l-287 -264h-186zM301 1493h346l-211 -1202h607l-49 -291h-955z" />
    <glyph glyph-name="lacute" unicode="&#x13a;" horiz-adv-x="631" 
d="M629 1900h252l-287 -264h-186zM328 1556h324l-272 -1556h-323z" />
    <glyph glyph-name="Lcommaaccent" unicode="&#x13b;" horiz-adv-x="1174" 
d="M387 -131h292l-252 -298h-173zM301 1493h346l-211 -1202h607l-49 -291h-955z" />
    <glyph glyph-name="lcommaaccent" unicode="&#x13c;" horiz-adv-x="631" 
d="M90 -131h292l-252 -298h-173zM328 1556h324l-272 -1556h-323z" />
    <glyph glyph-name="Lcaron" unicode="&#x13d;" horiz-adv-x="1174" 
d="M885 1492h263l-193 -376h-181zM301 1493h346l-211 -1202h607l-49 -291h-955z" />
    <glyph glyph-name="lcaron" unicode="&#x13e;" horiz-adv-x="631" 
d="M809 1556h263l-193 -376h-181zM328 1556h324l-272 -1556h-323z" />
    <glyph glyph-name="Ldot" unicode="&#x13f;" horiz-adv-x="1174" 
d="M826 1091h324l-68 -387h-324zM301 1493h346l-211 -1202h607l-49 -291h-955z" />
    <glyph glyph-name="ldot" unicode="&#x140;" horiz-adv-x="631" 
d="M698 1097h324l-68 -387h-324zM328 1556h324l-272 -1556h-323z" />
    <glyph glyph-name="Lslash" unicode="&#x141;" horiz-adv-x="1216" 
d="M369 1493h347l-91 -516l306 151l94 -210l-450 -220l-70 -407h607l-50 -291h-955l88 502l-144 -74l-93 215l285 135z" />
    <glyph glyph-name="lslash" unicode="&#x142;" horiz-adv-x="691" 
d="M367 1556h324l-92 -516l152 78l90 -203l-288 -145l-135 -770h-324l105 598l-125 -68l-87 203l260 135z" />
    <glyph glyph-name="Nacute" unicode="&#x143;" horiz-adv-x="1542" 
d="M956 1900h252l-287 -264h-186zM301 1493h387l307 -1034l181 1034h328l-262 -1493h-387l-308 1034l-180 -1034h-328z" />
    <glyph glyph-name="nacute" unicode="&#x144;" horiz-adv-x="1312" 
d="M874 1645h264l-395 -376h-181zM1189 682l-120 -682h-323l102 584q11 57 16.5 96.5t5.5 62.5q0 64 -32 99t-90 35q-100 0 -171.5 -86.5t-99.5 -239.5l-97 -551h-323l196 1120h324l-30 -164q89 97 179 144t188 47q140 0 215.5 -81t75.5 -228q0 -32 -4 -71t-12 -85z" />
    <glyph glyph-name="Ncommaaccent" unicode="&#x145;" horiz-adv-x="1542" 
d="M512 -131h292l-252 -298h-173zM301 1493h387l307 -1034l181 1034h328l-262 -1493h-387l-308 1034l-180 -1034h-328z" />
    <glyph glyph-name="ncommaaccent" unicode="&#x146;" horiz-adv-x="1312" 
d="M434 -131h292l-252 -298h-173zM1189 682l-120 -682h-323l102 584q11 57 16.5 96.5t5.5 62.5q0 64 -32 99t-90 35q-100 0 -171.5 -86.5t-99.5 -239.5l-97 -551h-323l196 1120h324l-30 -164q89 97 179 144t188 47q140 0 215.5 -81t75.5 -228q0 -32 -4 -71t-12 -85z" />
    <glyph glyph-name="Ncaron" unicode="&#x147;" horiz-adv-x="1542" 
d="M301 1493h387l307 -1034l181 1034h328l-262 -1493h-387l-308 1034l-180 -1034h-328zM1130 1635h-314l-123 264h155l133 -162l208 162h160z" />
    <glyph glyph-name="ncaron" unicode="&#x148;" horiz-adv-x="1312" 
d="M1189 682l-120 -682h-323l102 584q11 57 16.5 96.5t5.5 62.5q0 64 -32 99t-90 35q-100 0 -171.5 -86.5t-99.5 -239.5l-97 -551h-323l196 1120h324l-30 -164q89 97 179 144t188 47q140 0 215.5 -81t75.5 -228q0 -32 -4 -71t-12 -85zM872 1262h-234l-165 376h158l141 -227
l219 227h177z" />
    <glyph glyph-name="napostrophe" unicode="&#x149;" horiz-adv-x="1811" 
d="M314 1493h306l-50 -285l-266 -352h-192l152 352zM1663 682l-120 -682h-323l102 584q11 57 16.5 96.5t5.5 62.5q0 64 -32 99t-90 35q-100 0 -171.5 -86.5t-99.5 -239.5l-97 -551h-323l196 1120h324l-30 -164q89 97 179 144t188 47q140 0 215.5 -81t75.5 -228q0 -32 -4 -71
t-12 -85z" />
    <glyph glyph-name="Eng" unicode="&#x14a;" horiz-adv-x="1542" 
d="M1275 145q-52 -297 -192 -417q-160 -138 -436 -138h-71l51 291h54q108 0 177.5 69t91.5 195l95 546q38 217 38 281.5t-17 101t-63 62.5t-109 26q-141 0 -241.5 -115t-135.5 -317l-128 -730h-331l261 1493h334l-39 -227q123 135 238 194.5t246 59.5q204 0 283 -158
q47 -95 47 -216.5t-21 -242.5z" />
    <glyph glyph-name="eng" unicode="&#x14b;" horiz-adv-x="1312" 
d="M1226 682l-116 -662q-39 -223 -159 -344q-118 -118 -302 -118h-253l40 235h150q92 0 134 46t66 181l88 502q25 145 30 200v26q0 36 -7 55q-13 35 -42 55q-29 19 -70 19q-101 0 -174 -87q-73 -86 -99 -239l-97 -551h-322l196 1120h322l-29 -164q90 98 180 144
q90 47 189 47q175 0 245 -119q44 -76 44 -195q0 -68 -14 -151z" />
    <glyph glyph-name="Omacron" unicode="&#x14c;" horiz-adv-x="1566" 
d="M1134 881q0 176 -71.5 268t-207.5 92q-180 0 -302 -179.5t-122 -449.5q0 -172 71 -267t198 -95q104 0 184.5 48.5t137.5 143.5q54 91 83 205t29 234zM905 1520q269 0 432 -165.5t163 -432.5q0 -182 -50 -344t-145 -291q-117 -159 -277 -237.5t-368 -78.5
q-268 0 -430.5 165t-162.5 433q0 183 49.5 345t145.5 292q115 158 275 236t368 78zM641 1871h567l-33 -188h-568z" />
    <glyph glyph-name="omacron" unicode="&#x14d;" horiz-adv-x="1266" 
d="M691 891q-125 0 -206 -126t-81 -321q0 -106 43.5 -161.5t127.5 -55.5q125 0 206 126.5t81 322.5q0 105 -43.5 160t-127.5 55zM717 1147q225 0 354 -127t129 -346q0 -127 -40.5 -246.5t-118.5 -218.5q-91 -118 -216.5 -178t-279.5 -60q-222 0 -350 127t-128 346
q0 126 41 246.5t119 220.5q90 116 214.5 176t275.5 60zM493 1563h567l-33 -188h-568z" />
    <glyph glyph-name="Obreve" unicode="&#x14e;" horiz-adv-x="1566" 
d="M700 1899h129q9 -60 45.5 -87.5t107.5 -27.5q65 0 112.5 30.5t68.5 84.5h137q-35 -129 -124 -196.5t-222 -67.5q-123 0 -188.5 67.5t-65.5 192.5v4zM1134 881q0 176 -71.5 268t-207.5 92q-180 0 -302 -179.5t-122 -449.5q0 -172 71 -267t198 -95q104 0 184.5 48.5
t137.5 143.5q54 91 83 205t29 234zM905 1520q269 0 432 -165.5t163 -432.5q0 -182 -50 -344t-145 -291q-117 -159 -277 -237.5t-368 -78.5q-268 0 -430.5 165t-162.5 433q0 183 49.5 345t145.5 292q115 158 275 236t368 78z" />
    <glyph glyph-name="obreve" unicode="&#x14f;" horiz-adv-x="1266" 
d="M483 1606h127v-9q0 -65 39 -100t111 -35q73 0 119.5 35.5t72.5 108.5h136q-30 -143 -122.5 -220t-232.5 -77q-126 0 -189.5 62t-63.5 183q0 21 0.5 31.5t2.5 20.5zM691 891q-125 0 -206 -126t-81 -321q0 -106 43.5 -161.5t127.5 -55.5q125 0 206 126.5t81 322.5
q0 105 -43.5 160t-127.5 55zM717 1147q225 0 354 -127t129 -346q0 -127 -40.5 -246.5t-118.5 -218.5q-91 -118 -216.5 -178t-279.5 -60q-222 0 -350 127t-128 346q0 126 41 246.5t119 220.5q90 116 214.5 176t275.5 60z" />
    <glyph glyph-name="Ohungarumlaut" unicode="&#x150;" horiz-adv-x="1566" 
d="M1248 1899h252l-287 -264h-186zM830 1899h252l-287 -264h-187zM1134 881q0 176 -71.5 268t-207.5 92q-180 0 -302 -179.5t-122 -449.5q0 -172 71 -267t198 -95q104 0 184.5 48.5t137.5 143.5q54 91 83 205t29 234zM905 1520q269 0 432 -165.5t163 -432.5q0 -182 -50 -344
t-145 -291q-117 -159 -277 -237.5t-368 -78.5q-268 0 -430.5 165t-162.5 433q0 183 49.5 345t145.5 292q115 158 275 236t368 78z" />
    <glyph glyph-name="ohungarumlaut" unicode="&#x151;" horiz-adv-x="1266" 
d="M649 1638h225l-280 -376h-156zM987 1638h225l-310 -376h-156zM691 891q-125 0 -206 -126t-81 -321q0 -106 43.5 -161.5t127.5 -55.5q125 0 206 126.5t81 322.5q0 105 -43.5 160t-127.5 55zM717 1147q225 0 354 -127t129 -346q0 -127 -40.5 -246.5t-118.5 -218.5
q-91 -118 -216.5 -178t-279.5 -60q-222 0 -350 127t-128 346q0 126 41 246.5t119 220.5q90 116 214.5 176t275.5 60z" />
    <glyph glyph-name="OE" unicode="&#x152;" horiz-adv-x="2151" 
d="M1141 1202h-94q-126 0 -219.5 -23.5t-162.5 -72.5q-102 -74 -163.5 -199t-61.5 -260q0 -183 108.5 -269.5t337.5 -86.5h97zM1112 1493h1015l-52 -291h-585l-51 -278h554l-52 -291h-553l-59 -342h608l-51 -291h-1044h-49q-341 0 -528.5 151t-187.5 424q0 242 106.5 447.5
t293.5 327.5q115 73 257 108t326 35h52z" />
    <glyph glyph-name="oe" unicode="&#x153;" horiz-adv-x="2016" 
d="M1618 682q3 13 4.5 26.5t1.5 26.5q0 80 -43.5 127t-117.5 47q-94 0 -162 -58.5t-101 -168.5h418zM1922 518l-10 -57h-755q0 -6 -0.5 -17.5t-0.5 -17.5q0 -109 59 -163t176 -54q101 0 214.5 34t237.5 101l-49 -278q-118 -48 -235 -71.5t-240 -23.5q-139 0 -229 39
t-142 121q-81 -82 -177.5 -121t-219.5 -39q-226 0 -355 126.5t-129 346.5q0 127 40.5 247.5t117.5 219.5q91 117 217 176.5t281 59.5q126 0 217 -40.5t149 -121.5q85 81 187.5 121.5t225.5 40.5q201 0 321 -122t120 -323q0 -40 -5.5 -86.5t-15.5 -97.5zM691 891
q-125 0 -206 -126t-81 -321q0 -106 43.5 -161.5t127.5 -55.5q125 0 206 126.5t81 322.5q0 105 -43.5 160t-127.5 55z" />
    <glyph glyph-name="Racute" unicode="&#x154;" horiz-adv-x="1419" 
d="M923 1900h252l-287 -264h-186zM677 831q118 0 178.5 61t60.5 179q0 74 -42 108.5t-132 34.5h-143l-68 -383h146zM485 565l-100 -565h-346l262 1493h512q221 0 335.5 -92t114.5 -271q0 -181 -90 -298t-244 -134q70 -16 117 -79.5t82 -194.5l114 -424h-345l-101 371
q-30 111 -73.5 152.5t-126.5 41.5h-111z" />
    <glyph glyph-name="racute" unicode="&#x155;" horiz-adv-x="909" 
d="M874 1645h264l-395 -376h-181zM948 815q-34 21 -74.5 32t-86.5 11q-124 0 -205.5 -88t-109.5 -254l-92 -516h-323l196 1120h324l-35 -192q64 106 159.5 162.5t212.5 56.5q18 0 39.5 -2t50.5 -6z" />
    <glyph glyph-name="Rcommaaccent" unicode="&#x156;" horiz-adv-x="1419" 
d="M512 -131h292l-252 -298h-173zM677 831q118 0 178.5 61t60.5 179q0 74 -42 108.5t-132 34.5h-143l-68 -383h146zM485 565l-100 -565h-346l262 1493h512q221 0 335.5 -92t114.5 -271q0 -181 -90 -298t-244 -134q70 -16 117 -79.5t82 -194.5l114 -424h-345l-101 371
q-30 111 -73.5 152.5t-126.5 41.5h-111z" />
    <glyph glyph-name="rcommaaccent" unicode="&#x157;" horiz-adv-x="909" 
d="M90 -131h292l-252 -298h-173zM948 815q-34 21 -74.5 32t-86.5 11q-124 0 -205.5 -88t-109.5 -254l-92 -516h-323l196 1120h324l-35 -192q64 106 159.5 162.5t212.5 56.5q18 0 39.5 -2t50.5 -6z" />
    <glyph glyph-name="Rcaron" unicode="&#x158;" horiz-adv-x="1419" 
d="M677 831q118 0 178.5 61t60.5 179q0 74 -42 108.5t-132 34.5h-143l-68 -383h146zM485 565l-100 -565h-346l262 1493h512q221 0 335.5 -92t114.5 -271q0 -181 -90 -298t-244 -134q70 -16 117 -79.5t82 -194.5l114 -424h-345l-101 371q-30 111 -73.5 152.5t-126.5 41.5
h-111zM963 1635h-314l-123 264h155l133 -162l208 162h160z" />
    <glyph glyph-name="rcaron" unicode="&#x159;" horiz-adv-x="909" 
d="M948 815q-34 21 -74.5 32t-86.5 11q-124 0 -205.5 -88t-109.5 -254l-92 -516h-323l196 1120h324l-35 -192q64 106 159.5 162.5t212.5 56.5q18 0 39.5 -2t50.5 -6zM813 1262h-234l-165 376h158l141 -227l219 227h177z" />
    <glyph glyph-name="Sacute" unicode="&#x15a;" horiz-adv-x="1327" 
d="M923 1900h252l-287 -264h-186zM1226 1446l-56 -316q-102 56 -201 83.5t-193 27.5q-130 0 -202.5 -45t-72.5 -125q0 -51 32 -79.5t132 -55.5l142 -39q179 -50 262 -144.5t83 -244.5q0 -243 -166 -390t-446 -147q-130 0 -259.5 27t-252.5 80l55 325q119 -77 232 -115
t223 -38q119 0 193.5 54t74.5 138q0 55 -33.5 85.5t-146.5 62.5l-141 39q-157 43 -233 136t-76 241q0 233 160.5 373.5t432.5 140.5q109 0 223.5 -18.5t233.5 -55.5z" />
    <glyph glyph-name="sacute" unicode="&#x15b;" horiz-adv-x="1097" 
d="M874 1645h264l-395 -376h-181zM1032 1085l-47 -278q-95 50 -188.5 76t-177.5 26q-95 0 -147 -27.5t-52 -78.5q0 -30 29 -48t113 -38l59 -12q195 -46 273.5 -118.5t78.5 -201.5q0 -195 -137.5 -304.5t-385.5 -109.5q-104 0 -212 18t-220 54l49 281q87 -57 186.5 -86
t203.5 -29q102 0 153.5 27t51.5 79q0 36 -29 56t-119 41l-59 12q-172 40 -246 118t-74 216q0 187 127.5 288t363.5 101q104 0 204.5 -15.5t201.5 -46.5z" />
    <glyph glyph-name="Scircumflex" unicode="&#x15c;" horiz-adv-x="1327" 
d="M675 1899h313l137 -264h-153l-148 161l-208 -161h-161zM1226 1446l-56 -316q-102 56 -201 83.5t-193 27.5q-130 0 -202.5 -45t-72.5 -125q0 -51 32 -79.5t132 -55.5l142 -39q179 -50 262 -144.5t83 -244.5q0 -243 -166 -390t-446 -147q-130 0 -259.5 27t-252.5 80l55 325
q119 -77 232 -115t223 -38q119 0 193.5 54t74.5 138q0 55 -33.5 85.5t-146.5 62.5l-141 39q-157 43 -233 136t-76 241q0 233 160.5 373.5t432.5 140.5q109 0 223.5 -18.5t233.5 -55.5z" />
    <glyph glyph-name="scircumflex" unicode="&#x15d;" horiz-adv-x="1097" 
d="M595 1638h236l164 -376h-160l-140 225l-217 -225h-178zM1032 1085l-47 -278q-95 50 -188.5 76t-177.5 26q-95 0 -147 -27.5t-52 -78.5q0 -30 29 -48t113 -38l59 -12q195 -46 273.5 -118.5t78.5 -201.5q0 -195 -137.5 -304.5t-385.5 -109.5q-104 0 -212 18t-220 54l49 281
q87 -57 186.5 -86t203.5 -29q102 0 153.5 27t51.5 79q0 36 -29 56t-119 41l-59 12q-172 40 -246 118t-74 216q0 187 127.5 288t363.5 101q104 0 204.5 -15.5t201.5 -46.5z" />
    <glyph glyph-name="Scedilla" unicode="&#x15e;" horiz-adv-x="1327" 
d="M1226 1446l-56 -316q-102 56 -201 83.5t-193 27.5q-130 0 -202.5 -45t-72.5 -125q0 -51 32 -79.5t132 -55.5l142 -39q179 -50 262 -144.5t83 -244.5q0 -243 -166 -390t-446 -147q-130 0 -259.5 27t-252.5 80l55 325q119 -77 232 -115t223 -38q119 0 193.5 54t74.5 138
q0 55 -33.5 85.5t-146.5 62.5l-141 39q-157 43 -233 136t-76 241q0 233 160.5 373.5t432.5 140.5q109 0 223.5 -18.5t233.5 -55.5zM615 0q33 -52 48.5 -96t15.5 -86q0 -104 -68 -161.5t-191 -57.5q-44 0 -88 6.5t-90 19.5l27 156q36 -17 72.5 -26t70.5 -9q59 0 93.5 28.5
t34.5 75.5q0 26 -12.5 60.5t-40.5 89.5h128z" />
    <glyph glyph-name="scedilla" unicode="&#x15f;" horiz-adv-x="1097" 
d="M1032 1085l-47 -278q-95 50 -188.5 76t-177.5 26q-95 0 -147 -27.5t-52 -78.5q0 -30 29 -48t113 -38l59 -12q195 -46 273.5 -118.5t78.5 -201.5q0 -195 -137.5 -304.5t-385.5 -109.5q-104 0 -212 18t-220 54l49 281q87 -57 186.5 -86t203.5 -29q102 0 153.5 27t51.5 79
q0 36 -29 56t-119 41l-59 12q-172 40 -246 118t-74 216q0 187 127.5 288t363.5 101q104 0 204.5 -15.5t201.5 -46.5zM501 0q33 -52 48.5 -96t15.5 -86q0 -104 -68 -161.5t-191 -57.5q-44 0 -88 6.5t-90 19.5l27 156q36 -17 72.5 -26t70.5 -9q59 0 93.5 28.5t34.5 75.5
q0 26 -12.5 60.5t-40.5 89.5h128z" />
    <glyph glyph-name="Scaron" unicode="&#x160;" horiz-adv-x="1327" 
d="M1226 1446l-56 -316q-102 56 -201 83.5t-193 27.5q-130 0 -202.5 -45t-72.5 -125q0 -51 32 -79.5t132 -55.5l142 -39q179 -50 262 -144.5t83 -244.5q0 -243 -166 -390t-446 -147q-130 0 -259.5 27t-252.5 80l55 325q119 -77 232 -115t223 -38q119 0 193.5 54t74.5 138
q0 55 -33.5 85.5t-146.5 62.5l-141 39q-157 43 -233 136t-76 241q0 233 160.5 373.5t432.5 140.5q109 0 223.5 -18.5t233.5 -55.5zM968 1635h-314l-123 264h155l133 -162l208 162h160z" />
    <glyph glyph-name="scaron" unicode="&#x161;" horiz-adv-x="1097" 
d="M1032 1085l-47 -278q-95 50 -188.5 76t-177.5 26q-95 0 -147 -27.5t-52 -78.5q0 -30 29 -48t113 -38l59 -12q195 -46 273.5 -118.5t78.5 -201.5q0 -195 -137.5 -304.5t-385.5 -109.5q-104 0 -212 18t-220 54l49 281q87 -57 186.5 -86t203.5 -29q102 0 153.5 27t51.5 79
q0 36 -29 56t-119 41l-59 12q-172 40 -246 118t-74 216q0 187 127.5 288t363.5 101q104 0 204.5 -15.5t201.5 -46.5zM765 1262h-234l-165 376h158l141 -227l219 227h177z" />
    <glyph glyph-name="Tcommaaccent" unicode="&#x162;" horiz-adv-x="1257" 
d="M567 0q33 -52 48.5 -96t15.5 -86q0 -104 -68 -161.5t-191 -57.5q-44 0 -88 6.5t-90 19.5l27 156q36 -17 72.5 -26t70.5 -9q59 0 93.5 28.5t34.5 75.5q0 26 -12.5 60.5t-40.5 89.5h128zM140 1493h1239l-51 -291h-447l-211 -1202h-346l211 1202h-447z" />
    <glyph glyph-name="tcommaaccent" unicode="&#x163;" horiz-adv-x="881" 
d="M487 0q33 -52 48.5 -96t15.5 -86q0 -104 -68 -161.5t-191 -57.5q-44 0 -88 6.5t-90 19.5l27 156q36 -17 72.5 -26t70.5 -9q59 0 93.5 28.5t34.5 75.5q0 26 -12.5 60.5t-40.5 89.5h128zM663 1438l-55 -318h330l-46 -256h-330l-82 -474q-4 -16 -5.5 -27t-1.5 -21
q0 -46 27.5 -66t92.5 -20h167l-46 -256h-271q-146 0 -222.5 68t-76.5 196q0 28 2.5 60t8.5 65l83 475h-159l44 256h161l55 318h324z" />
    <glyph glyph-name="Tcaron" unicode="&#x164;" horiz-adv-x="1257" 
d="M140 1493h1239l-51 -291h-447l-211 -1202h-346l211 1202h-447zM947 1635h-314l-123 264h155l133 -162l208 162h160z" />
    <glyph glyph-name="tcaron" unicode="&#x165;" horiz-adv-x="881" 
d="M663 1438l-55 -318h330l-46 -256h-330l-82 -474q-4 -16 -5.5 -27t-1.5 -21q0 -46 27.5 -66t92.5 -20h167l-46 -256h-271q-146 0 -222.5 68t-76.5 196q0 28 2.5 60t8.5 65l83 475h-159l44 256h161l55 318h324zM870 1638h263l-193 -376h-181z" />
    <glyph glyph-name="Tbar" unicode="&#x166;" horiz-adv-x="1257" 
d="M140 1493h1238l-50 -291h-446l-76 -437h222l-46 -260h-222l-89 -505h-346l88 505h-222l46 260h222l77 437h-447z" />
    <glyph glyph-name="tbar" unicode="&#x167;" horiz-adv-x="881" 
d="M633 1438l-56 -318h332l-45 -256h-332l-24 -142h332l-45 -256h-332l-14 -77q-13 -78 9 -105q24 -28 106 -28h166l-45 -256h-276q-191 0 -255 88q-65 89 -27 301l13 77h-160l45 256h160l25 142h-160l44 256h161l55 318h323z" />
    <glyph glyph-name="Utilde" unicode="&#x168;" horiz-adv-x="1496" 
d="M885 1686l-45 37q-21 19 -36 25.5t-31 6.5q-32 0 -55.5 -32t-33.5 -88h-123q23 128 82 197t144 69q34 0 63 -12t61 -39l47 -41q15 -13 31 -20t31 -7q35 0 58.5 30.5t32.5 88.5h125q-24 -128 -83 -197t-142 -69q-35 0 -63.5 11t-62.5 40zM301 1493h346l-157 -894
q-8 -48 -12.5 -85t-4.5 -65q0 -98 47.5 -146.5t141.5 -48.5q126 0 193 78.5t100 265.5l157 895h346l-157 -895q-58 -330 -221.5 -478.5t-467.5 -148.5q-238 0 -362.5 113.5t-124.5 329.5q0 36 4.5 80.5t14.5 103.5z" />
    <glyph glyph-name="utilde" unicode="&#x169;" horiz-adv-x="1312" 
d="M767 1364l-45 37q-2 2 -9 7q-34 30 -61 30q-30 0 -53.5 -34.5t-32.5 -94.5h-126q24 137 83 210.5t144 73.5q32 0 62 -13.5t64 -43.5l47 -43q17 -15 32 -23t29 -8q34 0 57.5 33.5t32.5 95.5h126q-24 -136 -82.5 -210t-142.5 -74q-31 0 -58 11.5t-67 45.5zM125 436l118 684
h323l-102 -583q-10 -57 -15.5 -97t-5.5 -63q0 -63 31.5 -98t89.5 -35q100 0 172 86t99 239l97 551h324l-196 -1120h-325l30 164q-83 -97 -174 -145t-191 -48q-138 0 -213.5 81t-75.5 229q0 35 3.5 74t10.5 81z" />
    <glyph glyph-name="Umacron" unicode="&#x16a;" horiz-adv-x="1496" 
d="M301 1493h346l-157 -894q-8 -48 -12.5 -85t-4.5 -65q0 -98 47.5 -146.5t141.5 -48.5q126 0 193 78.5t100 265.5l157 895h346l-157 -895q-58 -330 -221.5 -478.5t-467.5 -148.5q-238 0 -362.5 113.5t-124.5 329.5q0 36 4.5 80.5t14.5 103.5zM607 1871h567l-33 -188h-568z
" />
    <glyph glyph-name="umacron" unicode="&#x16b;" horiz-adv-x="1312" 
d="M125 436l118 684h323l-102 -583q-10 -57 -15.5 -97t-5.5 -63q0 -63 31.5 -98t89.5 -35q100 0 172 86t99 239l97 551h324l-196 -1120h-325l30 164q-83 -97 -174 -145t-191 -48q-138 0 -213.5 81t-75.5 229q0 35 3.5 74t10.5 81zM509 1562h567l-33 -188h-568z" />
    <glyph glyph-name="Ubreve" unicode="&#x16c;" horiz-adv-x="1496" 
d="M629 1899h129q9 -60 45.5 -87.5t107.5 -27.5q65 0 112.5 30.5t68.5 84.5h137q-35 -129 -124 -196.5t-222 -67.5q-123 0 -188.5 67.5t-65.5 192.5v4zM301 1493h346l-157 -894q-8 -48 -12.5 -85t-4.5 -65q0 -98 47.5 -146.5t141.5 -48.5q126 0 193 78.5t100 265.5l157 895
h346l-157 -895q-58 -330 -221.5 -478.5t-467.5 -148.5q-238 0 -362.5 113.5t-124.5 329.5q0 36 4.5 80.5t14.5 103.5z" />
    <glyph glyph-name="ubreve" unicode="&#x16d;" horiz-adv-x="1312" 
d="M504 1606h127v-9q0 -65 39 -100t111 -35q73 0 119.5 35.5t72.5 108.5h136q-30 -143 -122.5 -220t-232.5 -77q-126 0 -189.5 62t-63.5 183q0 21 0.5 31.5t2.5 20.5zM125 436l118 684h323l-102 -583q-10 -57 -15.5 -97t-5.5 -63q0 -63 31.5 -98t89.5 -35q100 0 172 86
t99 239l97 551h324l-196 -1120h-325l30 164q-83 -97 -174 -145t-191 -48q-138 0 -213.5 81t-75.5 229q0 35 3.5 74t10.5 81z" />
    <glyph glyph-name="Uring" unicode="&#x16e;" horiz-adv-x="1496" 
d="M1143 1607q0 -120 -74 -202.5t-181 -82.5q-108 0 -182.5 82.5t-74.5 202.5t74.5 202t182.5 82q107 0 181 -82t74 -202zM1022 1607q0 65 -38 107t-96 42q-60 0 -97.5 -42t-37.5 -107t38 -107.5t97 -42.5q58 0 96 42t38 108zM301 1493h346l-157 -894q-8 -48 -12.5 -85
t-4.5 -65q0 -98 47.5 -146.5t141.5 -48.5q126 0 193 78.5t100 265.5l157 895h346l-157 -895q-58 -330 -221.5 -478.5t-467.5 -148.5q-238 0 -362.5 113.5t-124.5 329.5q0 36 4.5 80.5t14.5 103.5z" />
    <glyph glyph-name="uring" unicode="&#x16f;" horiz-adv-x="1312" 
d="M125 436l118 684h323l-102 -583q-10 -57 -15.5 -97t-5.5 -63q0 -63 31.5 -98t89.5 -35q100 0 172 86t99 239l97 551h324l-196 -1120h-325l30 164q-83 -97 -174 -145t-191 -48q-138 0 -213.5 81t-75.5 229q0 35 3.5 74t10.5 81zM1035 1504q0 -120 -74 -202.5t-181 -82.5
q-108 0 -182.5 82.5t-74.5 202.5t74.5 202t182.5 82q107 0 181 -82t74 -202zM914 1504q0 65 -38 107t-96 42q-60 0 -97.5 -42t-37.5 -107t38 -107.5t97 -42.5q58 0 96 42t38 108z" />
    <glyph glyph-name="Uhungarumlaut" unicode="&#x170;" horiz-adv-x="1496" 
d="M1177 1899h252l-287 -264h-186zM759 1899h252l-287 -264h-187zM301 1493h346l-157 -894q-8 -48 -12.5 -85t-4.5 -65q0 -98 47.5 -146.5t141.5 -48.5q126 0 193 78.5t100 265.5l157 895h346l-157 -895q-58 -330 -221.5 -478.5t-467.5 -148.5q-238 0 -362.5 113.5
t-124.5 329.5q0 36 4.5 80.5t14.5 103.5z" />
    <glyph glyph-name="uhungarumlaut" unicode="&#x171;" horiz-adv-x="1312" 
d="M670 1638h225l-280 -376h-156zM1008 1638h225l-310 -376h-156zM125 436l118 684h323l-102 -583q-10 -57 -15.5 -97t-5.5 -63q0 -63 31.5 -98t89.5 -35q100 0 172 86t99 239l97 551h324l-196 -1120h-325l30 164q-83 -97 -174 -145t-191 -48q-138 0 -213.5 81t-75.5 229
q0 35 3.5 74t10.5 81z" />
    <glyph glyph-name="Uogonek" unicode="&#x172;" horiz-adv-x="1496" 
d="M301 1493h346l-157 -894q-8 -48 -12.5 -85t-4.5 -65q0 -98 47.5 -146.5t141.5 -48.5q126 0 193 78.5t100 265.5l157 895h346l-157 -895q-58 -330 -221.5 -478.5t-467.5 -148.5q-238 0 -362.5 113.5t-124.5 329.5q0 36 4.5 80.5t14.5 103.5zM555 0h128q-64 -74 -87.5 -114
t-23.5 -68q0 -34 22.5 -53t62.5 -19q33 0 70 8t76 23l-26 -152q-52 -13 -92.5 -19.5t-75.5 -6.5q-95 0 -145 34.5t-50 100.5q0 65 33.5 128t107.5 138z" />
    <glyph glyph-name="uogonek" unicode="&#x173;" horiz-adv-x="1312" 
d="M125 436l118 684h323l-102 -583q-10 -57 -15.5 -97t-5.5 -63q0 -63 31.5 -98t89.5 -35q100 0 172 86t99 239l97 551h324l-196 -1120h-325l30 164q-83 -97 -174 -145t-191 -48q-138 0 -213.5 81t-75.5 229q0 35 3.5 74t10.5 81zM928 0h128q-64 -74 -87.5 -114t-23.5 -68
q0 -34 22.5 -53t62.5 -19q33 0 70 8t76 23l-26 -152q-52 -13 -92.5 -19.5t-75.5 -6.5q-95 0 -145 34.5t-50 100.5q0 65 33.5 128t107.5 138z" />
    <glyph glyph-name="Wcircumflex" unicode="&#x174;" horiz-adv-x="2033" 
d="M197 1493h321l41 -1085l422 1085h329l44 -1085l408 1085h345l-579 -1493h-392l-45 1135l-435 -1135h-401zM1063 1906h313l137 -264h-153l-148 161l-208 -161h-161z" />
    <glyph glyph-name="wcircumflex" unicode="&#x175;" horiz-adv-x="1702" 
d="M908 1638h236l164 -376h-160l-140 225l-217 -225h-178zM160 1120h297l35 -770l304 770h256l37 -768l302 768h317l-461 -1120h-342l-33 770l-308 -770h-334z" />
    <glyph glyph-name="Ycircumflex" unicode="&#x176;" horiz-adv-x="1334" 
d="M116 1493h347l228 -553l400 553h400l-663 -870l-109 -623h-346l109 623zM712 1906h313l137 -264h-153l-148 161l-208 -161h-161z" />
    <glyph glyph-name="ycircumflex" unicode="&#x177;" horiz-adv-x="1201" 
d="M667 1638h236l164 -376h-160l-140 225l-217 -225h-178zM122 1120h304l138 -776l358 776h344l-638 -1226q-107 -207 -198 -271.5t-235 -64.5h-195l33 235h102q79 0 123 29.5t78 103.5l29 60z" />
    <glyph glyph-name="Ydieresis" unicode="&#x178;" horiz-adv-x="1334" 
d="M116 1493h347l228 -553l400 553h400l-663 -870l-109 -623h-346l109 623zM570 1899h212l-42 -246h-212zM925 1899h215l-45 -246h-212z" />
    <glyph glyph-name="Zacute" unicode="&#x179;" horiz-adv-x="1336" 
d="M923 1900h252l-287 -264h-186zM234 1493h1130l-43 -238l-871 -964h724l-52 -291h-1170l41 238l874 964h-684z" />
    <glyph glyph-name="zacute" unicode="&#x17a;" horiz-adv-x="1072" 
d="M874 1645h264l-395 -376h-181zM201 1120h879l-44 -250l-628 -614h521l-44 -256h-901l42 250l630 614h-499z" />
    <glyph glyph-name="Zdotaccent" unicode="&#x17b;" horiz-adv-x="1336" 
d="M234 1493h1130l-43 -238l-871 -964h724l-52 -291h-1170l41 238l874 964h-684zM754 1881h247l-42 -246h-247z" />
    <glyph glyph-name="zdotaccent" unicode="&#x17c;" horiz-adv-x="1072" 
d="M515 1555h322l-50 -292h-322zM201 1120h879l-44 -250l-628 -614h521l-44 -256h-901l42 250l630 614h-499z" />
    <glyph glyph-name="Zcaron" unicode="&#x17d;" horiz-adv-x="1336" 
d="M234 1493h1130l-43 -238l-871 -964h724l-52 -291h-1170l41 238l874 964h-684zM974 1635h-314l-123 264h155l133 -162l208 162h160z" />
    <glyph glyph-name="zcaron" unicode="&#x17e;" horiz-adv-x="1072" 
d="M201 1120h879l-44 -250l-628 -614h521l-44 -256h-901l42 250l630 614h-499zM753 1262h-234l-165 376h158l141 -227l219 227h177z" />
    <glyph glyph-name="longs" unicode="&#x17f;" horiz-adv-x="801" 
d="M424 0h-324l151 864h-159l45 256h158l15 78q33 186 138.5 272t299.5 86h247l-42 -235h-177q-68 0 -99 -27q-31 -28 -43 -95z" />
    <glyph glyph-name="uni0180" unicode="&#x180;" horiz-adv-x="1319" 
d="M510 956q84 98 174 144q89 47 194 47q187 0 278 -165q90 -164 45 -423t-194 -423q-148 -165 -335 -165q-105 0 -178 47q-73 46 -122 144l-28 -162h-322l216 1237h-139l36 205h139l19 114h323l-20 -114h295l-36 -205h-295zM597.5 231q103.5 0 173 84t97.5 244t-12 244
t-143.5 84t-173.5 -85q-70 -84 -98 -243t13 -243q40 -85 143.5 -85z" />
    <glyph glyph-name="uni0181" unicode="&#x181;" horiz-adv-x="1494" 
d="M827 915q82 0 131 40t63 118q13 77 -22 117q-35 41 -117 41h-192l-55 -316h192zM724 262q105 0 166 49t78 148q18 97 -27 145q-43 49 -148 49h-203l-69 -391h203zM1140 799q106 -36 150 -133t20 -238q-38 -216 -189 -322q-149 -106 -417 -106h-575l215 1231q-66 0 -71 -1
q-42 -4 -58 -20q-33 -34 -44 -84q-4 -14 -9 -47h-230l14 77q23 138 78 203q21 24 55 53q79 63 206 76q46 5 105 5h520q280 0 389 -94t73 -301q-19 -109 -79 -186q-59 -76 -153 -113z" />
    <glyph glyph-name="uni0182" unicode="&#x182;" horiz-adv-x="1404" 
d="M431 262h203q210 0 243 187q4 24 4 46q0 138 -182 138h-203zM300 1493h1016l-51 -291h-669l-49 -278h229q254 0 379 -117q82 -77 82 -227q0 -58 -11 -119q-82 -461 -612 -461h-575z" />
    <glyph glyph-name="uni0183" unicode="&#x183;" horiz-adv-x="1319" 
d="M510 956q84 98 174 144q89 47 194 47q187 0 278 -165q90 -164 45 -423t-194 -423q-148 -165 -335 -165q-105 0 -178 47q-73 46 -122 144l-28 -162h-322l271 1556h927l-52 -291h-604zM597.5 231q103.5 0 173 84t97.5 244t-12 244t-143.5 84t-173.5 -85q-70 -84 -98 -243
t13 -243q40 -85 143.5 -85z" />
    <glyph glyph-name="uni0184" unicode="&#x184;" horiz-adv-x="1404" 
d="M707 262q109 0 166 45q60 49 77 142q16 91 -28 139q-40 45 -150 45h-203l-65 -371h203zM687 0h-575l162 924l-139 180l584 389l-99 -569h229q254 0 379 -117q112 -106 70 -346q-42 -238 -191 -344q-166 -117 -420 -117z" />
    <glyph glyph-name="uni0185" unicode="&#x185;" horiz-adv-x="1319" 
d="M557 956q84 98 174 144q89 47 194 47q187 0 277 -165q91 -164 45 -423q-45 -259 -193 -423q-149 -165 -335 -165q-105 0 -178 47q-73 46 -123 144l-27 -162h-323l162 924l-124 180l556 452zM644.5 231q103.5 0 172.5 84t97 244t-11.5 244t-143 84t-173.5 -85
q-70 -84 -98 -243t12 -243q41 -85 144.5 -85z" />
    <glyph glyph-name="uni0186" unicode="&#x186;" horiz-adv-x="1352" 
d="M-24 82l56 309q86 -73 173 -107t187 -34q208 0 348.5 178t140.5 445q0 172 -86.5 270t-238.5 98q-91 0 -193 -36.5t-229 -114.5l60 331q124 49 238 74t217 25q271 0 433 -165t162 -437q0 -179 -51.5 -337.5t-151.5 -289.5q-118 -154 -284 -237t-357 -83q-105 0 -210 27.5
t-214 83.5z" />
    <glyph glyph-name="uni0187" unicode="&#x187;" horiz-adv-x="1352" 
d="M1086 82q-105 -55 -213 -83q-109 -28 -221 -28q-336 0 -495 209q-161 208 -98 565q63 358 296 567q232 208 567 208q45 0 85 -4q58 149 161 238q161 138 438 138h70l-52 -291h-54q-108 0 -174 -67q-68 -67 -90 -197l-42 -237q-83 73 -170 107q-89 34 -192 34
q-186 0 -314 -132q-130 -132 -170 -364q-41 -231 42 -363q84 -132 269 -132q103 0 203 34q99 34 208 107z" />
    <glyph glyph-name="uni0188" unicode="&#x188;" horiz-adv-x="1092" 
d="M1021 1021l-40 -228q-57 50 -119 74t-133 24q-135 0 -226 -87q-90 -88 -118 -245q-27 -157 33 -245q60 -87 195 -87q75 0 147 25q73 25 139 74l-51 -293q-81 -31 -161 -47q-81 -15 -160 -15q-272 0 -399 155q-126 156 -78 433t229 433q180 154 450 155q44 135 127 217
q118 119 302 119h160l-42 -235h-56q-91 0 -133.5 -46t-65.5 -181z" />
    <glyph glyph-name="uni0189" unicode="&#x189;" horiz-adv-x="1557" 
d="M626 1202l-51 -299h221l-45 -260h-222l-63 -352h124q243 0 385 151.5t142 407.5q0 174 -93 263t-276 89h-122zM330 1493h365q261 0 391.5 -34.5t216.5 -115.5q87 -81 132 -197t45 -261q0 -201 -76 -381t-212 -303q-118 -109 -275 -155t-484 -46h-365l113 643h-185l46 260
h185z" />
    <glyph glyph-name="uni018A" unicode="&#x18a;" horiz-adv-x="1620" 
d="M686 1202l-160 -911h124q212 0 345 117t171 340q39 222 -52 338t-304 116h-124zM344 1231q-66 0 -71 -1q-42 -4 -58 -20q-33 -34 -44 -84q-4 -14 -9 -47h-230l14 77q23 138 78 203q21 24 55 53q79 63 206 76q46 5 105 5h365q306 0 447 -49q141 -48 229 -164
q77 -102 99 -233q23 -132 -6 -299q-30 -169 -98 -302q-70 -132 -182 -233q-129 -116 -288 -165q-160 -48 -462 -48h-365z" />
    <glyph glyph-name="uni018B" unicode="&#x18b;" horiz-adv-x="1404" 
d="M641 262h203l65 371h-203q-110 0 -166 -45q-60 -48 -76 -139q-17 -93 27 -142q41 -45 150 -45zM570 0q-255 0 -379 117q-114 106 -71 344q41 240 191 346q166 117 421 117h227l50 278h-580l51 291h926l-261 -1493h-575z" />
    <glyph glyph-name="uni018C" unicode="&#x18c;" horiz-adv-x="1319" 
d="M874 956l54 309h-602l51 291h926l-272 -1556h-322l28 162q-84 -98 -173 -144q-89 -47 -194 -47q-186 0 -277 165q-91 164 -46 423q46 259 194 423q149 165 335 165q105 0 178 -47q70 -44 120 -144zM535 231q103 0 172.5 84t97 244t-12 244t-142.5 84t-172 -84t-97 -244
t11.5 -244t142.5 -84z" />
    <glyph glyph-name="uni018D" unicode="&#x18d;" horiz-adv-x="1266" 
d="M146 -118q98 -70 355 -70q183 0 196 73q11 66 -178 99q-217 37 -324 149q-129 135 -81 412q47 265 222 421q175 157 434 157q257 0 378 -157q121 -156 72 -431q-36 -205 -211 -369q-55 -50 -118 -82q119 -79 91 -238q-48 -272 -523 -272q-239 0 -355 70zM687 214
q51 22 99 78q74 87 101 244q28 157 -16 245q-43 88 -147 88q-100 0 -175 -89q-76 -90 -101 -236q-27 -153 24 -227q51 -77 138 -88q41 -5 77 -15z" />
    <glyph glyph-name="uni018E" unicode="&#x18e;" horiz-adv-x="1259" 
d="M1255 1493l-261 -1493h-955l50 291h609l60 342h-554l52 291h553l49 278h-589l51 291h935z" />
    <glyph glyph-name="uni018F" unicode="&#x18f;" horiz-adv-x="1566" 
d="M1132 829q21 144 -27 240q-85 172 -317 172q-107 0 -224 -35t-252 -106l55 309q139 55 271 83t253 28q217 0 357 -79q142 -79 210 -239q56 -131 51 -290q-4 -157 -58 -334q-51 -162 -146 -291q-117 -159 -277 -237q-160 -79 -368 -79q-268 0 -430 165q-173 175 -163 433
q5 133 27 260h1038zM1082 571h-650q8 -143 70 -226q71 -95 198 -95q104 0 184 48q81 49 138 144q35 60 60 129z" />
    <glyph glyph-name="uni0190" unicode="&#x190;" horiz-adv-x="1282" 
d="M411 805q-116 34 -163 117q-47 84 -25 215q33 192 180 287q148 96 410 96q97 0 194 -16q98 -16 195 -48l-49 -282q-77 41 -159 62t-166 21q-113 0 -183.5 -47t-85.5 -133q-16 -93 40 -139q56 -45 187 -45h146l-45 -248h-138q-147 0 -231 -53q-84 -52 -102 -154
q-17 -99 46.5 -152t201.5 -53q93 0 194 27q100 28 208 82l-53 -297q-108 -37 -215 -55q-108 -19 -211 -19q-294 0 -426 115q-133 116 -93 338q25 149 113 246q87 96 230 135z" />
    <glyph glyph-name="uni0191" unicode="&#x191;" horiz-adv-x="1259" 
d="M100 145l236 1348h935l-51 -291h-589l-49 -278h554l-51 -291h-553l-86 -488q-48 -279 -209 -417t-437 -138h-70l51 291h54q108 0 175 67t90 197z" />
    <glyph glyph-name="florin" unicode="&#x192;" horiz-adv-x="801" 
d="M992 1556l-42 -235h-178q-68 0 -100 -27q-32 -28 -44 -96l-13 -78h275l-45 -256h-275l-163 -932q-33 -183 -140 -270q-107 -88 -299 -88h-247l41 235h179q68 0 99 27q33 28 45 96l163 932h-161l45 256h160l14 78q32 183 140 270q107 88 299 88h247z" />
    <glyph glyph-name="uni0193" unicode="&#x193;" horiz-adv-x="1512" 
d="M1234 111q-142 -70 -288 -105t-294 -35q-336 0 -495 209q-161 208 -98 565q63 361 299 568t583 207q81 0 157 -10q57 153 163 244q161 138 437 138h70l-51 -291h-54q-108 0 -174 -67q-68 -67 -90 -197l-42 -237q-100 71 -205 106t-217 35q-207 0 -341 -129
q-135 -128 -176 -367q-42 -237 43.5 -366t284.5 -129q54 0 101 8q48 7 88 23l51 290h-212l45 258h540z" />
    <glyph glyph-name="uni0194" unicode="&#x194;" horiz-adv-x="1461" 
d="M781 818l492 675h352l-722 -996l34 -92q78 -207 90 -306q13 -99 13 -143t-5 -70q-25 -153 -124 -235q-99 -81 -349 -81q-248 0 -319 81q-50 58 -50 153q0 38 9.5 91t68 178t209.5 332l67 92l-374 996h353zM650 150q-112 -154 -125 -195q-21 -61 -21 -78q0 -16 20 -44
q19 -28 80 -28q60 0 94 31q32 31 35 55q2 23 2 65q0 41 -56 194l-10 25z" />
    <glyph glyph-name="uni0195" unicode="&#x195;" horiz-adv-x="1926" 
d="M799 520q26 147 29.5 202t-5.5 81q-13 35 -42 55q-29 19 -71 19q-101 0 -173 -87q-73 -86 -100 -239l-96 -551h-322l272 1556h322l-105 -600q90 98 180 144q90 47 190 47q174 0 243 -119q71 -119 31 -346l-40 -222q-28 -169 -22 -181q28 -52 70 -48l19 2q106 0 197 97
q84 88 108 230q19 107 -12 222q-22 84 -85 156l31 182q124 -3 201 -43q35 -18 78 -50q51 -37 75 -104q2 -5 28 -88q34 -108 7 -266q-45 -254 -209 -411q-167 -158 -386 -158l-123 -2q-182 -3 -261 118q-78 120 -40 344z" />
    <glyph glyph-name="uni0196" unicode="&#x196;" horiz-adv-x="802" 
d="M646 1493l-164 -938q-22 -130 21 -197t151 -67h54l-50 -291h-70q-277 0 -389 138t-63 417l164 938h346z" />
    <glyph glyph-name="uni0197" unicode="&#x197;" horiz-adv-x="717" 
d="M311 1493h347l-107 -612h181l-45 -260h-181l-109 -621h-347l109 621h-172l45 260h172z" />
    <glyph glyph-name="uni0198" unicode="&#x198;" horiz-adv-x="1428" 
d="M1174 1156l-399 -370l576 -786h-434l-431 588l-103 -588h-347l261 1493h347l-95 -545l519 479q101 93 219 93q121 0 187 -93q49 -70 49 -160q0 -31 -5 -64l-38 -216h-216l20 113q5 30 -7 48q-20 30 -42 30q-37 0 -61 -22z" />
    <glyph glyph-name="uni0199" unicode="&#x199;" horiz-adv-x="1225" 
d="M465 709l442 411h375l-582 -514l425 -606h-391l-311 467l-82 -467h-322l191 1094q39 223 159 344q118 118 302 118h253l-40 -235h-150q-90 0 -134 -46t-68 -181z" />
    <glyph glyph-name="uni019A" unicode="&#x19a;" horiz-adv-x="664" 
d="M310 1556h322l-118 -675h159l-46 -260h-159l-108 -621h-322l108 621h-165l46 260h165z" />
    <glyph glyph-name="uni019B" unicode="&#x19b;" horiz-adv-x="1090" 
d="M-81 0l492 1020l-33 209l-303 -101l-11 129l295 97l-32 202h322l16 -101l313 99l9 -129l-301 -97l214 -1328h-322l-83 514l-254 -514h-322z" />
    <glyph glyph-name="uni019C" unicode="&#x19c;" horiz-adv-x="1920" 
d="M743 186q-80 -104 -173 -158q-94 -55 -195 -55q-163 0 -244 119q-72 107 -29 346l184 1055h324l-167 -957q-4 -13 -6.5 -27t-7.5 -40q-20 -119 1 -173q23 -53 93 -53q92 0 157 84q63 84 93 243l162 923h324l-167 -957q-33 -186 -14 -240q20 -53 94 -53q92 0 157 85
q66 85 93 241l162 924h324l-261 -1493h-324l28 164q-76 -95 -161.5 -143t-177.5 -48q-105 0 -175 56t-94 157z" />
    <glyph glyph-name="uni019D" unicode="&#x19d;" horiz-adv-x="1542" 
d="M100 145l236 1348h387l309 -1024l179 1024h329l-261 -1493h-387l-310 1024l-154 -879q-42 -242 -136 -360q-26 -32 -55 -57q-161 -138 -437 -138h-70l51 291h54q108 0 175 67t90 197z" />
    <glyph glyph-name="uni019E" unicode="&#x19e;" horiz-adv-x="1312" 
d="M1224 682l-194 -1108h-324l95 537l71 411q26 145 29.5 200t-5.5 81q-13 35 -42 55q-30 19 -71 19q-101 0 -173 -87q-73 -86 -100 -239l-96 -551h-322l196 1120h322l-29 -164q90 98 180 144q90 47 189 47q175 0 244 -119q70 -119 30 -346z" />
    <glyph glyph-name="uni019F" unicode="&#x19f;" horiz-adv-x="1566" 
d="M905 1520q269 0 432 -165.5t163 -432.5q0 -182 -50 -344t-145 -291q-117 -159 -277 -237.5t-368 -78.5q-268 0 -430.5 165t-162.5 433q0 183 49.5 345t145.5 292q115 158 275 236t368 78zM697 250q158 0 268 130q90 106 133 282h-661q-4 -43 -4 -83q0 -119 39 -199
q65 -130 225 -130zM1132 920q-1 114 -39 191q-65 130 -224 130t-269 -130q-64 -77 -106 -191h638z" />
    <glyph glyph-name="Ohorn" unicode="&#x1a0;" horiz-adv-x="1566" 
d="M1139 881q0 176 -71.5 268t-207.5 92q-180 0 -302 -179.5t-122 -449.5q0 -172 71 -267t198 -95q104 0 184.5 48.5t137.5 143.5q54 91 83 205t29 234zM910 1520q269 0 432 -165.5t163 -432.5q0 -182 -50 -344t-145 -291q-117 -159 -277 -237.5t-368 -78.5
q-268 0 -430.5 165t-162.5 433q0 183 49.5 345t145.5 292q115 158 275 236t368 78zM1274 1240l24 141q52 -50 81.5 -69t52.5 -19q35 0 62.5 29.5t35.5 78.5q7 39 7 77.5t-7 78.5h140q0 -55 -3 -102t-10 -88q-20 -115 -72.5 -176.5t-129.5 -61.5q-48 0 -92.5 27t-88.5 84z
" />
    <glyph glyph-name="ohorn" unicode="&#x1a1;" horiz-adv-x="1266" 
d="M697 891q-125 0 -206 -126t-81 -321q0 -106 43.5 -161.5t127.5 -55.5q125 0 206 126.5t81 322.5q0 105 -43.5 160t-127.5 55zM723 1147q225 0 354 -127t129 -346q0 -127 -40.5 -246.5t-118.5 -218.5q-91 -118 -216.5 -178t-279.5 -60q-222 0 -350 127t-128 346
q0 126 41 246.5t119 220.5q90 116 214.5 176t275.5 60zM1023 850l24 141q52 -50 81.5 -69t52.5 -19q35 0 62.5 29.5t35.5 78.5q7 39 7 77.5t-7 78.5h140q0 -55 -3 -102t-10 -88q-20 -115 -72.5 -176.5t-129.5 -61.5q-48 0 -92.5 27t-88.5 84z" />
    <glyph glyph-name="uni01A2" unicode="&#x1a2;" horiz-adv-x="2052" 
d="M869 1241q-158 0 -268 -130t-151 -366q-41 -235 23.5 -365t223.5 -130t269 130l128 731q-65 130 -225 130zM1436 0l164 938q24 130 -20 197t-152 67h-57l-179 -1025q-221 -206 -545 -206q-323 0 -470.5 206t-84.5 568q63 363 283.5 569t543.5 206q117 0 211 -27h365
q279 0 389 -138q111 -140 63 -417l-164 -938h-347z" />
    <glyph glyph-name="uni01A3" unicode="&#x1a3;" horiz-adv-x="1773" 
d="M729 891q-107 0 -178 -85q-72 -86 -100 -247t13 -247q42 -85 149 -85q105 0 175 85l87 494q-41 85 -146 85zM1128 -442l191 1100q25 135 -1 181t-118 46h-66l-132 -758q-174 -156 -434 -156q-261 0 -381 156t-71.5 432t222.5 432t435 156q109 0 193 -27h378
q184 0 261 -118q76 -119 37 -344l-192 -1100h-322z" />
    <glyph glyph-name="uni01A4" unicode="&#x1a4;" horiz-adv-x="1440" 
d="M688 1214l-73 -417h191q101 0 165 55q65 54 82 154q18 100 -28 154q-45 54 -146 54h-191zM344 1231q-66 0 -71 -1q-42 -4 -58 -20q-33 -34 -44 -84q-4 -14 -9 -47h-230l14 77q23 138 78 203q21 24 55 53q79 63 206 76q46 5 105 5h575q256 0 371 -127q116 -126 74 -360
q-40 -235 -200 -362q-159 -126 -415 -126h-229l-91 -518h-346z" />
    <glyph glyph-name="uni01A5" unicode="&#x1a5;" horiz-adv-x="1319" 
d="M588 1198l-43 -242q84 98 173 144q89 47 195 47q186 0 277 -165q91 -164 46 -423q-46 -259 -194 -423q-148 -165 -335 -165q-105 0 -178 47q-73 46 -122 144l-104 -588h-322l285 1624q29 168 139 270q94 88 300 88h246l-41 -235h-178q-69 0 -100 -27q-33 -28 -44 -96z
M747.5 887q-103.5 0 -173.5 -85q-70 -84 -98 -243t13 -243q40 -85 143.5 -85t173 84t97.5 244t-12 244t-143.5 84z" />
    <glyph glyph-name="uni01A6" unicode="&#x1a6;" horiz-adv-x="1419" 
d="M657 573q109 0 164 45t73 148q6 32 6 74t-33.5 79t-142.5 37h-145l-67 -383h145zM465 307l-54 -307h-346l261 1493h346l-45 -258h183q266 0 372 -99q79 -73 79 -209q0 -48 -10 -104q-51 -293 -325 -383q68 -18 113 -81.5t80 -192.5l125 -465h-369l-110 412
q-30 112 -73.5 153t-128.5 41h-98z" />
    <glyph glyph-name="uni01A7" unicode="&#x1a7;" horiz-adv-x="1327" 
d="M258 1446q132 37 252 56q121 18 232 18q243 0 351 -120q109 -120 70 -343q-32 -178 -143.5 -283t-321.5 -153l-140 -33q-127 -30 -174.5 -68t-60.5 -108q-13 -78 40 -120t166 -42q112 0 239 38q127 39 268 115l-57 -325q-137 -53 -271 -80t-262 -27q-270 0 -381 121
q-111 120 -68 367q34 188 146.5 290t344.5 152l154 33q109 24 154 58q46 33 57 93q15 80 -38.5 118t-177.5 38q-93 0 -203 -28q-111 -28 -231 -83z" />
    <glyph glyph-name="uni01A8" unicode="&#x1a8;" horiz-adv-x="1097" 
d="M187 1085q121 32 221.5 47t189.5 15q227 0 323 -86q94 -86 63 -264q-29 -165 -130 -246q-100 -81 -320 -111l-59 -8q-100 -13 -137 -36q-36 -24 -46 -72q-9 -57 34 -86q42 -29 137 -29q104 0 210 26q105 26 211 78l-48 -272q-118 -35 -228 -53q-109 -17 -209 -17
q-236 0 -340 90q-102 90 -72 269q31 171 130 251q100 80 354 115l57 9q90 11 127 34q38 23 46 66q9 53 -31 79q-40 25 -132 25q-85 0 -186 -24q-100 -24 -212 -72z" />
    <glyph glyph-name="uni01A9" unicode="&#x1a9;" horiz-adv-x="1259" 
d="M405 291h639l-50 -291h-955l55 321l512 473l-360 391l54 308h935l-51 -291h-604l373 -404z" />
    <glyph glyph-name="uni01AA" unicode="&#x1aa;" horiz-adv-x="1017" 
d="M427 1554h101q185 0 261 -118q64 -99 50 -256q104 -1 154 -1l-37 -211h-151l-185 -1054q-12 -68 11 -96q22 -27 91 -27h178l-41 -235h-247q-193 0 -269 88q-77 87 -45 270l184 1054l-187 1q-277 1 -232 276q46 283 306 308v1h6h52zM515 1180q3 64 -13 93q-26 46 -118 46
h-39q-86 -7 -95 -65q-12 -75 82 -75q58 0 183 1z" />
    <glyph glyph-name="uni01AB" unicode="&#x1ab;" horiz-adv-x="881" 
d="M671 1438l-55 -318h332l-45 -256h-332l-83 -475q-14 -78 9 -105q23 -28 106 -28h166l-45 -256q-42 -210 -154 -324q-118 -118 -303 -118h-159l41 235h56q92 0 134 46q40 43 62 162q-153 10 -208 87q-64 89 -27 301l82 475h-160l45 256h160l56 318h322z" />
    <glyph glyph-name="uni01AC" unicode="&#x1ac;" horiz-adv-x="1302" 
d="M710 1493h713l-51 -291h-445l-211 -1202h-346l210 1202h-2q-138 0 -188.5 -38t-69.5 -143l-8 -49h-245l30 177q32 181 133 263q100 81 293 81h187z" />
    <glyph glyph-name="uni01AD" unicode="&#x1ad;" horiz-adv-x="881" 
d="M580 1198l-14 -78h332l-44 -256h-332l-84 -475q-13 -78 10 -105q24 -28 106 -28h166l-45 -256h-276q-191 0 -256 88q-64 89 -27 301l84 475h-160l44 256h160l14 78q29 168 139 270q94 88 300 88h246l-40 -235h-179q-68 0 -100 -27q-32 -28 -44 -96z" />
    <glyph glyph-name="uni01AE" unicode="&#x1ae;" horiz-adv-x="1257" 
d="M571 1202h-447l52 291h1238l-51 -291h-446l-184 -1057q-23 -130 20 -197q44 -67 152 -67h54l-51 -291h-70q-276 0 -389 138q-111 138 -63 417z" />
    <glyph glyph-name="Uhorn" unicode="&#x1af;" horiz-adv-x="1496" 
d="M300 1493h346l-157 -894q-8 -48 -12.5 -85t-4.5 -65q0 -98 47.5 -146.5t141.5 -48.5q126 0 193 78.5t100 265.5l157 895h346l-157 -895q-58 -330 -221.5 -478.5t-467.5 -148.5q-238 0 -362.5 113.5t-124.5 329.5q0 36 4.5 80.5t14.5 103.5zM1333 1242l24 141
q52 -50 81.5 -69t52.5 -19q35 0 62.5 29.5t35.5 78.5q7 39 7 77.5t-7 78.5h140q0 -55 -3 -102t-10 -88q-20 -115 -72.5 -176.5t-129.5 -61.5q-48 0 -92.5 27t-88.5 84z" />
    <glyph glyph-name="uhorn" unicode="&#x1b0;" horiz-adv-x="1312" 
d="M120 436l118 684h323l-102 -583q-10 -57 -15.5 -97t-5.5 -63q0 -63 31.5 -98t89.5 -35q100 0 172 86t99 239l97 551h324l-196 -1120h-325l30 164q-83 -97 -174 -145t-191 -48q-138 0 -213.5 81t-75.5 229q0 35 3.5 74t10.5 81zM1069 850l24 141q52 -50 81.5 -69t52.5 -19
q35 0 62.5 29.5t35.5 78.5q7 39 7 77.5t-7 78.5h140q0 -55 -3 -102t-10 -88q-20 -115 -72.5 -176.5t-129.5 -61.5q-48 0 -92.5 27t-88.5 84z" />
    <glyph glyph-name="uni01B1" unicode="&#x1b1;" horiz-adv-x="1417" 
d="M1192 1224q91 -121 122 -260t2 -303q-54 -313 -257 -501q-202 -189 -484 -189q-281 0 -417 189q-136 188 -82 501q29 164 108.5 303t214.5 260h-262l45 256h548l-51 -291q-128 -85 -211 -217q-83 -133 -112 -297q-35 -203 36 -319q71 -117 230 -117q160 0 273 117
q111 116 146 319q29 165 -7 297q-37 131 -135 217l51 291h548l-44 -256h-262z" />
    <glyph glyph-name="uni01B2" unicode="&#x1b2;" horiz-adv-x="1499" 
d="M658 0h-70q-277 0 -389 138t-63 417l164 938h346l-164 -938q-22 -130 21 -197t151 -67h54q160 0 273 117q129 134 152 267q36 203 -7 297q-76 162 -210 257l25 145h243q148 -137 222 -410q33 -123 2 -303q-44 -253 -262 -449q-235 -212 -488 -212z" />
    <glyph glyph-name="uni01B3" unicode="&#x1b3;" horiz-adv-x="1469" 
d="M1149 1061l-331 -432l-110 -629h-347l110 629l-361 864h379l213 -532l257 342q163 217 355 217q121 0 187 -93q49 -70 49 -160q0 -31 -6 -64l-37 -216h-216l12 69q5 30 -7 48q-20 29 -42 29q-50 0 -105 -72z" />
    <glyph glyph-name="uni01B4" unicode="&#x1b4;" horiz-adv-x="1434" 
d="M1486 646h-219l10 60q6 33 -1 61.5t-25 45t-42.5 16.5t-48.5 -17q-26 -18 -41 -45q-7 -15 -16 -30l-439 -843q-98 -188 -194 -262q-99 -74 -238 -74h-186l41 235h100q82 0 125 29q41 28 76 104l14 31l-245 1163h322l138 -760l270 564q106 223 350 223q91 0 159.5 -50
t99.5 -136q19 -54 19 -115q0 -35 -7 -73z" />
    <glyph glyph-name="uni01B5" unicode="&#x1b5;" horiz-adv-x="1336" 
d="M234 1493h1130l-41 -233l-348 -379h174l-45 -260h-369l-303 -330h742l-51 -291h-1171l41 233l356 388h-160l45 260h355l295 321h-700z" />
    <glyph glyph-name="uni01B6" unicode="&#x1b6;" horiz-adv-x="1072" 
d="M203 1120h880l-44 -250l-196 -188h112l-39 -221h-302l-214 -205h532l-46 -256h-901l44 250l219 211h-105l39 221h296l189 182h-509z" />
    <glyph glyph-name="uni01B7" unicode="&#x1b7;" horiz-adv-x="1423" 
d="M616 195q141 0 223.5 53t100.5 152q18 102 -48 154q-67 53 -213 53h-169l44 245l335 350h-670l51 291h1100l-44 -250l-422 -434q118 -11 187 -32q108 -33 165 -145q53 -103 27 -246q-38 -222 -211 -338q-174 -115 -500 -115q-139 0 -274 30q-134 31 -260 92l50 290
q128 -74 260.5 -112t267.5 -38z" />
    <glyph glyph-name="uni01B8" unicode="&#x1b8;" horiz-adv-x="1423" 
d="M620 195q134 0 280 38t300 112l-52 -290q-146 -61 -292 -92q-145 -30 -284 -30q-327 0 -460 115q-133 116 -94 338q25 143 114 246q97 112 215 145q78 21 200 32l-271 434l44 250h1100l-51 -291h-671l214 -350l-44 -245h-168q-146 0 -230 -53q-85 -52 -103 -154
q-17 -99 47 -152t206 -53z" />
    <glyph glyph-name="uni01B9" unicode="&#x1b9;" horiz-adv-x="1180" 
d="M904 479l-43 -245h-168q-147 0 -230 -52q-85 -53 -103 -155q-17 -99 47 -152t201 -53q93 0 194 28q101 27 208 81l-52 -297q-108 -37 -216 -56q-108 -18 -211 -18q-293 0 -426 116q-133 115 -94 337q25 143 114 245q96 113 215 146q82 23 230 32l-301 434l44 250h879
l-44 -256h-509z" />
    <glyph glyph-name="uni01BA" unicode="&#x1ba;" horiz-adv-x="1072" 
d="M698 546q97 -17 159 -65q71 -56 71 -159q0 -28 -6 -61q-24 -138 -118 -205q-91 -65 -303 -92l-55 -7q-97 -12 -129 -30q-35 -19 -43 -59v-15q0 -37 34 -57q41 -24 131 -24q99 0 199 22q100 21 198 64l-39 -226q-120 -31 -215 -44q-104 -14 -200 -14q-221 0 -323 75
q-80 59 -80 165q0 28 6 59q25 141 119 208q79 57 332 94l55 8q92 13 119 27q35 18 42 56q1 8 1 15q0 34 -32 50q-41 21 -264 21h-227l532 512h-508l45 256h879l-44 -250z" />
    <glyph glyph-name="uni01BB" unicode="&#x1bb;" horiz-adv-x="1282" 
d="M447 283h592l-50 -283h-976l49 283l314 263h-203l46 260h464q45 44 74 87q42 63 54 131q19 105 -33.5 169t-157.5 64q-81 0 -184 -39q-103 -38 -226 -114l57 328q125 43 242 66q119 22 229 22q241 0 354 -118t76 -329q-21 -122 -96 -227q-14 -19 -32 -40h25l-46 -260
h-256z" />
    <glyph glyph-name="uni01BC" unicode="&#x1bc;" horiz-adv-x="1423" 
d="M150 607l44 245l112 641h955l-51 -291h-609l-61 -350h197q230 0 371 -60q95 -40 148 -160q51 -115 27 -246q-38 -222 -211 -338q-174 -115 -500 -115q-343 0 -460 115q-130 130 -91 352h346q-17 -99 47 -152t202 -53q141 0 223.5 53t100.5 152q18 102 -48 154
q-67 53 -213 53h-182h-347z" />
    <glyph glyph-name="uni01BD" unicode="&#x1bd;" horiz-adv-x="1180" 
d="M136 234l43 245l113 641h764l-39 -221h-442l-74 -420h6q218 0 308 -47q134 -70 181 -174q51 -115 27 -245q-38 -222 -211 -337q-174 -116 -467 -116q-104 0 -205 18q-100 19 -195 56l51 297q89 -54 180 -81q90 -28 183 -28q138 0 220.5 53t100.5 152q18 102 -48 155
q-67 52 -214 52h-282z" />
    <glyph glyph-name="uni01BE" unicode="&#x1be;" horiz-adv-x="1055" 
d="M260 789l53 307h-141l34 194h141l27 148h322l-26 -148h232l-34 -194h-233l-11 -67q164 -31 239 -125q114 -145 74 -376q-38 -215 -180 -348q-224 -210 -442 -210q-163 0 -232 18q-70 17 -133 52l53 298q62 -43 128 -64q68 -22 140 -22q161 0 270 114q64 66 81 162
q12 71 -26 147q-57 114 -252 114h-84z" />
    <glyph glyph-name="uni01BF" unicode="&#x1bf;" horiz-adv-x="1319" 
d="M351 -132l-51 -294h-322l270 1546h323l-29 -165q97 111 181 148q101 44 270 44h6q182 0 234 -112q44 -92 44 -185q0 -41 -8 -81q-87 -427 -918 -901zM400 145q486 334 514 498q6 38 6 70q0 65 -26 109q-39 65 -152 65q-80 0 -248 -203q-47 -270 -94 -539z" />
    <glyph glyph-name="uni01C0" unicode="&#x1c0;" horiz-adv-x="685" 
d="M338 1493h346l-337 -1919h-346z" />
    <glyph glyph-name="uni01C1" unicode="&#x1c1;" horiz-adv-x="1214" 
d="M866 1493h346l-337 -1919h-346zM338 1493h346l-337 -1919h-346z" />
    <glyph glyph-name="uni01C2" unicode="&#x1c2;" horiz-adv-x="1002" 
d="M493 1493h347l-98 -560h316l-42 -235h-316l-38 -220h315l-41 -237h-316l-117 -667h-346l117 667h-316l41 237h316l39 220h-316l41 235h316z" />
    <glyph glyph-name="uni01C3" unicode="&#x1c3;" horiz-adv-x="685" 
d="M313 1493h325l-102 -573l-118 -418h-232l25 418zM114 356h324l-62 -356h-325z" />
    <glyph glyph-name="uni01C4" unicode="&#x1c4;" horiz-adv-x="2853" 
d="M1764 1493h1130l-43 -238l-871 -964h724l-52 -291h-1170l41 238l874 964h-684zM2504 1635h-314l-123 264h155l133 -162l208 162h160zM598 1202l-162 -911h125q242 0 383 151t141 408q0 174 -92 263t-274 89h-121zM301 1493h364q261 0 391.5 -34.5t217.5 -115.5
t131 -196.5t44 -261.5q0 -203 -75 -382.5t-211 -301.5q-119 -109 -276 -155t-483 -46h-365z" />
    <glyph glyph-name="uni01C5" unicode="&#x1c5;" horiz-adv-x="2673" 
d="M1731 1120h879l-44 -250l-628 -614h521l-44 -256h-901l42 250l630 614h-499zM2283 1262h-234l-165 376h158l141 -227l219 227h177zM598 1202l-162 -911h125q242 0 383 151t141 408q0 174 -92 263t-274 89h-121zM301 1493h364q261 0 391.5 -34.5t217.5 -115.5t131 -196.5
t44 -261.5q0 -203 -75 -382.5t-211 -301.5q-119 -109 -276 -155t-483 -46h-365z" />
    <glyph glyph-name="uni01C6" unicode="&#x1c6;" horiz-adv-x="2408" 
d="M1520 1120h879l-44 -250l-628 -614h521l-44 -256h-901l42 250l630 614h-499zM2072 1262h-234l-165 376h158l141 -227l219 227h177zM566 231q124 0 202 127t78 332q0 93 -43.5 145t-122.5 52q-122 0 -201 -125.5t-79 -321.5q0 -102 42.5 -155.5t123.5 -53.5zM905 956
l105 600h325l-273 -1556h-325l30 162q-74 -98 -155 -144.5t-177 -46.5q-170 0 -269 120t-99 327q0 129 34.5 251t99.5 222q82 126 185 191t221 65q103 0 175.5 -46.5t122.5 -144.5z" />
    <glyph glyph-name="uni01C7" unicode="&#x1c7;" horiz-adv-x="1800" 
d="M1475 1493h346l-236 -1348q-52 -292 -204.5 -423.5t-442.5 -131.5h-70l51 291h54q107 0 175 67.5t91 196.5zM301 1493h346l-211 -1202h607l-49 -291h-955z" />
    <glyph glyph-name="uni01C8" unicode="&#x1c8;" horiz-adv-x="1804" 
d="M1427 1120h324l-194 -1100q-41 -235 -154 -348.5t-305 -113.5h-160l41 235h56q91 0 133 45.5t65 181.5zM1502 1556h324l-51 -292h-325zM301 1493h346l-211 -1202h607l-49 -291h-955z" />
    <glyph glyph-name="uni01C9" unicode="&#x1c9;" horiz-adv-x="1234" 
d="M885 1120h324l-194 -1100q-41 -235 -154 -348.5t-305 -113.5h-160l41 235h56q91 0 133 45.5t65 181.5zM960 1556h324l-51 -292h-325zM328 1556h324l-272 -1556h-323z" />
    <glyph glyph-name="uni01CA" unicode="&#x1ca;" horiz-adv-x="2199" 
d="M1844 1493h346l-236 -1348q-52 -292 -204.5 -423.5t-442.5 -131.5h-70l51 291h54q107 0 175 67.5t91 196.5zM301 1493h387l307 -1034l181 1034h328l-262 -1493h-387l-308 1034l-180 -1034h-328z" />
    <glyph glyph-name="uni01CB" unicode="&#x1cb;" horiz-adv-x="2235" 
d="M1796 1120h324l-194 -1100q-41 -235 -154 -348.5t-305 -113.5h-160l41 235h56q91 0 133 45.5t65 181.5zM1871 1556h324l-51 -292h-325zM301 1493h387l307 -1034l181 1034h328l-262 -1493h-387l-308 1034l-180 -1034h-328z" />
    <glyph glyph-name="uni01CC" unicode="&#x1cc;" horiz-adv-x="1960" 
d="M1565 1120h324l-194 -1100q-41 -235 -154 -348.5t-305 -113.5h-160l41 235h56q91 0 133 45.5t65 181.5zM1640 1556h324l-51 -292h-325zM1189 682l-120 -682h-323l102 584q11 57 16.5 96.5t5.5 62.5q0 64 -32 99t-90 35q-100 0 -171.5 -86.5t-99.5 -239.5l-97 -551h-323
l196 1120h324l-30 -164q89 97 179 144t188 47q140 0 215.5 -81t75.5 -228q0 -32 -4 -71t-12 -85z" />
    <glyph glyph-name="uni01CD" unicode="&#x1cd;" horiz-adv-x="1426" 
d="M905 272h-536l-133 -272h-356l760 1493h396l238 -1493h-330zM500 543h360l-81 575zM1005 1635h-314l-123 264h155l133 -162l208 162h160z" />
    <glyph glyph-name="uni01CE" unicode="&#x1ce;" horiz-adv-x="1243" 
d="M607 504q-121 0 -182.5 -41.5t-61.5 -122.5q0 -61 36.5 -96t100.5 -35q98 0 165 66.5t89 187.5l7 41h-154zM1110 639l-113 -639h-322l27 166q-79 -100 -167.5 -147.5t-191.5 -47.5q-143 0 -227 82.5t-84 222.5q0 214 148.5 327.5t429.5 113.5h190l4 28q2 14 2.5 20
t0.5 11q0 66 -56 99.5t-167 33.5q-100 0 -193.5 -23t-180.5 -69l48 273q101 28 207 42.5t219 14.5q224 0 333 -85.5t109 -260.5q0 -34 -4 -74.5t-12 -87.5zM838 1262h-234l-165 376h158l141 -227l219 227h177z" />
    <glyph glyph-name="uni01CF" unicode="&#x1cf;" horiz-adv-x="685" 
d="M301 1493h346l-262 -1493h-346zM652 1635h-314l-123 264h155l133 -162l208 162h160z" />
    <glyph glyph-name="uni01D0" unicode="&#x1d0;" horiz-adv-x="631" 
d="M253 1120h324l-197 -1120h-323zM546 1262h-234l-165 376h158l141 -227l219 227h177z" />
    <glyph glyph-name="uni01D1" unicode="&#x1d1;" horiz-adv-x="1566" 
d="M1134 881q0 176 -71.5 268t-207.5 92q-180 0 -302 -179.5t-122 -449.5q0 -172 71 -267t198 -95q104 0 184.5 48.5t137.5 143.5q54 91 83 205t29 234zM905 1520q269 0 432 -165.5t163 -432.5q0 -182 -50 -344t-145 -291q-117 -159 -277 -237.5t-368 -78.5
q-268 0 -430.5 165t-162.5 433q0 183 49.5 345t145.5 292q115 158 275 236t368 78zM1100 1635h-314l-123 264h155l133 -162l208 162h160z" />
    <glyph glyph-name="uni01D2" unicode="&#x1d2;" horiz-adv-x="1266" 
d="M691 891q-125 0 -206 -126t-81 -321q0 -106 43.5 -161.5t127.5 -55.5q125 0 206 126.5t81 322.5q0 105 -43.5 160t-127.5 55zM717 1147q225 0 354 -127t129 -346q0 -127 -40.5 -246.5t-118.5 -218.5q-91 -118 -216.5 -178t-279.5 -60q-222 0 -350 127t-128 346
q0 126 41 246.5t119 220.5q90 116 214.5 176t275.5 60zM870 1262h-234l-165 376h158l141 -227l219 227h177z" />
    <glyph glyph-name="uni01D3" unicode="&#x1d3;" horiz-adv-x="1496" 
d="M301 1493h346l-157 -894q-8 -48 -12.5 -85t-4.5 -65q0 -98 47.5 -146.5t141.5 -48.5q126 0 193 78.5t100 265.5l157 895h346l-157 -895q-58 -330 -221.5 -478.5t-467.5 -148.5q-238 0 -362.5 113.5t-124.5 329.5q0 36 4.5 80.5t14.5 103.5zM1037 1635h-314l-123 264h155
l133 -162l208 162h160z" />
    <glyph glyph-name="uni01D4" unicode="&#x1d4;" horiz-adv-x="1312" 
d="M125 436l118 684h323l-102 -583q-10 -57 -15.5 -97t-5.5 -63q0 -63 31.5 -98t89.5 -35q100 0 172 86t99 239l97 551h324l-196 -1120h-325l30 164q-83 -97 -174 -145t-191 -48q-138 0 -213.5 81t-75.5 229q0 35 3.5 74t10.5 81zM870 1262h-234l-165 376h158l141 -227
l219 227h177z" />
    <glyph glyph-name="uni01D5" unicode="&#x1d5;" horiz-adv-x="1496" 
d="M715 2130h567l-33 -188h-568zM667 1870h212l-42 -246h-212zM1022 1870h215l-45 -246h-212zM301 1493h346l-157 -894q-8 -48 -12.5 -85t-4.5 -65q0 -98 47.5 -146.5t141.5 -48.5q126 0 193 78.5t100 265.5l157 895h346l-157 -895q-58 -330 -221.5 -478.5t-467.5 -148.5
q-238 0 -362.5 113.5t-124.5 329.5q0 36 4.5 80.5t14.5 103.5z" />
    <glyph glyph-name="uni01D6" unicode="&#x1d6;" horiz-adv-x="1312" 
d="M125 436l118 684h323l-102 -583q-10 -57 -15.5 -97t-5.5 -63q0 -63 31.5 -98t89.5 -35q100 0 172 86t99 239l97 551h324l-196 -1120h-325l30 164q-83 -97 -174 -145t-191 -48q-138 0 -213.5 81t-75.5 229q0 35 3.5 74t10.5 81zM517 1585h214l-44 -246h-212zM875 1585h212
l-44 -246h-212zM560 1871h567l-33 -188h-568z" />
    <glyph glyph-name="uni01D7" unicode="&#x1d7;" horiz-adv-x="1496" 
d="M1054 2165h252l-287 -264h-186zM638 1870h212l-42 -246h-212zM993 1870h215l-45 -246h-212zM301 1493h346l-157 -894q-8 -48 -12.5 -85t-4.5 -65q0 -98 47.5 -146.5t141.5 -48.5q126 0 193 78.5t100 265.5l157 895h346l-157 -895q-58 -330 -221.5 -478.5t-467.5 -148.5
q-238 0 -362.5 113.5t-124.5 329.5q0 36 4.5 80.5t14.5 103.5z" />
    <glyph glyph-name="uni01D8" unicode="&#x1d8;" horiz-adv-x="1312" 
d="M932 1877h252l-287 -264h-186zM516 1582h212l-42 -246h-212zM871 1582h215l-45 -246h-212zM125 436l118 684h323l-102 -583q-10 -57 -15.5 -97t-5.5 -63q0 -63 31.5 -98t89.5 -35q100 0 172 86t99 239l97 551h324l-196 -1120h-325l30 164q-83 -97 -174 -145t-191 -48
q-138 0 -213.5 81t-75.5 229q0 35 3.5 74t10.5 81z" />
    <glyph glyph-name="uni01D9" unicode="&#x1d9;" horiz-adv-x="1496" 
d="M1071 1901h-314l-123 264h155l133 -162l208 162h160zM631 1870h212l-42 -246h-212zM986 1870h215l-45 -246h-212zM301 1493h346l-157 -894q-8 -48 -12.5 -85t-4.5 -65q0 -98 47.5 -146.5t141.5 -48.5q126 0 193 78.5t100 265.5l157 895h346l-157 -895
q-58 -330 -221.5 -478.5t-467.5 -148.5q-238 0 -362.5 113.5t-124.5 329.5q0 36 4.5 80.5t14.5 103.5z" />
    <glyph glyph-name="uni01DA" unicode="&#x1da;" horiz-adv-x="1312" 
d="M956 1613h-314l-123 264h155l133 -162l208 162h160zM516 1582h212l-42 -246h-212zM871 1582h215l-45 -246h-212zM125 436l118 684h323l-102 -583q-10 -57 -15.5 -97t-5.5 -63q0 -63 31.5 -98t89.5 -35q100 0 172 86t99 239l97 551h324l-196 -1120h-325l30 164
q-83 -97 -174 -145t-191 -48q-138 0 -213.5 81t-75.5 229q0 35 3.5 74t10.5 81z" />
    <glyph glyph-name="uni01DB" unicode="&#x1db;" horiz-adv-x="1496" 
d="M868 2165l129 -264h-160l-207 264h238zM631 1870h212l-42 -246h-212zM986 1870h215l-45 -246h-212zM301 1493h346l-157 -894q-8 -48 -12.5 -85t-4.5 -65q0 -98 47.5 -146.5t141.5 -48.5q126 0 193 78.5t100 265.5l157 895h346l-157 -895q-58 -330 -221.5 -478.5
t-467.5 -148.5q-238 0 -362.5 113.5t-124.5 329.5q0 36 4.5 80.5t14.5 103.5z" />
    <glyph glyph-name="uni01DC" unicode="&#x1dc;" horiz-adv-x="1312" 
d="M753 1877l129 -264h-160l-207 264h238zM516 1582h212l-42 -246h-212zM871 1582h215l-45 -246h-212zM125 436l118 684h323l-102 -583q-10 -57 -15.5 -97t-5.5 -63q0 -63 31.5 -98t89.5 -35q100 0 172 86t99 239l97 551h324l-196 -1120h-325l30 164q-83 -97 -174 -145
t-191 -48q-138 0 -213.5 81t-75.5 229q0 35 3.5 74t10.5 81z" />
    <glyph glyph-name="uni01DD" unicode="&#x1dd;" horiz-adv-x="1250" 
d="M78 555l18 102h754q10 126 -49 189t-185 63q-102 0 -215 -33q-112 -34 -236 -102l47 276q124 48 242 72q118 25 233 25q273 0 398 -155q125 -154 76 -433q-48 -274 -224.5 -431t-436.5 -157q-238 0 -353 159t-69 425zM389 436q-18 -102 25 -164q42 -63 129 -63
q93 0 162 59q69 58 102 168h-418z" />
    <glyph glyph-name="uni01DE" unicode="&#x1de;" horiz-adv-x="1426" 
d="M672 2130h567l-33 -188h-568zM624 1870h212l-42 -246h-212zM979 1870h215l-45 -246h-212zM905 272h-536l-133 -272h-356l760 1493h396l238 -1493h-330zM500 543h360l-81 575z" />
    <glyph glyph-name="uni01DF" unicode="&#x1df;" horiz-adv-x="1243" 
d="M607 504q-121 0 -182.5 -41.5t-61.5 -122.5q0 -61 36.5 -96t100.5 -35q98 0 165 66.5t89 187.5l7 41h-154zM1110 639l-113 -639h-322l27 166q-79 -100 -167.5 -147.5t-191.5 -47.5q-143 0 -227 82.5t-84 222.5q0 214 148.5 327.5t429.5 113.5h190l4 28q2 14 2.5 20
t0.5 11q0 66 -56 99.5t-167 33.5q-100 0 -193.5 -23t-180.5 -69l48 273q101 28 207 42.5t219 14.5q224 0 333 -85.5t109 -260.5q0 -34 -4 -74.5t-12 -87.5zM484 1585h214l-44 -246h-212zM842 1585h212l-44 -246h-212zM510 1871h567l-33 -188h-568z" />
    <glyph glyph-name="uni01E0" unicode="&#x1e0;" horiz-adv-x="1426" 
d="M789 1870h247l-42 -246h-247zM675 2130h567l-33 -188h-568zM905 272h-536l-133 -272h-356l760 1493h396l238 -1493h-330zM500 543h360l-81 575z" />
    <glyph glyph-name="uni01E1" unicode="&#x1e1;" horiz-adv-x="1243" 
d="M689 1545h247l-42 -246h-247zM575 1805h567l-33 -188h-568zM607 504q-121 0 -182.5 -41.5t-61.5 -122.5q0 -61 36.5 -96t100.5 -35q98 0 165 66.5t89 187.5l7 41h-154zM1110 639l-113 -639h-322l27 166q-79 -100 -167.5 -147.5t-191.5 -47.5q-143 0 -227 82.5t-84 222.5
q0 214 148.5 327.5t429.5 113.5h190l4 28q2 14 2.5 20t0.5 11q0 66 -56 99.5t-167 33.5q-100 0 -193.5 -23t-180.5 -69l48 273q101 28 207 42.5t219 14.5q224 0 333 -85.5t109 -260.5q0 -34 -4 -74.5t-12 -87.5z" />
    <glyph glyph-name="uni01E2" unicode="&#x1e2;" horiz-adv-x="1999" 
d="M886 1237l-337 -610h339l107 610h-109zM697 1493h1279l-52 -291h-588l-47 -278h552l-51 -291h-553l-59 -342h606l-50 -291h-955l62 350h-443l-196 -350h-346zM1062 1871h567l-33 -188h-568z" />
    <glyph glyph-name="uni01E3" unicode="&#x1e3;" horiz-adv-x="1931" 
d="M607 504q-121 0 -182.5 -41.5t-61.5 -122.5q0 -61 36.5 -96t100.5 -35q98 0 165 66.5t89 187.5l7 41h-154zM262 1090q105 28 205.5 42.5t194.5 14.5q134 0 222 -36.5t139 -113.5q86 77 181.5 113.5t213.5 36.5q200 0 320 -122t120 -323q0 -45 -4.5 -91t-13.5 -93l-13 -57
h-752q0 -6 -1 -17.5t-1 -17.5q0 -109 59 -163t177 -54q100 0 212.5 33.5t237.5 101.5l-48 -278q-118 -48 -235.5 -71.5t-238.5 -23.5q-156 0 -262.5 51.5t-165.5 155.5q-105 -105 -216 -156t-236 -51q-153 0 -239 81t-86 222q0 216 148.5 329.5t433.5 113.5h184l6 29
q2 13 2.5 19t0.5 11q0 66 -55.5 99.5t-163.5 33.5q-103 0 -196 -23t-178 -69zM1535 682q3 13 4.5 26.5t1.5 26.5q0 80 -43.5 127t-116.5 47q-95 0 -162 -58t-100 -169h416zM799 1553h567l-33 -188h-568z" />
    <glyph glyph-name="uni01E4" unicode="&#x1e4;" horiz-adv-x="1512" 
d="M1302 382l-46 -271q-132 -71 -273 -105q-141 -35 -303 -35q-286 0 -450 161q-163 162 -163 441q0 181 51 339q51 159 153 290q124 160 292 239q170 79 387 79q120 0 242.5 -28t241.5 -83l-53 -309q-110 71 -215 106t-211 35q-232 0 -378 -172t-146 -442q0 -179 86 -278
q84 -99 239 -99q50 0 101 8q50 7 101 23l18 101h-104l12 87h108l18 102h-212l44 258h539l-63 -360h110l-11 -87h-115z" />
    <glyph glyph-name="uni01E5" unicode="&#x1e5;" horiz-adv-x="1319" 
d="M680 887q-118 0 -198 -119q-78 -119 -78 -299q0 -102 42 -155q43 -54 124 -54q118 0 197 118q79 119 79 296q0 104 -42 158q-43 55 -124 55zM706 -44q34 65 50 157l14 77q-77 -98 -157 -144t-175 -46q-171 0 -271 122q-99 123 -99 335q0 113 35 227q35 113 99 213
q80 121 182 185q103 63 221 63q106 0 178 -46q73 -46 122 -145l27 166h325l-170 -973q-18 -105 -51 -191h144l-20 -89h-165q-53 -98 -131 -165q-171 -144 -475 -144q-94 0 -180 16q-87 16 -172 49l48 279q76 -54 153 -80q76 -27 156 -27q156 0 241 72h-381l20 89h432z" />
    <glyph glyph-name="Gcaron" unicode="&#x1e6;" horiz-adv-x="1512" 
d="M1256 111q-132 -71 -273 -105.5t-303 -34.5q-286 0 -449.5 161.5t-163.5 440.5q0 181 51 339.5t153 289.5q124 160 293 239t386 79q120 0 242.5 -28t241.5 -83l-53 -309q-110 71 -215 106t-211 35q-232 0 -378 -172t-146 -442q0 -179 85 -278t240 -99q50 0 100.5 7.5
t101.5 23.5l52 290h-212l44 258h539zM1131 1635h-314l-123 264h155l133 -162l208 162h160z" />
    <glyph glyph-name="gcaron" unicode="&#x1e7;" horiz-adv-x="1319" 
d="M895 1260h-234l-165 376h158l141 -227l219 227h177zM770 190q-77 -98 -157 -144t-175 -46q-171 0 -270.5 122.5t-99.5 334.5q0 113 35 226.5t99 213.5q80 121 182.5 184.5t220.5 63.5q106 0 178.5 -46t121.5 -145l27 166h325l-170 -973q-52 -301 -223 -445t-475 -144
q-94 0 -180.5 16t-171.5 49l48 279q76 -54 152.5 -80.5t156.5 -26.5q160 0 246 76t116 242zM680 887q-118 0 -197 -119t-79 -299q0 -102 42.5 -155.5t123.5 -53.5q118 0 197 118.5t79 295.5q0 104 -42.5 158.5t-123.5 54.5z" />
    <glyph glyph-name="uni01E8" unicode="&#x1e8;" horiz-adv-x="1428" 
d="M301 1493h346l-94 -537l571 537h419l-771 -725l581 -768h-407l-452 623l-109 -623h-346zM676 1633h-314l-123 264h155l133 -162l208 162h160z" />
    <glyph glyph-name="uni01E9" unicode="&#x1e9;" horiz-adv-x="1225" 
d="M328 1556h324l-147 -843l435 407h379l-585 -518l425 -602h-368l-327 483l-84 -483h-323zM687 1633h-314l-123 264h155l133 -162l208 162h160z" />
    <glyph glyph-name="uni01EA" unicode="&#x1ea;" horiz-adv-x="1566" 
d="M1134 881q0 176 -71.5 268t-207.5 92q-180 0 -302 -179.5t-122 -449.5q0 -172 71 -267t198 -95q104 0 184.5 48.5t137.5 143.5q54 91 83 205t29 234zM905 1520q269 0 432 -165.5t163 -432.5q0 -182 -50 -344t-145 -291q-117 -159 -277 -237.5t-368 -78.5
q-268 0 -430.5 165t-162.5 433q0 183 49.5 345t145.5 292q115 158 275 236t368 78zM588 0h128q-64 -74 -87.5 -114t-23.5 -68q0 -34 22.5 -53t62.5 -19q33 0 70 8t76 23l-26 -152q-52 -13 -92.5 -19.5t-75.5 -6.5q-95 0 -145 34.5t-50 100.5q0 65 33.5 128t107.5 138z" />
    <glyph glyph-name="uni01EB" unicode="&#x1eb;" horiz-adv-x="1266" 
d="M691 891q-125 0 -206 -126t-81 -321q0 -106 43.5 -161.5t127.5 -55.5q125 0 206 126.5t81 322.5q0 105 -43.5 160t-127.5 55zM717 1147q225 0 354 -127t129 -346q0 -127 -40.5 -246.5t-118.5 -218.5q-91 -118 -216.5 -178t-279.5 -60q-222 0 -350 127t-128 346
q0 126 41 246.5t119 220.5q90 116 214.5 176t275.5 60zM472 0h128q-64 -74 -87.5 -114t-23.5 -68q0 -34 22.5 -53t62.5 -19q33 0 70 8t76 23l-26 -152q-52 -13 -92.5 -19.5t-75.5 -6.5q-95 0 -145 34.5t-50 100.5q0 65 33.5 128t107.5 138z" />
    <glyph glyph-name="uni01EC" unicode="&#x1ec;" horiz-adv-x="1566" 
d="M1134 881q0 176 -71.5 268t-207.5 92q-180 0 -302 -179.5t-122 -449.5q0 -172 71 -267t198 -95q104 0 184.5 48.5t137.5 143.5q54 91 83 205t29 234zM905 1520q269 0 432 -165.5t163 -432.5q0 -182 -50 -344t-145 -291q-117 -159 -277 -237.5t-368 -78.5
q-268 0 -430.5 165t-162.5 433q0 183 49.5 345t145.5 292q115 158 275 236t368 78zM588 0h128q-64 -74 -87.5 -114t-23.5 -68q0 -34 22.5 -53t62.5 -19q33 0 70 8t76 23l-26 -152q-52 -13 -92.5 -19.5t-75.5 -6.5q-95 0 -145 34.5t-50 100.5q0 65 33.5 128t107.5 138z
M641 1871h567l-33 -188h-568z" />
    <glyph glyph-name="uni01ED" unicode="&#x1ed;" horiz-adv-x="1266" 
d="M691 891q-125 0 -206 -126t-81 -321q0 -106 43.5 -161.5t127.5 -55.5q125 0 206 126.5t81 322.5q0 105 -43.5 160t-127.5 55zM717 1147q225 0 354 -127t129 -346q0 -127 -40.5 -246.5t-118.5 -218.5q-91 -118 -216.5 -178t-279.5 -60q-222 0 -350 127t-128 346
q0 126 41 246.5t119 220.5q90 116 214.5 176t275.5 60zM472 0h128q-64 -74 -87.5 -114t-23.5 -68q0 -34 22.5 -53t62.5 -19q33 0 70 8t76 23l-26 -152q-52 -13 -92.5 -19.5t-75.5 -6.5q-95 0 -145 34.5t-50 100.5q0 65 33.5 128t107.5 138zM493 1562h567l-33 -188h-568z" />
    <glyph glyph-name="uni01EE" unicode="&#x1ee;" horiz-adv-x="1423" 
d="M974 1635h-314l-123 264h155l133 -162l208 162h160zM616 195q141 0 223.5 53t100.5 152q18 102 -48 154q-67 53 -213 53h-169l44 245l335 350h-670l51 291h1100l-44 -250l-422 -434q118 -11 187 -32q108 -33 165 -145q53 -103 27 -246q-38 -222 -211 -338
q-174 -115 -500 -115q-139 0 -274 30q-134 31 -260 92l50 290q128 -74 260.5 -112t267.5 -38z" />
    <glyph glyph-name="uni01EF" unicode="&#x1ef;" horiz-adv-x="1072" 
d="M267 479l401 385h-509l45 256h879l-44 -250l-451 -434q144 -9 216 -32q108 -33 166 -146q52 -102 27 -245q-39 -222 -211 -337q-174 -116 -468 -116q-103 0 -204 18q-100 19 -195 56l51 297q88 -54 179 -81q91 -28 184 -28q137 0 220 53t100 152q18 102 -47 155
q-67 52 -214 52h-168zM779 1249h-234l-165 376h158l141 -227l219 227h177z" />
    <glyph glyph-name="uni01F0" unicode="&#x1f0;" horiz-adv-x="631" 
d="M253 1120h324l-194 -1100q-41 -235 -154 -348q-113 -114 -305 -114h-160l41 235h56q91 0 134 45q41 46 64 182zM562 1263h-234l-164 376h158l141 -227l219 227h177z" />
    <glyph glyph-name="uni01F1" unicode="&#x1f1;" horiz-adv-x="2853" 
d="M1764 1493h1130l-43 -238l-871 -964h724l-52 -291h-1170l41 238l874 964h-684zM598 1202l-162 -911h125q242 0 383 151t141 408q0 174 -92 263t-274 89h-121zM301 1493h364q261 0 391.5 -34.5t217.5 -115.5t131 -196.5t44 -261.5q0 -203 -75 -382.5t-211 -301.5
q-119 -109 -276 -155t-483 -46h-365z" />
    <glyph glyph-name="uni01F2" unicode="&#x1f2;" horiz-adv-x="2673" 
d="M1731 1120h879l-44 -250l-628 -614h521l-44 -256h-901l42 250l630 614h-499zM598 1202l-162 -911h125q242 0 383 151t141 408q0 174 -92 263t-274 89h-121zM301 1493h364q261 0 391.5 -34.5t217.5 -115.5t131 -196.5t44 -261.5q0 -203 -75 -382.5t-211 -301.5
q-119 -109 -276 -155t-483 -46h-365z" />
    <glyph glyph-name="uni01F3" unicode="&#x1f3;" horiz-adv-x="2408" 
d="M1520 1120h879l-44 -250l-628 -614h521l-44 -256h-901l42 250l630 614h-499zM566 231q124 0 202 127t78 332q0 93 -43.5 145t-122.5 52q-122 0 -201 -125.5t-79 -321.5q0 -102 42.5 -155.5t123.5 -53.5zM905 956l105 600h325l-273 -1556h-325l30 162q-74 -98 -155 -144.5
t-177 -46.5q-170 0 -269 120t-99 327q0 129 34.5 251t99.5 222q82 126 185 191t221 65q103 0 175.5 -46.5t122.5 -144.5z" />
    <glyph glyph-name="uni01F4" unicode="&#x1f4;" horiz-adv-x="1512" 
d="M923 1900h252l-287 -264h-186zM1256 111q-132 -71 -273 -105.5t-303 -34.5q-286 0 -449.5 161.5t-163.5 440.5q0 181 51 339.5t153 289.5q124 160 293 239t386 79q120 0 242.5 -28t241.5 -83l-53 -309q-110 71 -215 106t-211 35q-232 0 -378 -172t-146 -442
q0 -179 85 -278t240 -99q50 0 100.5 7.5t101.5 23.5l52 290h-212l44 258h539z" />
    <glyph glyph-name="uni01F5" unicode="&#x1f5;" horiz-adv-x="1319" 
d="M770 190q-77 -98 -157 -144t-175 -46q-171 0 -270.5 122.5t-99.5 334.5q0 113 35 226.5t99 213.5q80 121 182.5 184.5t220.5 63.5q106 0 178.5 -46t121.5 -145l27 166h325l-170 -973q-52 -301 -223 -445t-475 -144q-94 0 -180.5 16t-171.5 49l48 279q76 -54 152.5 -80.5
t156.5 -26.5q160 0 246 76t116 242zM680 887q-118 0 -197 -119t-79 -299q0 -102 42.5 -155.5t123.5 -53.5q118 0 197 118.5t79 295.5q0 104 -42.5 158.5t-123.5 54.5zM872 1635h264l-395 -376h-181z" />
    <glyph glyph-name="uni01F6" unicode="&#x1f6;" horiz-adv-x="2375" 
d="M1060 924l100 569h347l-157 -895q-32 -185 8 -264q41 -80 164 -80q124 0 192 80q69 79 101 264l91 522h347l-91 -522q-56 -317 -226 -472t-464 -155q-291 -1 -408 155q-116 155 -60 472l6 35h-511l-111 -633h-347l261 1493h347l-100 -569h511z" />
    <glyph glyph-name="uni01F7" unicode="&#x1f7;" horiz-adv-x="1450" 
d="M412 113l-94 -539h-355l336 1919h354l-32 -185q103 118 200 163q106 49 303 49q200 0 258 -124q46 -101 46 -207q0 -42 -8 -85q-80 -462 -1008 -991zM465 417q533 368 565 548q7 41 7 76q0 72 -29 121q-42 72 -167 72q-88 0 -272 -224z" />
    <glyph glyph-name="uni01F8" unicode="&#x1f8;" horiz-adv-x="1542" 
d="M979 1899l129 -264h-160l-207 264h238zM301 1493h387l307 -1034l181 1034h328l-262 -1493h-387l-308 1034l-180 -1034h-328z" />
    <glyph glyph-name="uni01F9" unicode="&#x1f9;" horiz-adv-x="1312" 
d="M1189 682l-120 -682h-323l102 584q11 57 16.5 96.5t5.5 62.5q0 64 -32 99t-90 35q-100 0 -171.5 -86.5t-99.5 -239.5l-97 -551h-323l196 1120h324l-30 -164q89 97 179 144t188 47q140 0 215.5 -81t75.5 -228q0 -32 -4 -71t-12 -85zM786 1635l188 -376h-177l-266 376h255z
" />
    <glyph glyph-name="Aringacute" unicode="&#x1fa;" horiz-adv-x="1426" 
d="M1345 2019h252l-287 -264h-186zM716 1616q0 -54 34.5 -92.5t82.5 -38.5q49 0 83.5 38.5t34.5 92.5t-35 92.5t-83 38.5t-82.5 -38.5t-34.5 -92.5zM1040 1456l234 -1456h-330l-39 272h-536l-133 -272h-356l743 1458q-24 37 -35 75.5t-11 82.5q0 117 75 201t181 84t181 -84
t75 -201q0 -48 -11.5 -86.5t-37.5 -73.5zM500 543h360l-81 575z" />
    <glyph glyph-name="aringacute" unicode="&#x1fb;" horiz-adv-x="1243" 
d="M1248 1907h252l-287 -264h-186zM607 504q-121 0 -182.5 -41.5t-61.5 -122.5q0 -61 36.5 -96t100.5 -35q98 0 165 66.5t89 187.5l7 41h-154zM1110 639l-113 -639h-322l27 166q-79 -100 -167.5 -147.5t-191.5 -47.5q-143 0 -227 82.5t-84 222.5q0 214 148.5 327.5
t429.5 113.5h190l4 28q2 14 2.5 20t0.5 11q0 66 -56 99.5t-167 33.5q-100 0 -193.5 -23t-180.5 -69l48 273q101 28 207 42.5t219 14.5q224 0 333 -85.5t109 -260.5q0 -34 -4 -74.5t-12 -87.5zM1013 1524q0 -120 -74 -202.5t-181 -82.5q-108 0 -182.5 82.5t-74.5 202.5
t74.5 202t182.5 82q107 0 181 -82t74 -202zM892 1524q0 65 -38 107t-96 42q-60 0 -97.5 -42t-37.5 -107t38 -107.5t97 -42.5q58 0 96 42t38 108z" />
    <glyph glyph-name="AEacute" unicode="&#x1fc;" horiz-adv-x="1999" 
d="M1301 1900h252l-287 -264h-186zM886 1237l-337 -610h339l107 610h-109zM697 1493h1279l-52 -291h-588l-47 -278h552l-51 -291h-553l-59 -342h606l-50 -291h-955l62 350h-443l-196 -350h-346z" />
    <glyph glyph-name="aeacute" unicode="&#x1fd;" horiz-adv-x="1931" 
d="M607 504q-121 0 -182.5 -41.5t-61.5 -122.5q0 -61 36.5 -96t100.5 -35q98 0 165 66.5t89 187.5l7 41h-154zM262 1090q105 28 205.5 42.5t194.5 14.5q134 0 222 -36.5t139 -113.5q86 77 181.5 113.5t213.5 36.5q200 0 320 -122t120 -323q0 -45 -4.5 -91t-13.5 -93l-13 -57
h-752q0 -6 -1 -17.5t-1 -17.5q0 -109 59 -163t177 -54q100 0 212.5 33.5t237.5 101.5l-48 -278q-118 -48 -235.5 -71.5t-238.5 -23.5q-156 0 -262.5 51.5t-165.5 155.5q-105 -105 -216 -156t-236 -51q-153 0 -239 81t-86 222q0 216 148.5 329.5t433.5 113.5h184l6 29
q2 13 2.5 19t0.5 11q0 66 -55.5 99.5t-163.5 33.5q-103 0 -196 -23t-178 -69zM1535 682q3 13 4.5 26.5t1.5 26.5q0 80 -43.5 127t-116.5 47q-95 0 -162 -58t-100 -169h416zM1145 1636h264l-395 -376h-181z" />
    <glyph glyph-name="Oslashacute" unicode="&#x1fe;" horiz-adv-x="1566" 
d="M961 1900h252l-287 -264h-186zM1076 1128q-36 57 -90.5 85t-128.5 28q-182 0 -303 -178.5t-121 -450.5q0 -22 3 -74v-6zM142 258q-38 74 -56.5 152.5t-18.5 158.5q0 183 49.5 345t145.5 292q116 159 275 236.5t368 77.5q134 0 238.5 -39t184.5 -117l232 215l92 -123
l-233 -213q41 -76 61 -157t20 -166q0 -182 -50 -344t-145 -291q-117 -158 -277 -236t-368 -78q-133 0 -239 41t-189 123l-227 -213l-91 123zM485 371q35 -59 90 -90t125 -31q104 0 184.5 48.5t137.5 143.5q54 92 84 206.5t30 230.5q0 25 -6 78q-1 8 -2 12z" />
    <glyph glyph-name="oslashacute" unicode="&#x1ff;" horiz-adv-x="1266" 
d="M814 842q-20 24 -51 36.5t-72 12.5q-126 0 -202 -119.5t-85 -333.5zM137 174q-35 59 -52.5 127.5t-17.5 144.5q0 126 40.5 245.5t119.5 219.5q90 117 214.5 176.5t279.5 59.5q93 0 170.5 -23t138.5 -69l173 168l88 -111l-165 -162q37 -59 55.5 -128t18.5 -148
q0 -127 -40.5 -246.5t-118.5 -218.5q-91 -116 -217 -177t-279 -61q-98 0 -176.5 24.5t-139.5 74.5l-174 -172l-87 112zM448 283q23 -28 54 -42t73 -14q127 0 204 124t83 341zM835 1639h264l-395 -376h-181z" />
    <glyph glyph-name="uni0200" unicode="&#x200;" horiz-adv-x="1426" 
d="M905 272h-536l-133 -272h-356l760 1493h396l238 -1493h-330zM500 543h360l-81 575zM1085 1904l130 -264h-161l-207 264h238zM765 1904l129 -264h-160l-207 264h238z" />
    <glyph glyph-name="uni0201" unicode="&#x201;" horiz-adv-x="1243" 
d="M607 504q-121 0 -182.5 -41.5t-61.5 -122.5q0 -61 36.5 -96t100.5 -35q98 0 165 66.5t89 187.5l7 41h-154zM1110 639l-113 -639h-322l27 166q-79 -100 -167.5 -147.5t-191.5 -47.5q-143 0 -227 82.5t-84 222.5q0 214 148.5 327.5t429.5 113.5h190l4 28q2 14 2.5 20
t0.5 11q0 66 -56 99.5t-167 33.5q-100 0 -193.5 -23t-180.5 -69l48 273q101 28 207 42.5t219 14.5q224 0 333 -85.5t109 -260.5q0 -34 -4 -74.5t-12 -87.5zM908 1638l109 -376h-147l-158 376h196zM581 1638l128 -376h-157l-179 376h208z" />
    <glyph glyph-name="uni0202" unicode="&#x202;" horiz-adv-x="1426" 
d="M905 272h-536l-133 -272h-356l760 1493h396l238 -1493h-330zM500 543h360l-81 575zM1207 1675h-128q-9 60 -45.5 87.5t-107.5 27.5q-65 0 -113 -30.5t-68 -84.5h-138q35 129 124 196.5t223 67.5q122 0 187.5 -67.5t65.5 -192.5v-4z" />
    <glyph glyph-name="uni0203" unicode="&#x203;" horiz-adv-x="1243" 
d="M607 504q-121 0 -182.5 -41.5t-61.5 -122.5q0 -61 36.5 -96t100.5 -35q98 0 165 66.5t89 187.5l7 41h-154zM1110 639l-113 -639h-322l27 166q-79 -100 -167.5 -147.5t-191.5 -47.5q-143 0 -227 82.5t-84 222.5q0 214 148.5 327.5t429.5 113.5h190l4 28q2 14 2.5 20
t0.5 11q0 66 -56 99.5t-167 33.5q-100 0 -193.5 -23t-180.5 -69l48 273q101 28 207 42.5t219 14.5q224 0 333 -85.5t109 -260.5q0 -34 -4 -74.5t-12 -87.5zM1030 1309h-128v9q0 65 -38.5 100t-110.5 35q-73 0 -120 -35.5t-72 -108.5h-137q31 143 123 220t233 77
q126 0 189.5 -62t63.5 -183q0 -21 -0.5 -31.5t-2.5 -20.5z" />
    <glyph glyph-name="uni0204" unicode="&#x204;" horiz-adv-x="1259" 
d="M301 1493h934l-51 -291h-588l-49 -278h554l-53 -291h-552l-60 -342h607l-49 -291h-955zM1009 1904l130 -264h-161l-207 264h238zM689 1904l129 -264h-160l-207 264h238z" />
    <glyph glyph-name="uni0205" unicode="&#x205;" horiz-adv-x="1250" 
d="M1159 518l-11 -57h-754q0 -6 -1 -17.5t-1 -17.5q0 -109 59 -163t177 -54q102 0 215 34t237 101l-50 -278q-117 -48 -233.5 -71.5t-237.5 -23.5q-236 0 -364 121t-128 342q0 128 40.5 248.5t119.5 220.5q93 120 222 182t286 62q205 0 325 -121t120 -326q0 -40 -5 -84.5
t-16 -97.5zM855 682q3 13 4 26.5t1 26.5q0 80 -43 127t-117 47q-94 0 -160.5 -57.5t-101.5 -169.5h417zM951 1638l109 -376h-147l-158 376h196zM624 1638l128 -376h-157l-179 376h208z" />
    <glyph glyph-name="uni0206" unicode="&#x206;" horiz-adv-x="1259" 
d="M301 1493h934l-51 -291h-588l-49 -278h554l-53 -291h-552l-60 -342h607l-49 -291h-955zM1132 1675h-128q-9 60 -45.5 87.5t-107.5 27.5q-65 0 -113 -30.5t-68 -84.5h-138q35 129 124 196.5t223 67.5q122 0 187.5 -67.5t65.5 -192.5v-4z" />
    <glyph glyph-name="uni0207" unicode="&#x207;" horiz-adv-x="1250" 
d="M1159 518l-11 -57h-754q0 -6 -1 -17.5t-1 -17.5q0 -109 59 -163t177 -54q102 0 215 34t237 101l-50 -278q-117 -48 -233.5 -71.5t-237.5 -23.5q-236 0 -364 121t-128 342q0 128 40.5 248.5t119.5 220.5q93 120 222 182t286 62q205 0 325 -121t120 -326q0 -40 -5 -84.5
t-16 -97.5zM855 682q3 13 4 26.5t1 26.5q0 80 -43 127t-117 47q-94 0 -160.5 -57.5t-101.5 -169.5h417zM1073 1309h-128v9q0 65 -38.5 100t-110.5 35q-73 0 -120 -35.5t-72 -108.5h-137q31 143 123 220t233 77q126 0 189.5 -62t63.5 -183q0 -21 -0.5 -31.5t-2.5 -20.5z" />
    <glyph glyph-name="uni0208" unicode="&#x208;" horiz-adv-x="685" 
d="M301 1493h346l-262 -1493h-346zM675 1904l130 -264h-161l-207 264h238zM355 1904l129 -264h-160l-207 264h238z" />
    <glyph glyph-name="uni0209" unicode="&#x209;" horiz-adv-x="631" 
d="M646 1636l109 -376h-147l-158 376h196zM319 1636l128 -376h-157l-179 376h208zM253 1120h324l-197 -1120h-323z" />
    <glyph glyph-name="uni020A" unicode="&#x20a;" horiz-adv-x="685" 
d="M301 1493h346l-262 -1493h-346zM823 1675h-128q-9 60 -45.5 87.5t-107.5 27.5q-65 0 -113 -30.5t-68 -84.5h-138q35 129 124 196.5t223 67.5q122 0 187.5 -67.5t65.5 -192.5v-4z" />
    <glyph glyph-name="uni020B" unicode="&#x20b;" horiz-adv-x="631" 
d="M253 1120h324l-197 -1120h-323zM767 1309h-128v9q0 65 -38.5 100t-110.5 35q-73 0 -120 -35.5t-72 -108.5h-137q31 143 123 220t233 77q126 0 189.5 -62t63.5 -183q0 -21 -0.5 -31.5t-2.5 -20.5z" />
    <glyph glyph-name="uni020C" unicode="&#x20c;" horiz-adv-x="1566" 
d="M1134 881q0 176 -71.5 268t-207.5 92q-180 0 -302 -179.5t-122 -449.5q0 -172 71 -267t198 -95q104 0 184.5 48.5t137.5 143.5q54 91 83 205t29 234zM905 1520q269 0 432 -165.5t163 -432.5q0 -182 -50 -344t-145 -291q-117 -159 -277 -237.5t-368 -78.5
q-268 0 -430.5 165t-162.5 433q0 183 49.5 345t145.5 292q115 158 275 236t368 78zM1185 1904l130 -264h-161l-207 264h238zM865 1904l129 -264h-160l-207 264h238z" />
    <glyph glyph-name="uni020D" unicode="&#x20d;" horiz-adv-x="1266" 
d="M691 891q-125 0 -206 -126t-81 -321q0 -106 43.5 -161.5t127.5 -55.5q125 0 206 126.5t81 322.5q0 105 -43.5 160t-127.5 55zM717 1147q225 0 354 -127t129 -346q0 -127 -40.5 -246.5t-118.5 -218.5q-91 -118 -216.5 -178t-279.5 -60q-222 0 -350 127t-128 346
q0 126 41 246.5t119 220.5q90 116 214.5 176t275.5 60zM920 1638l109 -376h-147l-158 376h196zM593 1638l128 -376h-157l-179 376h208z" />
    <glyph glyph-name="uni020E" unicode="&#x20e;" horiz-adv-x="1566" 
d="M1134 881q0 176 -71.5 268t-207.5 92q-180 0 -302 -179.5t-122 -449.5q0 -172 71 -267t198 -95q104 0 184.5 48.5t137.5 143.5q54 91 83 205t29 234zM905 1520q269 0 432 -165.5t163 -432.5q0 -182 -50 -344t-145 -291q-117 -159 -277 -237.5t-368 -78.5
q-268 0 -430.5 165t-162.5 433q0 183 49.5 345t145.5 292q115 158 275 236t368 78zM1302 1675h-128q-9 60 -45.5 87.5t-107.5 27.5q-65 0 -113 -30.5t-68 -84.5h-138q35 129 124 196.5t223 67.5q122 0 187.5 -67.5t65.5 -192.5v-4z" />
    <glyph glyph-name="uni020F" unicode="&#x20f;" horiz-adv-x="1266" 
d="M691 891q-125 0 -206 -126t-81 -321q0 -106 43.5 -161.5t127.5 -55.5q125 0 206 126.5t81 322.5q0 105 -43.5 160t-127.5 55zM717 1147q225 0 354 -127t129 -346q0 -127 -40.5 -246.5t-118.5 -218.5q-91 -118 -216.5 -178t-279.5 -60q-222 0 -350 127t-128 346
q0 126 41 246.5t119 220.5q90 116 214.5 176t275.5 60zM1042 1309h-128v9q0 65 -38.5 100t-110.5 35q-73 0 -120 -35.5t-72 -108.5h-137q31 143 123 220t233 77q126 0 189.5 -62t63.5 -183q0 -21 -0.5 -31.5t-2.5 -20.5z" />
    <glyph glyph-name="uni0210" unicode="&#x210;" horiz-adv-x="1419" 
d="M677 831q118 0 178.5 61t60.5 179q0 74 -42 108.5t-132 34.5h-143l-68 -383h146zM485 565l-100 -565h-346l262 1493h512q221 0 335.5 -92t114.5 -271q0 -181 -90 -298t-244 -134q70 -16 117 -79.5t82 -194.5l114 -424h-345l-101 371q-30 111 -73.5 152.5t-126.5 41.5
h-111zM984 1904l130 -264h-161l-207 264h238zM664 1904l129 -264h-160l-207 264h238z" />
    <glyph glyph-name="uni0211" unicode="&#x211;" horiz-adv-x="909" 
d="M948 815q-34 21 -74.5 32t-86.5 11q-124 0 -205.5 -88t-109.5 -254l-92 -516h-323l196 1120h324l-35 -192q64 106 159.5 162.5t212.5 56.5q18 0 39.5 -2t50.5 -6zM871 1638l109 -376h-147l-158 376h196zM544 1638l128 -376h-157l-179 376h208z" />
    <glyph glyph-name="uni0212" unicode="&#x212;" horiz-adv-x="1419" 
d="M677 831q118 0 178.5 61t60.5 179q0 74 -42 108.5t-132 34.5h-143l-68 -383h146zM485 565l-100 -565h-346l262 1493h512q221 0 335.5 -92t114.5 -271q0 -181 -90 -298t-244 -134q70 -16 117 -79.5t82 -194.5l114 -424h-345l-101 371q-30 111 -73.5 152.5t-126.5 41.5
h-111zM1113 1675h-128q-9 60 -45.5 87.5t-107.5 27.5q-65 0 -113 -30.5t-68 -84.5h-138q35 129 124 196.5t223 67.5q122 0 187.5 -67.5t65.5 -192.5v-4z" />
    <glyph glyph-name="uni0213" unicode="&#x213;" horiz-adv-x="909" 
d="M948 815q-34 21 -74.5 32t-86.5 11q-124 0 -205.5 -88t-109.5 -254l-92 -516h-323l196 1120h324l-35 -192q64 106 159.5 162.5t212.5 56.5q18 0 39.5 -2t50.5 -6zM994 1309h-128v9q0 65 -38.5 100t-110.5 35q-73 0 -120 -35.5t-72 -108.5h-137q31 143 123 220t233 77
q126 0 189.5 -62t63.5 -183q0 -21 -0.5 -31.5t-2.5 -20.5z" />
    <glyph glyph-name="uni0214" unicode="&#x214;" horiz-adv-x="1496" 
d="M301 1493h346l-157 -894q-8 -48 -12.5 -85t-4.5 -65q0 -98 47.5 -146.5t141.5 -48.5q126 0 193 78.5t100 265.5l157 895h346l-157 -895q-58 -330 -221.5 -478.5t-467.5 -148.5q-238 0 -362.5 113.5t-124.5 329.5q0 36 4.5 80.5t14.5 103.5zM1085 1904l130 -264h-161
l-207 264h238zM765 1904l129 -264h-160l-207 264h238z" />
    <glyph glyph-name="uni0215" unicode="&#x215;" horiz-adv-x="1312" 
d="M125 436l118 684h323l-102 -583q-10 -57 -15.5 -97t-5.5 -63q0 -63 31.5 -98t89.5 -35q100 0 172 86t99 239l97 551h324l-196 -1120h-325l30 164q-83 -97 -174 -145t-191 -48q-138 0 -213.5 81t-75.5 229q0 35 3.5 74t10.5 81zM942 1638l109 -376h-147l-158 376h196z
M615 1638l128 -376h-157l-179 376h208z" />
    <glyph glyph-name="uni0216" unicode="&#x216;" horiz-adv-x="1496" 
d="M301 1493h346l-157 -894q-8 -48 -12.5 -85t-4.5 -65q0 -98 47.5 -146.5t141.5 -48.5q126 0 193 78.5t100 265.5l157 895h346l-157 -895q-58 -330 -221.5 -478.5t-467.5 -148.5q-238 0 -362.5 113.5t-124.5 329.5q0 36 4.5 80.5t14.5 103.5zM1207 1675h-128
q-9 60 -45.5 87.5t-107.5 27.5q-65 0 -113 -30.5t-68 -84.5h-138q35 129 124 196.5t223 67.5q122 0 187.5 -67.5t65.5 -192.5v-4z" />
    <glyph glyph-name="uni0217" unicode="&#x217;" horiz-adv-x="1312" 
d="M125 436l118 684h323l-102 -583q-10 -57 -15.5 -97t-5.5 -63q0 -63 31.5 -98t89.5 -35q100 0 172 86t99 239l97 551h324l-196 -1120h-325l30 164q-83 -97 -174 -145t-191 -48q-138 0 -213.5 81t-75.5 229q0 35 3.5 74t10.5 81zM1064 1309h-128v9q0 65 -38.5 100
t-110.5 35q-73 0 -120 -35.5t-72 -108.5h-137q31 143 123 220t233 77q126 0 189.5 -62t63.5 -183q0 -21 -0.5 -31.5t-2.5 -20.5z" />
    <glyph glyph-name="Scommaaccent" unicode="&#x218;" horiz-adv-x="1327" 
d="M384 -186h292l-252 -298h-173zM1226 1446l-56 -316q-102 56 -201 83.5t-193 27.5q-130 0 -202.5 -45t-72.5 -125q0 -51 32 -79.5t132 -55.5l142 -39q179 -50 262 -144.5t83 -244.5q0 -243 -166 -390t-446 -147q-130 0 -259.5 27t-252.5 80l55 325q119 -77 232 -115
t223 -38q119 0 193.5 54t74.5 138q0 55 -33.5 85.5t-146.5 62.5l-141 39q-157 43 -233 136t-76 241q0 233 160.5 373.5t432.5 140.5q109 0 223.5 -18.5t233.5 -55.5z" />
    <glyph glyph-name="scommaaccent" unicode="&#x219;" horiz-adv-x="1097" 
d="M252 -186h292l-252 -298h-173zM1032 1085l-47 -278q-95 50 -188.5 76t-177.5 26q-95 0 -147 -27.5t-52 -78.5q0 -30 29 -48t113 -38l59 -12q195 -46 273.5 -118.5t78.5 -201.5q0 -195 -137.5 -304.5t-385.5 -109.5q-104 0 -212 18t-220 54l49 281q87 -57 186.5 -86
t203.5 -29q102 0 153.5 27t51.5 79q0 36 -29 56t-119 41l-59 12q-172 40 -246 118t-74 216q0 187 127.5 288t363.5 101q104 0 204.5 -15.5t201.5 -46.5z" />
    <glyph glyph-name="uni021A" unicode="&#x21a;" horiz-adv-x="1257" 
d="M300 -186h292l-252 -298h-173zM140 1493h1239l-51 -291h-447l-211 -1202h-346l211 1202h-447z" />
    <glyph glyph-name="uni021B" unicode="&#x21b;" horiz-adv-x="881" 
d="M215 -186h292l-252 -298h-173zM663 1438l-55 -318h330l-46 -256h-330l-82 -474q-4 -16 -5.5 -27t-1.5 -21q0 -46 27.5 -66t92.5 -20h167l-46 -256h-271q-146 0 -222.5 68t-76.5 196q0 28 2.5 60t8.5 65l83 475h-159l44 256h161l55 318h324z" />
    <glyph glyph-name="uni021C" unicode="&#x21c;" horiz-adv-x="1272" 
d="M1197 1170q0 -34 -7.5 -75.5t-31 -99t-60 -111.5t-100 -111t-145.5 -99q109 -31 166 -111.5t57 -183.5q0 -34 -6 -68q-20 -104 -76 -191t-146 -160t-228 -140.5t-306.5 -126.5t-397.5 -123l54 283q12 3 31.5 8t70 20t100 32t115 44t122.5 55.5t114 66.5t98 77.5t66.5 88
t25.5 97.5q0 51 -25 87.5t-60.5 52.5t-75.5 16q-52 0 -113 -25l-211 -85l48 254l230 95q81 34 143 75.5t97.5 79.5t57.5 80t29 73t7 61q0 42 -18.5 73t-49 47t-62 23t-64.5 7q-134 0 -380 -156l49 256q247 164 459 164q94 0 168.5 -22t121.5 -57t78 -82t43 -93.5t12 -95.5z
" />
    <glyph glyph-name="uni021D" unicode="&#x21d;" horiz-adv-x="1119" 
d="M1040 871q0 -121 -84 -233t-218 -177q59 -18 101.5 -46t64 -61.5t31 -65.5t9.5 -67q0 -27 -5 -54q-78 -408 -1026 -600l44 229q22 5 51 12.5t84.5 23t108 34.5t114.5 44t114 56t95.5 65t67.5 75t24 83q0 61 -44 95.5t-103 34.5q-47 0 -101 -20l-188 -69l40 206l204 77
q74 28 129.5 62.5t86 65t49 64t24 57t5.5 46.5q0 35 -17.5 61t-46 39t-56.5 19t-57 6q-126 0 -339 -126l40 207q209 133 432 133q80 0 144 -16t104.5 -42t67.5 -62.5t38.5 -74.5t11.5 -81z" />
    <glyph glyph-name="uni021E" unicode="&#x21e;" horiz-adv-x="1542" 
d="M301 1493h346l-100 -569h511l99 569h347l-262 -1493h-346l110 633h-510l-111 -633h-346zM1109 1633h-314l-123 264h155l133 -162l208 162h160z" />
    <glyph glyph-name="uni021F" unicode="&#x21f;" horiz-adv-x="1312" 
d="M1189 682l-120 -682h-323l102 584q11 57 16.5 96.5t5.5 62.5q0 64 -32 99t-90 35q-100 0 -171.5 -86.5t-99.5 -239.5l-97 -551h-323l271 1556h324l-105 -600q89 97 179 144t188 47q140 0 215.5 -81t75.5 -228q0 -32 -4 -71t-12 -85zM687 1633h-314l-123 264h155l133 -162
l208 162h160z" />
    <glyph glyph-name="uni0220" unicode="&#x220;" horiz-adv-x="1542" 
d="M1047 691q31 182 37 265q4 73 -12 108q-22 46 -67 72q-47 26 -109 26q-142 0 -243 -115q-99 -115 -135 -317l-127 -730h-332l261 1493h334l-39 -227q124 135 236 193q118 61 248 61q204 0 283.5 -158t25.5 -459l-232 -1329h-325z" />
    <glyph glyph-name="uni0221" unicode="&#x221;" horiz-adv-x="1593" 
d="M1170 230q121 0 135 89q5 25 -20 25q-67 0 -114 -51l-41 -47q16 -16 40 -16zM546 231q104 0 173 84t96.5 244t-10.5 244q-41 84 -144 84t-171 -84q-71 -84 -98.5 -244t12.5 -244t142 -84zM1132 514q85 92 180 92q85 0 121 -56q45 -69 16 -223q-28 -160 -103 -247
q-87 -105 -236 -106q-82 0 -142 26q-46 -74 -86 -154l-135 72q27 55 88 168q-11 14 -19 32q-53 -68 -121 -103q-87 -44 -314 -44q-187 0 -277 165q-91 164 -46 423q46 259 194 423q148 165 335 165q104 0 176 -47q73 -46 123 -144l104 600h324z" />
    <glyph glyph-name="uni0222" unicode="&#x222;" horiz-adv-x="1491" 
d="M733 668q-145 0 -234 -59t-109 -169q-4 -24 -4 -45q0 -78 54 -123q68 -59 212 -59q146 0 234 59q86 58 105 168q4 25 4 48q0 76 -51 122q-66 58 -211 58zM904 1346l31 173q252 -8 375 -97q108 -79 108 -217q0 -34 -7 -72q-22 -127 -111 -212q-91 -85 -245 -126
q156 -42 224 -137q49 -68 49 -163q0 -36 -8 -75q-38 -222 -218 -336q-179 -113 -492 -113q-314 0 -454 113q-110 89 -110 245q0 43 8 91q25 144 126 238q100 95 271 137q-146 30 -201 116q-48 74 -48 141q0 16 3 31q19 108 189 208q116 69 402 78l-27 -154q-101 2 -156 -35
q-84 -56 -94 -116q-1 -11 -1 -21q0 -55 54 -96q52 -38 203 -38q120 0 217 58q81 48 102 167q4 24 4 45q0 73 -50 111q-62 48 -144 56z" />
    <glyph glyph-name="uni0223" unicode="&#x223;" horiz-adv-x="1214" 
d="M854 1218l338 105q18 -48 18 -107q0 -39 -8 -83q-22 -126 -100 -212q-77 -85 -206 -126q127 -41 181 -137q37 -64 37 -151q0 -41 -8 -87q-39 -222 -192 -336q-153 -113 -414 -113q-262 0 -375 113q-85 85 -85 230q0 50 10 106q26 144 111 238q87 95 231 137
q-115 41 -162 126q-33 58 -33 135q0 36 7 77q20 111 77 190l300 -105q-42 -47 -55 -124q-5 -27 -5 -49q0 -54 25 -88q36 -48 119 -48q81 0 133 48t69 137q4 26 4 49q0 44 -17 75zM623 668q-97 0 -160 -59t-81 -169q-7 -35 -7 -64q0 -64 29 -104q42 -59 139 -59q96 0 158 59
q61 58 81 168q6 36 6 66q0 64 -28 104q-41 58 -137 58z" />
    <glyph glyph-name="uni0224" unicode="&#x224;" horiz-adv-x="1336" 
d="M1162 0q-53 -268 -220 -377q-100 -65 -238 -65h-253l41 235h150q92 0 134 46q38 43 62 161h-847l41 233l890 969h-701l52 291h1129l-40 -233l-891 -969h741z" />
    <glyph glyph-name="uni0225" unicode="&#x225;" horiz-adv-x="1072" 
d="M925 0q-52 -268 -219 -377q-101 -65 -239 -65h-253l42 235h149q92 0 134 46q39 43 62 161h-578l45 250l638 614h-509l45 256h879l-44 -250l-638 -614h531z" />
    <glyph glyph-name="uni0226" unicode="&#x226;" horiz-adv-x="1426" 
d="M765 1899h247l-42 -246h-247zM905 272h-536l-133 -272h-356l760 1493h396l238 -1493h-330zM500 543h360l-81 575z" />
    <glyph glyph-name="uni0227" unicode="&#x227;" horiz-adv-x="1243" 
d="M612 1555h322l-50 -292h-322zM607 504q-121 0 -182.5 -41.5t-61.5 -122.5q0 -61 36.5 -96t100.5 -35q98 0 165 66.5t89 187.5l7 41h-154zM1110 639l-113 -639h-322l27 166q-79 -100 -167.5 -147.5t-191.5 -47.5q-143 0 -227 82.5t-84 222.5q0 214 148.5 327.5
t429.5 113.5h190l4 28q2 14 2.5 20t0.5 11q0 66 -56 99.5t-167 33.5q-100 0 -193.5 -23t-180.5 -69l48 273q101 28 207 42.5t219 14.5q224 0 333 -85.5t109 -260.5q0 -34 -4 -74.5t-12 -87.5z" />
    <glyph glyph-name="uni0228" unicode="&#x228;" horiz-adv-x="1259" 
d="M301 1493h934l-51 -291h-588l-49 -278h554l-53 -291h-552l-60 -342h607l-49 -291h-955zM586 8q33 -52 48.5 -96t15.5 -86q0 -104 -68 -161.5t-191 -57.5q-44 0 -88 6.5t-90 19.5l27 156q36 -17 72.5 -26t70.5 -9q59 0 93.5 28.5t34.5 75.5q0 26 -12.5 60.5t-40.5 89.5
h128z" />
    <glyph glyph-name="uni0229" unicode="&#x229;" horiz-adv-x="1250" 
d="M1159 518l-11 -57h-754q0 -6 -1 -17.5t-1 -17.5q0 -109 59 -163t177 -54q102 0 215 34t237 101l-50 -278q-117 -48 -233.5 -71.5t-237.5 -23.5q-236 0 -364 121t-128 342q0 128 40.5 248.5t119.5 220.5q93 120 222 182t286 62q205 0 325 -121t120 -326q0 -40 -5 -84.5
t-16 -97.5zM855 682q3 13 4 26.5t1 26.5q0 80 -43 127t-117 47q-94 0 -160.5 -57.5t-101.5 -169.5h417zM581 0q33 -52 48.5 -96t15.5 -86q0 -104 -68 -161.5t-191 -57.5q-44 0 -88 6.5t-90 19.5l27 156q36 -17 72.5 -26t70.5 -9q59 0 93.5 28.5t34.5 75.5q0 26 -12.5 60.5
t-40.5 89.5h128z" />
    <glyph glyph-name="uni022A" unicode="&#x22a;" horiz-adv-x="1566" 
d="M764 2130h567l-33 -188h-568zM716 1870h212l-42 -246h-212zM1071 1870h215l-45 -246h-212zM1134 881q0 176 -71.5 268t-207.5 92q-180 0 -302 -179.5t-122 -449.5q0 -172 71 -267t198 -95q104 0 184.5 48.5t137.5 143.5q54 91 83 205t29 234zM905 1520q269 0 432 -165.5
t163 -432.5q0 -182 -50 -344t-145 -291q-117 -159 -277 -237.5t-368 -78.5q-268 0 -430.5 165t-162.5 433q0 183 49.5 345t145.5 292q115 158 275 236t368 78z" />
    <glyph glyph-name="uni022B" unicode="&#x22b;" horiz-adv-x="1266" 
d="M691 891q-125 0 -206 -126t-81 -321q0 -106 43.5 -161.5t127.5 -55.5q125 0 206 126.5t81 322.5q0 105 -43.5 160t-127.5 55zM717 1147q225 0 354 -127t129 -346q0 -127 -40.5 -246.5t-118.5 -218.5q-91 -118 -216.5 -178t-279.5 -60q-222 0 -350 127t-128 346
q0 126 41 246.5t119 220.5q90 116 214.5 176t275.5 60zM496 1585h214l-44 -246h-212zM854 1585h212l-44 -246h-212zM536 1871h567l-33 -188h-568z" />
    <glyph glyph-name="uni022C" unicode="&#x22c;" horiz-adv-x="1566" 
d="M959 1652l-45 37q-21 19 -36 25.5t-31 6.5q-32 0 -55.5 -32t-33.5 -88h-123q23 128 82 197t144 69q34 0 63 -12t61 -39l47 -41q15 -13 31 -20t31 -7q35 0 58.5 30.5t32.5 88.5h125q-24 -128 -83 -197t-142 -69q-35 0 -63.5 11t-62.5 40zM758 2130h567l-33 -188h-568z
M1134 881q0 176 -71.5 268t-207.5 92q-180 0 -302 -179.5t-122 -449.5q0 -172 71 -267t198 -95q104 0 184.5 48.5t137.5 143.5q54 91 83 205t29 234zM905 1520q269 0 432 -165.5t163 -432.5q0 -182 -50 -344t-145 -291q-117 -159 -277 -237.5t-368 -78.5q-268 0 -430.5 165
t-162.5 433q0 183 49.5 345t145.5 292q115 158 275 236t368 78z" />
    <glyph glyph-name="uni022D" unicode="&#x22d;" horiz-adv-x="1266" 
d="M691 891q-125 0 -206 -126t-81 -321q0 -106 43.5 -161.5t127.5 -55.5q125 0 206 126.5t81 322.5q0 105 -43.5 160t-127.5 55zM717 1147q225 0 354 -127t129 -346q0 -127 -40.5 -246.5t-118.5 -218.5q-91 -118 -216.5 -178t-279.5 -60q-222 0 -350 127t-128 346
q0 126 41 246.5t119 220.5q90 116 214.5 176t275.5 60zM746 1364l-45 37q-2 2 -9 7q-34 30 -61 30q-30 0 -53.5 -34.5t-32.5 -94.5h-126q24 137 83 210.5t144 73.5q32 0 62 -13.5t64 -43.5l47 -43q17 -15 32 -23t29 -8q34 0 57.5 33.5t32.5 95.5h126q-24 -136 -82.5 -210
t-142.5 -74q-31 0 -58 11.5t-67 45.5zM536 1872h567l-33 -188h-568z" />
    <glyph glyph-name="uni022E" unicode="&#x22e;" horiz-adv-x="1566" 
d="M1134 881q0 176 -71.5 268t-207.5 92q-180 0 -302 -179.5t-122 -449.5q0 -172 71 -267t198 -95q104 0 184.5 48.5t137.5 143.5q54 91 83 205t29 234zM905 1520q269 0 432 -165.5t163 -432.5q0 -182 -50 -344t-145 -291q-117 -159 -277 -237.5t-368 -78.5
q-268 0 -430.5 165t-162.5 433q0 183 49.5 345t145.5 292q115 158 275 236t368 78zM796 1900h247l-42 -246h-247z" />
    <glyph glyph-name="uni022F" unicode="&#x22f;" horiz-adv-x="1266" 
d="M624 1555h322l-50 -292h-322zM691 891q-125 0 -206 -126t-81 -321q0 -106 43.5 -161.5t127.5 -55.5q125 0 206 126.5t81 322.5q0 105 -43.5 160t-127.5 55zM717 1147q225 0 354 -127t129 -346q0 -127 -40.5 -246.5t-118.5 -218.5q-91 -118 -216.5 -178t-279.5 -60
q-222 0 -350 127t-128 346q0 126 41 246.5t119 220.5q90 116 214.5 176t275.5 60z" />
    <glyph glyph-name="uni0230" unicode="&#x230;" horiz-adv-x="1566" 
d="M879 1869h247l-42 -246h-247zM765 2129h567l-33 -188h-568zM1134 881q0 176 -71.5 268t-207.5 92q-180 0 -302 -179.5t-122 -449.5q0 -172 71 -267t198 -95q104 0 184.5 48.5t137.5 143.5q54 91 83 205t29 234zM905 1520q269 0 432 -165.5t163 -432.5q0 -182 -50 -344
t-145 -291q-117 -159 -277 -237.5t-368 -78.5q-268 0 -430.5 165t-162.5 433q0 183 49.5 345t145.5 292q115 158 275 236t368 78z" />
    <glyph glyph-name="uni0231" unicode="&#x231;" horiz-adv-x="1266" 
d="M624 1555h322l-50 -292h-322zM691 891q-125 0 -206 -126t-81 -321q0 -106 43.5 -161.5t127.5 -55.5q125 0 206 126.5t81 322.5q0 105 -43.5 160t-127.5 55zM717 1147q225 0 354 -127t129 -346q0 -127 -40.5 -246.5t-118.5 -218.5q-91 -118 -216.5 -178t-279.5 -60
q-222 0 -350 127t-128 346q0 126 41 246.5t119 220.5q90 116 214.5 176t275.5 60zM516 1872h567l-33 -188h-568z" />
    <glyph glyph-name="uni0232" unicode="&#x232;" horiz-adv-x="1334" 
d="M116 1493h347l228 -553l400 553h400l-663 -870l-109 -623h-346l109 623zM526 1871h567l-33 -188h-568z" />
    <glyph glyph-name="uni0233" unicode="&#x233;" horiz-adv-x="1201" 
d="M122 1120h304l138 -776l358 776h344l-638 -1226q-107 -207 -198 -271.5t-235 -64.5h-195l33 235h102q79 0 123 29.5t78 103.5l29 60zM454 1562h567l-33 -188h-568z" />
    <glyph glyph-name="uni0234" unicode="&#x234;" horiz-adv-x="906" 
d="M494 230q121 0 135 89q5 25 -20 25q-67 0 -114 -51l-41 -47q16 -16 40 -16zM445 514q84 92 180 92q78 0 115 -48q52 -68 21 -231q-27 -161 -102 -249q-87 -104 -237 -104q-82 0 -141 26q-46 -74 -87 -154l-135 72q27 55 89 168q-81 112 -18 473l174 997h322z" />
    <glyph glyph-name="uni0235" unicode="&#x235;" horiz-adv-x="1597" 
d="M1171 514q85 92 180 92q73 0 111 -42q58 -66 27 -237q-33 -173 -115 -261q-85 -92 -226 -92q-82 0 -141 26q-45 -74 -85 -154l-135 72q27 55 88 168q-86 119 -26 436q25 134 29 200q4 55 -6 81q-13 35 -42 55q-29 19 -70 19q-101 0 -174 -87q-73 -86 -99 -239l-97 -551
h-322l196 1120h322l-29 -164q90 98 180 144q90 47 189 47q175 0 245 -119q69 -119 30 -346zM1221 230q122 4 134 89q4 25 -19 25q-67 2 -115 -51l-41 -47q17 -16 41 -16z" />
    <glyph glyph-name="uni0236" unicode="&#x236;" horiz-adv-x="943" 
d="M528 240q122 4 134 89q4 25 -19 25q-67 2 -115 -51l-41 -47q17 -16 41 -16zM646 1438l-56 -318h332l-44 -256h-333l-61 -356q92 96 187 96q82 0 119 -52q48 -69 19 -227q-30 -158 -101 -245q-87 -108 -239 -108q-82 0 -141 26q-45 -74 -87 -154l-135 72q30 62 80 152
q-10 9 -18 20q-64 89 -28 301l83 475h-160l45 256h160l56 318h322z" />
    <glyph glyph-name="dotlessj" unicode="&#x237;" horiz-adv-x="631" 
d="M253 1120h324l-194 -1100q-41 -235 -154 -348.5t-305 -113.5h-160l41 235h56q91 0 133 45.5t65 181.5z" />
    <glyph glyph-name="uni0238" unicode="&#x238;" horiz-adv-x="2005" 
d="M535 231q103 0 172.5 84t97 244t-12 244t-142.5 84t-172 -84t-97 -244t11.5 -244t142.5 -84zM1283.5 231q103.5 0 173 84t97 244t-12 244t-143 84t-173.5 -85q-58 -69 -87 -188l-18 -110q-14 -119 19 -188q41 -85 144.5 -85zM1301 1556h2l-104 -597q83 96 171 141
q89 47 194 47q186 0 277 -165q91 -164 45 -423q-45 -259 -193 -423q-149 -165 -335 -165q-105 0 -178 47q-72 45 -121 141l-28 -159h-1h-323l28 162q-83 -99 -171.5 -145t-193.5 -46q-186 0 -277 165q-91 164 -46 423q46 259 194 423q149 165 335 165q104 0 176 -47
q72 -46 122 -144l105 600h322z" />
    <glyph glyph-name="uni0239" unicode="&#x239;" horiz-adv-x="2005" 
d="M720 887q-103 0 -171 -84q-69 -84 -97 -244q-29 -160 12 -244q39 -84 142 -84t172 84t98 244q28 160 -12 244t-144 84zM1468.5 887q-103.5 0 -173.5 -85q-57 -69 -86 -188l-19 -110q-13 -119 20 -188q41 -85 144.5 -85t172.5 84t97 244t-11 244q-41 84 -144.5 84z
M1130 159l-103 -585h-2h-322l103 588q-84 -99 -172.5 -145t-193.5 -46q-186 0 -277 165q-91 164 -45 423q45 259 193 423q148 163 334 163q106 0 179 -46q72 -46 120 -145l30 166h322h2l-29 -161q83 96 171 141q89 47 194 47q187 0 278 -165q90 -164 46 -423
q-46 -259 -195 -423q-148 -165 -335 -165q-105 0 -178 47q-72 45 -120 141z" />
    <glyph glyph-name="uni023A" unicode="&#x23a;" horiz-adv-x="1426" 
d="M902 272h-542l-133 -272h-214l-80 -74l-54 74h-1v1l-27 38l90 83l696 1371h413l47 -295l396 369l82 -115l-452 -420l164 -1032h-348zM573 711l238 221l-28 211zM603 549h260l-29 214z" />
    <glyph glyph-name="uni023B" unicode="&#x23b;" horiz-adv-x="1352" 
d="M-104 -74l-82 113l299 278q-65 178 -21 428q62 358 295 567q232 208 568 208q112 0 211 -28q77 -22 146 -60l144 135l82 -115l-215 -200l-26 -152q-38 33 -76 57l-761 -707q12 -37 32 -68q83 -132 268 -132q104 0 204 34t209 107l-54 -309q-106 -55 -214 -83
q-109 -28 -221 -28q-336 0 -495 209l-8 10zM436 618l648 603q-70 20 -150 20q-185 0 -315 -132q-129 -132 -169 -364q-12 -68 -14 -127z" />
    <glyph glyph-name="uni023C" unicode="&#x23c;" horiz-adv-x="1092" 
d="M-27 -94l-85 94l216 213q-62 139 -25 346q48 277 230 433q181 155 453 155q80 0 153 -15q48 -10 94 -27l113 112l80 -101l-164 -162l-28 -161q-39 34 -79 56l-504 -497q8 -20 19 -38q61 -87 196 -87q75 0 147 25q73 25 139 74l-51 -293q-81 -31 -161 -47
q-82 -15 -160 -15q-253 0 -380 134zM408 512l382 378q-16 1 -32 1q-135 0 -225 -87q-91 -88 -118 -245q-5 -24 -7 -47z" />
    <glyph glyph-name="uni023D" unicode="&#x23d;" horiz-adv-x="1174" 
d="M300 1493h346l-107 -612h181l-45 -260h-181l-58 -330h608l-50 -291h-955l109 621h-172l45 260h172z" />
    <glyph glyph-name="uni023E" unicode="&#x23e;" horiz-adv-x="1257" 
d="M1349 1320l-21 -118h-106l-406 -377l-145 -825h-346l77 440l-554 -514l-82 113l675 628l94 535h-445l50 291h1189l80 74l82 -115zM855 1052l162 150h-135z" />
    <glyph glyph-name="uni023F" unicode="&#x23f;" horiz-adv-x="1097" 
d="M1075 1085l-48 -272q-95 48 -187 72t-178 24q-91 0 -140 -25q-50 -26 -58 -79q-9 -43 21 -66q31 -23 115 -34l56 -9q241 -35 312 -115q72 -80 42 -251q-31 -179 -166 -269q-125 -84 -337 -90l155 -157q69 -71 139 -71h193l-40 -235h-186q-152 0 -269 120l-176 180
q-202 206 -254 230l-9 3l48 272q87 -52 184 -78t201 -26q95 0 148 29q52 29 62 86q9 48 -20 72q-28 22 -125 36l-55 8q-211 30 -283 111t-43 246q32 178 157 264q124 86 351 86q89 0 184.5 -15t205.5 -47z" />
    <glyph glyph-name="uni0240" unicode="&#x240;" horiz-adv-x="1072" 
d="M247 1120h879l-44 -250l-762 -729q80 -58 168 -148l176 -179q70 -71 140 -71h193l-41 -235h-186q-151 0 -269 120l-175 180q-172 175 -298 192l44 250l638 614h-508z" />
    <glyph glyph-name="uni0241" unicode="&#x241;" horiz-adv-x="1440" 
d="M540 1214q-70 0 -71 -1q-40 0 -58 -20q-34 -37 -45 -84q-2 -14 -9 -47h-229l13 77q27 155 82 220q21 24 55 53q78 63 206 76q46 5 105 5h376q256 0 371 -127q116 -126 74 -360q-40 -235 -200 -362q-159 -126 -415 -126h-30l-91 -518h-346l139 797h339q101 0 165 55
q65 54 82 154q18 100 -28 154q-45 54 -146 54h-339z" />
    <glyph glyph-name="uni0242" unicode="&#x242;" horiz-adv-x="1132" 
d="M467 451q100 0 166 55q64 54 82 154q17 100 -28 154q-46 54 -147 54q-119 0 -145 -152h-292q79 432 487 431q290 0 407 -127q115 -126 75 -360q-42 -235 -202 -362q-111 -88 -271 -115l-31 -183h-347l79 451h167z" />
    <glyph glyph-name="uni0243" unicode="&#x243;" horiz-adv-x="1404" 
d="M1050 799q106 -36 150 -133t20 -238q-38 -216 -189 -322q-149 -106 -417 -106h-575l55 321h-158l46 260h158l160 912h520q280 0 389 -94t73 -301q-19 -109 -79 -186q-59 -76 -153 -113zM634 262q105 0 166 49t78 148q18 97 -27 145q-43 49 -148 49h-203l-13 -72h210
l-46 -260h-210l-10 -59h203zM737 915q82 0 131 40t63 118q13 77 -22 117q-35 41 -117 41h-192l-55 -316h192z" />
    <glyph glyph-name="uni0244" unicode="&#x244;" horiz-adv-x="1496" 
d="M302 1493h347l-105 -603h465l105 603h347l-106 -603h127l-34 -194h-127l-17 -98q-56 -317 -226 -472t-463 -155t-409 155t-60 472l17 98h-126l34 194h126zM975 696h-466l-17 -98q-32 -185 8 -264q41 -80 164 -80q124 0 193 80q68 79 101 264z" />
    <glyph glyph-name="uni0245" unicode="&#x245;" horiz-adv-x="1426" 
d="M939 0l-156 1143l-556 -1143h-349l759 1493h413l237 -1493h-348z" />
    <glyph glyph-name="uni0246" unicode="&#x246;" horiz-adv-x="1259" 
d="M1100 1683h155l-85 -190h65l-51 -291h-144l-124 -278h185l-52 -291h-262l-153 -342h410l-50 -291h-490l-85 -190h-153l84 190h-311l261 1493h715zM480 291l152 342h-136l-60 -342h44zM761 924l125 278h-290l-49 -278h214z" />
    <glyph glyph-name="uni0247" unicode="&#x247;" horiz-adv-x="1250" 
d="M1017 1067q158 -119 158 -359q0 -68 -12 -145l-18 -102h-508l-142 -228q52 -24 142 -24q193 0 439 135l-48 -276q-248 -97 -474 -97q-117 0 -206 28l-118 -189h-154l154 246q-163 115 -163 356q0 68 13 147q48 274 224.5 431t437.5 157q87 0 157 -21l115 184h155z
M621 682l137 218q-27 9 -60 9q-93 0 -162 -58.5t-102 -168.5h187zM403 334l80 127h-91q-2 -19 -2 -53.5t13 -73.5zM776 682h76q6 30 6 60t-8 57z" />
    <glyph glyph-name="uni0248" unicode="&#x248;" horiz-adv-x="685" 
d="M301 1493h346l-116 -662h148l-46 -266h-148l-74 -420q-48 -279 -209 -417t-437 -138h-70l51 291h54q108 0 175 67t90 197l74 420h-170l46 266h169z" />
    <glyph glyph-name="uni0249" unicode="&#x249;" horiz-adv-x="631" 
d="M329 1556h323l-52 -292h-322zM-53 438l34 194h187l85 488h322l-85 -488h188l-34 -194h-188l-73 -418q-39 -225 -157 -344q-118 -118 -302 -118h-160l41 235h55q92 0 134.5 46t66.5 181l73 418h-187z" />
    <glyph glyph-name="uni024A" unicode="&#x24a;" horiz-adv-x="1585" 
d="M716 250q155 0 259.5 127t146.5 368q43 242 -17 369t-216 127q-155 0 -259.5 -127t-146.5 -369q-43 -241 17.5 -368t215.5 -127zM1031 222q-111 -130 -227.5 -190.5t-254.5 -60.5q-246 0 -366 216.5t-61 556.5q60 341 256 557t441 216q138 0 233.5 -61t161.5 -190l39 227
h329l-236 -1348q-23 -130 21 -197t152 -67h72l-51 -291h-71q-276 0 -388 138t-63 417z" />
    <glyph glyph-name="uni024B" unicode="&#x24b;" horiz-adv-x="1458" 
d="M607 231q103 0 173 84q69 84 97 244t-12 244t-143 84t-172 -84t-97 -244t12 -244q39 -84 142 -84zM1082 -442q-275 0 -308 255q-11 83 5 187l28 162q-84 -99 -172 -145t-193 -46q-187 0 -277 165q-91 164 -46 423t194 423q148 165 334 165q105 0 177 -47q73 -46 122 -144
l29 164h324l-193 -1100q-23 -135 3 -181t118 -46h149l-41 -235h-253z" />
    <glyph glyph-name="uni024C" unicode="&#x24c;" horiz-adv-x="1419" 
d="M485 565l-100 -565h-346l99 565h-159l46 260h158l118 668h512q221 0 335.5 -92t114.5 -271q0 -181 -90 -298t-244 -134q70 -16 117 -80q46 -63 82 -194l114 -424h-345l-101 371q-30 111 -73.5 152.5t-126.5 41.5h-111zM677 831q118 0 178.5 61t60.5 179q0 74 -42 108.5
t-132 34.5h-143l-68 -383h146z" />
    <glyph glyph-name="uni024D" unicode="&#x24d;" horiz-adv-x="909" 
d="M946 815q-39 22 -78 33q-41 10 -83 10q-119 0 -192 -74q-72 -74 -95 -152h170l-34 -194h-180l-77 -438h-322l76 438h-192l33 194h193l85 488h322l-32 -184q82 110 171 160q89 51 202 51q16 0 35 -1q19 -2 54 -7z" />
    <glyph glyph-name="uni024E" unicode="&#x24e;" horiz-adv-x="1334" 
d="M112 1493h379l76 -187h396l140 187h380l-143 -187h101l-34 -194h-216l-371 -483l-110 -629h-346l109 629l-201 483h-217l34 194h102zM818 1112h-174l61 -151z" />
    <glyph glyph-name="uni024F" unicode="&#x24f;" horiz-adv-x="1201" 
d="M159 1120h323l79 -438h212l210 438h322l-228 -438h192l-34 -194h-259l-309 -594q-98 -188 -195 -262q-98 -74 -238 -74h-186l41 235h101q82 0 125 29q41 29 76 104l14 31l-113 531h-274l34 194h200zM680 488h-84l23 -128z" />
    <glyph glyph-name="uni0250" unicode="&#x250;" horiz-adv-x="1243" 
d="M642 614q120 0 182 41.5t62 122.5q0 61 -36.5 96t-100.5 35q-99 0 -165.5 -66.5t-89.5 -187.5l-7 -41h155zM139 479l114 641h322l-29 -168q80 100 168 147.5t191 47.5q143 0 227.5 -82.5t84.5 -222.5q0 -214 -149 -327.5t-430 -113.5h-190l-3 -28q-3 -14 -3.5 -20
t-0.5 -11q0 -66 56.5 -99.5t166.5 -33.5q100 0 193.5 23t181.5 69l-49 -273q-101 -28 -206.5 -42.5t-219.5 -14.5q-224 0 -333 85.5t-109 260.5q0 34 4.5 76.5t12.5 85.5z" />
    <glyph glyph-name="uni0251" unicode="&#x251;" horiz-adv-x="1319" 
d="M910 956l29 164h324l-197 -1120h-324l29 162q-83 -99 -171.5 -145t-193.5 -46q-186 0 -277 165q-91 164 -46 423t193 423q149 165 335 165q105 0 177 -47q72 -46 122 -144zM571 231q103 0 172.5 84t97 244t-12 244t-142.5 84t-172 -84t-97 -244t11.5 -244t142.5 -84z" />
    <glyph glyph-name="uni0252" unicode="&#x252;" horiz-adv-x="1319" 
d="M338 162l-29 -164h-324l196 1120h324l-29 -162q84 99 172 145t194 46q186 0 277 -165q91 -164 46 -423t-194 -423q-148 -165 -335 -165q-104 0 -177 47q-72 46 -121 144zM677 887q-104 0 -173 -84t-97 -244t11.5 -244t143.5 -84q102 0 171.5 84t97.5 244t-12 244t-142 84
z" />
    <glyph glyph-name="uni0253" unicode="&#x253;" horiz-adv-x="1319" 
d="M597.5 231q103.5 0 173 84t97.5 244t-12 244t-143.5 84t-173.5 -85q-70 -84 -98 -243t13 -243q40 -85 143.5 -85zM513 959q83 96 171 141q89 47 194 47q187 0 278 -165q90 -164 45 -423t-194 -423q-148 -165 -335 -165q-105 0 -178 47q-73 46 -122 144l-28 -162h-322
l190 1094q40 223 160 344q118 118 302 118h253l-41 -235h-150q-92 0 -134 -46t-66 -181z" />
    <glyph glyph-name="uni0254" unicode="&#x254;" horiz-adv-x="1092" 
d="M171 1085q80 31 161 46.5t163 15.5q238 0 366 -118.5t128 -336.5q0 -137 -47 -266t-136 -232q-98 -113 -225 -168t-292 -55q-77 0 -152.5 15.5t-150.5 46.5l52 292q65 -48 128 -73t123 -25q157 0 257 117.5t100 300.5q0 117 -62 181.5t-175 64.5q-76 0 -149 -25t-138 -74
z" />
    <glyph glyph-name="uni0255" unicode="&#x255;" horiz-adv-x="1092" 
d="M547 232q48 -24 96 -25h4q132 0 142 57q12 75 -106 75q-75 0 -136 -107zM1071 1085l-51 -292q-57 50 -119 74t-133 24q-135 0 -225 -87q-91 -88 -118 -245q-22 -123 10 -203q123 176 273 176q257 -5 218 -238q-51 -323 -335 -323h-20h-4h-6q-62 0 -65 1q-3 0 -6 1
l-19 -114l-180 1q15 87 28 155q-92 38 -152 111q-127 156 -78 433t230 433q181 155 453 155q79 0 153 -15q75 -16 146 -47z" />
    <glyph glyph-name="uni0256" unicode="&#x256;" horiz-adv-x="1458" 
d="M572 231q103 0 171 84q70 84 97.5 244t-12 244t-142.5 84t-172 -84t-97 -244t11 -244q41 -84 144 -84zM1047 -442q-276 0 -309 255q-11 83 5 187l28 162q-83 -99 -171.5 -145t-193.5 -46q-186 0 -277 165q-91 164 -46 423q46 259 194 423q149 165 335 165q104 0 176 -47
q73 -46 123 -144l104 600h324l-268 -1536q-24 -135 2 -181t118 -46h149l-40 -235h-253z" />
    <glyph glyph-name="uni0257" unicode="&#x257;" horiz-adv-x="1459" 
d="M535 231q103 0 172.5 84t97 244t-12 244t-142.5 84t-172 -84t-97 -244t11.5 -244t142.5 -84zM874 956l26 138q43 227 159 344q118 118 303 118h253l-42 -235h-149q-92 0 -134.5 -46t-65.5 -181l-193 -1094h-324l28 162q-83 -99 -171.5 -145t-193.5 -46q-186 0 -277 165
q-91 164 -46 423q46 259 194 423q149 165 335 165q104 0 176 -47q37 -23 82 -88z" />
    <glyph glyph-name="uni0258" unicode="&#x258;" horiz-adv-x="1250" 
d="M80 563q46 266 217 425q170 159 408 159q261 0 382.5 -157t73.5 -431q-49 -279 -228 -433q-178 -155 -451 -155q-115 0 -226 25q-109 24 -215 72l48 276q101 -68 202 -102q101 -33 202 -33q126 0 207 63t115 189h-753zM432 682h418q5 110 -43 168q-48 59 -142 59
q-86 0 -151 -63q-64 -62 -82 -164z" />
    <glyph glyph-name="uni0259" unicode="&#x259;" horiz-adv-x="1250" 
d="M78 555l18 102h754q10 126 -49 189t-185 63q-102 0 -215 -33q-112 -34 -236 -102l47 276q124 48 242 72q118 25 233 25q273 0 398 -155q125 -154 76 -433q-48 -274 -224.5 -431t-436.5 -157q-238 0 -353 159t-69 425zM389 436q-18 -102 25 -164q42 -63 129 -63
q93 0 162 59q69 58 102 168h-418z" />
    <glyph glyph-name="uni025A" unicode="&#x25a;" horiz-adv-x="1614" 
d="M825 540l-425 -245q6 -12 14 -23q42 -63 129 -63q93 0 162 59q69 58 102 168zM1174 736q4 -81 -13 -177q-48 -274 -224.5 -431t-436.5 -157q-238 0 -353 159q-62 86 -78 204l770 443q-12 41 -38 69q-59 63 -185 63q-102 0 -215 -33q-112 -34 -236 -102l47 276
q124 48 242 72q118 25 233 25q273 0 398 -155q19 -23 35 -50l220 130l179 2l-29 -171q-31 -176 -7 -232q25 -55 119 -55h39l-32 -180h-86q-165 0 -216 111q-43 91 -14 257z" />
    <glyph glyph-name="uni025B" unicode="&#x25b;" horiz-adv-x="1026" 
d="M476 -29q-426 0 -426 275q0 157 96 256q69 72 183 102q-158 43 -158 193q0 27 5 56q26 151 143 222.5t326 71.5q157 0 313 -48l-42 -239q-50 27 -123.5 43t-142.5 16q-70 0 -126 -35q-64 -41 -64 -84t39 -72.5t145 -29.5h111l-39 -224h-106q-116 0 -181 -38
q-77 -45 -77 -116q0 -46 48 -82.5t135 -36.5q173 0 325 78l-44 -252q-172 -56 -340 -56z" />
    <glyph glyph-name="uni025C" unicode="&#x25c;" horiz-adv-x="1004" 
d="M638 573q133 -23 196 -97q64 -74 42 -203q-20 -112 -178 -204q-158 -91 -424 -91q-89 0 -180 14t-187 42l42 236q73 -34 164 -51q92 -18 194 -18q103 0 136 15q98 25 113 114q14 79 -67 111q-53 21 -98 21h-165l38 219h105q94 0 154 24q80 30 92 99q9 49 -61 87
q-41 24 -152 24q-2 0 -102 -12q-77 -9 -205 -40l41 236q113 24 210 36t180 12q216 0 329 -79t83 -252q-16 -87 -94 -153q-75 -64 -206 -90z" />
    <glyph glyph-name="uni025D" unicode="&#x25d;" horiz-adv-x="1426" 
d="M638 573q133 -23 196 -97q64 -74 42 -203q-20 -112 -178 -204q-158 -91 -424 -91q-89 0 -180 14t-187 42l42 236q73 -34 164 -51q92 -18 194 -18q103 0 136 15q98 25 113 114q14 79 -67 111q-53 21 -98 21h-165l38 219h105q94 0 154 24q80 30 92 99q9 49 -61 87
q-41 24 -152 24q-2 0 -102 -12q-77 -9 -205 -40l41 236q112 24 210 36t180 12q216 0 329 -79q66 -46 83 -124l213 128l179 2l-30 -171q-30 -176 -6 -232q24 -55 119 -55h39l-32 -180h-86q-165 0 -216 111q-42 91 -14 257l-313 -181v3q-64 -36 -153 -53z" />
    <glyph glyph-name="uni025E" unicode="&#x25e;" horiz-adv-x="1348" 
d="M646 201q105 0 170 39q67 40 77 98q11 60 -43 99q-50 37 -166 37h-106l39 224h112q105 0 156 30q56 34 65 78q7 42 -37 78q-44 35 -129 35q-122 1 -229 -99q-89 -82 -120 -261q-30 -170 29 -263q61 -96 182 -95zM643 -29q-339 0 -466 155q-127 156 -78 433t229 433
q181 155 557 155q209 0 300 -72q93 -71 66 -222q-17 -97 -78 -161q-61 -63 -162 -88q103 -30 147 -102t25 -184q-30 -173 -167.5 -260t-372.5 -87z" />
    <glyph glyph-name="uni025F" unicode="&#x25f;" horiz-adv-x="631" 
d="M-14 438l33 194h187l86 488h322l-86 -488h187l-34 -194h-187l-73 -418q-39 -225 -157 -344q-118 -118 -303 -118h-159l41 235h56q92 0 134.5 46t65.5 181l73 418h-186z" />
    <glyph glyph-name="uni0260" unicode="&#x260;" horiz-adv-x="1459" 
d="M686 887q-100 0 -170 -82t-97 -232q-27 -154 14 -233q39 -80 143 -80q101 0 171 82t96 231l55 314h-212zM777 190q-84 -98 -172 -144t-194 -46q-184 0 -277 162q-92 161 -48 411q39 226 188 387q148 160 333 160h332h2q42 204 154 318q118 118 303 118h253l-41 -235h-149
q-92 0 -134.5 -46t-66.5 -181l-38 -220h-2l-133 -761q-47 -270 -226 -413q-178 -142 -469 -142q-95 0 -180.5 16t-169.5 49l50 279q74 -54 151 -80q77 -27 158 -27q159 0 246 77t116 241z" />
    <glyph glyph-name="uni0261" unicode="&#x261;" horiz-adv-x="1319" 
d="M814 190q-83 -98 -171.5 -144t-193.5 -46q-184 0 -277 162q-92 161 -49 411q40 226 189 387q149 160 333 160h332h324l-176 -1007q-47 -270 -226 -413q-178 -142 -470 -142q-94 0 -179.5 16t-168.5 49l49 279q75 -54 151 -80q76 -27 158 -27q159 0 246 77t116 241z
M724 887q-99 0 -169.5 -82t-97.5 -232q-26 -154 14 -233q40 -80 144 -80q101 0 171 82t95 231l56 314h-213z" />
    <glyph glyph-name="uni0262" unicode="&#x262;" horiz-adv-x="1156" 
d="M922 72q-102 -50 -207 -76q-105 -25 -212 -25q-242 0 -356 151q-115 150 -68 423q48 275 218 425q170 149 420 149q97 0 182 -20t157 -60l-42 -236q-73 49 -148.5 73t-156.5 24q-148 0 -245 -89q-96 -88 -126 -266q-32 -177 30 -266t206 -89q39 0 73 6q34 5 63 16l28 168
h-248l44 250h486z" />
    <glyph glyph-name="uni0263" unicode="&#x263;" horiz-adv-x="1354" 
d="M646 648l289 472h341l-498 -764q118 -304 91 -460q-57 -328 -411.5 -328t-297.5 328q27 156 252 460l-230 764h341zM501 -176q47 0 62 87q12 70 -21 142q-60 -74 -71 -142q-16 -87 30 -87z" />
    <glyph glyph-name="uni0264" unicode="&#x264;" horiz-adv-x="1170" 
d="M491.5 -44q-354.5 0 -297.5 328q22 124 228 320l-274 516h341l155 -296l257 296h341l-454 -516q137 -196 116 -320q-58 -328 -412.5 -328zM536 212q46 0 61 87q11 59 -23 131q-59 -74 -69 -131q-15 -83 31 -87z" />
    <glyph glyph-name="uni0265" unicode="&#x265;" horiz-adv-x="1312" 
d="M163 436l119 682h324l-19 -111l-72 -409q-25 -147 -30 -202q-3 -55 6 -81q13 -35 43 -55q28 -19 70 -19q101 0 174 87q72 86 99 239l96 551h322l-272 -1556h-322l105 600q-90 -98 -180 -144q-90 -47 -190 -47q-174 0 -243.5 119t-29.5 346z" />
    <glyph glyph-name="uni0266" unicode="&#x266;" horiz-adv-x="1312" 
d="M1151 682l-119 -682h-324l19 111l72 409q25 147 30 202q3 55 -6 81q-13 35 -43 55q-28 19 -70 19q-101 0 -174 -87q-72 -86 -99 -239l-96 -551h-322l191 1094q39 223 159 344q118 118 302 118h253l-40 -235h-150q-91 0 -133.5 -46t-66.5 -181l-24 -136q89 97 178 142
q90 47 190 47q174 0 243.5 -119t29.5 -346z" />
    <glyph glyph-name="uni0267" unicode="&#x267;" horiz-adv-x="1312" 
d="M549 958q89 97 178 142q90 47 189 47q175 0 244 -119t30 -346l-78 -442l-37 -220l-4 -20q-41 -208 -156 -324q-118 -118 -302 -118h-253l40 235h150q92 0 134 46t67 181l15 91l22 129l50 280q25 147 30 202q3 55 -7 81q-12 35 -42 55q-29 19 -70 19q-101 0 -174 -87
q-72 -86 -99 -239l-96 -551h-322l190 1094q40 223 160 344q118 118 302 118h253l-41 -235h-149q-92 0 -134 -46t-67 -181z" />
    <glyph glyph-name="uni0268" unicode="&#x268;" horiz-adv-x="1005" 
d="M483 1556h323l-52 -292h-322zM407 1120h322l-85 -488h181l-34 -194h-181l-76 -438h-322l76 438h-193l35 194h192z" />
    <glyph glyph-name="uni0269" unicode="&#x269;" horiz-adv-x="811" 
d="M251 1120h324l-115 -660q-24 -135 3 -181q30 -55 117 -46l20 2l-41 -235l-123 -2q-182 -3 -261 118q-79 120 -39 344z" />
    <glyph glyph-name="uni026A" unicode="&#x26a;" horiz-adv-x="1005" 
d="M794 235l-42 -235h-180h-322h-193l41 235h194l113 650h-193l41 235h193h323h180l-42 -235h-180l-113 -650h180z" />
    <glyph glyph-name="uni026B" unicode="&#x26b;" horiz-adv-x="1029" 
d="M491 1556h323l-134 -764q21 8 38 28q26 32 36 89l2 8h143q-23 -136 -90 -210q-64 -72 -157 -74l-110 -633h-322l133 762q-25 -7 -43 -29q-25 -31 -35 -90l-1 -8h-144q24 136 90 210q65 73 161 74z" />
    <glyph glyph-name="uni026C" unicode="&#x26c;" horiz-adv-x="1278" 
d="M755 1556h322l-129 -743h182l-38 -213h-182l-104 -600h-323l106 600l-185 1q-276 1 -232 276q51 313 364 311q96 -1 145 -55zM595 918q-35 34 -115 34q-111 0 -121 -66q-12 -75 82 -75h180q-3 84 -26 107z" />
    <glyph glyph-name="uni026D" unicode="&#x26d;" horiz-adv-x="631" 
d="M331 1556h324l-268 -1536q-23 -134 2 -181q26 -46 118 -46h149l-40 -235h-253q-186 0 -261 118q-79 121 -43 324z" />
    <glyph glyph-name="uni026E" unicode="&#x26e;" horiz-adv-x="1550" 
d="M329 1556h323l-77 -436h878l-44 -250l-452 -434q144 -9 217 -32q108 -33 165 -146q53 -102 28 -245q-39 -222 -212 -337q-173 -116 -467 -116q-103 0 -204 18q-101 19 -196 56l52 297q88 -54 179 -81q91 -28 184 -28q138 0 220.5 53t99.5 152q18 102 -48 155
q-66 52 -213 52h-168l43 245l400 385h-507l-150 -864h-322z" />
    <glyph glyph-name="uni026F" unicode="&#x26f;" horiz-adv-x="1920" 
d="M769 184q-80 -104 -173 -158q-94 -55 -195 -55q-173 0 -243.5 119t-30.5 346l119 682h324l-102 -584q-4 -13 -6.5 -27t-7.5 -40q-20 -119 1 -173q23 -53 93 -53q92 0 157 84t94 243l96 550h324l-102 -584q-33 -186 -14 -240q20 -53 94 -53q93 0 157 85q66 84 93 241
l97 551h324l-196 -1120h-324l29 164q-77 -95 -162 -143t-177 -48q-105 0 -176 56q-70 56 -93 157z" />
    <glyph glyph-name="uni0270" unicode="&#x270;" horiz-adv-x="1920" 
d="M804 184q-80 -104 -174 -158q-94 -55 -194 -55q-174 0 -244 119t-30 346l119 682h324l-102 -584q-3 -13 -6 -27t-7 -40q-21 -119 0 -173q23 -53 93 -53q92 0 157 84q64 84 93 243l97 550h324l-102 -584q-32 -186 -14 -240q20 -53 94 -53q93 0 158 85q65 84 92 241l97 551
h324l-270 -1546h-324l102 590q-75 -95 -160.5 -143t-178.5 -48q-104 0 -174.5 56t-93.5 157z" />
    <glyph glyph-name="uni0271" unicode="&#x271;" horiz-adv-x="1920" 
d="M1191 934q79 104 173 158q93 55 194 55q174 0 244 -119t30 -346l-114 -662q-39 -223 -159 -344q-117 -118 -302 -118h-253l41 235h149q92 0 134.5 46t61.5 161l115 651q21 119 -1 173q-23 53 -93 53q-92 0 -156.5 -84t-94.5 -243l-96 -550h-324l102 584q33 186 14 240
q-20 53 -94 53q-92 0 -157 -85q-66 -84 -93 -241l-97 -551h-324l196 1120h324l-29 -164q77 95 162 143t178 48q104 0 175 -56q70 -56 94 -157z" />
    <glyph glyph-name="uni0272" unicode="&#x272;" horiz-adv-x="1312" 
d="M1226 682l-120 -682h-324l20 111l72 411q25 145 29 200t-6 81q-13 35 -42 55q-29 19 -70 19q-101 0 -174 -87q-73 -86 -99 -239l-55 -311l-39 -220l-3 -20q-41 -208 -155 -324q-118 -118 -302 -118h-253l40 235h150q90 0 134 46t67 181l39 220l154 880h322l-29 -164
q90 98 180 144q90 47 189 47q175 0 245 -119q69 -119 30 -346z" />
    <glyph glyph-name="uni0273" unicode="&#x273;" horiz-adv-x="1461" 
d="M904 722q6 50 -7 81q-12 34 -42 55q-31 19 -70 19q-93 0 -174 -87q-71 -75 -99 -239l-97 -551h-322l196 1120h322l-29 -164q93 100 180 144q89 47 189 47q174 0 245 -119q69 -120 30 -346l-116 -662q-24 -134 2 -181q26 -46 118 -46h150l-41 -235h-253q-185 0 -261 118
q-83 128 -48 324z" />
    <glyph glyph-name="uni0274" unicode="&#x274;" horiz-adv-x="1183" 
d="M137 1120h387l163 -651l114 651h329l-197 -1120h-387l-163 651l-114 -651h-328z" />
    <glyph glyph-name="uni0275" unicode="&#x275;" horiz-adv-x="1266" 
d="M717 1147q225 0 354 -127t129 -346q0 -127 -40.5 -246.5t-118.5 -218.5q-91 -118 -216.5 -178t-279.5 -60q-222 0 -350 127t-128 346q0 126 41 246.5t119 220.5q90 116 214.5 176t275.5 60zM576 227q107 0 179 85q54 65 83 174h-430q-2 -23 -2 -44q0 -79 24 -130
q41 -85 146 -85zM448 680h418q-1 76 -25 126q-41 85 -148 85q-105 0 -176 -85q-42 -50 -69 -126z" />
    <glyph glyph-name="uni0276" unicode="&#x276;" horiz-adv-x="1674" 
d="M868 902h-100q-156 0 -248 -85t-122 -256q-30 -172 32 -257q63 -86 219 -86h100zM844 1120h762l-39 -218h-375l-36 -209h349l-39 -218h-349l-44 -257h390l-38 -218h-777q-9 0 -24 -1q-16 -1 -25 -1q-298 0 -432.5 146t-87.5 417q48 270 233.5 415t483.5 145q7 0 23 -1h25
z" />
    <glyph glyph-name="uni0277" unicode="&#x277;" horiz-adv-x="1256" 
d="M726 566q62 353 -133 354q-197 0 -259 -356q-28 -160 -25 -230q1 -70 22 -70q31 0 54 78q18 57 33 148l18 106h198l-18 -108q-18 -96 -18 -141q-2 -83 22 -83q24 -1 50 79q38 118 56 223zM1069 828q23 -103 -17 -332q-42 -241 -142 -368q-100 -128 -233 -128
q-89 0 -145 68q-54 64 -50 220q-50 -151 -127 -220q-76 -68 -169 -68q-133 0 -189 128q-55 126 -13 368q37 213 101 332q186 348 552 348q357 0 432 -348z" />
    <glyph glyph-name="uni0278" unicode="&#x278;" horiz-adv-x="1467" 
d="M940 867l-105 -601l64 46q89 65 121 247q26 149 -32 265q-22 44 -48 43zM714 -426zM785 -24l-71 -402h-321l71 402q-186 31 -279 152q-122 162 -75 431q45 257 199 432q111 125 359 150l73 415h320l-73 -415q240 -25 306 -150q94 -175 49 -432q-47 -269 -228 -431
q-134 -121 -330 -152zM1061 1556zM515 266l105 601q-25 1 -64 -43q-97 -116 -123 -265q-32 -182 33 -247z" />
    <glyph glyph-name="uni0279" unicode="&#x279;" horiz-adv-x="991" 
d="M112 305q39 -22 79 -33q40 -10 83 -10q124 0 206 88q82 89 111 254l90 516h323l-196 -1120h-322l32 184q-82 -110 -171 -160q-89 -51 -201 -51q-16 0 -35 1q-19 2 -54 7z" />
    <glyph glyph-name="uni027A" unicode="&#x27a;" horiz-adv-x="991" 
d="M75 305q37 -22 78 -33q40 -10 82 -10q124 0 207 88q82 88 112 254l166 953h322l-272 -1557h-323l33 184q-81 -110 -171 -160q-89 -51 -202 -51q-16 0 -35 1q-18 2 -53 7z" />
    <glyph glyph-name="uni027B" unicode="&#x27b;" horiz-adv-x="1197" 
d="M148 305q39 -22 80 -33q39 -10 82 -10q124 0 207 88q81 89 111 254l90 516h322l-191 -1100q-24 -135 2.5 -181t117.5 -46h150l-42 -235h-253q-184 0 -261 118q-77 121 -38 344l29 162q-82 -108 -171 -158q-89 -51 -201 -51q-16 0 -35 1q-19 2 -54 7z" />
    <glyph glyph-name="uni027C" unicode="&#x27c;" horiz-adv-x="909" 
d="M983 815q-38 22 -79 33q-39 10 -81 10q-123 0 -207 -88q-82 -86 -112 -254l-165 -942h-322l271 1546h322l-32 -184q81 110 171 160q89 51 201 51q17 0 36 -1q18 -2 53 -7z" />
    <glyph glyph-name="uni027D" unicode="&#x27d;" horiz-adv-x="909" 
d="M985 815q-39 22 -79 33q-40 10 -82 10q-125 0 -207 -88q-82 -89 -111 -254l-88 -496q-23 -135 3 -181t118 -46h149l-40 -235h-253q-184 0 -261 118q-78 121 -40 344l193 1100h324l-32 -184q82 110 171 160q89 51 201 51q17 0 35 -1q19 -2 54 -7z" />
    <glyph glyph-name="uni027E" unicode="&#x27e;" horiz-adv-x="1098" 
d="M794 235l-42 -235h-695l41 235h189l73 423q39 223 159 344q118 118 303 118h253l-42 -235h-149q-94 0 -134 -46q-44 -49 -66 -181l-73 -423h183z" />
    <glyph glyph-name="uni027F" unicode="&#x27f;" horiz-adv-x="1098" 
d="M224 235h183l75 423q23 132 -3 181q-24 46 -118 46h-149l41 235h253q184 0 261 -118q78 -121 39 -344l-75 -423h189l-42 -235h-695z" />
    <glyph glyph-name="uni0280" unicode="&#x280;" horiz-adv-x="1183" 
d="M445 630q81 0 122 32t54 105q13 72 -18 104q-30 30 -112 30h-71l-46 -271h71zM335 409l-72 -409h-322l196 1120h445q213 0 298 -74q87 -75 59 -235q-20 -111 -84 -183q-64 -71 -173 -104q54 -14 91 -62q37 -47 66 -144l94 -318h-326l-82 278q-21 71 -54 100
q-35 31 -103 31h-33z" />
    <glyph glyph-name="uni0281" unicode="&#x281;" horiz-adv-x="1183" 
d="M419 490h-71l-46 -271h71q81 0 122 30q41 32 54 104q13 73 -18 105q-30 32 -112 32zM387 711h33q68 0 114 31q44 29 90 100l179 278h327l-207 -318q-63 -97 -116 -144q-53 -48 -112 -62q98 -33 137 -104q38 -72 18 -183q-27 -160 -139 -235q-113 -74 -325 -74h-445
l196 1120h322z" />
    <glyph glyph-name="uni0282" unicode="&#x282;" horiz-adv-x="1097" 
d="M1070 1085l-47 -272q-95 48 -187 72q-93 24 -178 24q-92 0 -140 -25q-50 -26 -59 -79q-7 -43 22.5 -66t115.5 -34l55 -9q241 -35 312 -115q72 -80 42 -251q-31 -179 -166 -269q-134 -90 -370 -90q-50 0 -100 4q-13 -98 9 -136q26 -46 118 -46h149l-40 -235h-253
q-185 0 -261 118q-78 121 -40 344l4 21l35 199l13 73q87 -52 184 -78q96 -26 201 -26q94 0 147 29q52 29 62 86q9 48 -19 72q-29 23 -125 36l-55 8q-211 30 -282 111q-73 81 -44 246q31 178 156 264t351 86q90 0 186 -15q95 -15 204 -47z" />
    <glyph glyph-name="uni0283" unicode="&#x283;" horiz-adv-x="765" 
d="M956 1556l-41 -235h-178q-68 0 -101 -27q-31 -28 -43 -96l-210 -1198q-36 -205 -153 -324q-118 -118 -303 -118h-159l40 235h56q92 0 134 46t67 181l206 1178q31 183 139 270q107 88 299 88h247z" />
    <glyph glyph-name="uni0284" unicode="&#x284;" horiz-adv-x="801" 
d="M-13 438l35 194h187l40 232h-160l44 256h160l15 78q31 183 138 270q108 88 300 88h247l-41 -235h-178q-68 0 -101 -27q-31 -29 -43 -96l-99 -566h186l-34 -194h-186l-77 -438q-41 -210 -154 -324q-118 -118 -302 -118h-159l40 235h56q92 0 134 46t67 181l73 418h-188z
" />
    <glyph glyph-name="uni0285" unicode="&#x285;" horiz-adv-x="1115" 
d="M293 1147h247q193 0 269 -88q77 -87 45 -270l-135 -769q-23 -135 3 -181t118 -46h56l-41 -235h-159q-185 0 -261 118q-77 119 -42 324l139 789q12 68 -10 96q-22 27 -91 27h-178z" />
    <glyph glyph-name="uni0286" unicode="&#x286;" horiz-adv-x="1017" 
d="M77 -444q-27 0 -52 2h-5v1q-251 25 -198 308q51 275 328 276l188 1l185 1054q31 183 139 270q107 88 299 88h247l-41 -235h-178q-68 0 -100 -27q-32 -28 -44 -96l-184 -1054h151l-37 -211q-51 0 -154 -1q-41 -157 -139 -256q-118 -118 -303 -118h-102v-2zM297 -68
q-126 1 -183 1q-93 0 -109 -75q-10 -58 72 -65h40q92 0 134 46q26 29 46 93z" />
    <glyph glyph-name="uni0287" unicode="&#x287;" horiz-adv-x="881" 
d="M230 -318l56 318h-332l45 256h332l83 475q14 78 -9 105q-23 28 -106 28h-166l45 256h276q191 0 255 -88q64 -89 27 -301l-83 -475h161l-45 -256h-161l-55 -318h-323z" />
    <glyph glyph-name="uni0288" unicode="&#x288;" horiz-adv-x="881" 
d="M293 1120l56 318h322l-55 -318h332l-45 -256h-332l-148 -844q-23 -135 3 -181t118 -46h148l-41 -235h-252q-185 0 -261 118q-77 119 -37 344l147 844h-160l45 256h160z" />
    <glyph glyph-name="uni0289" unicode="&#x289;" horiz-adv-x="1696" 
d="M1557 632l-34 -194h-181l-77 -438h-322l28 162q-90 -98 -179 -144q-90 -47 -188 -47q-127 33 -166 52q-51 25 -79 67q-70 119 -31 346v2h-192l34 194h193l85 488h324l-20 -112q-16 -91 -41 -228q-17 -97 -26 -148h369l85 488h323l-86 -488h181zM1007 438h-353
q-2 -21 -3 -36q-5 -60 6 -87q13 -35 42 -54t71 -19q100 0 173 86q38 46 64 110z" />
    <glyph glyph-name="uni028A" unicode="&#x28a;" horiz-adv-x="1417" 
d="M590 837q-82 -76 -128 -157q-66 -115 -85 -222q-24 -142 21 -230q45 -87 145 -87t174 87q76 88 101 230q19 107 -7 222q-18 84 -73 156l50 284h484l-34 -197h-219q70 -59 119 -192q41 -108 14 -266q-45 -254 -227 -411q-183 -158 -427.5 -158t-371.5 157
q-128 157 -85 404q29 162 106 274q88 127 182 192h-217l34 197h493z" />
    <glyph glyph-name="uni028B" unicode="&#x28b;" horiz-adv-x="1234" 
d="M1044 1027q61 -59 104 -192q34 -108 6 -266q-44 -254 -210 -411q-166 -158 -385 -158l-123 -2q-182 -3 -261 118q-79 120 -39 344l115 660h324l-115 -660q-30 -169 -24 -181q28 -52 71 -48l19 2q106 0 198 97q82 88 108 230q18 107 -13 222q-23 84 -85 156l30 182
q189 -5 280 -93z" />
    <glyph glyph-name="uni028C" unicode="&#x28c;" horiz-adv-x="1201" 
d="M1076 0h-322l-115 774l-386 -774h-323l593 1120h354z" />
    <glyph glyph-name="uni028D" unicode="&#x28d;" horiz-adv-x="1702" 
d="M1541 0h-313l-35 772l-305 -772h-269l-35 764l-304 -764h-313l461 1120h352l35 -770l305 770h352z" />
    <glyph glyph-name="uni028E" unicode="&#x28e;" horiz-adv-x="1201" 
d="M1031 0h-322l-137 760l-364 -760h-322l638 1226q97 187 195 262q98 74 238 74h186l-41 -235h-101q-82 0 -124.5 -29t-76.5 -104l-14 -31z" />
    <glyph glyph-name="uni028F" unicode="&#x28f;" horiz-adv-x="1334" 
d="M98 1120h335l153 -345l272 345h336l-523 -648l-82 -472h-278l83 472z" />
    </font>
</defs>
</svg>
