<?xml version="1.0" standalone="no"?>
<!DOCTYPE svg PUBLIC "-//W3C//DTD SVG 1.1//EN" "http://www.w3.org/Graphics/SVG/1.1/DTD/svg11.dtd" >
<svg xmlns="http://www.w3.org/2000/svg" xmlns:xlink="http://www.w3.org/1999/xlink" version="1.1">
<metadata>
Created by FontForge 20201107 at Sat Jul 30 12:51:12 2016
 By 
Copyright (c) 2003 by Bitstream, Inc. All Rights Reserved. DejaVu changes are in public domain, math extensions are in public domain.
</metadata>
<defs>
<font id="DejaVuMathTeXGyre-Regular" horiz-adv-x="602" >
  <font-face 
    font-family="DejaVu Math TeX Gyre"
    font-weight="400"
    font-stretch="normal"
    units-per-em="1000"
    panose-1="2 0 5 3 0 0 0 0 0 0"
    ascent="792"
    descent="-208"
    x-height="519"
    cap-height="729"
    bbox="-909 -1858 3592 2408"
    underline-thickness="52"
    underline-position="-212"
    unicode-range="U+0020-1D7FF"
  />
<missing-glyph horiz-adv-x="364" 
d="M33 0v666h265v-666h-265zM66 33h199v600h-199v-600z" />
    <glyph glyph-name=".notdef" horiz-adv-x="364" 
d="M33 0v666h265v-666h-265zM66 33h199v600h-199v-600z" />
    <glyph glyph-name=".null" horiz-adv-x="0" 
 />
    <glyph glyph-name="nonmarkingreturn" horiz-adv-x="333" 
 />
    <glyph glyph-name="space" unicode=" " horiz-adv-x="317" 
 />
    <glyph glyph-name="exclam" unicode="!" horiz-adv-x="401" 
d="M264 729l-33 -401v-123h-60v123l-33 401h126zM266 51q0 -27 -19 -46t-46 -19q-28 0 -47 19q-18 20 -18 46q0 27 18 46q19 19 47 19q27 0 46 -19t19 -46z" />
    <glyph glyph-name="quotedbl" unicode="&#x22;" horiz-adv-x="459" 
d="M362 458h-78v271h78v-271zM176 458h-78v271h78v-271z" />
    <glyph glyph-name="numbersign" unicode="#" horiz-adv-x="837" 
d="M761 440h-169l-40 -163h153v-75h-172l-50 -202h-84l51 202h-138l-51 -202h-83l50 202h-151v75h170l40 163h-154v75h173l51 203h83l-50 -203h138l50 203h84l-51 -203h150v-75zM509 440h-138l-41 -163h139z" />
    <glyph glyph-name="dollar" unicode="$" horiz-adv-x="636" 
d="M553 171q0 -81 -57 -130q-54 -48 -159 -56v-132h-49v132q-50 2 -97 13q-53 14 -105 37v135h53q1 -66 39 -101t110 -36v237q-111 31 -158 72q-45 40 -45 108q0 78 53 126q55 47 150 53v131h49v-131q51 -5 95 -16q42 -11 89 -32v-128h-53q-6 58 -40 89q-34 34 -91 38v-221
q120 -33 168 -75t48 -113zM288 375v205q-49 -3 -78 -29q-28 -25 -28 -69q0 -40 26 -65q26 -26 80 -42zM450 138q0 41 -28 72q-31 29 -85 44v-221q55 4 84 32q29 27 29 73z" />
    <glyph glyph-name="percent" unicode="%" horiz-adv-x="950" 
d="M392 544q0 -93 -46 -146q-45 -53 -123 -53t-123 53q-45 54 -45 146t45 144q46 54 123 54t123 -54q46 -52 46 -144zM740 742l-456 -756h-74l456 756h74zM895 184q0 -92 -45 -144q-46 -54 -123 -54q-78 0 -123 54q-46 52 -46 144q0 93 46 146q45 53 123 53q77 0 123 -54
q45 -54 45 -145zM817 184q0 72 -24 114q-24 41 -66 41q-41 0 -67 -41q-24 -40 -24 -114q0 -73 24 -112q25 -41 67 -41q43 0 66 41q24 39 24 112zM314 543q0 73 -24 113q-24 41 -66 41q-44 0 -67 -41q-24 -39 -24 -113q0 -73 25 -113q24 -41 66 -41t66 41q24 40 24 113z" />
    <glyph glyph-name="ampersand" unicode="&#x26;" horiz-adv-x="890" 
d="M843 0h-196l-67 71q-50 -43 -109 -64t-126 -21q-126 0 -199 64q-74 65 -74 175q0 66 37 121q38 57 113 106q-26 30 -36 60q-12 28 -12 61q0 78 56 123q55 46 152 46q31 0 76 -8q36 -6 100 -25v-126h-55q-8 53 -38 79q-31 28 -85 28q-50 0 -82 -28q-31 -28 -31 -71
q0 -32 17 -59q16 -29 69 -85l252 -266q33 37 53 85q20 45 24 96h-88v52h231v-52h-84q-7 -63 -32 -118q-23 -55 -65 -103l84 -89h115v-52zM540 113l-284 299q-40 -36 -64 -82q-21 -44 -21 -94q0 -80 56 -136q55 -55 140 -55q49 0 94 17q45 19 79 51z" />
    <glyph glyph-name="quotesingle" unicode="'" horiz-adv-x="274" 
d="M176 458h-78v271h78v-271z" />
    <glyph glyph-name="parenleft" unicode="(" horiz-adv-x="424" 
d="M371 -176q-134 67 -183 160q-68 132 -68 256v70q0 124 68 256q49 93 183 160v-58q-68 -34 -121 -134q-21 -41 -27 -92t-6 -132v-70q0 -81 6 -132t27 -92q53 -100 121 -134v-58z" />
    <glyph glyph-name="parenright" unicode=")" horiz-adv-x="424" 
d="M303 240q0 -126 -67 -256q-48 -92 -183 -160v58q69 35 120 134q15 28 22.5 67.5t9 70.5t1.5 86v70q0 55 -1.5 86t-9 70.5t-22.5 67.5q-51 99 -120 134v58q135 -68 183 -160q67 -130 67 -256v-70z" />
    <glyph glyph-name="asterisk" unicode="*" horiz-adv-x="500" 
d="M474 437l-40 -65l-156 97l12 -174h-80l12 174l-156 -97l-40 65l168 78l-168 77l40 65l156 -97l-12 175h80l-12 -175l156 97l40 -65l-168 -77z" />
    <glyph glyph-name="plus" unicode="+" horiz-adv-x="788" 
d="M708 235h-274v-274h-80v274h-274v80h274v274h80v-274h274v-80z" />
    <glyph glyph-name="comma" unicode="," horiz-adv-x="317" 
d="M221 111q-5 -83 -39 -143q-36 -60 -107 -104l-39 39q45 34 68 79q21 46 21 111v18h96z" />
    <glyph glyph-name="hyphen" unicode="-" horiz-adv-x="337" 
d="M294 230h-250v76h250v-76z" />
    <glyph glyph-name="period" unicode="." horiz-adv-x="317" 
d="M224 51q0 -27 -19 -46t-46 -19q-28 0 -47 19q-18 20 -18 46q0 27 18 46q19 19 47 19q27 0 46 -19t19 -46z" />
    <glyph glyph-name="slash" unicode="/" horiz-adv-x="452" 
d="M372 697l-226 -844h-66l226 844h66z" />
    <glyph glyph-name="zero" unicode="0" horiz-adv-x="636" 
d="M570 364q0 -179 -66 -278q-67 -100 -186 -100t-186 100q-66 99 -66 278t66 278q67 100 186 100t186 -100q66 -99 66 -278zM467 364q0 167 -37 248q-37 82 -112 82t-112 -82q-37 -81 -37 -248t37 -248q37 -82 112 -82t112 82q37 81 37 248z" />
    <glyph glyph-name="one" unicode="1" horiz-adv-x="636" 
d="M494 0h-352v52h127v606l-147 -95v64l178 115h67v-690h127v-52z" />
    <glyph glyph-name="two" unicode="2" horiz-adv-x="636" 
d="M538 0h-470v53l221 221q70 70 105 134q31 65 31 129q0 75 -39 115q-38 42 -105 42q-70 0 -108 -35q-37 -34 -45 -104h-55v130q51 27 105 43q54 14 104 14q115 0 180 -55q66 -55 66 -150q0 -107 -150 -256q-12 -11 -17 -17l-184 -184h304v90h57v-170z" />
    <glyph glyph-name="three" unicode="3" horiz-adv-x="636" 
d="M562 197q0 -101 -68 -157q-69 -54 -198 -54q-57 0 -112 12q-56 12 -108 37v142h55q4 -69 47 -107q44 -36 120 -36q75 0 118 44q43 42 43 118q0 86 -45 130q-44 44 -130 44h-46v50h24q84 0 128 36q43 34 43 106q0 63 -35 98q-34 34 -101 34t-103 -32q-36 -30 -42 -92h-55
v128q59 22 109 32q54 12 99 12q108 0 167 -46q60 -46 60 -128q0 -66 -42 -110q-40 -44 -117 -60q91 -14 139 -66q50 -51 50 -135z" />
    <glyph glyph-name="four" unicode="4" horiz-adv-x="636" 
d="M586 195h-139v-143h117v-52h-332v52h117v143h-318v53l319 494h97v-495h139v-52zM349 247v388l-249 -388h249z" />
    <glyph glyph-name="five" unicode="5" horiz-adv-x="636" 
d="M559 231q0 -117 -69 -181q-70 -64 -194 -64q-50 0 -103 12q-55 12 -108 37v142h55q5 -69 44 -106q40 -37 112 -37q78 0 118 51q42 51 42 146t-41 145q-41 51 -119 51q-44 0 -78 -15q-34 -17 -59 -49h-42v366h386v-80h-334v-209q27 19 59 26q35 9 76 9q118 0 186 -65
q69 -66 69 -179z" />
    <glyph glyph-name="six" unicode="6" horiz-adv-x="636" 
d="M573 230q0 -110 -68 -178q-67 -66 -182 -66q-124 0 -190 92t-66 263q0 192 79 296q78 105 221 105q42 0 81 -7q46 -8 87 -22v-120h-55q-6 50 -38 75q-31 26 -85 26q-96 0 -141 -72q-46 -70 -48 -221q32 37 75 55q42 18 95 18q109 0 172 -66q63 -65 63 -178zM470 230
q0 96 -37 146q-38 50 -106 50q-70 0 -107 -49q-36 -49 -36 -141q0 -97 37 -150q38 -52 106 -52t106 50q37 50 37 146z" />
    <glyph glyph-name="seven" unicode="7" horiz-adv-x="636" 
d="M564 679l-285 -679h-73l272 649h-337v-90h-57v170h480v-50z" />
    <glyph glyph-name="eight" unicode="8" horiz-adv-x="636" 
d="M569 199q0 -102 -65 -158q-64 -55 -186 -55q-123 0 -186 56q-65 54 -65 157q0 80 47 128q46 50 129 61q-75 14 -113 56q-39 44 -39 109q0 88 61 139q61 50 166 50t166 -50q61 -51 61 -139q0 -65 -39 -109q-40 -43 -113 -56q83 -11 129 -61q47 -48 47 -128zM446 553
q0 68 -34 103q-34 38 -94 38t-94 -37t-34 -104t34 -104t94 -37q61 0 94 37q34 37 34 104zM466 199q0 79 -39 121q-38 44 -109 44t-109 -44q-39 -42 -39 -121t39 -122t109 -43t109 43t39 122z" />
    <glyph glyph-name="nine" unicode="9" horiz-adv-x="636" 
d="M452 492q0 98 -37 150q-38 52 -106 52t-106 -50q-37 -50 -37 -146t37 -146q38 -50 106 -50q69 0 106 49t37 141zM569 387q0 -192 -79 -296q-78 -105 -221 -105q-42 0 -81 7q-45 8 -87 22v121h55q6 -48 38 -76q32 -26 85 -26q96 0 141 72q46 70 48 221q-33 -37 -76 -55
q-42 -18 -95 -18q-108 0 -171 66q-63 64 -63 178q0 110 68 178q67 66 182 66q124 0 190 -92t66 -263z" />
    <glyph glyph-name="colon" unicode=":" horiz-adv-x="336" 
d="M234 369q0 -27 -18 -47q-20 -18 -47 -18t-46 19t-19 46t19 46t46 19t47 -18q18 -20 18 -47zM234 51q0 -27 -18 -46q-19 -19 -47 -19t-47 19q-18 20 -18 46q0 27 19 46t46 19t46 -19t19 -46z" />
    <glyph glyph-name="semicolon" unicode=";" horiz-adv-x="336" 
d="M236 369q0 -27 -19 -46t-46 -19t-46 19t-19 46t19 46t46 19t46 -19t19 -46zM221 111q-5 -83 -39 -143q-36 -60 -107 -104l-39 39q45 34 68 79q21 46 21 111v18h96z" />
    <glyph glyph-name="less" unicode="&#x3c;" horiz-adv-x="795" 
d="M715 11l-635 224v80l635 224v-84l-508 -180l508 -180v-84z" />
    <glyph glyph-name="equal" unicode="=" horiz-adv-x="788" 
d="M708 335h-628v80h628v-80zM708 135h-628v80h628v-80z" />
    <glyph glyph-name="greater" unicode="&#x3e;" horiz-adv-x="795" 
d="M715 235l-635 -224v84l508 180l-508 180v84l635 -224v-80z" />
    <glyph glyph-name="question" unicode="?" horiz-adv-x="536" 
d="M488 549q0 -91 -54 -149q-54 -57 -163 -82v-124h-60v160q86 21 130 70q44 52 44 126q0 67 -36 106q-36 38 -97 38q-55 0 -92 -32q-34 -31 -45 -92h-47v127q57 24 98 34q50 11 88 11q109 0 171 -52q63 -52 63 -141zM306 51q0 -27 -19 -46t-46 -19q-28 0 -47 19
q-18 20 -18 46q0 27 18 46q19 19 47 19q27 0 46 -19t19 -46z" />
    <glyph glyph-name="at" unicode="@" horiz-adv-x="1000" 
d="M632 237v51q0 61 -35 99t-91 38q-59 0 -92 -43q-33 -44 -33 -120q0 -78 33 -120q33 -43 93 -43q55 0 91 39q34 39 34 99zM929 326q0 -130 -79 -207q-80 -75 -218 -77v79q-27 -38 -65 -59q-34 -20 -81 -20q-86 0 -138 61q-54 61 -54 159q0 97 53 159q52 61 139 61
q47 0 81 -20q38 -21 65 -59v69h76v-377q83 18 129 79t46 153q0 56 -17 103q-15 47 -49 89q-55 67 -127 99q-71 35 -161 35q-43 0 -87 -9q-47 -11 -85 -29q-99 -45 -153 -137q-55 -91 -55 -213q0 -83 25 -151q25 -70 70 -118q52 -58 126 -88q72 -31 158 -31q64 0 118 19
q56 19 101 55l26 -34q-53 -46 -120 -68q-69 -23 -146 -23q-87 0 -171 32q-80 33 -142 93q-62 61 -96 142q-32 81 -32 172q0 90 32 169q33 80 96 142q62 62 146 95t179 33q102 0 191 -40q87 -43 144 -117q35 -45 56 -104q19 -54 19 -117z" />
    <glyph glyph-name="A" unicode="A" horiz-adv-x="722" 
d="M732 0h-265v52h81l-61 160h-307l-61 -160h80v-52h-205v52h64l260 677h82l260 -677h72v-52zM468 264l-134 347l-134 -347h268z" />
    <glyph glyph-name="B" unicode="B" horiz-adv-x="734" 
d="M674 211q0 -108 -68 -159q-68 -52 -214 -52h-337v52h93v625h-93v52h360q111 0 166 -45q56 -45 56 -135q0 -65 -39 -103q-37 -39 -113 -48q93 -12 141 -60q48 -47 48 -127zM525 549q0 67 -37 97q-37 31 -117 31h-124v-256h124q80 0 117 31q37 30 37 97zM562 211
q0 81 -40 121q-43 37 -129 37h-146v-317h146q86 0 129 38q40 38 40 121z" />
    <glyph glyph-name="C" unicode="C" horiz-adv-x="765" 
d="M705 193q-31 -101 -108 -155q-78 -52 -192 -52q-70 0 -133 24q-63 27 -108 72q-55 55 -82 124q-26 72 -26 158q0 170 98 274t259 104q62 0 127 -16q64 -14 145 -47v-168h-55q-18 93 -72 135q-54 44 -153 44q-117 0 -177 -83t-60 -243t60 -243t177 -83q81 0 135 39
q53 40 75 116h90z" />
    <glyph glyph-name="D" unicode="D" horiz-adv-x="801" 
d="M744 365q0 -172 -106 -269q-105 -96 -293 -96h-290v52h93v625h-93v52h290q188 0 293 -96q106 -96 106 -268zM632 365q0 152 -76 231q-76 81 -218 81h-91v-625h91q142 0 218 81q76 80 76 232z" />
    <glyph glyph-name="E" unicode="E" horiz-adv-x="729" 
d="M650 0h-595v52h93v625h-93v52h587v-162h-60v102h-335v-244h239v91h60v-242h-60v91h-239v-305h343v102h60v-162z" />
    <glyph glyph-name="F" unicode="F" horiz-adv-x="693" 
d="M652 567h-60v102h-345v-244h249v91h60v-242h-60v91h-249v-313h117v-52h-309v52h93v625h-93v52h597v-162z" />
    <glyph glyph-name="G" unicode="G" horiz-adv-x="798" 
d="M720 61q-64 -37 -140 -57q-75 -18 -160 -18q-165 0 -264 103q-100 103 -100 275q0 173 100 276q99 102 268 102q59 0 129 -14q63 -14 142 -44v-173h-55q-16 91 -71 135t-151 44q-126 0 -188 -81q-62 -82 -62 -245q0 -161 64 -244q65 -82 188 -82q58 0 106 14q49 12 95 41
v188h-137v52h236v-272z" />
    <glyph glyph-name="H" unicode="H" horiz-adv-x="872" 
d="M817 0h-285v52h93v313h-378v-313h93v-52h-285v52h93v625h-93v52h285v-52h-93v-252h378v252h-93v52h285v-52h-93v-625h93v-52z" />
    <glyph glyph-name="I" unicode="I" horiz-adv-x="395" 
d="M340 0h-285v52h93v625h-93v52h285v-52h-93v-625h93v-52z" />
    <glyph glyph-name="J" unicode="J" horiz-adv-x="400" 
d="M355 677h-93v-657q0 -122 -48 -174q-48 -54 -156 -54q-33 0 -70 8q-32 7 -72 25v115h56q2 -49 22 -72q23 -24 65 -24q59 0 81 36q23 38 23 144v653h-113v52h305v-52z" />
    <glyph glyph-name="K" unicode="K" horiz-adv-x="747" 
d="M762 0h-169l-346 346v-294h93v-52h-285v52h93v625h-93v52h285v-52h-93v-276l314 276h-79v52h242v-52h-82l-313 -275l350 -350h83v-52z" />
    <glyph glyph-name="L" unicode="L" horiz-adv-x="664" 
d="M640 0h-585v52h93v625h-93v52h285v-52h-93v-617h333v122h60v-182z" />
    <glyph glyph-name="M" unicode="M" horiz-adv-x="1023" 
d="M973 677h-97v-625h93v-52h-285v52h93v563l-250 -508h-69l-250 508v-563h93v-52h-246v52h93v625h-98v52h212l256 -519l256 519h199v-52z" />
    <glyph glyph-name="N" unicode="N" horiz-adv-x="875" 
d="M831 677h-98v-691h-59l-467 614v-548h98v-52h-256v52h98v625h-98v52h187l437 -575v523h-98v52h256v-52z" />
    <glyph glyph-name="O" unicode="O" horiz-adv-x="819" 
d="M764 364q0 -86 -27 -158q-28 -71 -81 -124q-49 -49 -110 -72q-60 -24 -136 -24q-74 0 -136 24q-64 26 -110 72q-55 55 -82 124q-26 70 -26 158q0 86 26 158q27 69 82 124q49 49 110 72q60 24 136 24q160 0 256 -104q98 -102 98 -274zM652 364q0 162 -61 244t-181 82
q-119 0 -181 -82q-61 -83 -61 -244t61 -244q62 -82 181 -82t181 82q61 83 61 244z" />
    <glyph glyph-name="P" unicode="P" horiz-adv-x="672" 
d="M637 524q0 -95 -64 -150q-66 -55 -173 -55h-153v-267h113v-52h-305v52h93v625h-93v52h345q107 0 173 -55q64 -57 64 -150zM525 524q0 74 -38 114q-37 39 -111 39h-129v-306h129q74 0 111 39q38 41 38 114z" />
    <glyph glyph-name="Q" unicode="Q" horiz-adv-x="819" 
d="M652 364q0 162 -61 244t-181 82q-119 0 -181 -82q-61 -83 -61 -244t61 -244q62 -82 181 -82t181 82q61 83 61 244zM764 364q0 -146 -73 -244q-74 -98 -202 -126q25 -32 64 -48q36 -16 91 -16h15v-90q-85 5 -141 40q-58 36 -96 106q-167 0 -266 102q-100 103 -100 276
q0 86 26 158q27 69 82 124q49 49 110 72q60 24 136 24q160 0 256 -104q98 -102 98 -274z" />
    <glyph glyph-name="R" unicode="R" horiz-adv-x="752" 
d="M535 534q0 73 -35 108t-109 35h-144v-286h144q74 0 109 35t35 108zM777 0h-172l-114 232q-33 68 -60 87q-28 20 -75 20h-109v-287h103v-52h-295v52h93v625h-93v52h370q105 0 164 -51q58 -51 58 -144q0 -75 -43 -118q-42 -43 -125 -54q35 -9 59 -32q26 -24 44 -62
l106 -216h89v-52z" />
    <glyph glyph-name="S" unicode="S" horiz-adv-x="685" 
d="M612 199q0 -106 -68 -159q-68 -54 -202 -54q-60 0 -122 12q-64 12 -127 37v166h56q1 -83 48 -123q46 -40 139 -40q86 0 132 34q46 36 46 101q0 53 -28 81q-26 28 -116 55l-96 29q-102 31 -147 79q-43 46 -43 130q0 93 66 144t185 51q48 0 111 -11q58 -10 129 -32v-155
h-55q-7 75 -52 112q-43 34 -131 34q-79 0 -117 -32q-41 -29 -41 -91q0 -52 31 -82q31 -31 128 -59l90 -27q99 -30 142 -76q42 -46 42 -124z" />
    <glyph glyph-name="T" unicode="T" horiz-adv-x="666" 
d="M657 557h-60v114h-214v-619h93v-52h-285v52h93v619h-214v-114h-60v172h647v-172z" />
    <glyph glyph-name="U" unicode="U" horiz-adv-x="842" 
d="M798 677h-93v-387q0 -168 -64 -236q-65 -68 -217 -68q-154 0 -218 70q-66 69 -66 234v387h-93v52h285v-52h-93v-377q0 -140 45 -195q46 -55 158 -55t158 55q45 55 45 195v377h-93v52h246v-52z" />
    <glyph glyph-name="V" unicode="V" horiz-adv-x="722" 
d="M737 677h-71l-260 -677h-84l-259 677h-73v52h266v-52h-81l215 -560l215 560h-82v52h214v-52z" />
    <glyph glyph-name="W" unicode="W" horiz-adv-x="1027" 
d="M1025 677h-72l-191 -677h-80l-167 593l-167 -593h-80l-191 677h-72v52h266v-52h-91l152 -539l166 591h79l169 -597l153 545h-84v52h210v-52z" />
    <glyph glyph-name="X" unicode="X" horiz-adv-x="711" 
d="M707 0h-289v52h87l-174 260l-178 -260h94v-52h-241v52h84l210 306l-213 319h-78v52h289v-52h-86l156 -235l161 235h-94v52h239v-52h-82l-193 -281l230 -344h78v-52z" />
    <glyph glyph-name="Y" unicode="Y" horiz-adv-x="660" 
d="M669 677h-69l-219 -354v-271h93v-52h-285v52h93v262l-225 363h-68v52h271v-52h-85l182 -295l182 295h-82v52h212v-52z" />
    <glyph glyph-name="Z" unicode="Z" horiz-adv-x="694" 
d="M656 0h-611v35l454 634h-377v-109h-60v169h576v-35l-454 -634h412v102h60v-162z" />
    <glyph glyph-name="bracketleft" unicode="[" horiz-adv-x="419" 
d="M366 -173h-246v896h246v-52h-158v-792h158v-52z" />
    <glyph glyph-name="backslash" unicode="\" horiz-adv-x="452" 
d="M372 -147h-66l-226 844h66z" />
    <glyph glyph-name="bracketright" unicode="]" horiz-adv-x="419" 
d="M299 -173h-246v52h158v792h-158v52h246v-896z" />
    <glyph glyph-name="asciicircum" unicode="^" horiz-adv-x="837" 
d="M732 457h-75l-238 186l-238 -186h-75l265 272h96z" />
    <glyph glyph-name="underscore" unicode="_" horiz-adv-x="500" 
d="M500 -186h-500v52h500v-52z" />
    <glyph glyph-name="grave" unicode="`" horiz-adv-x="500" 
d="M306 615h-57l-166 184h96z" />
    <glyph glyph-name="a" unicode="a" horiz-adv-x="596" 
d="M568 0h-170v56q-31 -37 -69 -53q-40 -17 -91 -17q-87 0 -137 46q-51 46 -51 124q0 82 58 125q59 44 164 44h126v36q0 60 -36 91q-36 33 -101 33q-56 0 -85 -25q-32 -24 -40 -72h-46v105q45 19 91 30q41 10 86 10q107 0 165 -53q56 -54 56 -156v-272h80v-52zM398 163v110
h-116q-66 0 -100 -29q-32 -29 -32 -88q0 -54 33 -86q34 -32 90 -32q55 0 91 34q34 37 34 91z" />
    <glyph glyph-name="b" unicode="b" horiz-adv-x="640" 
d="M485 260q0 107 -35 162q-36 55 -105 55q-67 0 -104 -49q-36 -51 -36 -143v-51q0 -94 36 -143t104 -49q69 0 105 55q35 56 35 163zM590 260q0 -122 -60 -198q-61 -76 -157 -76q-60 0 -101 23q-42 23 -67 72v-81h-176v52h86v656h-86v52h176v-322q25 49 67 72q41 23 101 23
q95 0 157 -75q60 -76 60 -198z" />
    <glyph glyph-name="c" unicode="c" horiz-adv-x="560" 
d="M514 156q-20 -85 -73 -126q-53 -44 -140 -44q-113 0 -182 75t-69 199q0 126 69 199q69 74 182 74q46 0 98 -11q45 -11 98 -35v-133h-52q-10 67 -45 100q-36 31 -98 31q-72 0 -110 -57q-37 -55 -37 -168t37 -169q38 -57 110 -57q59 0 92 30q34 30 48 92h72z" />
    <glyph glyph-name="d" unicode="d" horiz-adv-x="640" 
d="M435 234v51q0 92 -36 143q-37 49 -104 49q-69 0 -105 -55q-35 -55 -35 -162q0 -106 35 -162t105 -56q68 0 104 49t36 143zM611 0h-176v81q-25 -49 -67 -72q-41 -23 -101 -23q-96 0 -157 76q-60 76 -60 198t60 198q62 75 157 75q60 0 101 -23q42 -23 67 -72v270h-85v52
h175v-708h86v-52z" />
    <glyph glyph-name="e" unicode="e" horiz-adv-x="591" 
d="M436 302q-3 90 -38 137q-36 46 -102 46q-63 0 -98 -47q-36 -46 -43 -136h281zM542 250h-387v-4q0 -106 39 -158q40 -54 117 -54q60 0 97 31q38 32 53 92h72q-21 -85 -79 -128t-152 -43q-114 0 -183 75t-69 199q0 122 68 198q68 75 178 75q118 0 181 -73q64 -73 65 -210z
" />
    <glyph glyph-name="f" unicode="f" horiz-adv-x="370" 
d="M430 637h-47q0 37 -21 56q-19 19 -59 19q-50 0 -71 -28q-20 -28 -20 -98v-67h145v-52h-145v-415h115v-52h-291v52h86v415h-86v52h86v65q0 87 45 132q46 44 133 44q33 0 66 -6t64 -18v-99z" />
    <glyph glyph-name="g" unicode="g" horiz-adv-x="640" 
d="M435 234v51q0 92 -36 143q-37 49 -104 49q-69 0 -105 -55q-35 -55 -35 -162q0 -106 35 -162t105 -56q68 0 104 49t36 143zM611 467h-86v-456q0 -110 -61 -173q-63 -60 -176 -60q-52 0 -98 9q-48 9 -90 28v109h47q9 -51 41 -74q33 -24 94 -24q78 0 116 45q37 44 37 140v70
q-25 -49 -67 -72q-41 -23 -101 -23q-96 0 -157 76q-60 76 -60 198t60 198q62 75 157 75q60 0 101 -23q42 -23 67 -72v81h176v-52z" />
    <glyph glyph-name="h" unicode="h" horiz-adv-x="644" 
d="M616 0h-248v52h78v250q0 96 -24 130q-23 35 -82 35q-62 0 -95 -45q-33 -46 -33 -133v-237h78v-52h-249v52h81v656h-86v52h176v-333q26 54 64 79q40 27 93 27q87 0 127 -49q40 -51 40 -154v-278h80v-52z" />
    <glyph glyph-name="i" unicode="i" horiz-adv-x="319" 
d="M297 0h-261v52h86v415h-86v52h176v-467h85v-52zM208 680q0 -23 -16 -39t-39 -16q-24 0 -39 16q-17 16 -17 39t17 39q15 17 39 17q21 0 39 -16q16 -19 16 -40z" />
    <glyph glyph-name="j" unicode="j" horiz-adv-x="310" 
d="M212 -51q0 -80 -48 -125q-46 -46 -131 -46q-33 0 -67 8q-32 8 -62 24v107h46q3 -47 24 -69t61 -22q44 0 65 30q22 29 22 93v518h-85v52h175v-570zM211 680q0 -23 -16 -39t-39 -16q-24 0 -40 16q-16 18 -16 39t16 39q19 17 40 17q22 0 38 -16q17 -17 17 -40z" />
    <glyph glyph-name="k" unicode="k" horiz-adv-x="605" 
d="M613 0h-256v52h74l-155 213l-71 -66v-147h81v-52h-252v52h81v656h-86v52h176v-495l219 202h-75v52h235v-52h-89l-154 -143l197 -272h75v-52z" />
    <glyph glyph-name="l" unicode="l" horiz-adv-x="319" 
d="M290 0h-261v52h86v656h-86v52h176v-708h85v-52z" />
    <glyph glyph-name="m" unicode="m" horiz-adv-x="948" 
d="M921 0h-249v52h78v268q0 80 -24 114q-22 33 -77 33q-61 0 -91 -45q-32 -45 -32 -133v-237h78v-52h-246v52h78v271q0 78 -24 111q-23 33 -77 33q-61 0 -91 -45q-32 -45 -32 -133v-237h78v-52h-249v52h81v416h-86v51h176v-92q25 52 64 79q38 27 87 27q61 0 101 -30
q41 -30 54 -85q25 56 66 86q43 29 94 29q82 0 122 -51q40 -49 40 -152v-278h81v-52z" />
    <glyph glyph-name="n" unicode="n" horiz-adv-x="644" 
d="M616 0h-248v52h78v250q0 96 -24 130q-23 36 -82 36q-62 0 -95 -46t-33 -133v-237h78v-52h-249v52h81v415h-86v52h176v-92q26 54 64 79q40 27 93 27q87 0 127 -49q40 -51 40 -154v-278h80v-52z" />
    <glyph glyph-name="o" unicode="o" 
d="M552 260q0 -123 -68 -199q-69 -75 -183 -75q-113 0 -182 75t-69 199t68 198q69 75 183 75t183 -75q68 -74 68 -198zM447 260q0 112 -37 168q-38 57 -109 57t-109 -57q-37 -56 -37 -168t37 -168q37 -58 109 -58q71 0 109 57q37 56 37 169z" />
    <glyph glyph-name="p" unicode="p" horiz-adv-x="640" 
d="M590 260q0 -122 -60 -198q-61 -76 -157 -76q-60 0 -101 23q-42 23 -67 72v-237h85v-52h-261v52h86v623h-86v52h176v-81q25 49 67 72q41 23 101 23q95 0 157 -75q60 -76 60 -198zM485 260q0 107 -35 162q-36 55 -105 55q-67 0 -104 -49q-36 -51 -36 -143v-51
q0 -94 36 -143t104 -49q69 0 105 55q35 56 35 163z" />
    <glyph glyph-name="q" unicode="q" horiz-adv-x="640" 
d="M435 234v51q0 92 -36 143q-37 49 -104 49q-69 0 -105 -55q-35 -55 -35 -162q0 -106 35 -162t105 -56q68 0 104 49t36 143zM611 -208h-261v52h85v237q-25 -49 -67 -72q-41 -23 -101 -23q-96 0 -157 76q-60 76 -60 198t60 198q62 75 157 75q60 0 101 -23q42 -23 67 -72v81
h176v-52h-86v-623h86v-52z" />
    <glyph glyph-name="r" unicode="r" horiz-adv-x="478" 
d="M478 390h-52q-1 38 -21 58q-19 19 -56 19q-67 0 -101 -46q-36 -47 -36 -132v-237h104v-52h-275v52h81v416h-86v51h176v-92q26 54 68 80q41 26 101 26q22 0 46 -3l51 -10v-130z" />
    <glyph glyph-name="s" unicode="s" horiz-adv-x="513" 
d="M462 144q0 -74 -56 -116q-57 -42 -156 -42q-48 0 -98 11q-46 10 -96 32v121h52q1 -57 36 -87q37 -29 102 -29q61 0 92 23q32 22 32 66q0 34 -23 55q-22 21 -98 45l-65 22q-66 21 -97 53q-30 33 -30 83q0 73 53 111q50 41 144 41q45 0 86 -11q42 -8 94 -31v-113h-52
q-2 51 -35 78q-32 29 -90 29q-57 0 -86 -20t-29 -60q0 -32 22 -53q25 -20 88 -40l71 -22q75 -23 107 -58q32 -34 32 -88z" />
    <glyph glyph-name="t" unicode="t" horiz-adv-x="401" 
d="M394 122q-4 -70 -38 -104q-37 -32 -106 -32q-78 0 -110 34q-32 37 -32 117v330h-79v52h79v161h90v-161h169v-52h-169v-330q0 -66 13 -85q13 -18 47 -18t51 21q15 20 17 67h68z" />
    <glyph glyph-name="u" unicode="u" horiz-adv-x="644" 
d="M607 0h-175v92q-25 -52 -64 -79q-40 -27 -92 -27q-87 0 -127 49q-41 50 -41 154v278h-81v52h171v-302q0 -95 24 -130q23 -35 82 -35q62 0 95 46q33 47 33 133v236h-78v52h168v-467h85v-52z" />
    <glyph glyph-name="v" unicode="v" horiz-adv-x="564" 
d="M562 467h-58l-191 -467h-66l-191 467h-59v52h239v-52h-83l146 -357l146 357h-78v52h195v-52z" />
    <glyph glyph-name="w" unicode="w" horiz-adv-x="855" 
d="M843 467h-58l-154 -467h-75l-128 388l-128 -388h-72l-154 467h-58v52h235v-52h-84l116 -353l134 405h63l133 -405l117 353h-75v52h188v-52z" />
    <glyph glyph-name="x" unicode="x" horiz-adv-x="563" 
d="M552 0h-240v52h66l-113 155l-113 -155h67v-52h-197v52h69l143 197l-158 218h-64v52h232v-52h-62l109 -150l109 150h-70v52h200v-52h-69l-139 -192l162 -223h68v-52z" />
    <glyph glyph-name="y" unicode="y" horiz-adv-x="564" 
d="M562 467h-58l-238 -584q-23 -60 -54 -83q-29 -22 -84 -22q-26 0 -47 4q-32 6 -49 11v99h46q3 -32 17 -48q14 -14 43 -14q26 0 44 15q17 17 34 60l34 86l-194 476h-59v52h239v-52h-83l146 -357l146 357h-78v52h195v-52z" />
    <glyph glyph-name="z" unicode="z" horiz-adv-x="526" 
d="M490 0h-450v42l325 425h-257v-90h-52v142h425v-42l-325 -425h282v94h52v-146z" />
    <glyph glyph-name="braceleft" unicode="{" horiz-adv-x="418" 
d="M365 -173q-200 0 -200 167v140q0 115 -112 115v52q112 0 112 115v140q0 167 200 167v-52q-112 0 -112 -115v-140q0 -101 -73 -141q73 -40 73 -141v-140q0 -115 112 -115v-52z" />
    <glyph glyph-name="bar" unicode="|" horiz-adv-x="224" 
d="M144 -147h-64v844h64v-844z" />
    <glyph glyph-name="braceright" unicode="}" horiz-adv-x="418" 
d="M365 249q-112 0 -112 -115v-140q0 -167 -200 -167v52q112 0 112 115v140q0 101 73 141q-73 40 -73 141v140q0 115 -112 115v52q200 0 200 -167v-140q0 -115 112 -115v-52z" />
    <glyph glyph-name="asciitilde" unicode="~" horiz-adv-x="837" 
d="M732 322q-48 -42 -93 -64q-45 -20 -89 -20q-45 0 -132 32l-5 2q-9 3 -16 6q-71 28 -118 28q-45 0 -87 -18q-40 -15 -86 -55v74q50 43 92 62q46 20 90 20q45 0 132 -32l5 -2l15 -6q69 -28 118 -28q44 0 88 18q43 18 86 55v-72z" />
    <glyph glyph-name="uni00A0" unicode="&#xa0;" horiz-adv-x="317" 
 />
    <glyph glyph-name="exclamdown" unicode="&#xa1;" horiz-adv-x="401" 
d="M264 0h-126l33 401v123h60v-123zM266 678q0 -27 -19 -46t-46 -19q-28 0 -47 19q-18 20 -18 46t18 46q19 19 47 19q27 0 46 -19t19 -46z" />
    <glyph glyph-name="cent" unicode="&#xa2;" horiz-adv-x="636" 
d="M539 156q-16 -74 -63 -118q-46 -42 -120 -51v-132h-49v132q-108 9 -169 83q-63 72 -63 190t63 191q61 73 169 81v130h49v-130q46 -5 86 -15q42 -11 80 -30v-133h-52q-9 61 -37 92q-29 32 -77 38v-449q44 6 72 37q28 30 39 84h72zM307 35v449q-62 -7 -95 -64
q-31 -57 -31 -160t31 -162q33 -56 95 -63z" />
    <glyph glyph-name="sterling" unicode="&#xa3;" horiz-adv-x="636" 
d="M549 0h-482v52h94v286h-94v52h94v148q0 99 56 152q55 52 164 52q42 0 81 -6q38 -6 76 -18v-120h-51q-4 45 -33 71q-26 25 -74 25q-62 0 -92 -38q-29 -38 -29 -118v-148h201v-52h-201v-279h233v111h57v-170z" />
    <glyph glyph-name="currency" unicode="&#xa4;" horiz-adv-x="636" 
d="M450 314q0 57 -38 92q-35 38 -93 38q-56 0 -93 -38q-38 -38 -38 -92q0 -56 38 -94t93 -38t93 38q38 40 38 94zM588 536l-102 -102q20 -27 31 -59q10 -29 10 -62q0 -36 -10 -63q-12 -30 -32 -56l101 -101l-47 -46l-101 100q-29 -22 -56 -31q-26 -11 -63 -11q-32 0 -61 10
q-30 10 -61 30l-100 -100l-46 46l100 101q-19 30 -30 60q-10 29 -10 61q0 36 10 63q11 31 32 57l-101 101l46 46l101 -101q29 23 57 31q26 11 63 11q32 0 62 -9q32 -11 59 -31l102 101z" />
    <glyph glyph-name="yen" unicode="&#xa5;" horiz-adv-x="636" 
d="M639 677h-69l-139 -243h133v-51h-162l-35 -60v-41h197v-51h-197v-179h93v-52h-284v52h93v179h-197v51h197v32l-40 69h-157v51h128l-140 243h-68v52h270v-52h-85l167 -295l166 295h-82v52h211v-52z" />
    <glyph glyph-name="brokenbar" unicode="&#xa6;" horiz-adv-x="336" 
d="M208 329h-79v370h79v-370zM208 -171h-79v370h79v-370z" />
    <glyph glyph-name="section" unicode="&#xa7;" horiz-adv-x="500" 
d="M455 304q0 -44 -25 -77q-27 -31 -82 -52q38 -23 56 -54t18 -75q0 -64 -50 -102q-50 -39 -134 -39q-47 0 -83 7q-37 6 -77 20v102h45q2 -40 27 -59q28 -20 79 -20t81 24q29 24 29 65q0 56 -111 117q-14 8 -16 9q-104 59 -136 96q-31 37 -31 85q0 45 29 79q29 32 82 47
q-39 23 -60 55q-19 32 -19 69q0 63 49 102t130 39q38 0 75 -6q35 -7 74 -21v-99h-45q-2 35 -26 56q-28 20 -69 20q-49 0 -77 -24q-28 -22 -28 -64q0 -46 120 -114q17 -9 19 -11q95 -53 125 -89q31 -37 31 -86zM375 289q0 38 -34 69q-35 33 -156 99q-32 -22 -47 -43
q-13 -21 -13 -46q0 -64 177 -163l16 -9q28 20 42 42q15 22 15 51z" />
    <glyph glyph-name="dieresis" unicode="&#xa8;" horiz-adv-x="500" 
d="M402 709q0 -25 -16 -41t-41 -16t-41 16t-16 41q0 23 17 40t40 17t40 -17t17 -40zM212 709q0 -25 -16 -41t-41 -16q-24 0 -41 16q-16 18 -16 41t17 40t40 17t40 -17t17 -40z" />
    <glyph glyph-name="copyright" unicode="&#xa9;" horiz-adv-x="1000" 
d="M812 362q0 65 -23 120q-22 55 -68 101t-101 69q-58 23 -120 23t-119 -23q-54 -22 -101 -69q-46 -45 -68 -101q-24 -56 -24 -120q0 -63 23 -118q22 -55 69 -102t101 -69q57 -23 119 -23q63 0 120 23q55 23 101 69q45 45 68 100q23 58 23 120zM862 362q0 -72 -26 -138
q-27 -64 -80 -117t-118 -80q-64 -27 -138 -27q-75 0 -138 27q-64 26 -118 80q-53 53 -80 117q-26 66 -26 138q0 73 26 139q27 64 80 117t118 80q64 27 138 27q75 0 138 -27q64 -26 118 -80q53 -53 80 -117q26 -66 26 -139zM672 280q-14 -66 -58 -98q-42 -35 -113 -35
q-92 0 -145 59q-55 58 -55 156q0 99 55 157q56 59 145 59q39 0 77 -9q41 -10 80 -28v-104h-41q-7 53 -36 78q-28 25 -79 25q-58 0 -88 -44q-29 -46 -29 -134t29 -132q28 -45 87 -45q46 0 75 23q27 22 38 72h58z" />
    <glyph glyph-name="ordfeminine" unicode="&#xaa;" horiz-adv-x="475" 
d="M422 261h-341v51h341v-51zM337 487v72h-92q-50 0 -77 -19q-27 -21 -27 -58q0 -41 25 -60q24 -21 72 -21q44 0 72 23q27 24 27 63zM448 369h-111v39q-23 -26 -54 -36q-32 -12 -73 -12q-70 0 -109 32q-40 30 -40 86t47 87q44 31 129 31h100v22q0 42 -29 64q-28 23 -79 23
q-41 0 -67 -17q-24 -16 -32 -51h-37v77q36 13 73 21q32 7 67 7q87 0 131 -38q45 -36 45 -109v-185h39v-41z" />
    <glyph glyph-name="guillemotleft" unicode="&#xab;" horiz-adv-x="611" 
d="M306 69l-229 204v40l229 204v-56l-145 -168l145 -168v-56zM518 69l-229 204v40l229 204v-56l-145 -168l145 -168v-56z" />
    <glyph glyph-name="logicalnot" unicode="&#xac;" horiz-adv-x="828" 
d="M748 315v-315h-80v235h-588v80h668z" />
    <glyph glyph-name="registered" unicode="&#xae;" horiz-adv-x="1000" 
d="M862 362q0 -72 -26 -138q-27 -64 -80 -117t-118 -80q-64 -27 -138 -27q-75 0 -138 27q-64 26 -118 80q-53 53 -80 117q-26 66 -26 138q0 73 26 139q27 64 80 117t118 80q64 27 138 27q75 0 138 -27q64 -26 118 -80q53 -53 80 -117q26 -66 26 -139zM812 362q0 65 -23 120
q-22 55 -68 101t-101 69q-58 23 -120 23t-119 -23q-54 -22 -101 -69q-46 -45 -68 -101q-24 -56 -24 -120q0 -63 23 -118q22 -55 69 -102t101 -69q57 -23 119 -23q63 0 120 23q55 23 101 69q45 45 68 100q23 58 23 120zM710 172h-93l-64 124q-16 33 -32 46q-16 11 -39 11h-45
v-148h41v-33h-155v33h41v328h-41v33h203q63 0 94 -28q32 -27 32 -80q0 -40 -24 -63q-22 -22 -71 -27q23 -8 35 -20q14 -12 24 -31l57 -112h37v-33zM579 460q0 36 -21 54q-19 19 -60 19h-61v-147h61q42 0 61 18q20 20 20 56z" />
    <glyph glyph-name="macron" unicode="&#xaf;" horiz-adv-x="500" 
d="M396 673h-292v72h292v-72z" />
    <glyph glyph-name="degree" unicode="&#xb0;" horiz-adv-x="500" 
d="M405 586q0 -64 -45 -109q-46 -45 -111 -45q-66 0 -110 44t-44 110q0 65 45 110q45 46 110 46q32 0 60 -12q30 -13 50 -34q22 -22 34 -50q11 -30 11 -60zM347 586q0 42 -29 69q-27 29 -68 29q-42 0 -68 -28q-29 -28 -29 -70q0 -41 28 -68q27 -28 69 -28q43 0 68 28
q29 26 29 68z" />
    <glyph glyph-name="plusminus" unicode="&#xb1;" horiz-adv-x="788" 
d="M708 -39h-628v80h628v-80zM708 315h-274v-194h-80v194h-274v80h274v194h80v-194h274v-80z" />
    <glyph glyph-name="acute" unicode="&#xb4;" horiz-adv-x="500" 
d="M415 800l-166 -184h-57l126 184h97z" />
    <glyph glyph-name="uni00B5" unicode="&#xb5;" horiz-adv-x="649" 
d="M614 0h-175v92q-25 -52 -61 -79t-80 -27q-27 0 -51 8q-23 9 -42 27v-177h85v-52h-261v52h86v623h-81v52h171v-302q0 -95 23 -130q24 -35 83 -35q62 0 95 46q33 47 33 133v236h-78v52h168v-468h85v-51z" />
    <glyph glyph-name="paragraph" unicode="&#xb6;" horiz-adv-x="636" 
d="M572 677h-58v-773h-52v773h-113v-773h-52v413q-104 7 -163 62q-57 54 -57 144q0 93 63 149q65 57 169 57h263v-52z" />
    <glyph glyph-name="periodcentered" unicode="&#xb7;" horiz-adv-x="290" 
d="M210 275q0 -27 -19 -46t-46 -19t-46 19t-19 46t19 46t46 19t46 -19t19 -46z" />
    <glyph glyph-name="cedilla" unicode="&#xb8;" horiz-adv-x="500" 
d="M344 -110q0 -40 -30 -62q-32 -21 -86 -21q-21 0 -42 3q-22 3 -44 9v64q16 -6 40 -13q24 -4 36 -4q28 0 44 13t16 35q0 12 -11 36q-10 20 -32 50h47q31 -31 46 -58q16 -28 16 -52z" />
    <glyph glyph-name="ordmasculine" unicode="&#xba;" horiz-adv-x="470" 
d="M403 261h-336v51h336v-51zM424 551q0 -86 -52 -139q-52 -52 -137 -52q-83 0 -137 52q-52 53 -52 139t52 139q52 52 137 52q83 0 137 -52q52 -53 52 -139zM339 551q0 76 -27 115q-25 39 -77 39q-51 0 -77 -39q-27 -40 -27 -115q0 -76 27 -115q26 -39 77 -39q53 0 78 39
q26 40 26 115z" />
    <glyph glyph-name="guillemotright" unicode="&#xbb;" horiz-adv-x="611" 
d="M323 273l-229 -204v56l145 168l-145 168v56l229 -204v-40zM535 273l-229 -204v56l145 168l-145 168v56l229 -204v-40z" />
    <glyph glyph-name="questiondown" unicode="&#xbf;" horiz-adv-x="536" 
d="M488 32q-57 -24 -98 -34q-50 -11 -88 -11q-109 0 -171 52q-63 53 -63 141q0 91 54 148q53 57 163 83v124h60v-160q-88 -22 -130 -71q-44 -49 -44 -125q0 -67 36 -105q36 -39 97 -39q54 0 91 32q35 31 46 92h47v-127zM380 678q0 -27 -19 -46t-46 -19t-46 19t-19 46t19 46
t46 19q28 0 47 -19q18 -20 18 -46z" />
    <glyph glyph-name="Agrave" unicode="&#xc0;" horiz-adv-x="722" 
d="M416 798h-57l-128 129h96zM732 0h-265v52h81l-61 160h-307l-61 -160h80v-52h-205v52h64l260 677h82l260 -677h72v-52zM468 264l-134 347l-134 -347h268z" />
    <glyph glyph-name="Aacute" unicode="&#xc1;" horiz-adv-x="722" 
d="M488 927l-128 -129h-57l89 129h96zM732 0h-265v52h81l-61 160h-307l-61 -160h80v-52h-205v52h64l260 677h82l260 -677h72v-52zM468 264l-134 347l-134 -347h268z" />
    <glyph glyph-name="Acircumflex" unicode="&#xc2;" horiz-adv-x="722" 
d="M517 798h-57l-99 79l-99 -79h-57l113 129h86zM732 0h-265v52h81l-61 160h-307l-61 -160h80v-52h-205v52h64l260 677h82l260 -677h72v-52zM468 264l-134 347l-134 -347h268z" />
    <glyph glyph-name="Atilde" unicode="&#xc3;" horiz-adv-x="722" 
d="M522 921q-2 -52 -26 -79q-25 -28 -71 -28q-34 0 -68 22l-2 1l-24 14q-12 7 -20 9q-9 4 -18 4q-19 0 -31 -14q-14 -14 -15 -36h-47q2 51 26 78q26 29 66 29q20 0 33 -5q12 -2 42 -19l24 -13q4 -2 11.5 -5.5t9.5 -4.5q12 -3 20 -3q19 0 32 13q11 16 11 37h47zM732 0h-265
v52h81l-61 160h-307l-61 -160h80v-52h-205v52h64l260 677h82l260 -677h72v-52zM468 264l-134 347l-134 -347h268z" />
    <glyph glyph-name="Adieresis" unicode="&#xc4;" horiz-adv-x="722" 
d="M513 863q0 -24 -17 -41q-16 -16 -40 -16t-40 16q-17 17 -17 41q0 22 17 39q16 18 40 18q23 0 40 -17t17 -40zM323 863q0 -24 -17 -41q-16 -16 -40 -16t-40 16q-17 17 -17 41q0 22 17 39q17 18 40 18t40 -17t17 -40zM732 0h-265v52h81l-61 160h-307l-61 -160h80v-52h-205
v52h64l260 677h82l260 -677h72v-52zM468 264l-134 347l-134 -347h268z" />
    <glyph glyph-name="Aring" unicode="&#xc5;" horiz-adv-x="722" 
d="M732 0h-265v52h81l-61 160h-307l-61 -160h80v-52h-205v52h64l239 624q-35 18 -53 48q-19 28 -19 70q0 56 39 95t95 39t95 -39t39 -95q0 -39 -19 -70q-20 -32 -54 -48l240 -624h72v-52zM467 264l-133 347l-134 -347h267zM433 794q0 31 -21 52q-22 22 -53 22t-53 -21
q-21 -21 -21 -53q0 -31 21 -52q22 -22 53 -22t53 22q21 21 21 52z" />
    <glyph glyph-name="AE" unicode="&#xc6;" horiz-adv-x="1000" 
d="M949 0h-595v52h93v160h-263l-74 -160h80v-52h-207v52h64l288 625h-105v52h711v-162h-60v102h-336v-244h240v91h60v-242h-60v91h-240v-305h344v102h60v-162zM447 264v413h-49l-190 -413h239z" />
    <glyph glyph-name="Ccedilla" unicode="&#xc7;" horiz-adv-x="765" 
d="M705 193q-31 -101 -108 -155q-62 -40 -142 -49q25 -28 35 -47q16 -28 16 -52q0 -40 -30 -62q-32 -21 -86 -21q-21 0 -42 3q-22 3 -44 9v64q16 -6 40 -13q24 -4 36 -4q28 0 44 13t16 35q0 12 -11 36q-8 15 -22 36h-2q-70 0 -133 24q-63 27 -108 72q-55 55 -82 124
q-26 72 -26 158q0 170 98 274t259 104q62 0 127 -16q64 -14 145 -47v-168h-55q-18 93 -72 135q-54 44 -153 44q-117 0 -177 -83t-60 -243t60 -243t177 -83q81 0 135 39q53 40 75 116h90z" />
    <glyph glyph-name="Egrave" unicode="&#xc8;" horiz-adv-x="729" 
d="M420 798h-57l-128 129h96zM650 0h-595v52h93v625h-93v52h587v-162h-60v102h-335v-244h239v91h60v-242h-60v91h-239v-305h343v102h60v-162z" />
    <glyph glyph-name="Eacute" unicode="&#xc9;" horiz-adv-x="729" 
d="M492 927l-128 -129h-57l89 129h96zM650 0h-595v52h93v625h-93v52h587v-162h-60v102h-335v-244h239v91h60v-242h-60v91h-239v-305h343v102h60v-162z" />
    <glyph glyph-name="Ecircumflex" unicode="&#xca;" horiz-adv-x="729" 
d="M521 798h-57l-99 79l-99 -79h-57l113 129h86zM650 0h-595v52h93v625h-93v52h587v-162h-60v102h-335v-244h239v91h60v-242h-60v91h-239v-305h343v102h60v-162z" />
    <glyph glyph-name="Edieresis" unicode="&#xcb;" horiz-adv-x="729" 
d="M517 863q0 -24 -17 -41q-16 -16 -40 -16t-40 16q-17 17 -17 41q0 22 17 39q16 18 40 18q23 0 40 -17t17 -40zM327 863q0 -24 -17 -41q-16 -16 -40 -16t-40 16q-17 17 -17 41q0 22 17 39q17 18 40 18t40 -17t17 -40zM650 0h-595v52h93v625h-93v52h587v-162h-60v102h-335
v-244h239v91h60v-242h-60v91h-239v-305h343v102h60v-162z" />
    <glyph glyph-name="Igrave" unicode="&#xcc;" horiz-adv-x="395" 
d="M253 798h-57l-128 129h96zM340 0h-285v52h93v625h-93v52h285v-52h-93v-625h93v-52z" />
    <glyph glyph-name="Iacute" unicode="&#xcd;" horiz-adv-x="395" 
d="M325 927l-128 -129h-57l89 129h96zM340 0h-285v52h93v625h-93v52h285v-52h-93v-625h93v-52z" />
    <glyph glyph-name="Icircumflex" unicode="&#xce;" horiz-adv-x="395" 
d="M354 798h-57l-99 79l-99 -79h-57l113 129h86zM340 0h-285v52h93v625h-93v52h285v-52h-93v-625h93v-52z" />
    <glyph glyph-name="Idieresis" unicode="&#xcf;" horiz-adv-x="395" 
d="M350 863q0 -22 -16 -41q-19 -16 -41 -16t-41 16q-16 19 -16 41t17 39q17 18 40 18t40 -17t17 -40zM160 863q0 -22 -16 -41q-19 -16 -41 -16t-41 16q-16 19 -16 41t17 39q17 18 40 18t40 -17t17 -40zM340 0h-285v52h93v625h-93v52h285v-52h-93v-625h93v-52z" />
    <glyph glyph-name="Eth" unicode="&#xd0;" horiz-adv-x="807" 
d="M749 365q0 -172 -105 -269q-106 -96 -294 -96h-290v52h93v299h-98v61h98v265h-93v52h290q188 0 294 -96q105 -96 105 -268zM637 365q0 152 -76 231q-77 81 -218 81h-92v-265h164v-61h-164v-299h92q142 0 218 81q76 80 76 232z" />
    <glyph glyph-name="Ntilde" unicode="&#xd1;" horiz-adv-x="875" 
d="M599 921q-2 -52 -26 -79q-25 -28 -71 -28q-34 0 -68 22l-2 1l-24 14q-12 7 -20 9q-9 4 -18 4q-18 0 -32 -14q-13 -14 -14 -36h-47q2 51 26 78q26 29 66 29q21 0 33 -5q12 -2 42 -19l24 -13q4 -2 22 -10q9 -3 19 -3q20 0 31 13q12 15 12 37h47zM831 677h-98v-691h-59
l-467 614v-548h98v-52h-256v52h98v625h-98v52h187l437 -575v523h-98v52h256v-52z" />
    <glyph glyph-name="Ograve" unicode="&#xd2;" horiz-adv-x="819" 
d="M465 798h-57l-128 129h96zM764 364q0 -86 -27 -158q-28 -71 -81 -124q-49 -49 -110 -72q-60 -24 -136 -24q-74 0 -136 24q-64 26 -110 72q-55 55 -82 124q-26 70 -26 158q0 86 26 158q27 69 82 124q49 49 110 72q60 24 136 24q160 0 256 -104q98 -102 98 -274zM652 364
q0 162 -61 244t-181 82q-119 0 -181 -82q-61 -83 -61 -244t61 -244q62 -82 181 -82t181 82q61 83 61 244z" />
    <glyph glyph-name="Oacute" unicode="&#xd3;" horiz-adv-x="819" 
d="M537 927l-128 -129h-57l89 129h96zM764 364q0 -86 -27 -158q-28 -71 -81 -124q-49 -49 -110 -72q-60 -24 -136 -24q-74 0 -136 24q-64 26 -110 72q-55 55 -82 124q-26 70 -26 158q0 86 26 158q27 69 82 124q49 49 110 72q60 24 136 24q160 0 256 -104q98 -102 98 -274z
M652 364q0 162 -61 244t-181 82q-119 0 -181 -82q-61 -83 -61 -244t61 -244q62 -82 181 -82t181 82q61 83 61 244z" />
    <glyph glyph-name="Ocircumflex" unicode="&#xd4;" horiz-adv-x="819" 
d="M566 798h-57l-99 79l-99 -79h-57l113 129h86zM764 364q0 -86 -27 -158q-28 -71 -81 -124q-49 -49 -110 -72q-60 -24 -136 -24q-74 0 -136 24q-64 26 -110 72q-55 55 -82 124q-26 70 -26 158q0 86 26 158q27 69 82 124q49 49 110 72q60 24 136 24q160 0 256 -104
q98 -102 98 -274zM652 364q0 162 -61 244t-181 82q-119 0 -181 -82q-61 -83 -61 -244t61 -244q62 -82 181 -82t181 82q61 83 61 244z" />
    <glyph glyph-name="Otilde" unicode="&#xd5;" horiz-adv-x="819" 
d="M571 921q-2 -52 -26 -79q-25 -28 -71 -28q-34 0 -68 22l-2 1l-24 14q-12 7 -20 9q-9 4 -18 4q-18 0 -32 -14q-13 -14 -14 -36h-47q2 51 26 78q26 29 66 29q21 0 33 -5q12 -2 42 -19l24 -13q4 -2 22 -10q9 -3 19 -3q20 0 31 13q12 15 12 37h47zM764 364q0 -86 -27 -158
q-28 -71 -81 -124q-49 -49 -110 -72q-60 -24 -136 -24q-74 0 -136 24q-64 26 -110 72q-55 55 -82 124q-26 70 -26 158q0 86 26 158q27 69 82 124q49 49 110 72q60 24 136 24q160 0 256 -104q98 -102 98 -274zM652 364q0 162 -61 244t-181 82q-119 0 -181 -82
q-61 -83 -61 -244t61 -244q62 -82 181 -82t181 82q61 83 61 244z" />
    <glyph glyph-name="Odieresis" unicode="&#xd6;" horiz-adv-x="819" 
d="M562 863q0 -22 -16 -41q-19 -16 -41 -16t-41 16q-16 19 -16 41t17 39q16 18 40 18q23 0 40 -17t17 -40zM372 863q0 -22 -16 -41q-19 -16 -41 -16t-41 16q-16 19 -16 41t17 39q17 18 40 18t40 -17t17 -40zM764 364q0 -86 -27 -158q-28 -71 -81 -124q-49 -49 -110 -72
q-60 -24 -136 -24q-74 0 -136 24q-64 26 -110 72q-55 55 -82 124q-26 70 -26 158q0 86 26 158q27 69 82 124q49 49 110 72q60 24 136 24q160 0 256 -104q98 -102 98 -274zM652 364q0 162 -61 244t-181 82q-119 0 -181 -82q-61 -83 -61 -244t61 -244q62 -82 181 -82t181 82
q61 83 61 244z" />
    <glyph glyph-name="multiply" unicode="&#xd7;" horiz-adv-x="661" 
d="M581 81l-57 -56l-194 193l-193 -193l-57 56l194 194l-194 194l57 56l193 -193l194 193l57 -56l-194 -194z" />
    <glyph glyph-name="Oslash" unicode="&#xd8;" horiz-adv-x="819" 
d="M769 722l-90 -99q42 -53 63 -117q22 -63 22 -142q0 -167 -98 -273q-97 -105 -256 -105q-68 0 -127 21q-57 20 -107 63l-89 -98l-38 34l91 101q-42 51 -63 115t-21 142q0 168 98 274q98 104 256 104q66 0 128 -20q59 -22 105 -62l87 97zM652 364q0 54 -8 105q-7 43 -25 88
l-393 -432q31 -43 77 -65q45 -22 107 -22q119 0 181 82q61 83 61 244zM593 605q-31 42 -77 64q-45 21 -106 21q-119 0 -181 -82q-61 -83 -61 -244q0 -55 8 -106q8 -47 24 -86z" />
    <glyph glyph-name="Ugrave" unicode="&#xd9;" horiz-adv-x="842" 
d="M496 798h-57l-128 129h96zM798 677h-93v-387q0 -168 -64 -236q-65 -68 -217 -68q-154 0 -218 70q-66 69 -66 234v387h-93v52h285v-52h-93v-377q0 -140 45 -195q46 -55 158 -55t158 55q45 55 45 195v377h-93v52h246v-52z" />
    <glyph glyph-name="Uacute" unicode="&#xda;" horiz-adv-x="842" 
d="M568 927l-128 -129h-57l89 129h96zM798 677h-93v-387q0 -168 -64 -236q-65 -68 -217 -68q-154 0 -218 70q-66 69 -66 234v387h-93v52h285v-52h-93v-377q0 -140 45 -195q46 -55 158 -55t158 55q45 55 45 195v377h-93v52h246v-52z" />
    <glyph glyph-name="Ucircumflex" unicode="&#xdb;" horiz-adv-x="842" 
d="M597 798h-57l-99 79l-99 -79h-57l113 129h86zM798 677h-93v-387q0 -168 -64 -236q-65 -68 -217 -68q-154 0 -218 70q-66 69 -66 234v387h-93v52h285v-52h-93v-377q0 -140 45 -195q46 -55 158 -55t158 55q45 55 45 195v377h-93v52h246v-52z" />
    <glyph glyph-name="Udieresis" unicode="&#xdc;" horiz-adv-x="842" 
d="M593 863q0 -24 -17 -41q-16 -16 -40 -16t-40 16q-17 17 -17 41q0 22 17 39q16 18 40 18q23 0 40 -17t17 -40zM403 863q0 -24 -17 -41q-16 -16 -40 -16t-40 16q-17 17 -17 41q0 22 17 39q17 18 40 18t40 -17t17 -40zM798 677h-93v-387q0 -168 -64 -236q-65 -68 -217 -68
q-154 0 -218 70q-66 69 -66 234v387h-93v52h285v-52h-93v-377q0 -140 45 -195q46 -55 158 -55t158 55q45 55 45 195v377h-93v52h246v-52z" />
    <glyph glyph-name="Yacute" unicode="&#xdd;" horiz-adv-x="660" 
d="M457 927l-128 -129h-57l89 129h96zM669 677h-69l-219 -354v-271h93v-52h-285v52h93v262l-225 363h-68v52h271v-52h-85l182 -295l182 295h-82v52h212v-52z" />
    <glyph glyph-name="Thorn" unicode="&#xde;" horiz-adv-x="675" 
d="M637 365q0 -94 -64 -151q-66 -55 -173 -55h-153v-107h113v-52h-305v52h93v625h-93v52h305v-52h-113v-107h153q110 0 173 -56q64 -55 64 -149zM525 365q0 73 -38 113q-37 40 -111 40h-129v-306h129q74 0 111 40q38 40 38 113z" />
    <glyph glyph-name="germandbls" unicode="&#xdf;" horiz-adv-x="667" 
d="M624 157q0 -76 -56 -123q-57 -48 -147 -48q-43 0 -83 9t-79 26v114h53q1 -49 29 -75t77 -26q54 0 85 30q31 28 31 80q0 41 -20 70q-18 28 -76 64l-42 26q-52 32 -72 64q-22 29 -22 71q0 59 41 100q40 40 116 52q-5 60 -38 89q-33 32 -92 32q-65 0 -94 -32
q-30 -32 -30 -99v-581h-176v52h86v527q0 86 56 133q56 48 158 48q103 0 159 -51q54 -51 60 -154h-11q-72 0 -111 -27q-41 -25 -41 -71q0 -25 13 -44q14 -20 49 -42l43 -27q76 -48 105 -90q29 -41 29 -97z" />
    <glyph glyph-name="agrave" unicode="&#xe0;" horiz-adv-x="596" 
d="M568 0h-170v56q-31 -37 -69 -53q-40 -17 -91 -17q-87 0 -137 46q-51 46 -51 124q0 82 58 125q59 44 164 44h126v36q0 60 -36 91q-36 33 -101 33q-56 0 -85 -25q-32 -24 -40 -72h-46v105q45 19 91 30q41 10 86 10q107 0 165 -53q56 -54 56 -156v-272h80v-52zM398 163v110
h-116q-66 0 -100 -29q-32 -29 -32 -88q0 -54 33 -86q34 -32 90 -32q55 0 91 34q34 37 34 91zM334 615h-57l-166 184h96z" />
    <glyph glyph-name="aacute" unicode="&#xe1;" horiz-adv-x="596" 
d="M568 0h-170v56q-31 -37 -69 -53q-40 -17 -91 -17q-87 0 -137 46q-51 46 -51 124q0 82 58 125q59 44 164 44h126v36q0 60 -36 91q-36 33 -101 33q-56 0 -85 -25q-32 -24 -40 -72h-46v105q45 19 91 30q41 10 86 10q107 0 165 -53q56 -54 56 -156v-272h80v-52zM398 163v110
h-116q-66 0 -100 -29q-32 -29 -32 -88q0 -54 33 -86q34 -32 90 -32q55 0 91 34q34 37 34 91zM443 800l-166 -184h-57l126 184h97z" />
    <glyph glyph-name="acircumflex" unicode="&#xe2;" horiz-adv-x="596" 
d="M568 0h-170v56q-31 -37 -69 -53q-40 -17 -91 -17q-87 0 -137 46q-51 46 -51 124q0 82 58 125q59 44 164 44h126v36q0 60 -36 91q-36 33 -101 33q-56 0 -85 -25q-32 -24 -40 -72h-46v105q45 19 91 30q41 10 86 10q107 0 165 -53q56 -54 56 -156v-272h80v-52zM398 163v110
h-116q-66 0 -100 -29q-32 -29 -32 -88q0 -54 33 -86q34 -32 90 -32q55 0 91 34q34 37 34 91zM434 616h-57l-99 127l-99 -127h-57l115 184h82z" />
    <glyph glyph-name="atilde" unicode="&#xe3;" horiz-adv-x="596" 
d="M568 0h-170v56q-31 -37 -69 -53q-40 -17 -91 -17q-87 0 -137 46q-51 46 -51 124q0 82 58 125q59 44 164 44h126v36q0 60 -36 91q-36 33 -101 33q-56 0 -85 -25q-32 -24 -40 -72h-46v105q45 19 91 30q41 10 86 10q107 0 165 -53q56 -54 56 -156v-272h80v-52zM398 163v110
h-116q-66 0 -100 -29q-32 -29 -32 -88q0 -54 33 -86q34 -32 90 -32q55 0 91 34q34 37 34 91zM439 777q-2 -67 -26 -102q-25 -36 -69 -36q-20 0 -34 7q-18 8 -34 23l-28 27q-12 10 -21 16q-8 3 -17 3q-21 0 -32 -19q-13 -22 -14 -57h-47q2 67 26 102q25 36 69 36q20 0 34 -7
q18 -8 34 -23l28 -27q10 -10 20 -15q7 -4 18 -4q21 0 32 19q13 22 14 57h47z" />
    <glyph glyph-name="adieresis" unicode="&#xe4;" horiz-adv-x="596" 
d="M568 0h-170v56q-31 -37 -69 -53q-40 -17 -91 -17q-87 0 -137 46q-51 46 -51 124q0 82 58 125q59 44 164 44h126v36q0 60 -36 91q-36 33 -101 33q-56 0 -85 -25q-32 -24 -40 -72h-46v105q45 19 91 30q41 10 86 10q107 0 165 -53q56 -54 56 -156v-272h80v-52zM398 163v110
h-116q-66 0 -100 -29q-32 -29 -32 -88q0 -54 33 -86q34 -32 90 -32q55 0 91 34q34 37 34 91zM430 709q0 -25 -16 -41t-41 -16t-41 16t-16 41q0 23 17 40t40 17t40 -17t17 -40zM240 709q0 -25 -16 -41t-41 -16q-24 0 -41 16q-16 18 -16 41t17 40t40 17t40 -17t17 -40z" />
    <glyph glyph-name="aring" unicode="&#xe5;" horiz-adv-x="596" 
d="M568 0h-170v56q-31 -37 -69 -53q-40 -17 -91 -17q-87 0 -137 46q-51 46 -51 124q0 82 58 125q59 44 164 44h126v36q0 60 -36 91q-36 33 -101 33q-56 0 -85 -25q-32 -24 -40 -72h-46v105q45 19 91 30q41 10 86 10q107 0 165 -53q56 -54 56 -156v-272h80v-52zM398 163v110
h-116q-66 0 -100 -29q-32 -29 -32 -88q0 -54 33 -86q34 -32 90 -32q55 0 91 34q34 37 34 91zM352 744q0 31 -22 52q-21 22 -52 22q-32 0 -53 -22q-21 -21 -21 -52q0 -32 21 -53t53 -21q31 0 52 22q22 21 22 52zM412 744q0 -56 -39 -95t-95 -39t-95 39t-39 95t39 95t95 39
t95 -39t39 -95z" />
    <glyph glyph-name="ae" unicode="&#xe6;" horiz-adv-x="939" 
d="M784 302q-3 90 -38 137q-36 46 -102 46q-63 0 -98 -47q-35 -44 -43 -136h281zM890 250h-387v-4q0 -106 39 -158q40 -54 117 -54q60 0 97 31q38 32 53 92h72q-21 -85 -79 -128t-152 -43q-62 0 -110 22q-53 23 -89 65q-41 -44 -90 -65q-48 -22 -110 -22q-94 0 -149 44
q-52 46 -52 126q0 81 58 125q61 44 164 44h126v36q0 59 -35 91q-35 33 -98 33q-57 0 -89 -24q-33 -25 -40 -73h-46v105q45 19 91 30q41 10 86 10q69 0 116 -21t74 -65q34 41 83 65q46 21 104 21q118 0 181 -73q64 -73 65 -210zM398 163v110h-116q-66 0 -100 -29
q-32 -29 -32 -88q0 -54 33 -86q34 -32 90 -32q55 0 91 34q34 37 34 91z" />
    <glyph glyph-name="ccedilla" unicode="&#xe7;" horiz-adv-x="560" 
d="M514 156q-20 -85 -73 -126q-41 -34 -99 -41q25 -28 35 -47q16 -28 16 -52q0 -40 -30 -62q-31 -21 -86 -21q-21 0 -42 3q-22 3 -44 9v64q16 -6 40 -13q24 -4 36 -4q28 0 44 13t16 35q0 12 -11 36q-8 15 -22 36q-107 3 -175 75q-69 75 -69 199q0 126 69 199q69 74 182 74
q46 0 98 -11q45 -11 98 -35v-133h-52q-10 67 -45 100q-36 31 -98 31q-72 0 -110 -57q-37 -55 -37 -168t37 -169q38 -57 110 -57q59 0 92 30q34 30 48 92h72z" />
    <glyph glyph-name="egrave" unicode="&#xe8;" horiz-adv-x="591" 
d="M436 302q-3 90 -38 137q-36 46 -102 46q-63 0 -98 -47q-36 -46 -43 -136h281zM542 250h-387v-4q0 -106 39 -158q40 -54 117 -54q60 0 97 31q38 32 53 92h72q-21 -85 -79 -128t-152 -43q-114 0 -183 75t-69 199q0 122 68 198q68 75 178 75q118 0 181 -73q64 -73 65 -210z
M352 615h-57l-166 184h96z" />
    <glyph glyph-name="eacute" unicode="&#xe9;" horiz-adv-x="591" 
d="M436 302q-3 90 -38 137q-36 46 -102 46q-63 0 -98 -47q-36 -46 -43 -136h281zM542 250h-387v-4q0 -106 39 -158q40 -54 117 -54q60 0 97 31q38 32 53 92h72q-21 -85 -79 -128t-152 -43q-114 0 -183 75t-69 199q0 122 68 198q68 75 178 75q118 0 181 -73q64 -73 65 -210z
M461 800l-166 -184h-57l126 184h97z" />
    <glyph glyph-name="ecircumflex" unicode="&#xea;" horiz-adv-x="591" 
d="M436 302q-3 90 -38 137q-36 46 -102 46q-63 0 -98 -47q-36 -46 -43 -136h281zM542 250h-387v-4q0 -106 39 -158q40 -54 117 -54q60 0 97 31q38 32 53 92h72q-21 -85 -79 -128t-152 -43q-114 0 -183 75t-69 199q0 122 68 198q68 75 178 75q118 0 181 -73q64 -73 65 -210z
M452 616h-57l-99 127l-99 -127h-57l115 184h82z" />
    <glyph glyph-name="edieresis" unicode="&#xeb;" horiz-adv-x="591" 
d="M436 302q-3 90 -38 137q-36 46 -102 46q-63 0 -98 -47q-36 -46 -43 -136h281zM542 250h-387v-4q0 -106 39 -158q40 -54 117 -54q60 0 97 31q38 32 53 92h72q-21 -85 -79 -128t-152 -43q-114 0 -183 75t-69 199q0 122 68 198q68 75 178 75q118 0 181 -73q64 -73 65 -210z
M448 709q0 -25 -16 -41t-41 -16t-41 16t-16 41q0 23 17 40t40 17t40 -17t17 -40zM258 709q0 -25 -16 -41t-41 -16q-24 0 -41 16q-16 18 -16 41t17 40t40 17t40 -17t17 -40z" />
    <glyph glyph-name="igrave" unicode="&#xec;" horiz-adv-x="319" 
d="M297 0h-261v52h86v415h-86v52h176v-467h85v-52zM216 615h-57l-166 184h96z" />
    <glyph glyph-name="iacute" unicode="&#xed;" horiz-adv-x="319" 
d="M297 0h-261v52h86v415h-86v52h176v-467h85v-52zM325 800l-166 -184h-57l126 184h97z" />
    <glyph glyph-name="icircumflex" unicode="&#xee;" horiz-adv-x="319" 
d="M297 0h-261v52h86v415h-86v52h176v-467h85v-52zM316 616h-57l-99 127l-99 -127h-57l115 184h82z" />
    <glyph glyph-name="idieresis" unicode="&#xef;" horiz-adv-x="319" 
d="M297 0h-261v52h86v415h-86v52h176v-467h85v-52zM312 709q0 -25 -16 -41t-41 -16t-41 16t-16 41q0 23 17 40t40 17t40 -17t17 -40zM122 709q0 -25 -16 -41t-41 -16q-24 0 -41 16q-16 18 -16 41t17 40t40 17t40 -17t17 -40z" />
    <glyph glyph-name="eth" unicode="&#xf0;" 
d="M552 260q0 -123 -68 -199q-69 -75 -183 -75q-112 0 -181 74q-70 73 -70 193q0 115 69 186t180 71q23 0 35 -2q28 -2 44 -5q-10 24 -28 52q-21 30 -43 53l-157 -73l-18 38l143 66q-30 29 -69 48q-41 21 -84 31l9 42q57 -13 109 -36q49 -22 96 -56l157 73l18 -38l-140 -65
q89 -82 135 -177q46 -93 46 -201zM447 250q0 53 -11 106q-11 50 -35 97l-42 7q-26 2 -39 2q-84 0 -124 -52q-41 -53 -41 -162q0 -103 38 -158q37 -56 108 -56q70 0 108 56t38 160z" />
    <glyph glyph-name="ntilde" unicode="&#xf1;" horiz-adv-x="644" 
d="M616 0h-248v52h78v250q0 96 -24 130q-23 36 -82 36q-62 0 -95 -46t-33 -133v-237h78v-52h-249v52h81v415h-86v52h176v-92q26 54 64 79q40 27 93 27q87 0 127 -49q40 -51 40 -154v-278h80v-52zM483 777q-2 -67 -26 -102q-25 -36 -69 -36q-20 0 -34 7q-18 8 -34 23l-28 27
q-12 10 -21 16q-7 3 -17 3q-21 0 -32 -19q-13 -22 -14 -57h-47q2 67 26 102q25 36 69 36q20 0 34 -7q18 -8 34 -23l28 -27q10 -10 20 -15q7 -4 18 -4q21 0 32 19q13 22 14 57h47z" />
    <glyph glyph-name="ograve" unicode="&#xf2;" 
d="M552 260q0 -123 -68 -199q-69 -75 -183 -75q-113 0 -182 75t-69 199t68 198q69 75 183 75t183 -75q68 -74 68 -198zM447 260q0 112 -37 168q-38 57 -109 57t-109 -57q-37 -56 -37 -168t37 -168q37 -58 109 -58q71 0 109 57q37 56 37 169zM357 615h-57l-166 184h96z" />
    <glyph glyph-name="oacute" unicode="&#xf3;" 
d="M552 260q0 -123 -68 -199q-69 -75 -183 -75q-113 0 -182 75t-69 199t68 198q69 75 183 75t183 -75q68 -74 68 -198zM447 260q0 112 -37 168q-38 57 -109 57t-109 -57q-37 -56 -37 -168t37 -168q37 -58 109 -58q71 0 109 57q37 56 37 169zM466 800l-166 -184h-57l126 184
h97z" />
    <glyph glyph-name="ocircumflex" unicode="&#xf4;" 
d="M552 260q0 -123 -68 -199q-69 -75 -183 -75q-113 0 -182 75t-69 199t68 198q69 75 183 75t183 -75q68 -74 68 -198zM447 260q0 112 -37 168q-38 57 -109 57t-109 -57q-37 -56 -37 -168t37 -168q37 -58 109 -58q71 0 109 57q37 56 37 169zM457 616h-57l-99 127l-99 -127
h-57l115 184h82z" />
    <glyph glyph-name="otilde" unicode="&#xf5;" 
d="M552 260q0 -123 -68 -199q-69 -75 -183 -75q-113 0 -182 75t-69 199t68 198q69 75 183 75t183 -75q68 -74 68 -198zM447 260q0 112 -37 168q-38 57 -109 57t-109 -57q-37 -56 -37 -168t37 -168q37 -58 109 -58q71 0 109 57q37 56 37 169zM462 777q-2 -67 -26 -102
q-26 -36 -69 -36q-20 0 -34 7q-18 8 -34 23l-28 27q-12 10 -21 16q-8 3 -17 3q-21 0 -32 -19q-13 -22 -14 -57h-47q2 67 26 102q26 36 69 36q20 0 34 -7q18 -8 34 -23l28 -27q10 -10 20 -15q7 -4 18 -4q21 0 32 19q13 22 14 57h47z" />
    <glyph glyph-name="odieresis" unicode="&#xf6;" 
d="M552 260q0 -123 -68 -199q-69 -75 -183 -75q-113 0 -182 75t-69 199t68 198q69 75 183 75t183 -75q68 -74 68 -198zM447 260q0 112 -37 168q-38 57 -109 57t-109 -57q-37 -56 -37 -168t37 -168q37 -58 109 -58q71 0 109 57q37 56 37 169zM453 709q0 -25 -16 -41t-41 -16
t-41 16t-16 41q0 23 17 40t40 17t40 -17t17 -40zM263 709q0 -25 -16 -41t-41 -16q-24 0 -41 16q-16 18 -16 41t17 40t40 17t40 -17t17 -40z" />
    <glyph glyph-name="divide" unicode="&#xf7;" horiz-adv-x="788" 
d="M708 235h-628v80h628v-80zM459 476q0 -27 -19 -46t-46 -19t-46 19t-19 46t19 46t46 19t46 -19t19 -46zM459 74q0 -27 -19 -46t-46 -19t-46 19t-19 46t19 46t46 19t46 -19t19 -46z" />
    <glyph glyph-name="oslash" unicode="&#xf8;" 
d="M561 534l-71 -84q29 -35 46 -84q16 -48 16 -106q0 -123 -68 -199q-69 -75 -183 -75q-47 0 -85 13q-39 13 -72 39l-70 -84l-37 31l73 87q-29 37 -45 85q-15 46 -15 103q0 124 68 198q69 75 183 75q47 0 85 -13q38 -12 70 -36l68 81zM447 260q0 41 -4 66q-5 36 -11 55
l-241 -288q19 -30 47 -45q28 -14 63 -14q72 0 109 58q37 56 37 168zM410 429q-20 29 -46 42q-28 14 -63 14q-71 0 -109 -57q-37 -56 -37 -168q0 -36 3 -64q6 -36 11 -53z" />
    <glyph glyph-name="ugrave" unicode="&#xf9;" horiz-adv-x="644" 
d="M607 0h-175v92q-25 -52 -64 -79q-40 -27 -92 -27q-87 0 -127 49q-41 50 -41 154v278h-81v52h171v-302q0 -95 24 -130q23 -35 82 -35q62 0 95 46q33 47 33 133v236h-78v52h168v-467h85v-52zM341 615h-57l-166 184h96z" />
    <glyph glyph-name="uacute" unicode="&#xfa;" horiz-adv-x="644" 
d="M607 0h-175v92q-25 -52 -64 -79q-40 -27 -92 -27q-87 0 -127 49q-41 50 -41 154v278h-81v52h171v-302q0 -95 24 -130q23 -35 82 -35q62 0 95 46q33 47 33 133v236h-78v52h168v-467h85v-52zM450 800l-166 -184h-57l126 184h97z" />
    <glyph glyph-name="ucircumflex" unicode="&#xfb;" horiz-adv-x="644" 
d="M607 0h-175v92q-25 -52 -64 -79q-40 -27 -92 -27q-87 0 -127 49q-41 50 -41 154v278h-81v52h171v-302q0 -95 24 -130q23 -35 82 -35q62 0 95 46q33 47 33 133v236h-78v52h168v-467h85v-52zM441 616h-57l-99 127l-99 -127h-57l115 184h82z" />
    <glyph glyph-name="udieresis" unicode="&#xfc;" horiz-adv-x="644" 
d="M607 0h-175v92q-25 -52 -64 -79q-40 -27 -92 -27q-87 0 -127 49q-41 50 -41 154v278h-81v52h171v-302q0 -95 24 -130q23 -35 82 -35q62 0 95 46q33 47 33 133v236h-78v52h168v-467h85v-52zM437 709q0 -25 -16 -41t-41 -16t-41 16t-16 41q0 23 17 40t40 17t40 -17t17 -40z
M247 709q0 -25 -16 -41t-41 -16q-24 0 -41 16q-16 18 -16 41t17 40t40 17t40 -17t17 -40z" />
    <glyph glyph-name="yacute" unicode="&#xfd;" horiz-adv-x="564" 
d="M562 467h-58l-238 -584q-23 -60 -54 -83q-29 -22 -84 -22q-26 0 -47 4q-32 6 -49 11v99h46q3 -32 17 -48q14 -14 43 -14q26 0 44 15q17 17 34 60l34 86l-194 476h-59v52h239v-52h-83l146 -357l146 357h-78v52h195v-52zM448 800l-166 -184h-57l126 184h97z" />
    <glyph glyph-name="thorn" unicode="&#xfe;" horiz-adv-x="640" 
d="M590 260q0 -122 -60 -198q-61 -76 -157 -76q-60 0 -101 23q-42 23 -67 72v-237h85v-52h-261v52h86v864h-86v52h176v-322q25 49 67 72q41 23 101 23q95 0 157 -75q60 -76 60 -198zM485 260q0 107 -35 162q-36 55 -105 55q-67 0 -104 -49q-36 -51 -36 -143v-51
q0 -94 36 -143t104 -49q69 0 105 55q35 56 35 163z" />
    <glyph glyph-name="ydieresis" unicode="&#xff;" horiz-adv-x="564" 
d="M562 467h-58l-238 -584q-23 -60 -54 -83q-29 -22 -84 -22q-26 0 -47 4q-32 6 -49 11v99h46q3 -32 17 -48q14 -14 43 -14q26 0 44 15q17 17 34 60l34 86l-194 476h-59v52h239v-52h-83l146 -357l146 357h-78v52h195v-52zM435 709q0 -25 -16 -41t-41 -16t-41 16t-16 41
q0 23 17 40t40 17t40 -17t17 -40zM245 709q0 -25 -16 -41t-41 -16q-24 0 -41 16q-16 18 -16 41t17 40t40 17t40 -17t17 -40z" />
    <glyph glyph-name="Amacron" unicode="&#x100;" horiz-adv-x="722" 
d="M732 0h-265v52h81l-61 160h-307l-61 -160h80v-52h-205v52h64l260 677h82l260 -677h72v-52zM468 264l-134 347l-134 -347h268zM505 827h-292v72h292v-72z" />
    <glyph glyph-name="amacron" unicode="&#x101;" horiz-adv-x="596" 
d="M568 0h-170v56q-31 -37 -69 -53q-40 -17 -91 -17q-87 0 -137 46q-51 46 -51 124q0 82 58 125q59 44 164 44h126v36q0 60 -36 91q-36 33 -101 33q-56 0 -85 -25q-32 -24 -40 -72h-46v105q45 19 91 30q41 10 86 10q107 0 165 -53q56 -54 56 -156v-272h80v-52zM398 163v110
h-116q-66 0 -100 -29q-32 -29 -32 -88q0 -54 33 -86q34 -32 90 -32q55 0 91 34q34 37 34 91zM413 673h-292v72h292v-72z" />
    <glyph glyph-name="Abreve" unicode="&#x102;" horiz-adv-x="722" 
d="M732 0h-265v52h81l-61 160h-307l-61 -160h80v-52h-205v52h64l260 677h82l260 -677h72v-52zM468 264l-134 347l-134 -347h268zM518 926q-4 -70 -43 -105q-40 -35 -110 -35t-110 35q-39 35 -43 105h47q6 -40 32 -56q25 -17 74 -17q50 0 74 18q26 16 32 55h47z" />
    <glyph glyph-name="abreve" unicode="&#x103;" horiz-adv-x="596" 
d="M568 0h-170v56q-31 -37 -69 -53q-40 -17 -91 -17q-87 0 -137 46q-51 46 -51 124q0 82 58 125q59 44 164 44h126v36q0 60 -36 91q-36 33 -101 33q-56 0 -85 -25q-32 -24 -40 -72h-46v105q45 19 91 30q41 10 86 10q107 0 165 -53q56 -54 56 -156v-272h80v-52zM398 163v110
h-116q-66 0 -100 -29q-32 -29 -32 -88q0 -54 33 -86q34 -32 90 -32q55 0 91 34q34 37 34 91zM444 772q-4 -70 -43 -105q-40 -35 -110 -35t-110 35q-39 35 -43 105h47q6 -40 32 -56q25 -17 74 -17q50 0 74 18q26 16 32 55h47z" />
    <glyph glyph-name="Aogonek" unicode="&#x104;" horiz-adv-x="722" 
d="M732 0h-83v-1q-41 -59 -43 -83q0 -22 16 -36q19 -14 44 -14q15 0 28 4q15 3 28 9v-62q-4 -1 -34 -7q-24 -2 -32 -2q-55 0 -86 22q-30 22 -30 61q0 24 14 49t49 60h-136v52h81l-61 160h-307l-61 -160h80v-52h-205v52h64l260 677h82l260 -677h72v-52zM468 264l-134 347
l-134 -347h268z" />
    <glyph glyph-name="aogonek" unicode="&#x105;" horiz-adv-x="596" 
d="M568 0h-78v-1q-41 -59 -43 -83q0 -22 16 -36q19 -14 44 -14q15 0 28 4q16 3 28 9v-62q-4 -1 -34 -7q-24 -2 -32 -2q-55 0 -86 22q-30 22 -30 61q0 24 14 49t49 60h-46v56q-31 -37 -69 -53q-40 -17 -91 -17q-87 0 -137 46q-51 46 -51 124q0 82 58 125q59 44 164 44h126v36
q0 60 -36 91q-36 33 -101 33q-56 0 -85 -25q-32 -24 -40 -72h-46v105q45 19 91 30q41 10 86 10q107 0 165 -53q56 -54 56 -156v-272h80v-52zM398 163v110h-116q-66 0 -100 -29q-32 -29 -32 -88q0 -54 33 -86q34 -32 90 -32q55 0 91 34q34 37 34 91z" />
    <glyph glyph-name="Cacute" unicode="&#x106;" horiz-adv-x="765" 
d="M528 927l-128 -129h-57l89 129h96zM705 193q-31 -101 -108 -155q-78 -52 -192 -52q-70 0 -133 24q-63 27 -108 72q-55 55 -82 124q-26 72 -26 158q0 170 98 274t259 104q62 0 127 -16q64 -14 145 -47v-168h-55q-18 93 -72 135q-54 44 -153 44q-117 0 -177 -83t-60 -243
t60 -243t177 -83q81 0 135 39q53 40 75 116h90z" />
    <glyph glyph-name="cacute" unicode="&#x107;" horiz-adv-x="560" 
d="M514 156q-20 -85 -73 -126q-53 -44 -140 -44q-113 0 -182 75t-69 199q0 126 69 199q69 74 182 74q46 0 98 -11q45 -11 98 -35v-133h-52q-10 67 -45 100q-36 31 -98 31q-72 0 -110 -57q-37 -55 -37 -168t37 -169q38 -57 110 -57q59 0 92 30q34 30 48 92h72zM461 800
l-166 -184h-57l126 184h97z" />
    <glyph glyph-name="Ccaron" unicode="&#x10c;" horiz-adv-x="765" 
d="M557 927l-113 -129h-86l-113 129h57l99 -79l99 79h57zM705 193q-31 -101 -108 -155q-78 -52 -192 -52q-70 0 -133 24q-63 27 -108 72q-55 55 -82 124q-26 72 -26 158q0 170 98 274t259 104q62 0 127 -16q64 -14 145 -47v-168h-55q-18 93 -72 135q-54 44 -153 44
q-117 0 -177 -83t-60 -243t60 -243t177 -83q81 0 135 39q53 40 75 116h90z" />
    <glyph glyph-name="ccaron" unicode="&#x10d;" horiz-adv-x="560" 
d="M514 156q-20 -85 -73 -126q-53 -44 -140 -44q-113 0 -182 75t-69 199q0 126 69 199q69 74 182 74q46 0 98 -11q45 -11 98 -35v-133h-52q-10 67 -45 100q-36 31 -98 31q-72 0 -110 -57q-37 -55 -37 -168t37 -169q38 -57 110 -57q59 0 92 30q34 30 48 92h72zM452 800
l-115 -184h-82l-115 184h57l99 -127l99 127h57z" />
    <glyph glyph-name="Dcaron" unicode="&#x10e;" horiz-adv-x="801" 
d="M519 927l-113 -129h-86l-113 129h57l99 -79l99 79h57zM744 365q0 -172 -106 -269q-105 -96 -293 -96h-290v52h93v625h-93v52h290q188 0 293 -96q106 -96 106 -268zM632 365q0 152 -76 231q-76 81 -218 81h-91v-625h91q142 0 218 81q76 80 76 232z" />
    <glyph glyph-name="dcaron" unicode="&#x10f;" horiz-adv-x="640" 
d="M738 759l-70 -184h-57l30 184h97zM435 234v51q0 92 -36 143q-37 49 -104 49q-69 0 -105 -55q-35 -55 -35 -162q0 -106 35 -162t105 -56q68 0 104 49t36 143zM611 0h-176v81q-25 -49 -67 -72q-41 -23 -101 -23q-96 0 -157 76q-60 76 -60 198t60 198q62 75 157 75
q60 0 101 -23q42 -23 67 -72v270h-85v52h175v-708h86v-52z" />
    <glyph glyph-name="Dcroat" unicode="&#x110;" horiz-adv-x="807" 
d="M749 365q0 -172 -105 -269q-106 -96 -294 -96h-290v52h93v299h-98v61h98v265h-93v52h290q188 0 294 -96q105 -96 105 -268zM637 365q0 152 -76 231q-77 81 -218 81h-92v-265h164v-61h-164v-299h92q142 0 218 81q76 80 76 232z" />
    <glyph glyph-name="dcroat" unicode="&#x111;" horiz-adv-x="640" 
d="M435 234v51q0 92 -36 143q-37 49 -104 49q-69 0 -105 -55q-35 -55 -35 -162q0 -106 35 -162t105 -56q68 0 104 49t36 143zM611 0h-176v81q-25 -49 -67 -72q-41 -23 -101 -23q-96 0 -157 76q-60 76 -60 198t60 198q62 75 157 75q60 0 101 -23q42 -23 67 -72v161h-159v52
h159v57h-85v52h175v-109h86v-52h-86v-547h86v-52z" />
    <glyph glyph-name="Emacron" unicode="&#x112;" horiz-adv-x="729" 
d="M650 0h-595v52h93v625h-93v52h587v-162h-60v102h-335v-244h239v91h60v-242h-60v91h-239v-305h343v102h60v-162zM495 827h-292v72h292v-72z" />
    <glyph glyph-name="emacron" unicode="&#x113;" horiz-adv-x="591" 
d="M436 302q-3 90 -38 137q-36 46 -102 46q-63 0 -98 -47q-36 -46 -43 -136h281zM542 250h-387v-4q0 -106 39 -158q40 -54 117 -54q60 0 97 31q38 32 53 92h72q-21 -85 -79 -128t-152 -43q-114 0 -183 75t-69 199q0 122 68 198q68 75 178 75q118 0 181 -73q64 -73 65 -210z
M442 673h-292v72h292v-72z" />
    <glyph glyph-name="Edotaccent" unicode="&#x116;" horiz-adv-x="729" 
d="M650 0h-595v52h93v625h-93v52h587v-162h-60v102h-335v-244h239v91h60v-242h-60v91h-239v-305h343v102h60v-162zM422 864q0 -24 -16 -40q-17 -17 -41 -17t-41 17q-16 16 -16 40q0 21 17 40q17 17 40 17t40 -17t17 -40z" />
    <glyph glyph-name="edotaccent" unicode="&#x117;" horiz-adv-x="591" 
d="M436 302q-3 90 -38 137q-36 46 -102 46q-63 0 -98 -47q-36 -46 -43 -136h281zM542 250h-387v-4q0 -106 39 -158q40 -54 117 -54q60 0 97 31q38 32 53 92h72q-21 -85 -79 -128t-152 -43q-114 0 -183 75t-69 199q0 122 68 198q68 75 178 75q118 0 181 -73q64 -73 65 -210z
M353 709q0 -25 -16 -41t-41 -16t-41 16t-16 41q0 23 17 40t40 17t40 -17t17 -40z" />
    <glyph glyph-name="Eogonek" unicode="&#x118;" horiz-adv-x="729" 
d="M650 0h-74v-1q-41 -59 -43 -83q0 -22 16 -36q19 -14 44 -14q15 0 28 4q16 3 28 9v-62q-4 -1 -34 -7q-24 -2 -32 -2q-55 0 -86 22q-30 22 -30 61q0 24 14 49t49 60h-475v52h93v625h-93v52h587v-162h-60v102h-335v-244h239v91h60v-242h-60v91h-239v-305h343v102h60v-162z
" />
    <glyph glyph-name="eogonek" unicode="&#x119;" horiz-adv-x="591" 
d="M436 302q-3 90 -38 137q-36 46 -102 46q-63 0 -98 -47q-36 -46 -43 -136h281zM542 250h-387v-4q0 -106 39 -158q40 -54 117 -54q60 0 97 31q38 32 53 92h72q-21 -85 -79 -128q-28 -20 -56 -29q-41 -61 -43 -84q0 -22 16 -36q19 -14 44 -14q15 0 28 4q15 3 28 9v-62
q-4 -1 -34 -7q-24 -2 -32 -2q-55 0 -86 22q-30 22 -30 61q0 24 14 49q11 20 37 48q-24 -2 -38 -2q-114 0 -183 75t-69 199q0 122 68 198q68 75 178 75q118 0 181 -73q64 -73 65 -210z" />
    <glyph glyph-name="Ecaron" unicode="&#x11a;" horiz-adv-x="729" 
d="M557 927l-113 -129h-86l-113 129h57l99 -79l99 79h57zM650 0h-595v52h93v625h-93v52h587v-162h-60v102h-335v-244h239v91h60v-242h-60v91h-239v-305h343v102h60v-162z" />
    <glyph glyph-name="ecaron" unicode="&#x11b;" horiz-adv-x="591" 
d="M436 302q-3 90 -38 137q-36 46 -102 46q-63 0 -98 -47q-36 -46 -43 -136h281zM542 250h-387v-4q0 -106 39 -158q40 -54 117 -54q60 0 97 31q38 32 53 92h72q-21 -85 -79 -128t-152 -43q-114 0 -183 75t-69 199q0 122 68 198q68 75 178 75q118 0 181 -73q64 -73 65 -210z
M452 800l-115 -184h-82l-115 184h57l99 -127l99 127h57z" />
    <glyph glyph-name="Gbreve" unicode="&#x11e;" horiz-adv-x="798" 
d="M552 928q-10 -57 -49 -88q-39 -30 -103 -30t-103 30t-49 88h46q9 -26 35 -40q25 -13 71 -13t71 13q26 14 35 40h46zM720 61q-64 -37 -140 -57q-75 -18 -160 -18q-165 0 -264 103q-100 103 -100 275q0 173 100 276q99 102 268 102q59 0 129 -14q63 -14 142 -44v-173h-55
q-16 91 -71 135t-151 44q-126 0 -188 -81q-62 -82 -62 -245q0 -161 64 -244q65 -82 188 -82q58 0 106 14q49 12 95 41v188h-137v52h236v-272z" />
    <glyph glyph-name="gbreve" unicode="&#x11f;" horiz-adv-x="640" 
d="M435 234v51q0 92 -36 143q-37 49 -104 49q-69 0 -105 -55q-35 -55 -35 -162q0 -106 35 -162t105 -56q68 0 104 49t36 143zM611 467h-86v-456q0 -110 -61 -173q-63 -60 -176 -60q-52 0 -98 9q-48 9 -90 28v109h47q9 -51 41 -74q33 -24 94 -24q78 0 116 45q37 44 37 140v70
q-25 -49 -67 -72q-41 -23 -101 -23q-96 0 -157 76q-60 76 -60 198t60 198q62 75 157 75q60 0 101 -23q42 -23 67 -72v81h176v-52zM473 785q-4 -70 -43 -105q-40 -35 -110 -35t-110 35q-39 35 -43 105h47q6 -40 32 -56q25 -17 74 -17q50 0 74 18q26 16 32 55h47z" />
    <glyph glyph-name="Gcommaaccent" unicode="&#x122;" horiz-adv-x="798" 
d="M720 61q-64 -37 -140 -57q-75 -18 -160 -18q-165 0 -264 103q-100 103 -100 275q0 173 100 276q99 102 268 102q59 0 129 -14q63 -14 142 -44v-173h-55q-16 91 -71 135t-151 44q-126 0 -188 -81q-62 -82 -62 -245q0 -161 64 -244q65 -82 188 -82q58 0 106 14q49 12 95 41
v188h-137v52h236v-272zM493 -75q-3 -51 -31 -86q-29 -37 -86 -63l-31 24q37 21 54 48q17 28 17 66v11h77z" />
    <glyph glyph-name="gcommaaccent" unicode="&#x123;" horiz-adv-x="640" 
d="M435 234v51q0 92 -36 143q-37 49 -104 49q-69 0 -105 -55q-35 -55 -35 -162q0 -106 35 -162t105 -56q68 0 104 49t36 143zM611 467h-86v-456q0 -110 -61 -173q-63 -60 -176 -60q-52 0 -98 9q-48 9 -90 28v109h47q9 -51 41 -74q33 -24 94 -24q78 0 116 45q37 44 37 140v70
q-25 -49 -67 -72q-41 -23 -101 -23q-96 0 -157 76q-60 76 -60 198t60 198q62 75 157 75q60 0 101 -23q42 -23 67 -72v81h176v-52zM410 718q-38 -21 -54 -48q-17 -28 -17 -66v-11h-77q3 49 32 86q29 36 85 63z" />
    <glyph glyph-name="Itilde" unicode="&#x128;" horiz-adv-x="395" 
d="M340 0h-285v52h93v625h-93v52h285v-52h-93v-625h93v-52zM358 921q-2 -52 -26 -79q-25 -28 -71 -28q-34 0 -68 22l-2 1l-24 14q-11 7 -20 9q-9 4 -18 4q-19 0 -31 -14q-14 -14 -15 -36h-47q2 51 26 78q26 29 66 29q20 0 33 -5q12 -2 42 -19l24 -13q4 -2 11.5 -5.5
t9.5 -4.5q12 -3 20 -3q19 0 32 13q11 16 11 37h47z" />
    <glyph glyph-name="itilde" unicode="&#x129;" horiz-adv-x="319" 
d="M297 0h-261v52h86v415h-86v52h176v-467h85v-52zM321 777q-2 -67 -26 -102q-25 -36 -69 -36q-20 0 -34 7q-18 8 -34 23l-28 27q-12 10 -21 16q-8 3 -17 3q-21 0 -32 -19q-13 -22 -14 -57h-47q2 67 26 102q25 36 69 36q20 0 34 -7q18 -8 34 -23l28 -27q10 -10 20 -15
q7 -4 18 -4q21 0 32 19q13 22 14 57h47z" />
    <glyph glyph-name="Imacron" unicode="&#x12a;" horiz-adv-x="395" 
d="M340 0h-285v52h93v625h-93v52h285v-52h-93v-625h93v-52zM344 827h-292v72h292v-72z" />
    <glyph glyph-name="imacron" unicode="&#x12b;" horiz-adv-x="319" 
d="M297 0h-261v52h86v415h-86v52h176v-467h85v-52zM270 673h-292v72h292v-72z" />
    <glyph glyph-name="Iogonek" unicode="&#x12e;" horiz-adv-x="395" 
d="M340 0h-93v-1q-41 -59 -43 -83q0 -22 16 -36q19 -14 44 -14q15 0 28 4q16 3 28 9v-62q-4 -1 -34 -7q-24 -2 -32 -2q-55 0 -86 22q-30 22 -30 61q0 24 14 49t49 60h-146v52h93v625h-93v52h285v-52h-93v-625h93v-52z" />
    <glyph glyph-name="iogonek" unicode="&#x12f;" horiz-adv-x="319" 
d="M297 0h-85v-1q-41 -59 -43 -83q0 -22 16 -36q19 -14 44 -14q15 0 28 4q15 3 28 9v-62q-4 -1 -34 -7q-24 -2 -32 -2q-55 0 -86 22q-30 22 -30 61q0 24 14 49t49 60h-130v52h86v415h-86v52h176v-467h85v-52zM208 680q0 -23 -16 -39t-39 -16q-24 0 -39 16q-17 16 -17 39
t17 39q15 17 39 17q21 0 39 -16q16 -19 16 -40z" />
    <glyph glyph-name="Idotaccent" unicode="&#x130;" horiz-adv-x="395" 
d="M255 864q0 -26 -17 -40q-14 -17 -40 -17t-40 17q-17 14 -17 40q0 21 17 40q17 17 40 17t40 -17t17 -40zM340 0h-285v52h93v625h-93v52h285v-52h-93v-625h93v-52z" />
    <glyph glyph-name="dotlessi" unicode="&#x131;" horiz-adv-x="319" 
d="M297 0h-261v52h86v415h-86v52h176v-467h85v-52z" />
    <glyph glyph-name="I_J" unicode="&#x132;" horiz-adv-x="801" 
d="M755 677h-93v-657q0 -122 -48 -174q-48 -54 -156 -54q-33 0 -70 8q-32 7 -72 25v115h56q2 -49 22 -72q22 -24 65 -24q59 0 81 36q23 38 23 144v653h-113v52h305v-52zM340 0h-285v52h93v625h-93v52h285v-52h-93v-625h93v-52z" />
    <glyph glyph-name="i_j" unicode="&#x133;" horiz-adv-x="533" 
d="M497 -51q0 -80 -47 -125q-47 -46 -132 -46q-33 0 -67 8q-32 8 -62 24v107h46q3 -47 24 -69t61 -22q44 0 66 30q21 30 21 93v518h-85v52h175v-570zM496 680q0 -23 -16 -39t-39 -16q-24 0 -39 16q-17 16 -17 39t17 39q17 17 39 17q20 0 39 -16q16 -19 16 -40zM297 0h-261
v52h86v415h-86v52h176v-467h85v-52zM208 680q0 -23 -16 -39t-39 -16q-24 0 -39 16q-17 16 -17 39t17 39q15 17 39 17q21 0 39 -16q16 -19 16 -40z" />
    <glyph glyph-name="Kcommaaccent" unicode="&#x136;" horiz-adv-x="747" 
d="M762 0h-169l-346 346v-294h93v-52h-285v52h93v625h-93v52h285v-52h-93v-276l314 276h-79v52h242v-52h-82l-313 -275l350 -350h83v-52zM482 -61q-3 -51 -31 -86q-29 -37 -86 -63l-31 24q38 21 54 48q17 28 17 66v11h77z" />
    <glyph glyph-name="kcommaaccent" unicode="&#x137;" horiz-adv-x="605" 
d="M613 0h-256v52h74l-155 213l-71 -66v-147h81v-52h-252v52h81v656h-86v52h176v-495l219 202h-75v52h235v-52h-89l-154 -143l197 -272h75v-52zM396 -61q-3 -51 -31 -86q-29 -37 -86 -63l-31 24q38 21 54 48q17 28 17 66v11h77z" />
    <glyph glyph-name="Lacute" unicode="&#x139;" horiz-adv-x="664" 
d="M640 0h-585v52h93v625h-93v52h285v-52h-93v-617h333v122h60v-182zM302 928l-128 -129h-57l89 129h96z" />
    <glyph glyph-name="lacute" unicode="&#x13a;" horiz-adv-x="319" 
d="M290 0h-261v52h86v656h-86v52h176v-708h85v-52zM253 928l-128 -129h-57l89 129h96z" />
    <glyph glyph-name="Lcommaaccent" unicode="&#x13b;" horiz-adv-x="664" 
d="M640 0h-585v52h93v625h-93v52h285v-52h-93v-617h333v122h60v-182zM421 -61q-3 -51 -31 -86q-29 -37 -86 -63l-31 24q37 21 54 48q17 28 17 66v11h77z" />
    <glyph glyph-name="lcommaaccent" unicode="&#x13c;" horiz-adv-x="319" 
d="M290 0h-261v52h86v656h-86v52h176v-708h85v-52zM198 -58q-3 -51 -31 -86q-29 -37 -86 -63l-31 24q38 21 54 48q17 28 17 66v11h77z" />
    <glyph glyph-name="Lcaron" unicode="&#x13d;" horiz-adv-x="664" 
d="M640 0h-585v52h93v625h-93v52h285v-52h-93v-617h333v122h60v-182zM547 729l-70 -184h-57l30 184h97z" />
    <glyph glyph-name="lcaron" unicode="&#x13e;" horiz-adv-x="319" 
d="M290 0h-261v52h86v656h-86v52h176v-708h85v-52zM418 760l-70 -184h-57l30 184h97z" />
    <glyph glyph-name="Lslash" unicode="&#x141;" horiz-adv-x="668" 
d="M645 0h-585v52h93v234l-77 -55l-34 45l111 79v322h-93v52h284v-52h-93v-252l150 110l34 -45l-184 -134v-296h334v122h60v-182z" />
    <glyph glyph-name="lslash" unicode="&#x142;" horiz-adv-x="324" 
d="M310 465l-101 -69v-344h86v-52h-261v52h85v280l-67 -47l-30 42l97 69v312h-85v52h175v-301l72 48z" />
    <glyph glyph-name="Nacute" unicode="&#x143;" horiz-adv-x="875" 
d="M831 677h-98v-691h-59l-467 614v-548h98v-52h-256v52h98v625h-98v52h187l437 -575v523h-98v52h256v-52zM554 928l-128 -129h-57l89 129h96z" />
    <glyph glyph-name="nacute" unicode="&#x144;" horiz-adv-x="644" 
d="M616 0h-248v52h78v250q0 96 -24 130q-23 36 -82 36q-62 0 -95 -46t-33 -133v-237h78v-52h-249v52h81v415h-86v52h176v-92q26 54 64 79q40 27 93 27q87 0 127 -49q40 -51 40 -154v-278h80v-52zM452 777l-166 -184h-57l126 184h97z" />
    <glyph glyph-name="Ncommaaccent" unicode="&#x145;" horiz-adv-x="875" 
d="M831 677h-98v-691h-59l-467 614v-548h98v-52h-256v52h98v625h-98v52h187l437 -575v523h-98v52h256v-52zM491 -68q-3 -51 -31 -86q-29 -37 -86 -63l-31 24q37 21 54 48q17 28 17 66v11h77z" />
    <glyph glyph-name="ncommaaccent" unicode="&#x146;" horiz-adv-x="644" 
d="M616 0h-248v52h78v250q0 96 -24 130q-23 36 -82 36q-62 0 -95 -46t-33 -133v-237h78v-52h-249v52h81v415h-86v52h176v-92q26 54 64 79q40 27 93 27q87 0 127 -49q40 -51 40 -154v-278h80v-52zM402 -61q-3 -51 -31 -86q-29 -37 -86 -63l-31 24q38 21 54 48q17 28 17 66v11
h77z" />
    <glyph glyph-name="Ncaron" unicode="&#x147;" horiz-adv-x="875" 
d="M581 932l-113 -129h-86l-113 129h57l99 -79l99 79h57zM831 677h-98v-691h-59l-467 614v-548h98v-52h-256v52h98v625h-98v52h187l437 -575v523h-98v52h256v-52z" />
    <glyph glyph-name="ncaron" unicode="&#x148;" horiz-adv-x="644" 
d="M616 0h-248v52h78v250q0 96 -24 130q-23 36 -82 36q-62 0 -95 -46t-33 -133v-237h78v-52h-249v52h81v415h-86v52h176v-92q26 54 64 79q40 27 93 27q87 0 127 -49q40 -51 40 -154v-278h80v-52zM452 800l-115 -184h-82l-115 184h57l99 -127l99 127h57z" />
    <glyph glyph-name="Eng" unicode="&#x14a;" horiz-adv-x="842" 
d="M705 20q0 -122 -49 -174q-48 -54 -155 -54q-33 0 -71 8q-38 10 -71 25v115h55q0 -49 22 -72q22 -24 65 -24q57 0 81 37q23 37 23 143v406q0 144 -37 196q-36 53 -129 53q-98 0 -149 -63q-51 -62 -51 -183v-381h93v-52h-285v52h93v625h-86v52h185v-98q36 55 93 84
q57 28 133 28q123 0 182 -71q58 -70 58 -222v-430z" />
    <glyph glyph-name="eng" unicode="&#x14b;" horiz-adv-x="644" 
d="M536 -51q0 -80 -48 -125q-46 -46 -131 -46q-33 0 -67 8q-32 8 -62 24v107h46q3 -47 24 -69t61 -22q43 0 66 30q21 28 21 93v353q0 96 -24 130q-23 36 -82 36q-62 0 -95 -46t-33 -133v-237h78v-52h-249v52h81v415h-86v52h176v-92q26 54 64 79q40 27 93 27q85 0 127 -49
q41 -49 40 -154v-381z" />
    <glyph glyph-name="Omacron" unicode="&#x14c;" horiz-adv-x="819" 
d="M764 364q0 -86 -27 -158q-28 -71 -81 -124q-49 -49 -110 -72q-60 -24 -136 -24q-74 0 -136 24q-64 26 -110 72q-55 55 -82 124q-26 70 -26 158q0 86 26 158q27 69 82 124q49 49 110 72q60 24 136 24q160 0 256 -104q98 -102 98 -274zM652 364q0 162 -61 244t-181 82
q-119 0 -181 -82q-61 -83 -61 -244t61 -244q62 -82 181 -82t181 82q61 83 61 244zM556 827h-292v72h292v-72z" />
    <glyph glyph-name="omacron" unicode="&#x14d;" 
d="M552 260q0 -123 -68 -199q-69 -75 -183 -75q-113 0 -182 75t-69 199t68 198q69 75 183 75t183 -75q68 -74 68 -198zM447 260q0 112 -37 168q-38 57 -109 57t-109 -57q-37 -56 -37 -168t37 -168q37 -58 109 -58q71 0 109 57q37 56 37 169zM447 673h-292v72h292v-72z" />
    <glyph glyph-name="Ohungarumlaut" unicode="&#x150;" horiz-adv-x="819" 
d="M764 364q0 -86 -27 -158q-28 -71 -81 -124q-49 -49 -110 -72q-60 -24 -136 -24q-74 0 -136 24q-64 26 -110 72q-55 55 -82 124q-26 70 -26 158q0 86 26 158q27 69 82 124q49 49 110 72q60 24 136 24q160 0 256 -104q98 -102 98 -274zM652 364q0 162 -61 244t-181 82
q-119 0 -181 -82q-61 -83 -61 -244t61 -244q62 -82 181 -82t181 82q61 83 61 244zM464 927l-128 -129h-57l89 129h96zM619 927l-128 -129h-57l89 129h96z" />
    <glyph glyph-name="ohungarumlaut" unicode="&#x151;" 
d="M552 260q0 -123 -68 -199q-69 -75 -183 -75q-113 0 -182 75t-69 199t68 198q69 75 183 75t183 -75q68 -74 68 -198zM447 260q0 112 -37 168q-38 57 -109 57t-109 -57q-37 -56 -37 -168t37 -168q37 -58 109 -58q71 0 109 57q37 56 37 169zM541 800l-140 -184h-57l110 184
h87zM376 800l-119 -184h-56l92 184h83z" />
    <glyph glyph-name="OE" unicode="&#x152;" horiz-adv-x="1137" 
d="M1057 0h-600q-188 0 -293 96q-106 97 -106 270q0 171 106 267q105 96 293 96h592v-162h-60v102h-335v-244h240v91h59v-242h-59v91h-240v-305h343v102h60v-162zM555 52v625h-91q-143 0 -218 -80q-76 -79 -76 -231q0 -153 76 -233q76 -81 218 -81h91z" />
    <glyph glyph-name="oe" unicode="&#x153;" horiz-adv-x="988" 
d="M833 302q-3 90 -39 137q-34 46 -101 46q-63 0 -97 -47q-36 -46 -44 -136h281zM939 250h-387v-4q0 -106 40 -158q39 -54 116 -54q60 0 97 31q38 32 53 92h72q-21 -85 -79 -128t-152 -43q-63 0 -113 24t-87 71q-35 -48 -85 -71q-50 -24 -113 -24q-113 0 -182 75t-69 199
t68 198q69 75 183 75q64 0 115 -24q49 -24 84 -71q37 47 84 71q50 24 109 24q118 0 181 -73q64 -73 65 -210zM447 260q0 112 -37 168q-38 57 -109 57t-109 -57q-37 -56 -37 -168t37 -168q37 -58 109 -58q71 0 109 57q37 56 37 169z" />
    <glyph glyph-name="Racute" unicode="&#x154;" horiz-adv-x="752" 
d="M535 534q0 73 -35 108t-109 35h-144v-286h144q74 0 109 35t35 108zM777 0h-172l-114 232q-33 68 -60 87q-28 20 -75 20h-109v-287h103v-52h-295v52h93v625h-93v52h370q105 0 164 -51q58 -51 58 -144q0 -75 -43 -118q-42 -43 -125 -54q35 -9 59 -32q26 -24 44 -62
l106 -216h89v-52zM502 928l-128 -129h-57l89 129h96z" />
    <glyph glyph-name="racute" unicode="&#x155;" horiz-adv-x="478" 
d="M478 390h-52q-1 38 -21 58q-19 19 -56 19q-67 0 -101 -46q-36 -47 -36 -132v-237h104v-52h-275v52h81v416h-86v51h176v-92q26 54 68 80q41 26 101 26q22 0 46 -3l51 -10v-130zM452 777l-166 -184h-57l126 184h97z" />
    <glyph glyph-name="Rcommaaccent" unicode="&#x156;" horiz-adv-x="752" 
d="M535 534q0 73 -35 108t-109 35h-144v-286h144q74 0 109 35t35 108zM777 0h-172l-114 232q-33 68 -60 87q-28 20 -75 20h-109v-287h103v-52h-295v52h93v625h-93v52h370q105 0 164 -51q58 -51 58 -144q0 -75 -43 -118q-42 -43 -125 -54q35 -9 59 -32q26 -24 44 -62
l106 -216h89v-52zM489 -61q-3 -51 -31 -86q-29 -37 -86 -63l-31 24q37 21 54 48q17 28 17 66v11h77z" />
    <glyph glyph-name="rcommaaccent" unicode="&#x157;" horiz-adv-x="478" 
d="M478 390h-52q-1 38 -21 58q-19 19 -56 19q-67 0 -101 -46q-36 -47 -36 -132v-237h104v-52h-275v52h81v416h-86v51h176v-92q26 54 68 80q41 26 101 26q22 0 46 -3l51 -10v-130zM201 -61q-3 -51 -31 -86q-29 -37 -86 -63l-31 24q37 21 54 48q17 28 17 66v11h77z" />
    <glyph glyph-name="Rcaron" unicode="&#x158;" horiz-adv-x="752" 
d="M513 927l-113 -129h-86l-113 129h57l99 -79l99 79h57zM535 534q0 73 -35 108t-109 35h-144v-286h144q74 0 109 35t35 108zM777 0h-172l-114 232q-33 68 -60 87q-28 20 -75 20h-109v-287h103v-52h-295v52h93v625h-93v52h370q105 0 164 -51q58 -51 58 -144q0 -75 -43 -118
q-42 -43 -125 -54q35 -9 59 -32q26 -24 44 -62l106 -216h89v-52z" />
    <glyph glyph-name="rcaron" unicode="&#x159;" horiz-adv-x="478" 
d="M478 390h-52q-1 38 -21 58q-19 19 -56 19q-67 0 -101 -46q-36 -47 -36 -132v-237h104v-52h-275v52h81v416h-86v51h176v-92q26 54 68 80q41 26 101 26q22 0 46 -3l51 -10v-130zM431 800l-115 -184h-82l-115 184h57l99 -127l99 127h57z" />
    <glyph glyph-name="Sacute" unicode="&#x15a;" horiz-adv-x="685" 
d="M612 199q0 -106 -68 -159q-68 -54 -202 -54q-60 0 -122 12q-64 12 -127 37v166h56q1 -83 48 -123q46 -40 139 -40q86 0 132 34q46 36 46 101q0 53 -28 81q-26 28 -116 55l-96 29q-102 31 -147 79q-43 46 -43 130q0 93 66 144t185 51q48 0 111 -11q58 -10 129 -32v-155
h-55q-7 75 -52 112q-43 34 -131 34q-79 0 -117 -32q-41 -29 -41 -91q0 -52 31 -82q31 -31 128 -59l90 -27q99 -30 142 -76q42 -46 42 -124zM502 928l-128 -129h-57l89 129h96z" />
    <glyph glyph-name="sacute" unicode="&#x15b;" horiz-adv-x="513" 
d="M462 144q0 -74 -56 -116q-57 -42 -156 -42q-48 0 -98 11q-46 10 -96 32v121h52q1 -57 36 -87q37 -29 102 -29q61 0 92 23q32 22 32 66q0 34 -23 55q-22 21 -98 45l-65 22q-66 21 -97 53q-30 33 -30 83q0 73 53 111q50 41 144 41q45 0 86 -11q42 -8 94 -31v-113h-52
q-2 51 -35 78q-32 29 -90 29q-57 0 -86 -20t-29 -60q0 -32 22 -53q25 -20 88 -40l71 -22q75 -23 107 -58q32 -34 32 -88zM452 777l-166 -184h-57l126 184h97z" />
    <glyph glyph-name="Scedilla" unicode="&#x15e;" horiz-adv-x="685" 
d="M612 199q0 -106 -68 -159q-55 -44 -157 -52q22 -25 34 -46q16 -28 16 -52q0 -40 -30 -62q-31 -21 -86 -21q-21 0 -42 3q-22 3 -44 9v64q16 -6 40 -13q24 -4 36 -4q28 0 44 13t16 35q0 12 -11 36q-8 15 -22 36q-58 0 -118 12q-64 12 -127 37v166h56q1 -83 48 -123
q46 -40 139 -40q86 0 132 34q46 36 46 101q0 53 -28 81q-26 28 -116 55l-96 29q-102 31 -147 79q-43 46 -43 130q0 93 66 144t185 51q48 0 111 -11q58 -10 129 -32v-155h-55q-7 75 -52 112q-43 34 -131 34q-79 0 -117 -32q-41 -29 -41 -91q0 -52 31 -82q31 -31 128 -59
l90 -27q99 -30 142 -76q42 -46 42 -124z" />
    <glyph glyph-name="scedilla" unicode="&#x15f;" horiz-adv-x="513" 
d="M462 144q0 -74 -56 -116q-42 -32 -106 -39q25 -28 35 -47q16 -28 16 -52q0 -40 -30 -62q-31 -21 -86 -21q-21 0 -42 3q-22 3 -44 9v64q16 -6 40 -13q24 -4 36 -4q28 0 44 13t16 35q0 12 -11 36q-8 15 -22 36h-2q-48 0 -98 11q-46 10 -96 32v121h52q1 -57 36 -87
q37 -29 102 -29q61 0 92 23q32 22 32 66q0 34 -23 55q-22 21 -98 45l-65 22q-66 21 -97 53q-30 33 -30 83q0 73 53 111q50 41 144 41q45 0 86 -11q42 -8 94 -31v-113h-52q-2 51 -35 78q-32 29 -90 29q-57 0 -86 -20t-29 -60q0 -32 22 -53q25 -20 88 -40l71 -22
q75 -23 107 -58q32 -34 32 -88z" />
    <glyph glyph-name="Scaron" unicode="&#x160;" horiz-adv-x="685" 
d="M499 927l-113 -129h-86l-113 129h57l99 -79l99 79h57zM612 199q0 -106 -68 -159q-68 -54 -202 -54q-60 0 -122 12q-64 12 -127 37v166h56q1 -83 48 -123q46 -40 139 -40q86 0 132 34q46 36 46 101q0 53 -28 81q-26 28 -116 55l-96 29q-102 31 -147 79q-43 46 -43 130
q0 93 66 144t185 51q48 0 111 -11q58 -10 129 -32v-155h-55q-7 75 -52 112q-43 34 -131 34q-79 0 -117 -32q-41 -29 -41 -91q0 -52 31 -82q31 -31 128 -59l90 -27q99 -30 142 -76q42 -46 42 -124z" />
    <glyph glyph-name="scaron" unicode="&#x161;" horiz-adv-x="513" 
d="M462 144q0 -74 -56 -116q-57 -42 -156 -42q-48 0 -98 11q-46 10 -96 32v121h52q1 -57 36 -87q37 -29 102 -29q61 0 92 23q32 22 32 66q0 34 -23 55q-22 21 -98 45l-65 22q-66 21 -97 53q-30 33 -30 83q0 73 53 111q50 41 144 41q45 0 86 -11q42 -8 94 -31v-113h-52
q-2 51 -35 78q-32 29 -90 29q-57 0 -86 -20t-29 -60q0 -32 22 -53q25 -20 88 -40l71 -22q75 -23 107 -58q32 -34 32 -88zM413 800l-115 -184h-82l-115 184h57l99 -127l99 127h57z" />
    <glyph glyph-name="Tcedilla" unicode="&#x162;" horiz-adv-x="666" 
d="M657 557h-60v114h-214v-619h93v-52h-122q31 -31 46 -58q16 -28 16 -52q0 -40 -30 -62q-32 -21 -86 -21q-21 0 -42 3q-22 3 -44 9v64q16 -6 40 -13q24 -4 36 -4q28 0 44 13t16 35q0 12 -11 36q-10 20 -32 50h-116v52h93v619h-214v-114h-60v172h647v-172z" />
    <glyph glyph-name="tcedilla" unicode="&#x163;" horiz-adv-x="401" 
d="M394 122q-4 -70 -38 -104q-31 -26 -77 -30q22 -25 34 -46q16 -28 16 -52q0 -40 -30 -62q-31 -21 -86 -21q-21 0 -42 3q-22 3 -44 9v64q16 -6 40 -13q24 -4 36 -4q28 0 44 13t16 35q0 12 -11 36q-4 9 -22 37q-62 3 -90 33q-32 37 -32 117v330h-79v52h79v161h90v-161h169
v-52h-169v-330q0 -66 13 -85q13 -18 47 -18t51 21q15 20 17 67h68z" />
    <glyph glyph-name="Tcaron" unicode="&#x164;" horiz-adv-x="666" 
d="M487 927l-113 -129h-86l-113 129h57l99 -79l99 79h57zM657 557h-60v114h-214v-619h93v-52h-285v52h93v619h-214v-114h-60v172h647v-172z" />
    <glyph glyph-name="tcaron" unicode="&#x165;" horiz-adv-x="401" 
d="M387 788l-70 -184h-57l30 184h97zM394 122q-4 -70 -38 -104q-37 -32 -106 -32q-78 0 -110 34q-32 37 -32 117v330h-79v52h79v161h90v-161h169v-52h-169v-330q0 -66 13 -85q13 -18 47 -18t51 21q15 20 17 67h68z" />
    <glyph glyph-name="Utilde" unicode="&#x168;" horiz-adv-x="842" 
d="M798 677h-93v-387q0 -168 -64 -236q-65 -68 -217 -68q-154 0 -218 70q-66 69 -66 234v387h-93v52h285v-52h-93v-377q0 -140 45 -195q46 -55 158 -55t158 55q45 55 45 195v377h-93v52h246v-52zM602 921q-2 -52 -26 -79q-25 -28 -71 -28q-34 0 -68 22l-2 1l-24 14
q-11 7 -20 9q-9 4 -18 4q-19 0 -31 -14q-14 -14 -15 -36h-47q2 51 26 78q26 29 66 29q20 0 33 -5q12 -2 42 -19l24 -13q4 -2 11.5 -5.5t9.5 -4.5q12 -3 20 -3q19 0 32 13q11 16 11 37h47z" />
    <glyph glyph-name="utilde" unicode="&#x169;" horiz-adv-x="644" 
d="M607 0h-175v92q-25 -52 -64 -79q-40 -27 -92 -27q-87 0 -127 49q-41 50 -41 154v278h-81v52h171v-302q0 -95 24 -130q23 -35 82 -35q62 0 95 46q33 47 33 133v236h-78v52h168v-467h85v-52zM446 777q-2 -67 -26 -102q-26 -36 -69 -36q-20 0 -34 7q-18 8 -34 23l-28 27
q-12 10 -21 16q-8 3 -17 3q-21 0 -32 -19q-13 -22 -14 -57h-47q2 67 26 102q26 36 69 36q20 0 34 -7q18 -8 34 -23l28 -27q10 -10 20 -15q7 -4 18 -4q21 0 32 19q13 22 14 57h47z" />
    <glyph glyph-name="Umacron" unicode="&#x16a;" horiz-adv-x="842" 
d="M798 677h-93v-387q0 -168 -64 -236q-65 -68 -217 -68q-154 0 -218 70q-66 69 -66 234v387h-93v52h285v-52h-93v-377q0 -140 45 -195q46 -55 158 -55t158 55q45 55 45 195v377h-93v52h246v-52zM568 827h-292v72h292v-72z" />
    <glyph glyph-name="umacron" unicode="&#x16b;" horiz-adv-x="644" 
d="M607 0h-175v92q-25 -52 -64 -79q-40 -27 -92 -27q-87 0 -127 49q-41 50 -41 154v278h-81v52h171v-302q0 -95 24 -130q23 -35 82 -35q62 0 95 46q33 47 33 133v236h-78v52h168v-467h85v-52zM455 673h-292v72h292v-72z" />
    <glyph glyph-name="Uring" unicode="&#x16e;" horiz-adv-x="842" 
d="M798 677h-93v-387q0 -168 -64 -236q-65 -68 -217 -68q-154 0 -218 70q-66 69 -66 234v387h-93v52h285v-52h-93v-377q0 -140 45 -195q46 -55 158 -55t158 55q45 55 45 195v377h-93v52h246v-52zM502 917q0 31 -22 52q-21 22 -52 22q-32 0 -53 -22q-21 -21 -21 -52
q0 -32 21 -53t53 -21q31 0 52 22q22 21 22 52zM562 917q0 -56 -39 -95t-95 -39t-95 39t-39 95t39 95t95 39t95 -39t39 -95z" />
    <glyph glyph-name="uring" unicode="&#x16f;" horiz-adv-x="644" 
d="M607 0h-175v92q-25 -52 -64 -79q-40 -27 -92 -27q-87 0 -127 49q-41 50 -41 154v278h-81v52h171v-302q0 -95 24 -130q23 -35 82 -35q62 0 95 46q33 47 33 133v236h-78v52h168v-467h85v-52zM366 734q0 31 -22 52q-21 22 -52 22q-32 0 -53 -22q-21 -21 -21 -52
q0 -32 21 -53t53 -21q31 0 52 22q22 21 22 52zM426 734q0 -56 -39 -95t-95 -39t-95 39t-39 95t39 95t95 39t95 -39t39 -95z" />
    <glyph glyph-name="Uhungarumlaut" unicode="&#x170;" horiz-adv-x="842" 
d="M798 677h-93v-387q0 -168 -64 -236q-65 -68 -217 -68q-154 0 -218 70q-66 69 -66 234v387h-93v52h285v-52h-93v-377q0 -140 45 -195q46 -55 158 -55t158 55q45 55 45 195v377h-93v52h246v-52zM495 927l-128 -129h-57l89 129h96zM650 927l-128 -129h-57l89 129h96z" />
    <glyph glyph-name="uhungarumlaut" unicode="&#x171;" horiz-adv-x="644" 
d="M607 0h-175v92q-25 -52 -64 -79q-40 -27 -92 -27q-87 0 -127 49q-41 50 -41 154v278h-81v52h171v-302q0 -95 24 -130q23 -35 82 -35q62 0 95 46q33 47 33 133v236h-78v52h168v-467h85v-52zM515 800l-140 -184h-57l110 184h87zM350 800l-119 -184h-56l92 184h83z" />
    <glyph glyph-name="Uogonek" unicode="&#x172;" horiz-adv-x="842" 
d="M798 677h-93v-387q0 -168 -64 -236q-55 -58 -177 -67q-33 -49 -35 -71q0 -22 16 -36q19 -14 44 -14q15 0 28 4q16 3 28 9v-62q-4 -1 -34 -7q-24 -2 -32 -2q-55 0 -86 22q-30 22 -30 61q0 24 14 49q11 20 36 46q-146 3 -207 70q-66 69 -66 234v387h-93v52h285v-52h-93
v-377q0 -140 45 -195q46 -55 158 -55t158 55q45 55 45 195v377h-93v52h246v-52z" />
    <glyph glyph-name="uogonek" unicode="&#x173;" horiz-adv-x="644" 
d="M607 0h-75v-1q-41 -59 -43 -83q0 -22 16 -36q19 -14 44 -14q15 0 28 4q15 3 28 9v-62q-4 -1 -34 -7q-24 -2 -32 -2q-55 0 -86 22q-30 22 -30 61q0 24 14 49t49 60h-54v92q-25 -52 -64 -79q-40 -27 -92 -27q-87 0 -127 49q-41 50 -41 154v278h-81v52h171v-302
q0 -95 24 -130q23 -35 82 -35q62 0 95 46q33 47 33 133v236h-78v52h168v-467h85v-52z" />
    <glyph glyph-name="Ydieresis" unicode="&#x178;" horiz-adv-x="660" 
d="M482 863q0 -22 -16 -41q-19 -16 -41 -16t-41 16q-16 19 -16 41t17 39q17 18 40 18t40 -17t17 -40zM292 863q0 -22 -16 -41q-19 -16 -41 -16t-41 16q-16 19 -16 41t17 39q17 18 40 18t40 -17t17 -40zM669 677h-69l-219 -354v-271h93v-52h-285v52h93v262l-225 363h-68v52
h271v-52h-85l182 -295l182 295h-82v52h212v-52z" />
    <glyph glyph-name="Zacute" unicode="&#x179;" horiz-adv-x="694" 
d="M656 0h-611v35l454 634h-377v-109h-60v169h576v-35l-454 -634h412v102h60v-162zM502 928l-128 -129h-57l89 129h96z" />
    <glyph glyph-name="zacute" unicode="&#x17a;" horiz-adv-x="526" 
d="M490 0h-450v42l325 425h-257v-90h-52v142h425v-42l-325 -425h282v94h52v-146zM452 777l-166 -184h-57l126 184h97z" />
    <glyph glyph-name="Zdotaccent" unicode="&#x17b;" horiz-adv-x="694" 
d="M656 0h-611v35l454 634h-377v-109h-60v169h576v-35l-454 -634h412v102h60v-162zM410 873q0 -22 -16 -41q-19 -16 -41 -16t-41 16q-16 19 -16 41t17 39q17 18 40 18t40 -17t17 -40z" />
    <glyph glyph-name="zdotaccent" unicode="&#x17c;" horiz-adv-x="526" 
d="M490 0h-450v42l325 425h-257v-90h-52v142h425v-42l-325 -425h282v94h52v-146zM336 677q0 -25 -16 -41t-41 -16t-41 16t-16 41q0 23 17 40t40 17t40 -17t17 -40z" />
    <glyph glyph-name="Zcaron" unicode="&#x17d;" horiz-adv-x="694" 
d="M504 927l-113 -129h-86l-113 129h57l99 -79l99 79h57zM656 0h-611v35l454 634h-377v-109h-60v169h576v-35l-454 -634h412v102h60v-162z" />
    <glyph glyph-name="zcaron" unicode="&#x17e;" horiz-adv-x="526" 
d="M490 0h-450v42l325 425h-257v-90h-52v142h425v-42l-325 -425h282v94h52v-146zM420 800l-115 -184h-82l-115 184h57l99 -127l99 127h57z" />
    <glyph glyph-name="longs" unicode="&#x17f;" horiz-adv-x="370" 
d="M430 637h-47q0 37 -21 56q-19 19 -59 19q-50 0 -71 -28q-21 -29 -20 -98v-534h115v-52h-291v52h86v415h-86v52h86v65q0 87 45 132q46 44 133 44q33 0 66 -6t64 -18v-99z" />
    <glyph glyph-name="florin" unicode="&#x192;" horiz-adv-x="370" 
d="M430 637h-47q0 6 -2 20q-5 23 -19 36q-20 19 -59 19q-50 0 -71 -27q-21 -29 -20 -99v-67h145v-52h-145v-476q0 -87 -45 -132q-46 -44 -133 -44q-33 0 -65 6q-34 6 -65 18v99h47q0 -6 2 -20q5 -23 19 -36q20 -19 59 -19q50 0 71 28t20 100v476h-86v52h86v65q0 88 45 131
q45 44 133 45q34 0 65 -6q34 -6 65 -18v-99z" />
    <glyph glyph-name="Ohorn" unicode="&#x1a0;" horiz-adv-x="819" 
d="M789 694q0 -56 -22 -85q-21 -29 -58 -30q53 -88 53 -215q0 -86 -27 -158q-28 -71 -81 -124q-49 -49 -110 -72q-60 -24 -136 -24q-74 0 -136 24q-64 26 -110 72q-55 55 -82 124q-26 70 -26 158q0 86 26 158q27 69 82 124q49 49 110 72q60 24 136 24q144 0 235 -84
q25 -13 38 -13q23 0 35 16q14 15 14 44q0 13 -3 27q-3 15 -9 29l62 -1q5 -18 6 -34q3 -16 3 -32zM650 364q0 162 -61 244t-181 82q-119 0 -181 -82q-61 -83 -61 -244t61 -244q62 -82 181 -82t181 82q61 83 61 244z" />
    <glyph glyph-name="ohorn" unicode="&#x1a1;" 
d="M646 465q0 -56 -22 -85q-22 -30 -61 -30q-12 0 -24 3q12 -42 12 -93q0 -124 -69 -199q-67 -75 -182 -75q-113 0 -182 75t-69 199t69 198q68 75 182 75q115 0 182 -75q16 -18 25 -32q20 -10 31 -10q23 0 36 16q13 18 13 44q0 14 -3 27q-3 15 -9 29l62 -1q3 -12 7 -34
q2 -22 2 -32zM446 260q0 112 -37 168q-38 57 -109 57t-109 -57q-37 -56 -37 -168t37 -168q37 -58 109 -58t109 57q37 56 37 169z" />
    <glyph glyph-name="Uhorn" unicode="&#x1af;" horiz-adv-x="842" 
d="M987 736q0 -56 -22 -85q-22 -30 -61 -30q-23 0 -50 15q-25 14 -59 48v-7h-93v-387q0 -168 -64 -236q-65 -68 -217 -68q-153 0 -219 70q-65 70 -65 234v387h-93v52h285v-52h-93v-377q0 -140 46 -195q45 -55 157 -55t157 55q46 55 46 195v377h-93v52h246h1q60 -42 83 -42
t35 16q14 15 14 44q0 13 -3 27q-3 15 -9 29l62 -1q5 -18 6 -34q3 -17 3 -32z" />
    <glyph glyph-name="uhorn" unicode="&#x1b0;" horiz-adv-x="644" 
d="M688 465q0 -56 -22 -85q-22 -30 -61 -30q-24 0 -49 14q-21 12 -39 29v-341h85v-52h-175v92q-26 -53 -65 -79q-39 -27 -91 -27q-87 0 -127 49q-41 50 -41 154v278h-81v52h171v-302q0 -95 23 -130q24 -35 83 -35q62 0 95 46q33 47 33 133v236h-78v52h168v-74q44 -29 63 -29
q23 0 36 16q13 18 13 44q0 14 -3 27q-3 15 -9 29l62 -1q3 -12 7 -34q2 -22 2 -32z" />
    <glyph glyph-name="Oogonek" unicode="&#x1ea;" horiz-adv-x="819" 
d="M652 364q0 162 -61 244t-181 82q-119 0 -181 -82q-61 -83 -61 -244t61 -244q62 -82 181 -82t181 82q61 83 61 244zM764 364q0 -86 -27 -158q-28 -71 -81 -124q-49 -49 -110 -72q-41 -17 -88 -21q-39 -57 -41 -81q0 -22 16 -36q19 -14 44 -14q15 0 28 4q15 3 28 9v-62
q-4 -1 -34 -7q-24 -2 -32 -2q-55 0 -86 22q-30 22 -30 61q0 24 14 49t43 54q-74 0 -134 24q-64 26 -110 72q-55 55 -82 124q-26 70 -26 158q0 86 26 158q27 69 82 124q49 49 110 72q60 24 136 24q160 0 256 -104q98 -102 98 -274z" />
    <glyph glyph-name="oogonek" unicode="&#x1eb;" 
d="M447 260q0 112 -37 168q-38 57 -109 57t-109 -57q-37 -56 -37 -168t37 -168q37 -58 109 -58q71 0 109 57q37 56 37 169zM552 260q0 -123 -68 -199q-53 -58 -134 -71q-41 -60 -42 -82q0 -22 16 -36q19 -14 44 -14q15 0 28 4q16 3 28 9v-62q-4 -1 -34 -7q-24 -2 -32 -2
q-55 0 -86 22q-30 22 -30 61q0 24 14 49t43 54q-111 0 -180 75t-69 199t68 198q69 75 183 75t183 -75q68 -74 68 -198z" />
    <glyph glyph-name="Oogonekmacron" unicode="&#x1ec;" horiz-adv-x="819" 
d="M652 364q0 162 -61 244t-181 82q-119 0 -181 -82q-61 -83 -61 -244t61 -244q62 -82 181 -82t181 82q61 83 61 244zM556 827h-292v72h292v-72zM764 364q0 -86 -27 -158q-28 -71 -81 -124q-49 -49 -110 -72q-41 -17 -88 -21q-39 -57 -41 -81q0 -22 16 -36q19 -14 44 -14
q15 0 28 4q15 3 28 9v-62q-4 -1 -34 -7q-24 -2 -32 -2q-55 0 -86 22q-30 22 -30 61q0 24 14 49t43 54q-74 0 -134 24q-64 26 -110 72q-55 55 -82 124q-26 70 -26 158q0 86 26 158q27 69 82 124q49 49 110 72q60 24 136 24q160 0 256 -104q98 -102 98 -274z" />
    <glyph glyph-name="oogonekmacron" unicode="&#x1ed;" 
d="M447 260q0 112 -37 168q-38 57 -109 57t-109 -57q-37 -56 -37 -168t37 -168q37 -58 109 -58q71 0 109 57q37 56 37 169zM447 673h-292v72h292v-72zM552 260q0 -123 -68 -199q-53 -58 -134 -71q-41 -60 -42 -82q0 -22 16 -36q19 -14 44 -14q15 0 28 4q16 3 28 9v-62
q-4 -1 -34 -7q-24 -2 -32 -2q-55 0 -86 22q-30 22 -30 61q0 24 14 49t43 54q-111 0 -180 75t-69 199t68 198q69 75 183 75t183 -75q68 -74 68 -198z" />
    <glyph glyph-name="uni0218" unicode="&#x218;" horiz-adv-x="685" 
d="M406 -76q-3 -51 -31 -86q-29 -37 -86 -63l-31 24q38 21 54 48q17 28 17 66v11h77zM612 199q0 -106 -68 -159q-68 -54 -202 -54q-60 0 -122 12q-64 12 -127 37v166h56q1 -83 48 -123q46 -40 139 -40q86 0 132 34q46 36 46 101q0 53 -28 81q-26 28 -116 55l-96 29
q-102 31 -147 79q-43 46 -43 130q0 93 66 144t185 51q48 0 111 -11q58 -10 129 -32v-155h-55q-7 75 -52 112q-43 34 -131 34q-79 0 -117 -32q-41 -29 -41 -91q0 -52 31 -82q31 -31 128 -59l90 -27q99 -30 142 -76q42 -46 42 -124z" />
    <glyph glyph-name="uni0219" unicode="&#x219;" horiz-adv-x="513" 
d="M300 -76q-3 -51 -31 -86q-29 -37 -86 -63l-31 24q38 21 54 48q17 28 17 66v11h77zM462 144q0 -74 -56 -116q-57 -42 -156 -42q-48 0 -98 11q-46 10 -96 32v121h52q1 -57 36 -87q37 -29 102 -29q61 0 92 23q32 22 32 66q0 34 -23 55q-22 21 -98 45l-65 22q-66 21 -97 53
q-30 33 -30 83q0 73 53 111q50 41 144 41q45 0 86 -11q42 -8 94 -31v-113h-52q-2 51 -35 78q-32 29 -90 29q-57 0 -86 -20t-29 -60q0 -32 22 -53q25 -20 88 -40l71 -22q75 -23 107 -58q32 -34 32 -88z" />
    <glyph glyph-name="uni021A" unicode="&#x21a;" horiz-adv-x="666" 
d="M657 557h-60v114h-214v-619h93v-52h-285v52h93v619h-214v-114h-60v172h647v-172zM373 -58l-31 -86l-86 -63l-31 24l54 48l17 66v11h77z" />
    <glyph glyph-name="uni021B" unicode="&#x21b;" horiz-adv-x="401" 
d="M394 122q-4 -70 -38 -104q-37 -32 -106 -32q-78 0 -110 34q-32 37 -32 117v330h-79v52h79v161h90v-161h169v-52h-169v-330q0 -66 13 -85q13 -18 47 -18t51 21q15 20 17 67h68zM289 -44l-31 -86l-86 -63l-31 24l54 48l17 66v11h77z" />
    <glyph glyph-name="dotlessj" unicode="&#x237;" horiz-adv-x="310" 
d="M212 -51q0 -80 -48 -125q-46 -46 -131 -46q-33 0 -67 8q-32 8 -62 24v107h46q3 -47 24 -69t61 -22q44 0 65 30q22 29 22 93v518h-85v52h175v-570z" />
    <glyph glyph-name="circumflex" unicode="&#x2c6;" horiz-adv-x="500" 
d="M406 616h-57l-99 127l-99 -127h-57l115 184h82z" />
    <glyph glyph-name="caron" unicode="&#x2c7;" horiz-adv-x="500" 
d="M406 800l-115 -184h-82l-115 184h57l99 -127l99 127h57z" />
    <glyph glyph-name="breve" unicode="&#x2d8;" horiz-adv-x="500" 
d="M403 785q-4 -70 -43 -105q-40 -35 -110 -35t-110 35q-39 35 -43 105h47q6 -40 32 -56q25 -17 74 -17q50 0 74 18q26 16 32 55h47z" />
    <glyph glyph-name="dotaccent" unicode="&#x2d9;" horiz-adv-x="500" 
d="M307 709q0 -25 -16 -41t-41 -16t-41 16t-16 41q0 23 17 40t40 17t40 -17t17 -40z" />
    <glyph glyph-name="ring" unicode="&#x2da;" horiz-adv-x="500" 
d="M324 744q0 31 -22 52q-21 22 -52 22q-32 0 -53 -22q-21 -21 -21 -52q0 -32 21 -53t53 -21q31 0 52 22q22 21 22 52zM384 744q0 -56 -39 -95t-95 -39t-95 39t-39 95t39 95t95 39t95 -39t39 -95z" />
    <glyph glyph-name="ogonek" unicode="&#x2db;" horiz-adv-x="500" 
d="M344 -183q-4 -1 -34 -7q-24 -2 -32 -2q-55 0 -86 22q-30 22 -30 61q0 24 14 49t49 60h46v-1q-41 -59 -43 -83q0 -22 16 -36q19 -14 44 -14q15 0 28 4q15 3 28 9v-62z" />
    <glyph glyph-name="tilde" unicode="&#x2dc;" horiz-adv-x="500" 
d="M411 777q-2 -67 -26 -102q-25 -36 -69 -36q-20 0 -34 7q-18 8 -34 23l-28 27q-12 10 -21 16q-8 3 -17 3q-21 0 -32 -19q-13 -22 -14 -57h-47q2 67 26 102q25 36 69 36q20 0 34 -7q18 -8 34 -23l28 -27q10 -10 20 -15q7 -4 18 -4q21 0 32 19q13 22 14 57h47z" />
    <glyph glyph-name="hungarumlaut" unicode="&#x2dd;" horiz-adv-x="500" 
d="M459 800l-140 -184h-57l110 184h87zM294 800l-119 -184h-56l92 184h83z" />
    <glyph glyph-name="uni0300" unicode="&#x300;" horiz-adv-x="0" 
d="M-226 635h-57l-166 184h96z" />
    <glyph glyph-name="uni0301" unicode="&#x301;" horiz-adv-x="0" 
d="M-117 820l-166 -184h-57l126 184h97z" />
    <glyph glyph-name="circumflexcmb" unicode="&#x302;" horiz-adv-x="0" 
d="M-94 626q-89 43 -188 99q-99 -56 -188 -99v48l156 104h64l156 -104v-48z" />
    <glyph glyph-name="tildecomb" unicode="&#x303;" horiz-adv-x="0" 
d="M-85 696q-45 -67 -85 -73q-58 -8 -133 59q-2 2 -9.5 8.5t-9.5 8t-9.5 8t-10 7t-10.5 5.5t-10.5 4.5t-11 2t-11.5 -0.5q-41 -5 -94 -85v76q45 67 85 73q58 8 133 -59q2 -2 9.5 -8.5t9.5 -8t9.5 -8t10 -7t10.5 -5.5t10.5 -4.5t11 -2t11.5 0.5q41 5 94 85v-76z" />
    <glyph glyph-name="uni0304" unicode="&#x304;" horiz-adv-x="0" 
d="M-136 693h-292v72h292v-72z" />
    <glyph glyph-name="overlinecmb" unicode="&#x305;" horiz-adv-x="0" 
d="M-94 674h-376v64h376v-64z" />
    <glyph glyph-name="brevecmb" unicode="&#x306;" horiz-adv-x="0" 
d="M-72 780q-21 -66 -79.5 -105t-130.5 -39t-130.5 39t-79.5 105h44q27 -80 166 -80t166 80h44z" />
    <glyph glyph-name="uni0307" unicode="&#x307;" horiz-adv-x="0" 
d="M-225 729q0 -25 -16 -41t-41 -16t-41 16t-16 41q0 23 17 40t40 17t40 -17t17 -40z" />
    <glyph glyph-name="uni0308" unicode="&#x308;" horiz-adv-x="0" 
d="M-130 729q0 -25 -16 -41t-41 -16t-41 16t-16 41q0 23 17 40t40 17t40 -17t17 -40zM-320 729q0 -25 -16 -41t-41 -16q-24 0 -41 16q-16 18 -16 41t17 40t40 17t40 -17t17 -40z" />
    <glyph glyph-name="uni0309" unicode="&#x309;" horiz-adv-x="0" 
d="M-181 789q0 -23 -15 -52q-23 -42 -58 -62v-39h-72v55q52 25 66 41q13 13 13 33q0 29 -27 41q-14 6 -33 6q-37 0 -76 -16v64q23 8 69 11q6 1 17 1q90 0 111 -54q5 -15 5 -29z" />
    <glyph glyph-name="uni030A" unicode="&#x30a;" horiz-adv-x="0" 
d="M-208 764q0 31 -22 52q-21 22 -52 22q-32 0 -53 -22q-21 -21 -21 -52q0 -32 21 -53t53 -21q31 0 52 22q22 21 22 52zM-148 764q0 -56 -39 -95t-95 -39t-95 39t-39 95t39 95t95 39t95 -39t39 -95z" />
    <glyph glyph-name="uni030B" unicode="&#x30b;" horiz-adv-x="0" 
d="M-73 820l-140 -184h-57l110 184h87zM-238 820l-119 -184h-56l92 184h83z" />
    <glyph glyph-name="caroncmb" unicode="&#x30c;" horiz-adv-x="0" 
d="M-94 750l-156 -104h-64l-156 104v48q89 -43 188 -99q99 56 188 99v-48z" />
    <glyph glyph-name="uni030F" unicode="&#x30f;" horiz-adv-x="0" 
d="M-294 636h-57l-140 184h87zM-151 636h-56l-119 184h83z" />
    <glyph glyph-name="breveinvertedcmb" unicode="&#x311;" horiz-adv-x="0" 
d="M-72 662h-44q-27 80 -166 80t-166 -80h-44q21 66 79.5 105t130.5 39t130.5 -39t79.5 -105z" />
    <glyph glyph-name="uni0323" unicode="&#x323;" horiz-adv-x="0" 
d="M-225 -134l-16 -41l-41 -16l-41 16l-16 41l17 40l40 17l40 -17z" />
    <glyph glyph-name="uni0326" unicode="&#x326;" horiz-adv-x="0" 
d="M-208 -58l-31 -86l-86 -63l-31 24l54 48l17 66v11h77z" />
    <glyph glyph-name="caronbelowcmb" unicode="&#x32c;" horiz-adv-x="0" 
d="M-94 -129l-156 -103h-64l-156 103v49q89 -43 188 -99q99 56 188 99v-49z" />
    <glyph glyph-name="circumflexbelowcmb" unicode="&#x32d;" horiz-adv-x="0" 
d="M-94 -244q-89 43 -188 99q-99 -56 -188 -99v49l156 103h64l156 -103v-49z" />
    <glyph glyph-name="brevebelowcmb" unicode="&#x32e;" horiz-adv-x="0" 
d="M-72 -80q-21 -66 -79.5 -105t-130.5 -39t-130.5 39t-79.5 105h44q27 -80 166 -80t166 80h44z" />
    <glyph glyph-name="breveinvertedbelowcmb" unicode="&#x32f;" horiz-adv-x="0" 
d="M-72 -242h-44q-27 80 -166 80t-166 -80h-44q21 66 79.5 105t130.5 39t130.5 -39t79.5 -105z" />
    <glyph glyph-name="tildebelowcmb" unicode="&#x330;" horiz-adv-x="0" 
d="M-85 -192q-45 -68 -85 -72q-59 -9 -133 59q-2 1 -12 10t-13.5 11.5t-12.5 9t-14.5 8.5t-13.5 3.5t-16 0.5q-42 -7 -94 -86v76q45 67 85 73q60 8 133 -59q2 -2 9.5 -8.5t9.5 -8t9.5 -8t10 -7t10.5 -5.5t10.5 -4.5t11 -2t11.5 0.5q41 5 94 85v-76z" />
    <glyph glyph-name="uni0331" unicode="&#x331;" horiz-adv-x="0" 
d="M-136 -170h-292v72h292v-72z" />
    <glyph glyph-name="lowlinecmb" unicode="&#x332;" horiz-adv-x="0" 
d="M-94 -144h-376v64h376v-64z" />
    <glyph glyph-name="dbllowlinecmb" unicode="&#x333;" horiz-adv-x="0" 
d="M-94 -144h-376v64h376v-64zM-94 -288h-376v64h376v-64z" />
    <glyph glyph-name="uni0338" unicode="&#x338;" horiz-adv-x="0" 
d="M-136 697l-226 -844h-66l226 844h66z" />
    <glyph glyph-name="dbloverlinecmb" unicode="&#x33f;" horiz-adv-x="0" 
d="M-94 674h-376v64h376v-64zM-94 818h-376v64h376v-64z" />
    <glyph glyph-name="uni034D" unicode="&#x34d;" horiz-adv-x="0" 
d="M-35 -220l-129 -116h-24l65 96h-318l65 -96h-24l-129 116v24l129 116h24l-65 -96h318l-65 96h24l129 -116v-24z" />
    <glyph glyph-name="Alpha" unicode="&#x391;" horiz-adv-x="898" 
d="M818 0h-265v52h81l-61 160h-307l-61 -160h80v-52h-205v52h64l260 677h82l260 -677h72v-52zM554 264l-134 347l-134 -347h268z" />
    <glyph glyph-name="Beta" unicode="&#x392;" horiz-adv-x="779" 
d="M699 211q0 -108 -68 -159q-68 -52 -214 -52h-337v52h93v625h-93v52h360q110 0 166 -45t56 -135q0 -65 -39 -103q-37 -39 -113 -48q93 -12 141 -60q48 -47 48 -127zM550 549q0 67 -37 97q-37 31 -117 31h-124v-256h124q80 0 117 31q37 30 37 97zM587 211q0 81 -40 121
q-43 37 -129 37h-146v-317h146q86 0 129 38q40 38 40 121z" />
    <glyph glyph-name="Gamma" unicode="&#x393;" horiz-adv-x="757" 
d="M677 566h-60v103h-345v-617h117v-52h-309v52h93v625h-93v52h597v-163z" />
    <glyph glyph-name="Delta" unicode="&#x394;" horiz-adv-x="802" 
d="M722 0h-642l279 729h84zM580 80l-204 532l-205 -532h409z" />
    <glyph glyph-name="Epsilon" unicode="&#x395;" horiz-adv-x="755" 
d="M675 0h-595v52h93v625h-93v52h587v-162h-60v102h-335v-244h239v91h60v-242h-60v91h-239v-305h343v102h60v-162z" />
    <glyph glyph-name="Zeta" unicode="&#x396;" horiz-adv-x="771" 
d="M691 0h-611v35l454 634h-377v-109h-60v169h576v-35l-454 -634h412v102h60v-162z" />
    <glyph glyph-name="Eta" unicode="&#x397;" horiz-adv-x="922" 
d="M842 0h-285v52h93v313h-378v-313h93v-52h-285v52h93v625h-93v52h285v-52h-93v-252h378v252h-93v52h285v-52h-93v-625h93v-52z" />
    <glyph glyph-name="Theta" unicode="&#x398;" horiz-adv-x="868" 
d="M615 274h-60v91h-242v-91h-60v242h60v-91h242v91h60v-242zM788 364q0 -86 -27 -158q-28 -71 -81 -124q-49 -49 -110 -72q-60 -24 -136 -24q-74 0 -136 24q-64 26 -110 72q-55 55 -82 124q-26 70 -26 158q0 86 26 158q27 69 82 124q49 49 110 72q60 24 136 24
q160 0 256 -104q98 -102 98 -274zM676 364q0 162 -61 244t-181 82q-119 0 -181 -82q-61 -83 -61 -244t61 -244q62 -82 181 -82t181 82q61 83 61 244z" />
    <glyph glyph-name="Iota" unicode="&#x399;" horiz-adv-x="445" 
d="M365 0h-285v52h93v625h-93v52h285v-52h-93v-625h93v-52z" />
    <glyph glyph-name="Kappa" unicode="&#x39a;" horiz-adv-x="867" 
d="M787 0h-169l-346 346v-294h93v-52h-285v52h93v625h-93v52h285v-52h-93v-276l314 276h-79v52h242v-52h-82l-313 -275l350 -350h83v-52z" />
    <glyph glyph-name="Lambda" unicode="&#x39b;" horiz-adv-x="898" 
d="M818 0h-265v52h81l-214 559l-215 -559h80v-52h-205v52h64l260 677h82l260 -677h72v-52z" />
    <glyph glyph-name="Mu" unicode="&#x39c;" horiz-adv-x="1083" 
d="M1003 677h-97v-625h93v-52h-285v52h93v563l-250 -508h-69l-250 508v-563h93v-52h-246v52h93v625h-98v52h212l256 -519l256 519h199v-52z" />
    <glyph glyph-name="Nu" unicode="&#x39d;" horiz-adv-x="942" 
d="M862 677h-98v-691h-59l-467 614v-548h98v-52h-256v52h98v625h-98v52h187l437 -575v523h-98v52h256v-52z" />
    <glyph glyph-name="Xi" unicode="&#x39e;" horiz-adv-x="747" 
d="M548 274h-60v91h-229v-91h-60v242h60v-91h229v91h60v-242zM667 567h-60v70h-467v-70h-60v162h587v-162zM667 0h-587v162h60v-70h467v70h60v-162z" />
    <glyph glyph-name="Omicron" unicode="&#x39f;" horiz-adv-x="868" 
d="M788 364q0 -86 -27 -158q-28 -71 -81 -124q-49 -49 -110 -72q-60 -24 -136 -24q-74 0 -136 24q-64 26 -110 72q-55 55 -82 124q-26 70 -26 158q0 86 26 158q27 69 82 124q49 49 110 72q60 24 136 24q160 0 256 -104q98 -102 98 -274zM676 364q0 162 -61 244t-181 82
q-119 0 -181 -82q-61 -83 -61 -244t61 -244q62 -82 181 -82t181 82q61 83 61 244z" />
    <glyph glyph-name="Pi" unicode="&#x3a0;" horiz-adv-x="922" 
d="M842 0h-285v52h93v617h-378v-617h93v-52h-285v52h93v625h-93v52h762v-52h-93v-625h93v-52z" />
    <glyph glyph-name="Rho" unicode="&#x3a1;" horiz-adv-x="742" 
d="M662 524q0 -95 -64 -150q-66 -55 -173 -55h-153v-267h113v-52h-305v52h93v625h-93v52h345q107 0 173 -55q64 -57 64 -150zM550 524q0 74 -38 114q-38 39 -111 39h-129v-306h129q73 0 111 39q38 41 38 114z" />
    <glyph glyph-name="Sigma" unicode="&#x3a3;" horiz-adv-x="759" 
d="M679 0h-599l324 365l-324 364h599v-162h-60v102h-340l229 -272l-270 -305h381v70h60v-162z" />
    <glyph glyph-name="Tau" unicode="&#x3a4;" horiz-adv-x="807" 
d="M727 557h-60v114h-214v-619h93v-52h-285v52h93v619h-214v-114h-60v172h647v-172z" />
    <glyph glyph-name="Upsilon" unicode="&#x3a5;" horiz-adv-x="751" 
d="M671 677q-118 0 -175 -85q-71 -107 -71 -326v-214h93v-52h-285v52h93v214q0 219 -71 326q-57 85 -175 85v52q140 0 214 -73q57 -56 82 -209q23 153 81 209q74 73 214 73v-52z" />
    <glyph glyph-name="Phi" unicode="&#x3a6;" horiz-adv-x="869" 
d="M385 139v451q-83 -13 -132 -55q-61 -52 -61 -171q0 -113 61 -171q47 -43 132 -54zM677 364q0 119 -61 171q-47 41 -132 55v-451q86 11 132 54q61 58 61 171zM789 364q0 -62 -27 -110q-27 -50 -81 -87q-50 -35 -110 -51q-54 -13 -87 -17v-47h93v-52h-285v52h93v47
q-33 4 -87 17q-60 16 -110 51q-55 37 -82 87q-26 49 -26 110t26 110q27 50 82 87q49 34 109 51q40 10 88 16v49h-93v52h285v-52h-93v-49q46 -6 87 -16q59 -15 110 -51q54 -37 81 -87q27 -48 27 -110z" />
    <glyph glyph-name="Chi" unicode="&#x3a7;" horiz-adv-x="861" 
d="M781 0h-289v52h87l-174 260l-178 -260h94v-52h-241v52h84l210 306l-213 319h-78v52h289v-52h-86l156 -235l161 235h-94v52h239v-52h-82l-193 -281l230 -344h78v-52z" />
    <glyph glyph-name="Psi" unicode="&#x3a8;" horiz-adv-x="951" 
d="M871 677h-49q-44 0 -44 -90v-150q0 -138 -65 -197q-58 -52 -188 -59v-129h93v-52h-285v52h93v129q-135 8 -188 59q-65 62 -65 197v150q1 90 -43 90h-50v52h98q94 0 94 -142v-142q0 -117 45 -163q31 -31 109 -45v440h-93v52h285v-52h-93v-440q76 12 109 45q45 46 45 163
v142q0 142 94 142h98v-52z" />
    <glyph glyph-name="Omega" unicode="&#x3a9;" horiz-adv-x="868" 
d="M788 399q0 -103 -59 -191q-61 -86 -163 -128h164v67h57v-147h-289v89q89 35 133 110q45 77 45 189q0 137 -67 219q-68 83 -175 83t-175 -83q-67 -82 -67 -219q0 -114 45 -190q45 -74 132 -109v-89h-288v147h57v-67h163q-102 42 -162 128q-59 86 -59 191q0 75 28 138
q29 65 82 114q50 45 111 67q61 24 133 24q70 0 133 -23q61 -22 110 -68q55 -50 82 -115q29 -62 29 -137z" />
    <glyph glyph-name="alpha" unicode="&#x3b1;" horiz-adv-x="758" 
d="M441 223l-31 144q-24 114 -91 115q-55 0 -99 -60q-35 -50 -35 -162q0 -107 35 -163q39 -60 104 -55q56 5 97 124zM678 24q-98 -57 -169 2q-33 28 -40 67l-8 35l-19 -54q-15 -42 -62 -69q-31 -17 -83 -17q-96 1 -157 76q-62 76 -60 198q0 120 60 197q57 74 178 74
q83 0 125 -33q37 -28 51 -92l4 -18l19 54q18 51 68 77h50v-29q-48 -15 -64 -60l-51 -139l34 -149q16 -75 37 -85q27 -12 87 24v-59z" />
    <glyph glyph-name="beta" unicode="&#x3b2;" horiz-adv-x="625" 
d="M545 197q0 -101 -68 -157q-69 -54 -198 -54q-78 0 -109 11v-205h-90v727q0 204 110 231q59 15 98 15q91 0 150 -71q46 -56 46 -106q0 -70 -34 -111q-35 -41 -94 -60q90 -14 139 -66q50 -53 50 -154zM442 196q0 102 -45 146q-45 45 -130 45h-46v52h24q61 0 105 36
q35 29 35 107q0 33 -23 73q-37 64 -82 62q-110 -3 -110 -198v-456q40 -29 111 -29q75 0 118 44q43 42 43 118z" />
    <glyph glyph-name="gamma" unicode="&#x3b3;" horiz-adv-x="673" 
d="M592 389q0 -46 -50 -141q-20 -38 -150 -219q30 -143 2 -195q-22 -41 -57 -43q-51 -1 -74 49q-25 57 42 168l-139 459h-86v52h166l127 -422q110 148 124 252q6 48 -6 81q-20 53 -43 60v29h54q58 -35 71 -63q20 -42 19 -67z" />
    <glyph glyph-name="delta" unicode="&#x3b4;" horiz-adv-x="662" 
d="M477 260q0 112 -37 168q-37 57 -109 57q-71 0 -109 -57q-37 -56 -37 -168q0 -113 37 -169q38 -57 109 -57t109 57q37 56 37 169zM582 260q0 -123 -68 -199q-69 -75 -183 -75q-113 0 -182 75t-69 199t68 198q32 33 61 48q-32 13 -49 36q-19 27 -18 94q0 63 48 96t143 33
q23 0 77 -8q46 -7 106 -23v-96l-53 -13q-6 43 -41 66q-34 22 -81 22q-45 0 -80 -24q-36 -25 -34 -57q1 -45 18 -62q37 -37 86 -37q114 0 183 -75q68 -74 68 -198z" />
    <glyph glyph-name="epsilon" unicode="&#x3b5;" horiz-adv-x="583" 
d="M503 16q-56 -19 -104 -26q-51 -9 -90 -9q-109 0 -170 39q-60 39 -59 111q0 67 52 104q34 25 93 39q-40 9 -67 27q-49 33 -49 95q0 63 47 96q49 33 144 32q29 0 77 -7q50 -7 106 -24v-108h-53q-6 44 -41 65q-33 23 -81 23q-114 0 -114 -82q0 -93 126 -93h45v-51h-45
q-78 0 -115 -31q-36 -28 -36 -86q0 -39 26 -63q41 -40 112 -40q57 0 98 26q40 25 45 76h53v-113z" />
    <glyph glyph-name="zeta" unicode="&#x3b6;" horiz-adv-x="621" 
d="M539 -72q11 -56 -42 -99q-43 -37 -137 -37v52q98 0 98 77q0 65 -95 65q-138 0 -205 75q-69 75 -69 214q0 98 82 235q67 112 252 190h-292v-71h-51v131h456v-60q-196 -94 -286 -228q-56 -83 -56 -197q-1 -127 37 -184q38 -56 134 -56q153 0 174 -107z" />
    <glyph glyph-name="eta" unicode="&#x3b7;" horiz-adv-x="660" 
d="M580 -208h-90v510q0 96 -24 130q-22 36 -82 36q-62 0 -95 -46t-33 -133v-289h-90v467h-86v52h176v-92q26 54 64 79q40 27 93 27q87 0 127 -49q40 -51 40 -154v-538z" />
    <glyph glyph-name="theta" unicode="&#x3b8;" horiz-adv-x="661" 
d="M581 380q0 -178 -69 -284q-68 -107 -182 -107q-113 0 -182 107q-68 107 -68 284t68 284q69 107 182 107q114 0 182 -107q69 -106 69 -284zM476 354h-291q5 -157 37 -235q38 -89 108 -89q71 0 109 89q32 78 37 235zM476 406q-3 159 -37 237q-38 89 -109 88q-72 0 -108 -88
q-32 -78 -37 -237h291z" />
    <glyph glyph-name="iota" unicode="&#x3b9;" horiz-adv-x="460" 
d="M380 22q-100 -57 -169 2q-45 40 -45 118v325h-86v52h176v-377q0 -68 36 -85q27 -12 88 24v-59z" />
    <glyph glyph-name="kappa" unicode="&#x3ba;" horiz-adv-x="739" 
d="M659 0h-256v52h74l-155 213l-71 -66v-147h81v-52h-252v52h81v415h-81v52h252v-52h-81v-202l219 202h-75v52h235v-52h-89l-154 -143l197 -272h75v-52z" />
    <glyph glyph-name="lambda" unicode="&#x3bb;" horiz-adv-x="725" 
d="M645 0h-195v52h78l-138 359l-154 -359h83v-52h-239v52h59l202 477l-42 109q-18 44 -35 60q-16 15 -43 15q-29 0 -43 -14q-14 -16 -17 -48h-46v99q17 5 49 11q21 4 47 4q55 0 84 -22q31 -23 54 -83l238 -608h58v-52z" />
    <glyph glyph-name="mu" unicode="&#x3bc;" horiz-adv-x="740" 
d="M660 0h-175v92q-25 -52 -61 -79t-80 -27q-27 0 -51 8q-23 9 -42 27v-229h-90v675h-81v52h171v-302q0 -95 23 -130q24 -35 83 -35q62 0 95 46q33 47 33 133v236h-78v52h168v-468h85v-51z" />
    <glyph glyph-name="nu" unicode="&#x3bd;" horiz-adv-x="679" 
d="M599 351q0 -35 -14 -66q-11 -21 -45 -72q-49 -68 -107 -109q-107 -81 -177 -104h-90v467h-86v52h176v-462q58 22 124 80q39 35 85 119q29 51 34 101q4 45 -17 80q-29 49 -63 53v29h55q54 -23 94 -77q31 -40 31 -91z" />
    <glyph glyph-name="xi" unicode="&#x3be;" horiz-adv-x="621" 
d="M539 -72q11 -56 -42 -99q-43 -37 -137 -37v52q98 0 98 77q0 65 -95 65q-159 0 -214 58q-60 62 -60 153q0 77 102 157q20 16 97 29q-131 42 -131 147q0 121 160 170h-186v-71h-51v131h456v-60q-274 -19 -274 -176q0 -114 190 -118v-52q-130 0 -177 -30q-83 -53 -81 -127
q0 -72 37 -127q24 -35 134 -35q153 0 174 -107z" />
    <glyph glyph-name="omicron" unicode="&#x3bf;" horiz-adv-x="662" 
d="M582 260q0 -123 -68 -199q-69 -75 -183 -75q-113 0 -182 75t-69 199t68 198q69 75 183 75t183 -75q68 -74 68 -198zM477 260q0 112 -37 168q-37 57 -109 57q-71 0 -109 -57q-37 -56 -37 -168t37 -168q37 -58 109 -58q71 0 109 57q37 56 37 169z" />
    <glyph glyph-name="pi" unicode="&#x3c0;" horiz-adv-x="745" 
d="M665 467h-85v-415h80v-52h-248v52h78v415h-234v-415h78v-52h-249v52h81v415h-86v52h585v-52z" />
    <glyph glyph-name="rho" unicode="&#x3c1;" horiz-adv-x="635" 
d="M555 260q0 -122 -60 -198q-61 -76 -157 -76q-60 0 -101 23q-42 23 -67 72v-289h-90v464q0 122 42 182q46 55 80 72q44 23 107 23q125 0 186 -75q60 -76 60 -198zM450 260q0 112 -36 162q-42 60 -104 60q-65 0 -104 -54q-36 -50 -36 -143v-51q0 -94 36 -143t104 -49
q69 0 105 55q35 56 35 163z" />
    <glyph glyph-name="uni03C2" unicode="&#x3c2;" horiz-adv-x="612" 
d="M530 -72q10 -56 -42 -99q-43 -37 -137 -37v52q98 0 98 77q0 65 -95 65q-138 0 -205 75q-69 75 -69 199q0 126 69 199q69 74 182 74q46 0 98 -11q45 -11 98 -35v-133h-52q-10 67 -45 100q-36 31 -98 31q-72 0 -110 -57q-37 -55 -37 -168q0 -114 37 -169q38 -56 134 -56
q153 1 174 -107z" />
    <glyph glyph-name="sigma" unicode="&#x3c3;" horiz-adv-x="763" 
d="M683 467h-178q77 -75 77 -207q0 -123 -68 -199q-69 -75 -183 -75q-113 0 -182 75t-69 199t68 198q55 61 184 61h351v-52zM477 260q0 102 -37 163q-32 53 -109 53q-74 0 -109 -53q-37 -56 -37 -163q0 -112 37 -168q37 -58 109 -58q71 0 109 57q37 56 37 169z" />
    <glyph glyph-name="tau" unicode="&#x3c4;" horiz-adv-x="634" 
d="M554 467h-192v-325q0 -68 36 -85q27 -12 88 24v-59q-100 -57 -169 2q-46 39 -45 118v325h-141v-78h-51v130h474v-52z" />
    <glyph glyph-name="upsilon" unicode="&#x3c5;" horiz-adv-x="683" 
d="M603 249q0 -55 -21 -101q-21 -48 -60 -84q-35 -33 -82 -50q-48 -18 -98 -17q-81 3 -131 49q-45 40 -45 125v296h-86v52h176v-348q0 -64 20 -93q21 -28 66 -30q60 -1 116 64q44 53 44 145q0 131 -18 160q-34 51 -80 73v29h55q82 -37 111 -95q32 -63 33 -175z" />
    <glyph glyph-name="phi" unicode="&#x3c6;" horiz-adv-x="772" 
d="M592 257q0 107 -18 160q-19 55 -61 56q-37 0 -64 -56q-18 -36 -18 -160v-205q110 11 134 60q27 52 27 145zM692 249q0 -73 -12 -101q-22 -52 -54 -84q-38 -37 -69 -50q-29 -14 -126 -15v-207h-90v207q-97 1 -126 15q-36 17 -69 50q-32 32 -54 84q-12 29 -12 101
q0 111 32 175q29 56 112 95h55v-29q-47 -22 -81 -73q-18 -27 -18 -160q0 -91 27 -145q25 -51 134 -61v206q0 111 22 167q38 96 150 97q98 2 147 -97q32 -62 32 -175z" />
    <glyph glyph-name="chi" unicode="&#x3c7;" horiz-adv-x="732" 
d="M652 466h-64l-185 -343l65 -218q14 -49 30 -60q20 -15 28 -15q29 0 43 14q14 16 17 48h46v-99q-16 -5 -48 -11q-21 -4 -48 -4q-30 0 -64 22q-37 24 -54 83l-51 172l-113 -211h66v-52h-240v52h68l181 339l-65 223q-13 47 -29 60q-20 15 -29 15q-29 0 -43 -14
q-14 -16 -17 -48h-46v99q17 5 49 11q21 4 47 4q30 0 64 -22q37 -24 54 -83l52 -177l116 215h-62v53h232v-53z" />
    <glyph glyph-name="psi" unicode="&#x3c8;" horiz-adv-x="818" 
d="M738 490q-25 -19 -44 -73q-18 -51 -18 -160q0 -79 -11 -109q-19 -50 -54 -84q-38 -37 -69 -50q-45 -18 -87 -17v-205h-90v205q-43 0 -88 17q-35 15 -70 50t-53 84q-10 28 -12 109q0 107 -18 160q-20 56 -44 73v29h50q59 -51 80 -95q30 -61 32 -167q0 -91 26 -145
q33 -65 97 -64v471h90v-471q61 -1 95 64q27 52 27 145q0 112 31 167q26 48 81 95h49v-29z" />
    <glyph glyph-name="omega" unicode="&#x3c9;" horiz-adv-x="883" 
d="M803 249q0 -74 -13 -101q-23 -54 -53 -84q-38 -36 -70 -50q-45 -18 -88 -17q-76 3 -138 98q-62 -95 -138 -98q-43 0 -88 17q-33 14 -69 50q-32 32 -54 84q-12 29 -12 101q0 111 32 175q29 56 112 95h55v-29q-47 -22 -81 -73q-18 -27 -18 -160q0 -93 27 -145
q34 -65 96 -64q33 0 56 30q38 51 37 105v176h90v-176q0 -55 38 -105q23 -29 55 -30q62 -1 97 64q27 52 27 145q0 134 -19 160q-34 51 -80 73v29h55q82 -37 111 -95q32 -63 33 -175z" />
    <glyph glyph-name="uni03D1" unicode="&#x3d1;" horiz-adv-x="804" 
d="M558 406q-4 177 -28 237q-19 45 -37 67t-36 21q-83 0 -83 -148q0 -94 44 -132q52 -45 140 -45zM724 364h-61q-3 -166 -69 -268q-69 -107 -182 -107q-110 0 -181 107q-80 123 -70 371h-81v52h171q6 -300 53 -400q42 -89 108 -89q71 0 109 89q32 78 37 235q-114 0 -181 36
q-94 49 -94 196q0 95 43 141t129 44q89 -2 148 -107q57 -100 60 -258h61v-42z" />
    <glyph glyph-name="uni03D5" unicode="&#x3d5;" horiz-adv-x="765" 
d="M337 37v446q-86 -9 -116 -55q-37 -56 -37 -168q2 -114 38 -169q28 -43 115 -54zM685 260q0 -124 -69 -199q-59 -64 -189 -74v-195h-90v195q-131 11 -189 74q-69 76 -68 199q0 124 68 198q59 64 189 74v228h90v-228q131 -11 189 -74q69 -75 69 -198zM580 260
q0 112 -37 168q-28 44 -116 55v-446q87 11 115 54q36 55 38 169z" />
    <glyph glyph-name="uni03D6" unicode="&#x3d6;" horiz-adv-x="941" 
d="M861 467h-109q23 -19 36 -43q42 -84 43 -175q0 -74 -13 -101q-23 -54 -53 -84q-38 -36 -70 -50q-45 -18 -88 -17q-76 3 -138 98q-62 -95 -138 -98q-43 0 -88 17q-33 14 -69 50q-32 32 -54 84q-12 29 -12 101q0 91 42 175q12 23 37 43h-107v52h781v-52zM731 257
q0 120 -29 160q-18 28 -52 50h-362q-34 -22 -52 -50q-28 -42 -28 -160q0 -93 27 -145q34 -65 96 -64q33 0 56 30q38 51 37 105v176h90v-176q0 -55 38 -105q23 -29 55 -30q62 -1 97 64q27 52 27 145z" />
    <glyph glyph-name="uni03F0" unicode="&#x3f0;" horiz-adv-x="691" 
d="M607 515q8 -18 -2 -43q-19 -49 -79 -101l-44 -44q-51 -128 -43 -204q5 -41 29 -60q20 -15 28 -15q29 0 43 14q14 16 17 48h46v-99q-16 -5 -48 -11q-21 -4 -47 -4q-29 0 -64 23t-55 82q-20 62 -8 154q-10 -10 -30 -19q-47 -22 -72 -47q-30 -65 -49 -89q-116 -152 -148 -85
q-4 7 2 42q11 56 80 111l44 41q48 128 42 197q-5 41 -29 60q-20 15 -29 15q-29 0 -43 -14q-14 -16 -17 -48h-46v99q17 5 49 11q21 4 47 4q30 0 64 -22q37 -24 54 -83q18 -59 7 -146q14 12 25 17q33 17 81 50q13 38 46 80q115 151 149 86z" />
    <glyph glyph-name="uni03F1" unicode="&#x3f1;" horiz-adv-x="635" 
d="M450 260q0 112 -36 162q-42 60 -104 60q-65 0 -104 -54q-36 -50 -36 -143v-51q0 -94 36 -143t104 -49q69 0 105 55q35 56 35 163zM555 260q0 -122 -60 -198q-61 -76 -157 -76q-60 0 -101 23q-42 23 -67 72v-127q0 -47 25 -75q43 -49 109 -19q66 29 127 29q45 0 68 -22
v-75h-46q-4 26 -30 37q-48 20 -117 -17q-41 -22 -65 -22q-58 -2 -115 44q-46 36 -46 120v302q0 122 42 182q46 55 80 72q44 23 107 23q125 0 186 -75q60 -76 60 -198z" />
    <glyph glyph-name="uni03F4" unicode="&#x3f4;" horiz-adv-x="868" 
d="M788 364q0 -86 -27 -158q-28 -71 -81 -124q-49 -49 -110 -72q-60 -24 -136 -24q-74 0 -136 24q-64 26 -110 72q-55 55 -82 124q-26 70 -26 158q0 86 26 158q27 69 82 124q49 49 110 72q60 24 136 24q160 0 256 -104q98 -102 98 -274zM676 364v1h-484v-1q0 -161 61 -244
q62 -82 181 -82t181 82q61 83 61 244zM674 425q-11 119 -59 183q-61 82 -181 82q-119 0 -181 -82q-48 -66 -59 -183h480z" />
    <glyph glyph-name="uni03F5" unicode="&#x3f5;" horiz-adv-x="624" 
d="M544 156q-17 -71 -64 -120q-48 -50 -149 -50q-119 0 -185 75t-66 199q2 129 70 200q69 73 181 73q53 0 103 -11q46 -12 93 -35v-133h-52q-8 68 -43 99q-37 32 -100 32q-145 0 -146 -190h231v-51h-232q5 -210 147 -210q115 1 140 122h72z" />
    <glyph glyph-name="bahtthai" unicode="&#xe3f;" horiz-adv-x="779" 
d="M699 211q0 -108 -68 -159q-61 -46 -186 -51l1 -70h-52v69h-314v52h93v625h-93v52h314v69h52v-69q106 -2 160 -45q56 -45 56 -135q0 -65 -39 -103q-37 -39 -113 -48q93 -12 141 -60q48 -47 48 -127zM394 677h-122v-256h122v256zM550 549q0 67 -37 97q-24 21 -67 27v-248
q43 6 67 27q37 30 37 97zM394 369h-122v-317h122v317zM587 211q0 81 -40 121q-34 30 -101 36v-315q67 6 101 37q40 38 40 121z" />
    <glyph glyph-name="Adotbelow" unicode="&#x1ea0;" horiz-adv-x="722" 
d="M732 0h-265v52h81l-61 160h-307l-61 -160h80v-52h-205v52h64l260 677h82l260 -677h72v-52zM468 264l-134 347l-134 -347h268zM418 -134q0 -25 -16 -41t-41 -16t-41 16t-16 41q0 23 17 40t40 17t40 -17t17 -40z" />
    <glyph glyph-name="adotbelow" unicode="&#x1ea1;" horiz-adv-x="596" 
d="M568 0h-170v56q-31 -37 -69 -53q-40 -17 -91 -17q-87 0 -137 46q-51 46 -51 124q0 82 58 125q59 44 164 44h126v36q0 60 -36 91q-36 33 -101 33q-56 0 -85 -25q-32 -24 -40 -72h-46v105q45 19 91 30q41 10 86 10q107 0 165 -53q56 -54 56 -156v-272h80v-52zM398 163v110
h-116q-66 0 -100 -29q-32 -29 -32 -88q0 -54 33 -86q34 -32 90 -32q55 0 91 34q34 37 34 91zM335 -134q0 -25 -16 -41t-41 -16t-41 16t-16 41q0 23 17 40t40 17t40 -17t17 -40z" />
    <glyph glyph-name="Ahookabove" unicode="&#x1ea2;" horiz-adv-x="722" 
d="M470 951q0 -23 -15 -52q-23 -42 -58 -62v-39h-72v55q52 25 66 41q13 13 13 33q0 29 -27 41q-13 6 -33 6q-37 0 -76 -16v64q23 8 69 11q6 1 17 1q90 0 111 -54q5 -15 5 -29zM732 0h-265v52h81l-61 160h-307l-61 -160h80v-52h-205v52h64l260 677h82l260 -677h72v-52z
M468 264l-134 347l-134 -347h268z" />
    <glyph glyph-name="ahookabove" unicode="&#x1ea3;" horiz-adv-x="596" 
d="M387 769q0 -23 -15 -52q-23 -42 -58 -62v-39h-72v55q52 25 66 41q13 13 13 33q0 29 -27 41q-14 6 -33 6q-37 0 -76 -16v64q23 8 69 11q6 1 17 1q90 0 111 -54q5 -15 5 -29zM568 0h-170v56q-31 -37 -69 -53q-40 -17 -91 -17q-87 0 -137 46q-51 46 -51 124q0 82 58 125
q59 44 164 44h126v36q0 60 -36 91q-36 33 -101 33q-56 0 -85 -25q-32 -24 -40 -72h-46v105q45 19 91 30q41 10 86 10q107 0 165 -53q56 -54 56 -156v-272h80v-52zM398 163v110h-116q-66 0 -100 -29q-32 -29 -32 -88q0 -54 33 -86q34 -32 90 -32q55 0 91 34q34 37 34 91z" />
    <glyph glyph-name="Acircumflexacute" unicode="&#x1ea4;" horiz-adv-x="722" 
d="M732 0h-265v52h81l-61 160h-307l-61 -160h80v-52h-205v52h64l260 677h82l260 -677h72v-52zM468 264l-134 347l-134 -347h268zM498 798h-57l-99 79l-99 -79h-57l113 129h86zM647 1028l-128 -129h-57l89 129h96z" />
    <glyph glyph-name="acircumflexacute" unicode="&#x1ea5;" horiz-adv-x="612" 
d="M447 616h-57l-99 79l-99 -79h-57l113 129h86zM596 846l-128 -129h-57l89 129h96zM568 0h-170v56q-31 -37 -69 -53q-40 -17 -91 -17q-87 0 -137 46q-51 46 -51 124q0 82 58 125q59 44 164 44h126v36q0 60 -36 91q-36 33 -101 33q-56 0 -85 -25q-32 -24 -40 -72h-46v105
q45 19 91 30q41 10 86 10q107 0 165 -53q56 -54 56 -156v-272h80v-52zM398 163v110h-116q-66 0 -100 -29q-32 -29 -32 -88q0 -54 33 -86q34 -32 90 -32q55 0 91 34q34 37 34 91z" />
    <glyph glyph-name="Acircumflexgrave" unicode="&#x1ea6;" horiz-adv-x="722" 
d="M732 0h-265v52h81l-61 160h-307l-61 -160h80v-52h-205v52h64l260 677h82l260 -677h72v-52zM468 264l-134 347l-134 -347h268zM540 899h-57l-128 129h96zM498 798h-57l-99 79l-99 -79h-57l113 129h86z" />
    <glyph glyph-name="acircumflexgrave" unicode="&#x1ea7;" horiz-adv-x="612" 
d="M568 0h-170v56q-31 -37 -69 -53q-40 -17 -91 -17q-87 0 -137 46q-51 46 -51 124q0 82 58 125q59 44 164 44h126v36q0 60 -36 91q-36 33 -101 33q-56 0 -85 -25q-32 -24 -40 -72h-46v105q45 19 91 30q41 10 86 10q107 0 165 -53q56 -54 56 -156v-272h80v-52zM398 163v110
h-116q-66 0 -100 -29q-32 -29 -32 -88q0 -54 33 -86q34 -32 90 -32q55 0 91 34q34 37 34 91zM487 717h-57l-128 129h96zM445 616h-57l-99 79l-99 -79h-57l113 129h86z" />
    <glyph glyph-name="Acircumflexhookabove" unicode="&#x1ea8;" horiz-adv-x="722" 
d="M732 0h-265v52h81l-61 160h-307l-61 -160h80v-52h-205v52h64l260 677h82l260 -677h72v-52zM468 264l-134 347l-134 -347h268zM617 1003q0 -23 -15 -52q-23 -42 -58 -62v-39h-72v55q52 25 66 41q13 13 13 33q0 29 -27 41q-14 6 -33 6q-37 0 -76 -16v64q23 8 69 11
q6 1 17 1q90 0 111 -54q5 -15 5 -29zM498 798h-57l-99 79l-99 -79h-57l113 129h86z" />
    <glyph glyph-name="acircumflexhookabove" unicode="&#x1ea9;" horiz-adv-x="612" 
d="M565 821q0 -23 -15 -52q-23 -42 -58 -62v-39h-72v55q52 25 66 41q13 13 13 33q0 29 -27 41q-14 6 -33 6q-37 0 -76 -16v64q23 8 69 11q6 1 17 1q90 0 111 -54q5 -15 5 -29zM446 616h-57l-99 79l-99 -79h-57l113 129h86zM568 0h-170v56q-31 -37 -69 -53q-40 -17 -91 -17
q-87 0 -137 46q-51 46 -51 124q0 82 58 125q59 44 164 44h126v36q0 60 -36 91q-36 33 -101 33q-56 0 -85 -25q-32 -24 -40 -72h-46v105q45 19 91 30q41 10 86 10q107 0 165 -53q56 -54 56 -156v-272h80v-52zM398 163v110h-116q-66 0 -100 -29q-32 -29 -32 -88q0 -54 33 -86
q34 -32 90 -32q55 0 91 34q34 37 34 91z" />
    <glyph glyph-name="Acircumflextilde" unicode="&#x1eaa;" horiz-adv-x="722" 
d="M732 0h-265v52h81l-61 160h-307l-61 -160h80v-52h-205v52h64l260 677h82l260 -677h72v-52zM468 264l-134 347l-134 -347h268zM498 798h-57l-99 79l-99 -79h-57l113 129h86zM505 1057q-2 -52 -26 -79q-25 -28 -71 -28q-34 0 -68 22l-2 1l-24 14q-11 7 -20 9q-9 4 -18 4
q-18 0 -32 -14q-13 -14 -14 -36h-47q2 51 26 78q26 29 66 29q21 0 33 -5q12 -2 42 -19l24 -13q4 -2 22 -10q9 -3 19 -3q20 0 31 13q12 15 12 37h47z" />
    <glyph glyph-name="acircumflextilde" unicode="&#x1eab;" horiz-adv-x="612" 
d="M446 616h-57l-99 79l-99 -79h-57l113 129h86zM453 875q-2 -52 -26 -79q-25 -28 -71 -28q-34 0 -68 22l-2 1l-24 14q-11 7 -20 9q-9 4 -18 4q-18 0 -32 -14q-13 -14 -14 -36h-47q2 51 26 78q26 29 66 29q21 0 33 -5q12 -2 42 -19l24 -13q4 -2 22 -10q9 -3 19 -3
q20 0 31 13q12 15 12 37h47zM568 0h-170v56q-31 -37 -69 -53q-40 -17 -91 -17q-87 0 -137 46q-51 46 -51 124q0 82 58 125q59 44 164 44h126v36q0 60 -36 91q-36 33 -101 33q-56 0 -85 -25q-32 -24 -40 -72h-46v105q45 19 91 30q41 10 86 10q107 0 165 -53q56 -54 56 -156
v-272h80v-52zM398 163v110h-116q-66 0 -100 -29q-32 -29 -32 -88q0 -54 33 -86q34 -32 90 -32q55 0 91 34q34 37 34 91z" />
    <glyph glyph-name="Acircumflexdotbelow" unicode="&#x1eac;" horiz-adv-x="722" 
d="M517 798h-57l-99 127l-99 -127h-57l115 184h82zM418 -134q0 -25 -16 -41t-41 -16t-41 16t-16 41q0 23 17 40t40 17t40 -17t17 -40zM732 0h-265v52h81l-61 160h-307l-61 -160h80v-52h-205v52h64l260 677h82l260 -677h72v-52zM468 264l-134 347l-134 -347h268z" />
    <glyph glyph-name="acircumflexdotbelow" unicode="&#x1ead;" horiz-adv-x="596" 
d="M434 616h-57l-99 127l-99 -127h-57l115 184h82zM335 -134q0 -25 -16 -41t-41 -16t-41 16t-16 41q0 23 17 40t40 17t40 -17t17 -40zM568 0h-170v56q-31 -37 -69 -53q-40 -17 -91 -17q-87 0 -137 46q-51 46 -51 124q0 82 58 125q59 44 164 44h126v36q0 60 -36 91
q-36 33 -101 33q-56 0 -85 -25q-32 -24 -40 -72h-46v105q45 19 91 30q41 10 86 10q107 0 165 -53q56 -54 56 -156v-272h80v-52zM398 163v110h-116q-66 0 -100 -29q-32 -29 -32 -88q0 -54 33 -86q34 -32 90 -32q55 0 91 34q34 37 34 91z" />
    <glyph glyph-name="Abreveacute" unicode="&#x1eae;" horiz-adv-x="722" 
d="M732 0h-265v52h81l-61 160h-307l-61 -160h80v-52h-205v52h64l260 677h82l260 -677h72v-52zM468 264l-134 347l-134 -347h268zM517 910q-10 -57 -49 -88q-39 -30 -103 -30t-103 30t-49 88h46q9 -26 35 -40q25 -13 71 -13t71 13q26 14 35 40h46zM517 1044l-128 -129h-57
l89 129h96z" />
    <glyph glyph-name="abreveacute" unicode="&#x1eaf;" horiz-adv-x="596" 
d="M568 0h-170v56q-31 -37 -69 -53q-40 -17 -91 -17q-87 0 -137 46q-51 46 -51 124q0 82 58 125q59 44 164 44h126v36q0 60 -36 91q-36 33 -101 33q-56 0 -85 -25q-32 -24 -40 -72h-46v105q45 19 91 30q41 10 86 10q107 0 165 -53q56 -54 56 -156v-272h80v-52zM398 163v110
h-116q-66 0 -100 -29q-32 -29 -32 -88q0 -54 33 -86q34 -32 90 -32q55 0 91 34q34 37 34 91zM442 743q-11 -57 -49 -87q-38 -31 -103 -31q-64 0 -103 30t-49 88h46q9 -26 35 -40q25 -13 71 -13t71 13q26 14 35 40h46zM442 877l-128 -129h-57l89 129h96z" />
    <glyph glyph-name="Abrevegrave" unicode="&#x1eb0;" horiz-adv-x="722" 
d="M732 0h-265v52h81l-61 160h-307l-61 -160h80v-52h-205v52h64l260 677h82l260 -677h72v-52zM468 264l-134 347l-134 -347h268zM514 910q-10 -57 -49 -88q-39 -30 -103 -30t-103 30t-49 88h46q9 -26 35 -40q25 -13 71 -13t71 13q26 14 35 40h46zM393 915h-57l-128 129h96z
" />
    <glyph glyph-name="abrevegrave" unicode="&#x1eb1;" horiz-adv-x="596" 
d="M568 0h-170v56q-31 -37 -69 -53q-40 -17 -91 -17q-87 0 -137 46q-51 46 -51 124q0 82 58 125q59 44 164 44h126v36q0 60 -36 91q-36 33 -101 33q-56 0 -85 -25q-32 -24 -40 -72h-46v105q45 19 91 30q41 10 86 10q107 0 165 -53q56 -54 56 -156v-272h80v-52zM398 163v110
h-116q-66 0 -100 -29q-32 -29 -32 -88q0 -54 33 -86q34 -32 90 -32q55 0 91 34q34 37 34 91zM442 743q-11 -57 -49 -87q-38 -31 -103 -31q-64 0 -103 30t-49 88h46q9 -26 35 -40q25 -13 71 -13t71 13q26 14 35 40h46zM321 748h-57l-128 129h96z" />
    <glyph glyph-name="Abrevehookabove" unicode="&#x1eb2;" horiz-adv-x="722" 
d="M732 0h-265v52h81l-61 160h-307l-61 -160h80v-52h-205v52h64l260 677h82l260 -677h72v-52zM468 264l-134 347l-134 -347h268zM462 1027q0 -23 -15 -52q-23 -42 -58 -62v-39h-72v55q52 25 66 41q13 13 13 33q0 29 -27 41q-13 6 -33 6q-37 0 -76 -16v64q23 8 69 11
q6 1 17 1q90 0 111 -54q5 -15 5 -29zM514 910q-10 -57 -49 -88q-39 -30 -103 -30t-103 30t-49 88h46q9 -26 35 -40q25 -13 71 -13t71 13q26 14 35 40h46z" />
    <glyph glyph-name="abrevehookabove" unicode="&#x1eb3;" horiz-adv-x="596" 
d="M568 0h-170v56q-31 -37 -69 -53q-40 -17 -91 -17q-87 0 -137 46q-51 46 -51 124q0 82 58 125q59 44 164 44h126v36q0 60 -36 91q-36 33 -101 33q-56 0 -85 -25q-32 -24 -40 -72h-46v105q45 19 91 30q41 10 86 10q107 0 165 -53q56 -54 56 -156v-272h80v-52zM398 163v110
h-116q-66 0 -100 -29q-32 -29 -32 -88q0 -54 33 -86q34 -32 90 -32q55 0 91 34q34 37 34 91zM390 860q0 -24 -15 -52q-23 -42 -58 -62v-39h-72v55q52 25 66 41q13 13 13 33q0 29 -27 41q-13 6 -33 6q-37 0 -76 -16v64q23 8 69 11q6 1 17 1q90 0 111 -54q5 -15 5 -29z
M442 743q-11 -57 -49 -87q-38 -31 -103 -31q-64 0 -103 30t-49 88h46q9 -26 35 -40q25 -13 71 -13t71 13q26 14 35 40h46z" />
    <glyph glyph-name="Abrevetilde" unicode="&#x1eb4;" horiz-adv-x="722" 
d="M732 0h-265v52h81l-61 160h-307l-61 -160h80v-52h-205v52h64l260 677h82l260 -677h72v-52zM468 264l-134 347l-134 -347h268zM514 910q-10 -57 -49 -88q-39 -30 -103 -30t-103 30t-49 88h46q9 -26 35 -40q25 -13 71 -13t71 13q26 14 35 40h46zM525 1044q-2 -52 -26 -79
q-25 -28 -71 -28q-34 0 -68 22l-2 1l-24 14q-10 6 -20 10q-10 3 -18 3q-18 0 -32 -14q-13 -14 -14 -36h-47q2 51 26 78q26 29 66 29q13 0 33 -4q21 -9 42 -20l24 -13q11 -6 22 -9q8 -4 19 -4q21 0 31 14q12 14 12 36h47z" />
    <glyph glyph-name="abrevetilde" unicode="&#x1eb5;" horiz-adv-x="596" 
d="M568 0h-170v56q-31 -37 -69 -53q-40 -17 -91 -17q-87 0 -137 46q-51 46 -51 124q0 82 58 125q59 44 164 44h126v36q0 60 -36 91q-36 33 -101 33q-56 0 -85 -25q-32 -24 -40 -72h-46v105q45 19 91 30q41 10 86 10q107 0 165 -53q56 -54 56 -156v-272h80v-52zM398 163v110
h-116q-66 0 -100 -29q-32 -29 -32 -88q0 -54 33 -86q34 -32 90 -32q55 0 91 34q34 37 34 91zM442 743q-11 -57 -49 -87q-38 -31 -103 -31q-64 0 -103 30t-49 88h46q9 -26 35 -40q25 -13 71 -13t71 13q26 14 35 40h46zM453 877q-2 -52 -26 -79q-25 -28 -71 -28q-34 0 -68 22
l-2 1l-24 14q-11 7 -20 9q-9 4 -18 4q-18 0 -32 -14q-13 -14 -14 -36h-47q2 51 26 78q26 29 66 29q21 0 33 -5q12 -2 42 -19l24 -13q4 -2 22 -10q9 -3 19 -3q20 0 31 13q12 15 12 37h47z" />
    <glyph glyph-name="Abrevedotbelow" unicode="&#x1eb6;" horiz-adv-x="722" 
d="M514 967q-4 -70 -44 -105q-38 -35 -109 -35t-109 35q-40 35 -44 105h47q6 -39 31 -56q28 -17 75 -17q48 0 75 18q25 17 31 55h47zM418 -134q0 -25 -16 -41t-41 -16t-41 16t-16 41q0 23 17 40t40 17t40 -17t17 -40zM732 0h-265v52h81l-61 160h-307l-61 -160h80v-52h-205
v52h64l260 677h82l260 -677h72v-52zM468 264l-134 347l-134 -347h268z" />
    <glyph glyph-name="abrevedotbelow" unicode="&#x1eb7;" horiz-adv-x="596" 
d="M431 785q-4 -70 -43 -105q-40 -35 -110 -35t-110 35q-39 35 -43 105h47q6 -40 32 -56q26 -17 74 -17q50 0 74 18q26 16 32 55h47zM335 -134q0 -25 -16 -41t-41 -16t-41 16t-16 41q0 23 17 40t40 17t40 -17t17 -40zM568 0h-170v56q-31 -37 -69 -53q-40 -17 -91 -17
q-87 0 -137 46q-51 46 -51 124q0 82 58 125q59 44 164 44h126v36q0 60 -36 91q-36 33 -101 33q-56 0 -85 -25q-32 -24 -40 -72h-46v105q45 19 91 30q41 10 86 10q107 0 165 -53q56 -54 56 -156v-272h80v-52zM398 163v110h-116q-66 0 -100 -29q-32 -29 -32 -88q0 -54 33 -86
q34 -32 90 -32q55 0 91 34q34 37 34 91z" />
    <glyph glyph-name="Edotbelow" unicode="&#x1eb8;" horiz-adv-x="729" 
d="M650 0h-595v52h93v625h-93v52h587v-162h-60v102h-335v-244h239v91h60v-242h-60v91h-239v-305h343v102h60v-162zM422 -134q0 -25 -16 -41t-41 -16t-41 16t-16 41q0 23 17 40t40 17t40 -17t17 -40z" />
    <glyph glyph-name="edotbelow" unicode="&#x1eb9;" horiz-adv-x="591" 
d="M436 302q-3 90 -38 137q-36 46 -102 46q-63 0 -98 -47q-36 -46 -43 -136h281zM542 250h-387v-4q0 -106 39 -158q40 -54 117 -54q60 0 97 31q38 32 53 92h72q-21 -85 -79 -128t-152 -43q-114 0 -183 75t-69 199q0 122 68 198q68 75 178 75q118 0 181 -73q64 -73 65 -210z
M353 -134q0 -25 -16 -41t-41 -16t-41 16t-16 41q0 23 17 40t40 17t40 -17t17 -40z" />
    <glyph glyph-name="Ehookabove" unicode="&#x1eba;" horiz-adv-x="729" 
d="M474 951q0 -23 -15 -52q-23 -42 -58 -62v-39h-72v55q52 25 66 41q13 13 13 33q0 29 -27 41q-13 6 -33 6q-37 0 -76 -16v64q23 8 69 11q6 1 17 1q90 0 111 -54q5 -15 5 -29zM650 0h-595v52h93v625h-93v52h587v-162h-60v102h-335v-244h239v91h60v-242h-60v91h-239v-305h343
v102h60v-162z" />
    <glyph glyph-name="ehookabove" unicode="&#x1ebb;" horiz-adv-x="591" 
d="M405 769q0 -23 -15 -52q-23 -42 -58 -62v-39h-72v55q52 25 66 41q13 13 13 33q0 29 -27 41q-14 6 -33 6q-37 0 -76 -16v64q23 8 69 11q6 1 17 1q90 0 111 -54q5 -15 5 -29zM436 302q-3 90 -38 137q-36 46 -102 46q-63 0 -98 -47q-36 -46 -43 -136h281zM542 250h-387v-4
q0 -106 39 -158q40 -54 117 -54q60 0 97 31q38 32 53 92h72q-21 -85 -79 -128t-152 -43q-114 0 -183 75t-69 199q0 122 68 198q68 75 178 75q118 0 181 -73q64 -73 65 -210z" />
    <glyph glyph-name="Etilde" unicode="&#x1ebc;" horiz-adv-x="729" 
d="M523 927q-2 -52 -26 -79q-25 -28 -71 -28q-34 0 -68 22l-2 1l-24 14q-11 7 -20 9q-9 4 -18 4q-18 0 -32 -14q-13 -14 -14 -36h-47q2 51 26 78q26 29 66 29q21 0 33 -5q12 -2 42 -19l24 -13q4 -2 22 -10q9 -3 19 -3q20 0 31 13q12 15 12 37h47zM650 0h-595v52h93v625h-93
v52h587v-162h-60v102h-335v-244h239v91h60v-242h-60v91h-239v-305h343v102h60v-162z" />
    <glyph glyph-name="etilde" unicode="&#x1ebd;" horiz-adv-x="591" 
d="M436 302q-3 90 -38 137q-36 46 -102 46q-63 0 -98 -47q-36 -46 -43 -136h281zM542 250h-387v-4q0 -106 39 -158q40 -54 117 -54q60 0 97 31q38 32 53 92h72q-21 -85 -79 -128t-152 -43q-114 0 -183 75t-69 199q0 122 68 198q68 75 178 75q118 0 181 -73q64 -73 65 -210z
M454 777q-2 -67 -26 -102q-26 -36 -69 -36q-20 0 -34 7q-18 8 -34 23l-28 27q-12 10 -21 16q-8 3 -17 3q-21 0 -32 -19q-13 -22 -14 -57h-47q2 67 26 102q26 36 69 36q20 0 34 -7q18 -8 34 -23l28 -27q10 -10 20 -15q7 -4 18 -4q21 0 32 19q13 22 14 57h47z" />
    <glyph glyph-name="Ecircumflexacute" unicode="&#x1ebe;" horiz-adv-x="729" 
d="M650 0h-595v52h93v625h-93v52h587v-162h-60v102h-335v-244h239v91h60v-242h-60v91h-239v-305h343v102h60v-162zM521 798h-57l-99 79l-99 -79h-57l113 129h86zM670 1028l-128 -129h-57l89 129h96z" />
    <glyph glyph-name="ecircumflexacute" unicode="&#x1ebf;" horiz-adv-x="615" 
d="M474 616h-57l-99 79l-99 -79h-57l113 129h86zM623 846l-128 -129h-57l89 129h96zM436 302q-3 90 -38 137q-36 46 -102 46q-63 0 -98 -47q-36 -46 -43 -136h281zM542 250h-387v-4q0 -106 39 -158q40 -54 117 -54q60 0 97 31q38 32 53 92h72q-21 -85 -79 -128t-152 -43
q-114 0 -183 75t-69 199q0 122 68 198q68 75 178 75q118 0 181 -73q64 -73 65 -210z" />
    <glyph glyph-name="Ecircumflexgrave" unicode="&#x1ec0;" horiz-adv-x="729" 
d="M650 0h-595v52h93v625h-93v52h587v-162h-60v102h-335v-244h239v91h60v-242h-60v91h-239v-305h343v102h60v-162zM563 899h-57l-128 129h96zM521 798h-57l-99 79l-99 -79h-57l113 129h86z" />
    <glyph glyph-name="ecircumflexgrave" unicode="&#x1ec1;" horiz-adv-x="615" 
d="M517 717h-57l-128 129h96zM475 616h-57l-99 79l-99 -79h-57l113 129h86zM436 302q-3 90 -38 137q-36 46 -102 46q-63 0 -98 -47q-36 -46 -43 -136h281zM542 250h-387v-4q0 -106 39 -158q40 -54 117 -54q60 0 97 31q38 32 53 92h72q-21 -85 -79 -128t-152 -43
q-114 0 -183 75t-69 199q0 122 68 198q68 75 178 75q118 0 181 -73q64 -73 65 -210z" />
    <glyph glyph-name="Ecircumflexhookabove" unicode="&#x1ec2;" horiz-adv-x="729" 
d="M650 0h-595v52h93v625h-93v52h587v-162h-60v102h-335v-244h239v91h60v-242h-60v91h-239v-305h343v102h60v-162zM640 1003q0 -23 -15 -52q-23 -42 -58 -62v-39h-72v55q52 25 66 41q13 13 13 33q0 29 -27 41q-13 6 -33 6q-37 0 -76 -16v64q23 8 69 11q6 1 17 1
q90 0 111 -54q5 -15 5 -29zM521 798h-57l-99 79l-99 -79h-57l113 129h86z" />
    <glyph glyph-name="ecircumflexhookabove" unicode="&#x1ec3;" horiz-adv-x="615" 
d="M436 302q-3 90 -38 137q-36 46 -102 46q-63 0 -98 -47q-36 -46 -43 -136h281zM542 250h-387v-4q0 -106 39 -158q40 -54 117 -54q60 0 97 31q38 32 53 92h72q-21 -85 -79 -128t-152 -43q-114 0 -183 75t-69 199q0 122 68 198q68 75 178 75q118 0 181 -73q64 -73 65 -210z
M594 821q0 -23 -15 -52q-23 -42 -58 -62v-39h-72v55q52 25 66 41q13 13 13 33q0 29 -27 41q-13 6 -33 6q-37 0 -76 -16v64q23 8 69 11q6 1 17 1q90 0 111 -54q5 -15 5 -29zM475 616h-57l-99 79l-99 -79h-57l113 129h86z" />
    <glyph glyph-name="Ecircumflextilde" unicode="&#x1ec4;" horiz-adv-x="729" 
d="M650 0h-595v52h93v625h-93v52h587v-162h-60v102h-335v-244h239v91h60v-242h-60v91h-239v-305h343v102h60v-162zM521 798h-57l-99 79l-99 -79h-57l113 129h86zM528 1057q-2 -52 -26 -79q-25 -28 -71 -28q-34 0 -68 22l-2 1l-24 14q-12 7 -20 9q-9 4 -18 4q-19 0 -31 -14
q-14 -14 -15 -36h-47q2 51 26 78q26 29 66 29q21 0 33 -5q12 -2 42 -19l24 -13q4 -2 11.5 -5.5t9.5 -4.5q12 -3 20 -3q19 0 32 13q11 16 11 37h47z" />
    <glyph glyph-name="ecircumflextilde" unicode="&#x1ec5;" horiz-adv-x="615" 
d="M475 616h-57l-99 79l-99 -79h-57l113 129h86zM482 875q-2 -52 -26 -79q-25 -28 -71 -28q-34 0 -68 22l-2 1l-24 14q-12 7 -20 9q-9 4 -18 4q-19 0 -31 -14q-14 -14 -15 -36h-47q2 51 26 78q26 29 66 29q20 0 33 -5q12 -2 42 -19l24 -13q4 -2 11.5 -5.5t9.5 -4.5
q12 -3 20 -3q19 0 32 13q11 16 11 37h47zM436 302q-3 90 -38 137q-36 46 -102 46q-63 0 -98 -47q-36 -46 -43 -136h281zM542 250h-387v-4q0 -106 39 -158q40 -54 117 -54q60 0 97 31q38 32 53 92h72q-21 -85 -79 -128t-152 -43q-114 0 -183 75t-69 199q0 122 68 198
q68 75 178 75q118 0 181 -73q64 -73 65 -210z" />
    <glyph glyph-name="Ecircumflexdotbelow" unicode="&#x1ec6;" horiz-adv-x="729" 
d="M521 798h-57l-99 79l-99 -79h-57l113 129h86zM422 -134q0 -25 -16 -41t-41 -16t-41 16t-16 41q0 23 17 40t40 17t40 -17t17 -40zM650 0h-595v52h93v625h-93v52h587v-162h-60v102h-335v-244h239v91h60v-242h-60v91h-239v-305h343v102h60v-162z" />
    <glyph glyph-name="ecircumflexdotbelow" unicode="&#x1ec7;" horiz-adv-x="591" 
d="M452 616h-57l-99 127l-99 -127h-57l115 184h82zM353 -134q0 -25 -16 -41t-41 -16t-41 16t-16 41q0 23 17 40t40 17t40 -17t17 -40zM436 302q-3 90 -38 137q-36 46 -102 46q-63 0 -98 -47q-36 -46 -43 -136h281zM542 250h-387v-4q0 -106 39 -158q40 -54 117 -54
q60 0 97 31q38 32 53 92h72q-21 -85 -79 -128t-152 -43q-114 0 -183 75t-69 199q0 122 68 198q68 75 178 75q118 0 181 -73q64 -73 65 -210z" />
    <glyph glyph-name="Ihookabove" unicode="&#x1ec8;" horiz-adv-x="395" 
d="M307 951q0 -23 -15 -52q-23 -42 -58 -62v-39h-72v55q52 25 66 41q13 13 13 33q0 29 -27 41q-14 6 -33 6q-37 0 -76 -16v64q23 8 69 11q6 1 17 1q90 0 111 -54q5 -15 5 -29zM340 0h-285v52h93v625h-93v52h285v-52h-93v-625h93v-52z" />
    <glyph glyph-name="ihookabove" unicode="&#x1ec9;" horiz-adv-x="319" 
d="M264 769q0 -23 -15 -52q-23 -42 -58 -62v-39h-72v55q52 25 66 41q13 13 13 33q0 29 -27 41q-13 6 -33 6q-37 0 -76 -16v64q23 8 69 11q6 1 17 1q90 0 111 -54q5 -15 5 -29zM297 0h-261v52h86v415h-86v52h176v-467h85v-52z" />
    <glyph glyph-name="Idotbelow" unicode="&#x1eca;" horiz-adv-x="395" 
d="M340 0h-285v52h93v625h-93v52h285v-52h-93v-625h93v-52zM255 -134q0 -25 -16 -41t-41 -16t-41 16t-16 41q0 23 17 40t40 17t40 -17t17 -40z" />
    <glyph glyph-name="idotbelow" unicode="&#x1ecb;" horiz-adv-x="319" 
d="M297 0h-261v52h86v415h-86v52h176v-467h85v-52zM208 680q0 -23 -16 -39t-39 -16q-24 0 -39 16q-17 16 -17 39t17 39q15 17 39 17q21 0 39 -16q16 -19 16 -40zM224 -134q0 -25 -16 -41t-41 -16t-41 16t-16 41q0 23 17 40t40 17t40 -17t17 -40z" />
    <glyph glyph-name="Odotbelow" unicode="&#x1ecc;" horiz-adv-x="819" 
d="M764 364q0 -86 -27 -158q-28 -71 -81 -124q-49 -49 -110 -72q-60 -24 -136 -24q-74 0 -136 24q-64 26 -110 72q-55 55 -82 124q-26 70 -26 158q0 86 26 158q27 69 82 124q49 49 110 72q60 24 136 24q160 0 256 -104q98 -102 98 -274zM652 364q0 162 -61 244t-181 82
q-119 0 -181 -82q-61 -83 -61 -244t61 -244q62 -82 181 -82t181 82q61 83 61 244zM467 -134q0 -25 -16 -41t-41 -16t-41 16t-16 41q0 23 17 40t40 17t40 -17t17 -40z" />
    <glyph glyph-name="odotbelow" unicode="&#x1ecd;" 
d="M552 260q0 -123 -68 -199q-69 -75 -183 -75q-113 0 -182 75t-69 199t68 198q69 75 183 75t183 -75q68 -74 68 -198zM447 260q0 112 -37 168q-38 57 -109 57t-109 -57q-37 -56 -37 -168t37 -168q37 -58 109 -58q71 0 109 57q37 56 37 169zM358 -134q0 -25 -16 -41t-41 -16
t-41 16t-16 41q0 23 17 40t40 17t40 -17t17 -40z" />
    <glyph glyph-name="Ohookabove" unicode="&#x1ece;" horiz-adv-x="819" 
d="M519 951q0 -23 -15 -52q-23 -42 -58 -62v-39h-72v55q52 25 66 41q13 13 13 33q0 29 -27 41q-14 6 -33 6q-37 0 -76 -16v64q23 8 69 11q6 1 17 1q90 0 111 -54q5 -15 5 -29zM764 364q0 -86 -27 -158q-28 -71 -81 -124q-49 -49 -110 -72q-60 -24 -136 -24q-74 0 -136 24
q-64 26 -110 72q-55 55 -82 124q-26 70 -26 158q0 86 26 158q27 69 82 124q49 49 110 72q60 24 136 24q160 0 256 -104q98 -102 98 -274zM652 364q0 162 -61 244t-181 82q-119 0 -181 -82q-61 -83 -61 -244t61 -244q62 -82 181 -82t181 82q61 83 61 244z" />
    <glyph glyph-name="ohookabove" unicode="&#x1ecf;" 
d="M410 769q0 -23 -15 -52q-23 -42 -58 -62v-39h-72v55q52 25 66 41q13 13 13 33q0 29 -27 41q-13 6 -33 6q-37 0 -76 -16v64q23 8 69 11q6 1 17 1q90 0 111 -54q5 -15 5 -29zM552 260q0 -123 -68 -199q-69 -75 -183 -75q-113 0 -182 75t-69 199t68 198q69 75 183 75
t183 -75q68 -74 68 -198zM447 260q0 112 -37 168q-38 57 -109 57t-109 -57q-37 -56 -37 -168t37 -168q37 -58 109 -58q71 0 109 57q37 56 37 169z" />
    <glyph glyph-name="Ocircumflexacute" unicode="&#x1ed0;" horiz-adv-x="819" 
d="M764 364q0 -86 -27 -158q-28 -71 -81 -124q-49 -49 -110 -72q-60 -24 -136 -24q-74 0 -136 24q-64 26 -110 72q-55 55 -82 124q-26 70 -26 158q0 86 26 158q27 69 82 124q49 49 110 72q60 24 136 24q160 0 256 -104q98 -102 98 -274zM652 364q0 162 -61 244t-181 82
q-119 0 -181 -82q-61 -83 -61 -244t61 -244q62 -82 181 -82t181 82q61 83 61 244zM566 798h-57l-99 79l-99 -79h-57l113 129h86zM715 1028l-128 -129h-57l89 129h96z" />
    <glyph glyph-name="ocircumflexacute" unicode="&#x1ed1;" horiz-adv-x="611" 
d="M462 616h-57l-99 79l-99 -79h-57l113 129h86zM611 846l-128 -129h-57l89 129h96zM552 260q0 -123 -68 -199q-69 -75 -183 -75q-113 0 -182 75t-69 199t68 198q69 75 183 75t183 -75q68 -74 68 -198zM447 260q0 112 -37 168q-38 57 -109 57t-109 -57q-37 -56 -37 -168
t37 -168q37 -58 109 -58q71 0 109 57q37 56 37 169z" />
    <glyph glyph-name="Ocircumflexgrave" unicode="&#x1ed2;" horiz-adv-x="819" 
d="M764 364q0 -86 -27 -158q-28 -71 -81 -124q-49 -49 -110 -72q-60 -24 -136 -24q-74 0 -136 24q-64 26 -110 72q-55 55 -82 124q-26 70 -26 158q0 86 26 158q27 69 82 124q49 49 110 72q60 24 136 24q160 0 256 -104q98 -102 98 -274zM652 364q0 162 -61 244t-181 82
q-119 0 -181 -82q-61 -83 -61 -244t61 -244q62 -82 181 -82t181 82q61 83 61 244zM608 899h-57l-128 129h96zM566 798h-57l-99 79l-99 -79h-57l113 129h86z" />
    <glyph glyph-name="ocircumflexgrave" unicode="&#x1ed3;" horiz-adv-x="611" 
d="M503 717h-57l-128 129h96zM461 616h-57l-99 79l-99 -79h-57l113 129h86zM552 260q0 -123 -68 -199q-69 -75 -183 -75q-113 0 -182 75t-69 199t68 198q69 75 183 75t183 -75q68 -74 68 -198zM447 260q0 112 -37 168q-38 57 -109 57t-109 -57q-37 -56 -37 -168t37 -168
q37 -58 109 -58q71 0 109 57q37 56 37 169z" />
    <glyph glyph-name="Ocircumflexhookabove" unicode="&#x1ed4;" horiz-adv-x="819" 
d="M764 364q0 -86 -27 -158q-28 -71 -81 -124q-49 -49 -110 -72q-60 -24 -136 -24q-74 0 -136 24q-64 26 -110 72q-55 55 -82 124q-26 70 -26 158q0 86 26 158q27 69 82 124q49 49 110 72q60 24 136 24q160 0 256 -104q98 -102 98 -274zM652 364q0 162 -61 244t-181 82
q-119 0 -181 -82q-61 -83 -61 -244t61 -244q62 -82 181 -82t181 82q61 83 61 244zM685 1003q0 -23 -15 -52q-23 -42 -58 -62v-39h-72v55q52 25 66 41q13 13 13 33q0 29 -27 41q-14 6 -33 6q-37 0 -76 -16v64q23 8 69 11q6 1 17 1q90 0 111 -54q5 -15 5 -29zM566 798h-57
l-99 79l-99 -79h-57l113 129h86z" />
    <glyph glyph-name="ocircumflexhookabove" unicode="&#x1ed5;" horiz-adv-x="611" 
d="M581 821q0 -23 -15 -52q-23 -42 -58 -62v-39h-72v55q52 25 66 41q13 13 13 33q0 29 -27 41q-14 6 -33 6q-37 0 -76 -16v64q23 8 69 11q6 1 17 1q90 0 111 -54q5 -15 5 -29zM462 616h-57l-99 79l-99 -79h-57l113 129h86zM552 260q0 -123 -68 -199q-69 -75 -183 -75
q-113 0 -182 75t-69 199t68 198q69 75 183 75t183 -75q68 -74 68 -198zM447 260q0 112 -37 168q-38 57 -109 57t-109 -57q-37 -56 -37 -168t37 -168q37 -58 109 -58q71 0 109 57q37 56 37 169z" />
    <glyph glyph-name="Ocircumflextilde" unicode="&#x1ed6;" horiz-adv-x="819" 
d="M764 364q0 -86 -27 -158q-28 -71 -81 -124q-49 -49 -110 -72q-60 -24 -136 -24q-74 0 -136 24q-64 26 -110 72q-55 55 -82 124q-26 70 -26 158q0 86 26 158q27 69 82 124q49 49 110 72q60 24 136 24q160 0 256 -104q98 -102 98 -274zM652 364q0 162 -61 244t-181 82
q-119 0 -181 -82q-61 -83 -61 -244t61 -244q62 -82 181 -82t181 82q61 83 61 244zM566 798h-57l-99 79l-99 -79h-57l113 129h86zM573 1057q-2 -52 -26 -79q-25 -28 -71 -28q-34 0 -68 22l-2 1l-24 14q-11 7 -20 9q-9 4 -18 4q-18 0 -32 -14q-13 -14 -14 -36h-47q2 51 26 78
q26 29 66 29q21 0 33 -5q12 -2 42 -19l24 -13q9 -5 22 -10q9 -3 19 -3q20 0 31 13q12 15 12 37h47z" />
    <glyph glyph-name="ocircumflextilde" unicode="&#x1ed7;" horiz-adv-x="611" 
d="M462 616h-57l-99 79l-99 -79h-57l113 129h86zM469 875q-2 -52 -26 -79q-25 -28 -71 -28q-34 0 -68 22l-2 1l-24 14q-11 7 -20 9q-9 4 -18 4q-18 0 -32 -14q-13 -14 -14 -36h-47q2 51 26 78q26 29 66 29q21 0 33 -5q12 -2 42 -19l24 -13q4 -2 22 -10q9 -3 19 -3
q20 0 31 13q12 15 12 37h47zM552 260q0 -123 -68 -199q-69 -75 -183 -75q-113 0 -182 75t-69 199t68 198q69 75 183 75t183 -75q68 -74 68 -198zM447 260q0 112 -37 168q-38 57 -109 57t-109 -57q-37 -56 -37 -168t37 -168q37 -58 109 -58q71 0 109 57q37 56 37 169z" />
    <glyph glyph-name="Ocircumflexdotbelow" unicode="&#x1ed8;" horiz-adv-x="819" 
d="M566 798h-57l-99 79l-99 -79h-57l113 129h86zM467 -134q0 -25 -16 -41t-41 -16t-41 16t-16 41q0 23 17 40t40 17t40 -17t17 -40zM764 364q0 -86 -27 -158q-28 -71 -81 -124q-49 -49 -110 -72q-60 -24 -136 -24q-74 0 -136 24q-64 26 -110 72q-55 55 -82 124
q-26 70 -26 158q0 86 26 158q27 69 82 124q49 49 110 72q60 24 136 24q160 0 256 -104q98 -102 98 -274zM652 364q0 162 -61 244t-181 82q-119 0 -181 -82q-61 -83 -61 -244t61 -244q62 -82 181 -82t181 82q61 83 61 244z" />
    <glyph glyph-name="ocircumflexdotbelow" unicode="&#x1ed9;" 
d="M457 616h-57l-99 127l-99 -127h-57l115 184h82zM358 -134q0 -25 -16 -41t-41 -16t-41 16t-16 41q0 23 17 40t40 17t40 -17t17 -40zM552 260q0 -123 -68 -199q-69 -75 -183 -75q-113 0 -182 75t-69 199t68 198q69 75 183 75t183 -75q68 -74 68 -198zM447 260
q0 112 -37 168q-38 57 -109 57t-109 -57q-37 -56 -37 -168t37 -168q37 -58 109 -58q71 0 109 57q37 56 37 169z" />
    <glyph glyph-name="Ohornacute" unicode="&#x1eda;" horiz-adv-x="819" 
d="M789 694q0 -56 -22 -85q-21 -29 -58 -30q53 -88 53 -215q0 -86 -27 -158q-28 -71 -81 -124q-49 -49 -110 -72q-60 -24 -136 -24q-74 0 -136 24q-64 26 -110 72q-55 55 -82 124q-26 70 -26 158q0 86 26 158q27 69 82 124q49 49 110 72q60 24 136 24q144 0 235 -84
q25 -13 38 -13q23 0 35 16q14 15 14 44q0 13 -3 27q-3 15 -9 29l62 -1q5 -18 6 -34q3 -16 3 -32zM650 364q0 162 -61 244t-181 82q-119 0 -181 -82q-61 -83 -61 -244t61 -244q62 -82 181 -82t181 82q61 83 61 244zM537 927l-128 -129h-57l89 129h96z" />
    <glyph glyph-name="ohornacute" unicode="&#x1edb;" 
d="M646 465q0 -56 -22 -85q-22 -30 -61 -30q-12 0 -24 3q12 -42 12 -93q0 -124 -69 -199q-67 -75 -182 -75q-113 0 -182 75t-69 199t69 198q68 75 182 75q115 0 182 -75q16 -18 25 -32q20 -10 31 -10q23 0 36 16q13 18 13 44q0 14 -3 27q-3 15 -9 29l62 -1q3 -12 7 -34
q2 -22 2 -32zM446 260q0 112 -37 168q-38 57 -109 57t-109 -57q-37 -56 -37 -168t37 -168q37 -58 109 -58t109 57q37 56 37 169zM466 800l-166 -184h-57l126 184h97z" />
    <glyph glyph-name="Ohorngrave" unicode="&#x1edc;" horiz-adv-x="819" 
d="M789 694q0 -56 -22 -85q-21 -29 -58 -30q53 -88 53 -215q0 -86 -27 -158q-28 -71 -81 -124q-49 -49 -110 -72q-60 -24 -136 -24q-74 0 -136 24q-64 26 -110 72q-55 55 -82 124q-26 70 -26 158q0 86 26 158q27 69 82 124q49 49 110 72q60 24 136 24q144 0 235 -84
q25 -13 38 -13q23 0 35 16q14 15 14 44q0 13 -3 27q-3 15 -9 29l62 -1q5 -18 6 -34q3 -16 3 -32zM650 364q0 162 -61 244t-181 82q-119 0 -181 -82q-61 -83 -61 -244t61 -244q62 -82 181 -82t181 82q61 83 61 244zM465 798h-57l-128 129h96z" />
    <glyph glyph-name="ohorngrave" unicode="&#x1edd;" 
d="M646 465q0 -56 -22 -85q-22 -30 -61 -30q-12 0 -24 3q12 -42 12 -93q0 -124 -69 -199q-67 -75 -182 -75q-113 0 -182 75t-69 199t69 198q68 75 182 75q115 0 182 -75q16 -18 25 -32q20 -10 31 -10q23 0 36 16q13 18 13 44q0 14 -3 27q-3 15 -9 29l62 -1q3 -12 7 -34
q2 -22 2 -32zM446 260q0 112 -37 168q-38 57 -109 57t-109 -57q-37 -56 -37 -168t37 -168q37 -58 109 -58t109 57q37 56 37 169zM357 615h-57l-166 184h96z" />
    <glyph glyph-name="Ohornhookabove" unicode="&#x1ede;" horiz-adv-x="819" 
d="M789 694q0 -56 -22 -85q-21 -29 -58 -30q53 -88 53 -215q0 -86 -27 -158q-28 -71 -81 -124q-49 -49 -110 -72q-60 -24 -136 -24q-74 0 -136 24q-64 26 -110 72q-55 55 -82 124q-26 70 -26 158q0 86 26 158q27 69 82 124q49 49 110 72q60 24 136 24q144 0 235 -84
q25 -13 38 -13q23 0 35 16q14 15 14 44q0 13 -3 27q-3 15 -9 29l62 -1q5 -18 6 -34q3 -16 3 -32zM650 364q0 162 -61 244t-181 82q-119 0 -181 -82q-61 -83 -61 -244t61 -244q62 -82 181 -82t181 82q61 83 61 244zM503 951q0 -23 -15 -52q-23 -42 -58 -62v-39h-72v55
q52 25 66 41q13 13 13 33q0 29 -27 41q-14 6 -33 6q-37 0 -76 -16v64q23 8 69 11q6 1 17 1q90 0 111 -54q5 -15 5 -29z" />
    <glyph glyph-name="ohornhookabove" unicode="&#x1edf;" 
d="M646 465q0 -56 -22 -85q-22 -30 -61 -30q-12 0 -24 3q12 -42 12 -93q0 -124 -69 -199q-67 -75 -182 -75q-113 0 -182 75t-69 199t69 198q68 75 182 75q115 0 182 -75q16 -18 25 -32q20 -10 31 -10q23 0 36 16q13 18 13 44q0 14 -3 27q-3 15 -9 29l62 -1q3 -12 7 -34
q2 -22 2 -32zM446 260q0 112 -37 168q-38 57 -109 57t-109 -57q-37 -56 -37 -168t37 -168q37 -58 109 -58t109 57q37 56 37 169zM420 769q0 -23 -15 -52q-23 -42 -58 -62v-39h-72v55q52 25 66 41q13 13 13 33q0 29 -27 41q-13 6 -33 6q-37 0 -76 -16v64q23 8 69 11q6 1 17 1
q90 0 111 -54q5 -15 5 -29z" />
    <glyph glyph-name="Ohorntilde" unicode="&#x1ee0;" horiz-adv-x="819" 
d="M789 694q0 -56 -22 -85q-21 -29 -58 -30q53 -88 53 -215q0 -86 -27 -158q-28 -71 -81 -124q-49 -49 -110 -72q-60 -24 -136 -24q-74 0 -136 24q-64 26 -110 72q-55 55 -82 124q-26 70 -26 158q0 86 26 158q27 69 82 124q49 49 110 72q60 24 136 24q144 0 235 -84
q25 -13 38 -13q23 0 35 16q14 15 14 44q0 13 -3 27q-3 15 -9 29l62 -1q5 -18 6 -34q3 -16 3 -32zM650 364q0 162 -61 244t-181 82q-119 0 -181 -82q-61 -83 -61 -244t61 -244q62 -82 181 -82t181 82q61 83 61 244zM571 921q-2 -52 -26 -79q-25 -28 -71 -28q-34 0 -68 22
l-2 1l-24 14q-12 7 -20 9q-9 4 -18 4q-18 0 -32 -14q-13 -14 -14 -36h-47q2 51 26 78q26 29 66 29q21 0 33 -5q12 -2 42 -19l24 -13q4 -2 22 -10q9 -3 19 -3q20 0 31 13q12 15 12 37h47z" />
    <glyph glyph-name="ohorntilde" unicode="&#x1ee1;" 
d="M646 465q0 -56 -22 -85q-22 -30 -61 -30q-12 0 -24 3q12 -42 12 -93q0 -124 -69 -199q-67 -75 -182 -75q-113 0 -182 75t-69 199t69 198q68 75 182 75q115 0 182 -75q16 -18 25 -32q20 -10 31 -10q23 0 36 16q13 18 13 44q0 14 -3 27q-3 15 -9 29l62 -1q3 -12 7 -34
q2 -22 2 -32zM446 260q0 112 -37 168q-38 57 -109 57t-109 -57q-37 -56 -37 -168t37 -168q37 -58 109 -58t109 57q37 56 37 169zM462 777q-2 -67 -26 -102q-26 -36 -69 -36q-20 0 -35 7q-17 9 -33 23l-28 27q-12 10 -21 16q-8 3 -17 3q-20 0 -33 -19q-12 -23 -13 -57h-47
q2 67 26 102q26 36 69 36q20 0 35 -7q17 -9 33 -23l28 -27q9 -9 19 -15q8 -4 19 -4q20 0 33 19q12 23 13 57h47z" />
    <glyph glyph-name="Ohorndotbelow" unicode="&#x1ee2;" horiz-adv-x="819" 
d="M789 694q0 -56 -22 -85q-21 -29 -58 -30q53 -88 53 -215q0 -86 -27 -158q-28 -71 -81 -124q-49 -49 -110 -72q-60 -24 -136 -24q-74 0 -136 24q-64 26 -110 72q-55 55 -82 124q-26 70 -26 158q0 86 26 158q27 69 82 124q49 49 110 72q60 24 136 24q144 0 235 -84
q25 -13 38 -13q23 0 35 16q14 15 14 44q0 13 -3 27q-3 15 -9 29l62 -1q5 -18 6 -34q3 -16 3 -32zM650 364q0 162 -61 244t-181 82q-119 0 -181 -82q-61 -83 -61 -244t61 -244q62 -82 181 -82t181 82q61 83 61 244zM467 -134q0 -25 -16 -41t-41 -16t-41 16t-16 41q0 23 17 40
t40 17t40 -17t17 -40z" />
    <glyph glyph-name="ohorndotbelow" unicode="&#x1ee3;" 
d="M646 465q0 -56 -22 -85q-22 -30 -61 -30q-12 0 -24 3q12 -42 12 -93q0 -124 -69 -199q-67 -75 -182 -75q-113 0 -182 75t-69 199t69 198q68 75 182 75q115 0 182 -75q16 -18 25 -32q20 -10 31 -10q23 0 36 16q13 18 13 44q0 14 -3 27q-3 15 -9 29l62 -1q3 -12 7 -34
q2 -22 2 -32zM446 260q0 112 -37 168q-38 57 -109 57t-109 -57q-37 -56 -37 -168t37 -168q37 -58 109 -58t109 57q37 56 37 169zM358 -134q0 -25 -16 -41t-41 -16t-41 16t-16 41q0 23 17 40t40 17t40 -17t17 -40z" />
    <glyph glyph-name="Udotbelow" unicode="&#x1ee4;" horiz-adv-x="842" 
d="M798 677h-93v-387q0 -168 -64 -236q-65 -68 -217 -68q-154 0 -218 70q-66 69 -66 234v387h-93v52h285v-52h-93v-377q0 -140 45 -195q46 -55 158 -55t158 55q45 55 45 195v377h-93v52h246v-52zM498 -134q0 -25 -16 -41t-41 -16t-41 16t-16 41q0 23 17 40t40 17t40 -17
t17 -40z" />
    <glyph glyph-name="udotbelow" unicode="&#x1ee5;" horiz-adv-x="644" 
d="M607 0h-175v92q-25 -52 -64 -79q-40 -27 -92 -27q-87 0 -127 49q-41 50 -41 154v278h-81v52h171v-302q0 -95 24 -130q23 -35 82 -35q62 0 95 46q33 47 33 133v236h-78v52h168v-467h85v-52zM372 -134q0 -25 -16 -41t-41 -16t-41 16t-16 41q0 23 17 40t40 17t40 -17t17 -40
z" />
    <glyph glyph-name="Uhookabove" unicode="&#x1ee6;" horiz-adv-x="842" 
d="M550 951q0 -23 -15 -52q-23 -42 -58 -62v-39h-72v55q52 25 66 41q13 13 13 33q0 29 -27 41q-13 6 -33 6q-37 0 -76 -16v64q23 8 69 11q6 1 17 1q90 0 111 -54q5 -15 5 -29zM798 677h-93v-387q0 -168 -64 -236q-65 -68 -217 -68q-154 0 -218 70q-66 69 -66 234v387h-93v52
h285v-52h-93v-377q0 -140 45 -195q46 -55 158 -55t158 55q45 55 45 195v377h-93v52h246v-52z" />
    <glyph glyph-name="uhookabove" unicode="&#x1ee7;" horiz-adv-x="644" 
d="M394 769q0 -23 -15 -52q-23 -42 -58 -62v-39h-72v55q52 25 66 41q13 13 13 33q0 29 -27 41q-13 6 -33 6q-37 0 -76 -16v64q23 8 69 11q6 1 17 1q90 0 111 -54q5 -15 5 -29zM607 0h-175v92q-25 -52 -64 -79q-40 -27 -92 -27q-87 0 -127 49q-41 50 -41 154v278h-81v52h171
v-302q0 -95 24 -130q23 -35 82 -35q62 0 95 46q33 47 33 133v236h-78v52h168v-467h85v-52z" />
    <glyph glyph-name="Uhornacute" unicode="&#x1ee8;" horiz-adv-x="842" 
d="M987 736q0 -56 -22 -85q-22 -30 -61 -30q-23 0 -50 15q-25 14 -59 48v-7h-93v-387q0 -168 -64 -236q-65 -68 -217 -68q-153 0 -219 70q-65 70 -65 234v387h-93v52h285v-52h-93v-377q0 -140 46 -195q45 -55 157 -55t157 55q46 55 46 195v377h-93v52h246h1q60 -42 83 -42
t35 16q14 15 14 44q0 13 -3 27q-3 15 -9 29l62 -1q5 -18 6 -34q3 -17 3 -32zM568 927l-128 -129h-57l89 129h96z" />
    <glyph glyph-name="uhornacute" unicode="&#x1ee9;" horiz-adv-x="644" 
d="M688 465q0 -56 -22 -85q-22 -30 -61 -30q-24 0 -49 14q-21 12 -39 29v-341h85v-52h-175v92q-26 -53 -65 -79q-39 -27 -91 -27q-87 0 -127 49q-41 50 -41 154v278h-81v52h171v-302q0 -95 23 -130q24 -35 83 -35q62 0 95 46q33 47 33 133v236h-78v52h168v-74q44 -29 63 -29
q23 0 36 16q13 18 13 44q0 14 -3 27q-3 15 -9 29l62 -1q3 -12 7 -34q2 -22 2 -32zM450 800l-166 -184h-57l126 184h97z" />
    <glyph glyph-name="Uhorngrave" unicode="&#x1eea;" horiz-adv-x="842" 
d="M987 736q0 -56 -22 -85q-22 -30 -61 -30q-23 0 -50 15q-25 14 -59 48v-7h-93v-387q0 -168 -64 -236q-65 -68 -217 -68q-153 0 -219 70q-65 70 -65 234v387h-93v52h285v-52h-93v-377q0 -140 46 -195q45 -55 157 -55t157 55q46 55 46 195v377h-93v52h246h1q60 -42 83 -42
t35 16q14 15 14 44q0 13 -3 27q-3 15 -9 29l62 -1q5 -18 6 -34q3 -17 3 -32zM496 798h-57l-128 129h96z" />
    <glyph glyph-name="uhorngrave" unicode="&#x1eeb;" horiz-adv-x="644" 
d="M688 465q0 -56 -22 -85q-22 -30 -61 -30q-24 0 -49 14q-21 12 -39 29v-341h85v-52h-175v92q-26 -53 -65 -79q-39 -27 -91 -27q-87 0 -127 49q-41 50 -41 154v278h-81v52h171v-302q0 -95 23 -130q24 -35 83 -35q62 0 95 46q33 47 33 133v236h-78v52h168v-74q44 -29 63 -29
q23 0 36 16q13 18 13 44q0 14 -3 27q-3 15 -9 29l62 -1q3 -12 7 -34q2 -22 2 -32zM341 615h-57l-166 184h96z" />
    <glyph glyph-name="Uhornhookabove" unicode="&#x1eec;" horiz-adv-x="842" 
d="M987 736q0 -56 -22 -85q-22 -30 -61 -30q-23 0 -50 15q-25 14 -59 48v-7h-93v-387q0 -168 -64 -236q-65 -68 -217 -68q-153 0 -219 70q-65 70 -65 234v387h-93v52h285v-52h-93v-377q0 -140 46 -195q45 -55 157 -55t157 55q46 55 46 195v377h-93v52h246h1q60 -42 83 -42
t35 16q14 15 14 44q0 13 -3 27q-3 15 -9 29l62 -1q5 -18 6 -34q3 -17 3 -32zM550 951q0 -23 -15 -52q-23 -42 -58 -62v-39h-72v55q52 25 66 41q13 13 13 33q0 29 -27 41q-13 6 -33 6q-37 0 -76 -16v64q23 8 69 11q6 1 17 1q90 0 111 -54q5 -15 5 -29z" />
    <glyph glyph-name="uhornhookabove" unicode="&#x1eed;" horiz-adv-x="644" 
d="M688 465q0 -56 -22 -85q-22 -30 -61 -30q-24 0 -49 14q-21 12 -39 29v-341h85v-52h-175v92q-26 -53 -65 -79q-39 -27 -91 -27q-87 0 -127 49q-41 50 -41 154v278h-81v52h171v-302q0 -95 23 -130q24 -35 83 -35q62 0 95 46q33 47 33 133v236h-78v52h168v-74q44 -29 63 -29
q23 0 36 16q13 18 13 44q0 14 -3 27q-3 15 -9 29l62 -1q3 -12 7 -34q2 -22 2 -32zM394 769q0 -23 -15 -52q-23 -42 -58 -62v-39h-72v55q52 25 66 41q13 13 13 33q0 29 -27 41q-13 6 -33 6q-37 0 -76 -16v64q23 8 69 11q6 1 17 1q90 0 111 -54q5 -15 5 -29z" />
    <glyph glyph-name="Uhorntilde" unicode="&#x1eee;" horiz-adv-x="842" 
d="M987 736q0 -56 -22 -85q-22 -30 -61 -30q-23 0 -50 15q-25 14 -59 48v-7h-93v-387q0 -168 -64 -236q-65 -68 -217 -68q-153 0 -219 70q-65 70 -65 234v387h-93v52h285v-52h-93v-377q0 -140 46 -195q45 -55 157 -55t157 55q46 55 46 195v377h-93v52h246h1q60 -42 83 -42
t35 16q14 15 14 44q0 13 -3 27q-3 15 -9 29l62 -1q5 -18 6 -34q3 -17 3 -32zM602 921q-2 -52 -26 -79q-25 -28 -71 -28q-34 0 -68 22l-2 1l-24 14q-11 7 -20 9q-9 4 -18 4q-19 0 -31 -14q-14 -14 -15 -36h-47q2 51 26 78q26 29 66 29q20 0 33 -5q12 -2 42 -19l24 -13
q4 -2 11.5 -5.5t9.5 -4.5q12 -3 20 -3q19 0 32 13q11 16 11 37h47z" />
    <glyph glyph-name="uhorntilde" unicode="&#x1eef;" horiz-adv-x="644" 
d="M688 465q0 -56 -22 -85q-22 -30 -61 -30q-24 0 -49 14q-21 12 -39 29v-341h85v-52h-175v92q-26 -53 -65 -79q-39 -27 -91 -27q-87 0 -127 49q-41 50 -41 154v278h-81v52h171v-302q0 -95 23 -130q24 -35 83 -35q62 0 95 46q33 47 33 133v236h-78v52h168v-74q44 -29 63 -29
q23 0 36 16q13 18 13 44q0 14 -3 27q-3 15 -9 29l62 -1q3 -12 7 -34q2 -22 2 -32zM446 777q-2 -67 -26 -102q-26 -36 -69 -36q-20 0 -35 7q-17 9 -33 23l-28 27q-12 10 -21 16q-8 3 -17 3q-20 0 -33 -19q-12 -23 -13 -57h-47q2 67 26 102q26 36 69 36q20 0 35 -7
q17 -9 33 -23l28 -27q9 -9 19 -15q8 -4 19 -4q20 0 33 19q12 23 13 57h47z" />
    <glyph glyph-name="Uhorndotbelow" unicode="&#x1ef0;" horiz-adv-x="842" 
d="M987 736q0 -56 -22 -85q-22 -30 -61 -30q-23 0 -50 15q-25 14 -59 48v-7h-93v-387q0 -168 -64 -236q-65 -68 -217 -68q-153 0 -219 70q-65 70 -65 234v387h-93v52h285v-52h-93v-377q0 -140 46 -195q45 -55 157 -55t157 55q46 55 46 195v377h-93v52h246h1q60 -42 83 -42
t35 16q14 15 14 44q0 13 -3 27q-3 15 -9 29l62 -1q5 -18 6 -34q3 -17 3 -32zM498 -134q0 -25 -16 -41t-41 -16t-41 16t-16 41q0 23 17 40t40 17t40 -17t17 -40z" />
    <glyph glyph-name="uhorndotbelow" unicode="&#x1ef1;" horiz-adv-x="644" 
d="M688 465q0 -56 -22 -85q-22 -30 -61 -30q-24 0 -49 14q-21 12 -39 29v-341h85v-52h-175v92q-26 -53 -65 -79q-39 -27 -91 -27q-87 0 -127 49q-41 50 -41 154v278h-81v52h171v-302q0 -95 23 -130q24 -35 83 -35q62 0 95 46q33 47 33 133v236h-78v52h168v-74q44 -29 63 -29
q23 0 36 16q13 18 13 44q0 14 -3 27q-3 15 -9 29l62 -1q3 -12 7 -34q2 -22 2 -32zM372 -134q0 -25 -16 -41t-41 -16t-41 16t-16 41q0 23 17 40t40 17t40 -17t17 -40z" />
    <glyph glyph-name="Ygrave" unicode="&#x1ef2;" horiz-adv-x="660" 
d="M384 802h-57l-128 129h96zM669 677h-69l-219 -354v-271h93v-52h-285v52h93v262l-225 363h-68v52h271v-52h-85l182 -295l182 295h-82v52h212v-52z" />
    <glyph glyph-name="ygrave" unicode="&#x1ef3;" horiz-adv-x="564" 
d="M562 467h-58l-238 -584q-23 -60 -54 -83q-29 -22 -84 -22q-26 0 -47 4q-32 6 -49 11v99h46q3 -32 17 -48q14 -14 43 -14q26 0 44 15q17 17 34 60l34 86l-194 476h-59v52h239v-52h-83l146 -357l146 357h-78v52h195v-52zM308 593h-57l-166 184h96z" />
    <glyph glyph-name="Ydotbelow" unicode="&#x1ef4;" horiz-adv-x="660" 
d="M669 677h-69l-219 -354v-271h93v-52h-285v52h93v262l-225 363h-68v52h271v-52h-85l182 -295l182 295h-82v52h212v-52zM386 -134q0 -25 -16 -41t-41 -16t-41 16t-16 41q0 23 17 40t40 17t40 -17t17 -40z" />
    <glyph glyph-name="ydotbelow" unicode="&#x1ef5;" horiz-adv-x="564" 
d="M562 467h-58l-238 -584q-23 -60 -54 -83q-29 -22 -84 -22q-26 0 -47 4q-32 6 -49 11v99h46q3 -32 17 -48q14 -14 43 -14q26 0 44 15q17 17 34 60l34 86l-194 476h-59v52h239v-52h-83l146 -357l146 357h-78v52h195v-52zM483 -134q0 -25 -16 -41t-41 -16t-41 16t-16 41
q0 23 17 40t40 17t40 -17t17 -40z" />
    <glyph glyph-name="Yhookabove" unicode="&#x1ef6;" horiz-adv-x="660" 
d="M669 677h-69l-219 -354v-271h93v-52h-285v52h93v262l-225 363h-68v52h271v-52h-85l182 -295l182 295h-82v52h212v-52zM438 955q0 -23 -15 -52q-23 -42 -58 -62v-39h-72v55q52 25 66 41q13 13 13 33q0 29 -27 41q-13 6 -33 6q-37 0 -76 -16v64q23 8 69 11q6 1 17 1
q90 0 111 -54q5 -15 5 -29z" />
    <glyph glyph-name="yhookabove" unicode="&#x1ef7;" horiz-adv-x="564" 
d="M562 467h-58l-238 -584q-23 -60 -54 -83q-29 -22 -84 -22q-26 0 -47 4q-32 6 -49 11v99h46q3 -32 17 -48q14 -14 43 -14q26 0 44 15q17 17 34 60l34 86l-194 476h-59v52h239v-52h-83l146 -357l146 357h-78v52h195v-52zM388 769q0 -23 -15 -52q-23 -42 -58 -62v-39h-72v55
q52 25 66 41q13 13 13 33q0 29 -27 41q-13 6 -33 6q-37 0 -76 -16v64q23 8 69 11q6 1 17 1q90 0 111 -54q5 -15 5 -29z" />
    <glyph glyph-name="Ytilde" unicode="&#x1ef8;" horiz-adv-x="660" 
d="M669 677h-69l-219 -354v-271h93v-52h-285v52h93v262l-225 363h-68v52h271v-52h-85l182 -295l182 295h-82v52h212v-52zM485 927q-2 -52 -26 -79q-25 -28 -71 -28q-34 0 -68 22l-2 1l-24 14q-12 7 -20 9q-9 4 -18 4q-18 0 -32 -14q-13 -14 -14 -36h-47q2 51 26 78
q26 29 66 29q21 0 33 -5q12 -2 42 -19l24 -13q4 -2 22 -10q9 -3 19 -3q20 0 31 13q12 15 12 37h47z" />
    <glyph glyph-name="ytilde" unicode="&#x1ef9;" horiz-adv-x="564" 
d="M562 467h-58l-238 -584q-23 -60 -54 -83q-29 -22 -84 -22q-26 0 -47 4q-32 6 -49 11v99h46q3 -32 17 -48q14 -14 43 -14q26 0 44 15q17 17 34 60l34 86l-194 476h-59v52h239v-52h-83l146 -357l146 357h-78v52h195v-52zM437 777q-2 -67 -26 -102q-25 -36 -69 -36
q-20 0 -34 7q-18 8 -34 23l-28 27q-12 10 -21 16q-7 3 -17 3q-21 0 -32 -19q-13 -22 -14 -57h-47q2 67 26 102q25 36 69 36q20 0 34 -7q18 -8 34 -23l28 -27q10 -10 20 -15q7 -4 18 -4q21 0 32 19q13 22 14 57h47z" />
    <glyph glyph-name="uni2000" unicode="&#x2000;" horiz-adv-x="500" 
 />
    <glyph glyph-name="uni2001" unicode="&#x2001;" horiz-adv-x="1000" 
 />
    <glyph glyph-name="uni2002" unicode="&#x2002;" horiz-adv-x="500" 
 />
    <glyph glyph-name="uni2003" unicode="&#x2003;" horiz-adv-x="1000" 
 />
    <glyph glyph-name="uni2004" unicode="&#x2004;" horiz-adv-x="333" 
 />
    <glyph glyph-name="uni2005" unicode="&#x2005;" horiz-adv-x="250" 
 />
    <glyph glyph-name="uni2006" unicode="&#x2006;" horiz-adv-x="167" 
 />
    <glyph glyph-name="uni2007" unicode="&#x2007;" horiz-adv-x="636" 
 />
    <glyph glyph-name="uni2008" unicode="&#x2008;" horiz-adv-x="250" 
 />
    <glyph glyph-name="uni2009" unicode="&#x2009;" horiz-adv-x="200" 
 />
    <glyph glyph-name="uni200A" unicode="&#x200a;" horiz-adv-x="100" 
 />
    <glyph glyph-name="uni200B" unicode="&#x200b;" horiz-adv-x="0" 
 />
    <glyph glyph-name="uni200C" unicode="&#x200c;" horiz-adv-x="0" 
 />
    <glyph glyph-name="uni200D" unicode="&#x200d;" horiz-adv-x="0" 
 />
    <glyph glyph-name="hyphentwo" unicode="&#x2010;" horiz-adv-x="337" 
d="M294 230h-250v76h250v-76z" />
    <glyph glyph-name="figuredash" unicode="&#x2012;" horiz-adv-x="724" 
d="M644 325h-564v80h564v-80z" />
    <glyph glyph-name="endash" unicode="&#x2013;" horiz-adv-x="500" 
d="M456 232h-412v64h412v-64z" />
    <glyph glyph-name="emdash" unicode="&#x2014;" horiz-adv-x="1000" 
d="M956 232h-912v64h912v-64z" />
    <glyph glyph-name="uni2015" unicode="&#x2015;" horiz-adv-x="1160" 
d="M1080 235h-1000v80h1000v-80z" />
    <glyph glyph-name="dblverticalbar" unicode="&#x2016;" horiz-adv-x="408" 
d="M144 -147h-64v844h64v-844zM328 -147h-64v844h64v-844z" />
    <glyph glyph-name="uni2017" unicode="&#x2017;" horiz-adv-x="536" 
d="M456 -144h-376v64h376v-64zM456 -288h-376v64h376v-64z" />
    <glyph glyph-name="quoteleft" unicode="&#x2018;" horiz-adv-x="317" 
d="M268 703q-38 -32 -54 -73q-17 -38 -17 -104v-31h-95q0 86 31 144q33 61 97 103z" />
    <glyph glyph-name="quoteright" unicode="&#x2019;" horiz-adv-x="317" 
d="M238 729q0 -85 -31 -143q-32 -62 -98 -104l-38 39q39 33 55 73q17 43 17 105v30h95z" />
    <glyph glyph-name="quotesinglbase" unicode="&#x201a;" horiz-adv-x="317" 
d="M229 111q-5 -83 -39 -143q-36 -60 -107 -104l-39 39q45 34 68 79q21 46 21 111v18h96z" />
    <glyph glyph-name="quotedblleft" unicode="&#x201c;" horiz-adv-x="511" 
d="M268 703q-38 -32 -54 -73q-17 -38 -17 -104v-31h-95q0 86 31 144q33 61 97 103zM461 703q-38 -32 -54 -73q-17 -42 -17 -104v-31h-95q2 87 31 144q31 60 97 103z" />
    <glyph glyph-name="quotedblright" unicode="&#x201d;" horiz-adv-x="511" 
d="M431 729q0 -86 -31 -144q-33 -61 -97 -103l-38 39q38 32 54 73q17 42 17 104v31h95zM238 729q0 -85 -31 -143q-32 -62 -98 -104l-38 39q39 33 55 73q17 43 17 105v30h95z" />
    <glyph glyph-name="quotedblbase" unicode="&#x201e;" horiz-adv-x="518" 
d="M422 111q-3 -82 -38 -143q-36 -61 -108 -104l-39 39q46 34 67 79q22 45 22 111v18h96zM229 111q-5 -83 -39 -143q-36 -60 -107 -104l-39 39q45 34 68 79q21 46 21 111v18h96z" />
    <glyph glyph-name="dagger" unicode="&#x2020;" horiz-adv-x="500" 
d="M472 446l-195 14l17 -556h-88l17 556l-195 -14v81l195 -14l-17 216h88l-17 -216l195 14v-81z" />
    <glyph glyph-name="daggerdbl" unicode="&#x2021;" horiz-adv-x="500" 
d="M472 106l-195 14l17 -216h-88l17 216l-195 -14v81l195 -14l-17 143l17 144l-195 -14v81l195 -14l-17 216h88l-17 -216l195 14v-81l-195 14l17 -144l-17 -143l195 14v-81z" />
    <glyph glyph-name="bullet" unicode="&#x2022;" horiz-adv-x="440" 
d="M360 275q0 -58 -41 -99t-99 -41t-99 41t-41 99t41 99t99 41t99 -41t41 -99z" />
    <glyph glyph-name="ellipsis" unicode="&#x2026;" horiz-adv-x="910" 
d="M210 65q0 -27 -19 -46t-46 -19t-46 19t-19 46t19 46t46 19t46 -19t19 -46zM520 65q0 -27 -19 -46t-46 -19t-46 19t-19 46t19 46t46 19t46 -19t19 -46zM830 65q0 -27 -19 -46t-46 -19t-46 19t-19 46t19 46t46 19t46 -19t19 -46z" />
    <glyph glyph-name="uni202F" unicode="&#x202f;" horiz-adv-x="200" 
 />
    <glyph glyph-name="perthousand" unicode="&#x2030;" horiz-adv-x="1341" 
d="M392 544q0 -93 -46 -146q-45 -53 -123 -53t-123 53q-45 54 -45 146t45 144q46 54 123 54t123 -54q46 -52 46 -144zM740 742l-456 -756h-74l456 756h74zM895 184q0 -92 -45 -144q-46 -54 -123 -54q-78 0 -123 54q-46 52 -46 144q0 93 46 146q45 53 123 53q77 0 123 -54
q45 -54 45 -145zM817 184q0 72 -23 113q-24 41 -66 41h-1q-42 0 -67 -40q-24 -42 -24 -114q0 -73 24 -112q25 -41 67 -41q43 0 66 41q24 39 24 112zM314 543q0 73 -24 113q-24 41 -66 41q-44 0 -67 -41q-24 -39 -24 -113q0 -72 25 -112q24 -41 66 -41q41 0 66 40
q24 42 24 113zM1209 184q0 72 -24 114q-24 41 -66 41q-41 0 -67 -41q-24 -40 -24 -114q0 -73 24 -112q25 -41 67 -41q43 0 66 41q24 39 24 112zM1287 184q0 -92 -45 -144q-46 -54 -123 -54q-78 0 -123 54q-46 52 -46 144q0 93 46 146q45 53 123 53q77 0 123 -54
q45 -54 45 -145z" />
    <glyph glyph-name="permyriad" unicode="&#x2031;" horiz-adv-x="1733" 
d="M392 544q0 -93 -46 -146q-45 -53 -122 -53t-124 53q-45 54 -45 146t45 144q46 54 123 54t123 -54q46 -52 46 -144zM740 742l-456 -756h-74l456 756h74zM895 184q0 -92 -45 -144q-46 -54 -123 -54q-78 0 -123 54q-46 52 -46 144q0 93 46 146q45 53 123 53q77 0 123 -54
q45 -54 45 -145zM817 184q0 72 -23 113q-24 41 -66 41h-1q-42 0 -67 -40q-24 -42 -24 -114q0 -73 24 -112q25 -41 67 -41q43 0 66 41q24 39 24 112zM314 543q0 73 -24 113q-24 41 -66 41q-44 0 -67 -41q-24 -39 -24 -113q0 -72 25 -112q24 -41 66 -41q41 0 66 40
q24 42 24 113zM1209 184q0 72 -24 114q-24 41 -66 41q-41 0 -67 -41q-24 -40 -24 -114q0 -73 24 -112q25 -41 67 -41q43 0 66 41q24 39 24 112zM1287 184q0 -92 -45 -144q-46 -54 -123 -54q-78 0 -123 54q-46 52 -46 144q0 93 46 146q45 53 123 53q77 0 123 -54
q45 -54 45 -145zM1601 184q0 72 -24 114q-24 41 -66 41q-41 0 -67 -41q-24 -40 -24 -114q0 -73 24 -112q25 -41 67 -41q43 0 66 41q24 39 24 112zM1679 184q0 -92 -45 -144q-46 -54 -123 -54q-78 0 -123 54q-46 52 -46 144q0 93 46 146q45 53 123 53q77 0 123 -54
q45 -54 45 -145z" />
    <glyph glyph-name="minute" unicode="&#x2032;" horiz-adv-x="303" 
d="M243 749l-136 -230h-47l94 230h89z" />
    <glyph glyph-name="uni2033" unicode="&#x2033;" horiz-adv-x="463" 
d="M243 749l-136 -230h-47l94 230h89zM403 749l-136 -230h-47l94 230h89z" />
    <glyph glyph-name="uni2034" unicode="&#x2034;" horiz-adv-x="623" 
d="M243 749l-136 -230h-47l94 230h89zM403 749l-136 -230h-47l94 230h89zM563 749l-136 -230h-47l94 230h89z" />
    <glyph glyph-name="primereversed" unicode="&#x2035;" horiz-adv-x="303" 
d="M243 519h-47l-136 230h89z" />
    <glyph glyph-name="uni2036" unicode="&#x2036;" horiz-adv-x="463" 
d="M243 519h-47l-136 230h89zM403 519h-47l-136 230h89z" />
    <glyph glyph-name="uni2037" unicode="&#x2037;" horiz-adv-x="623" 
d="M243 519h-47l-136 230h89zM403 519h-47l-136 230h89zM563 519h-47l-136 230h89z" />
    <glyph glyph-name="guilsinglleft" unicode="&#x2039;" horiz-adv-x="399" 
d="M306 69l-229 204v40l229 204v-56l-145 -168l145 -168v-56z" />
    <glyph glyph-name="guilsinglright" unicode="&#x203a;" horiz-adv-x="399" 
d="M323 273l-229 -204v56l145 168l-145 168v56l229 -204v-40z" />
    <glyph glyph-name="referencemark" unicode="&#x203b;" horiz-adv-x="813" 
d="M729 9l-57 -56l-265 265l-266 -265l-57 56l266 266l-266 266l57 56l266 -265l265 265l57 -56l-266 -266zM472 13q0 -27 -19 -46t-46 -19t-46 19t-19 46t19 46t46 19t46 -19t19 -46zM472 537q0 -27 -19 -46t-46 -19t-46 19t-19 46t19 46t46 19t46 -19t19 -46zM210 275
q0 -27 -19 -46t-46 -19t-46 19t-19 46t19 46t46 19t46 -19t19 -46zM733 275q0 -27 -19 -46t-46 -19t-46 19t-19 46t19 46t46 19t46 -19t19 -46z" />
    <glyph glyph-name="uni203D" unicode="&#x203d;" horiz-adv-x="536" 
d="M385 550q0 68 -36 105q-20 23 -48 32l-26 -311q41 20 66 48q44 50 44 126zM306 51q0 -27 -19 -46t-46 -19t-47 18q-18 19 -18 46q0 28 18 47q19 19 47 19q27 0 46 -19t19 -46zM488 549q0 -91 -54 -149q-54 -57 -163 -82v-124h-60v134l-29 349q-12 -6 -21 -15
q-36 -32 -46 -92h-47v127q57 24 98 34q50 11 88 11q109 0 171 -52q63 -52 63 -141z" />
    <glyph glyph-name="fraction" unicode="&#x2044;" horiz-adv-x="452" 
d="M372 697l-226 -844h-66l226 844h66z" />
    <glyph glyph-name="discount" unicode="&#x2052;" horiz-adv-x="449" 
d="M408 729l-259 -822h-78l259 822h78zM418 51q0 -27 -19 -46t-46 -19q-28 0 -47 19q-18 20 -18 46q0 27 18 46q19 19 47 19q27 0 46 -19t19 -46zM205 586q0 -27 -19 -46t-46 -19q-28 0 -46 19q-19 19 -19 46t19 46q18 19 46 19q27 0 46 -19t19 -46z" />
    <glyph glyph-name="uni2057" unicode="&#x2057;" horiz-adv-x="783" 
d="M243 749l-136 -230h-47l94 230h89zM403 749l-136 -230h-47l94 230h89zM563 749l-136 -230h-47l94 230h89zM723 749l-136 -230h-47l94 230h89z" />
    <glyph glyph-name="uni205F" unicode="&#x205f;" horiz-adv-x="222" 
 />
    <glyph glyph-name="uni2060" unicode="&#x2060;" horiz-adv-x="0" 
 />
    <glyph glyph-name="uni2061" unicode="&#x2061;" horiz-adv-x="923" 
d="M135 317h-55v99h55v-99zM135 104h-55v99h55v-99zM191 -123h-111v112h55v-55h56v-57zM404 586h-99v57h99v-57zM618 586h-100v57h100v-57zM843 530h-56v56h-55v57h111v-113zM404 -123h-99v57h99v-57zM618 -123h-100v57h100v-57zM843 317h-56v99h56v-99zM843 104h-56v99h56
v-99zM843 -123h-111v57h55v55h56v-112zM191 586h-56v-56h-55v113h111v-57zM429 487l-11 -58h-33q0 7 0.5 12t0.5 6q0 6 -3 10q-7 5 -16 5q-16 0 -25 -10q-10 -12 -14 -39l-5 -27h58l-7 -40h-58l-36 -204q-7 -42 -31 -64q-23 -21 -70 -21l4 39q24 0 32 9q10 14 13 40l36 201
h-34l7 40h34l5 30q10 43 31 63q24 22 62 22q13 0 27 -3q18 -4 33 -11zM564 33q-70 34 -98 94q-27 60 -27 148t27 148q29 61 98 94v-44q-34 -26 -49 -70q-14 -48 -14 -128t14 -128q15 -44 49 -70v-44zM744 275q0 -91 -28 -148q-29 -61 -97 -94v44q34 26 49 70q14 48 14 128
t-14 128q-15 44 -49 70v44q68 -33 97 -94q28 -59 28 -148z" />
    <glyph glyph-name="uni2062" unicode="&#x2062;" horiz-adv-x="0" 
 />
    <glyph glyph-name="uni2063" unicode="&#x2063;" horiz-adv-x="0" 
 />
    <glyph glyph-name="uni2064" unicode="&#x2064;" horiz-adv-x="0" 
 />
    <glyph glyph-name="colonmonetary" unicode="&#x20a1;" horiz-adv-x="809" 
d="M729 193q-31 -101 -108 -155q-70 -47 -166 -51v-56h-52v56q-55 3 -107 23q-63 27 -108 72q-55 55 -82 124q-26 72 -26 158q0 170 98 274q86 92 225 103v57h52v-56q55 -3 109 -16q64 -14 145 -47v-168h-55q-18 93 -72 135q-47 38 -127 43v-650q65 6 109 38q53 40 75 116
h90zM403 39v650q-97 -9 -151 -82q-60 -83 -60 -243t60 -243q54 -73 151 -82z" />
    <glyph glyph-name="lira" unicode="&#x20a4;" horiz-adv-x="642" 
d="M562 0h-482v52h94v210h-94v52h94v100h-94v52h94v72q0 99 56 152q55 52 164 52q42 0 81 -6q38 -6 76 -18v-120h-51q-4 45 -33 71q-26 25 -74 25q-62 0 -92 -38q-29 -38 -29 -118v-72h201v-52h-201v-100h201v-52h-201v-203h233v111h57v-170z" />
    <glyph glyph-name="uni20A6" unicode="&#x20a6;" horiz-adv-x="660" 
d="M443 317v120h-71l51 -120h20zM625 266h-122v-280h-59l-128 280h-99v-214h98v-52h-256v52h98v214h-112v51h112v120h-117v51h117v189h-98v52h187l104 -241h93v189h-98v52h256v-52h-98v-189h117v-51h-117v-120h122v-51zM288 317l-51 120h-20v-120h71z" />
    <glyph glyph-name="won" unicode="&#x20a9;" horiz-adv-x="1180" 
d="M1100 677h-72l-60 -211h92v-52h-106l-28 -100h134v-52h-149l-74 -262h-80l-74 262h-186l-74 -262h-80l-74 262h-149v52h134l-28 100h-106v52h92l-60 211h-72v52h266v-52h-91l60 -211h184l74 263h79l74 -263h189l59 211h-84v52h210v-52zM857 262h-73l37 -130zM442 262h-70
l35 -124zM900 414h-159l28 -100h103zM485 414h-156l28 -100h99zM669 314l-29 100h-100l-29 -100h158zM626 466l-36 127l-36 -127h72z" />
    <glyph glyph-name="dong" unicode="&#x20ab;" horiz-adv-x="721" 
d="M465 234v51q0 92 -36 143q-37 49 -104 49q-69 0 -105 -55q-35 -55 -35 -162q0 -106 35 -162t105 -56q68 0 104 49t36 143zM641 0h-176v81q-25 -49 -67 -72q-41 -23 -101 -23q-96 0 -157 76q-60 76 -60 198t60 198q61 75 157 75q60 0 101 -23q42 -23 67 -72v161h-159v52
h159v57h-85v52h175v-109h86v-52h-86v-547h86v-52zM641 -186h-543v52h543v-52z" />
    <glyph glyph-name="Euro" unicode="&#x20ac;" horiz-adv-x="636" 
d="M555 193q-21 -100 -77 -153q-57 -54 -141 -54q-91 0 -159 74q-67 74 -89 203h-65v51h60q0 11 -1 19q-1 16 -1 31v28q0 4 0.5 11.5t1.5 11.5h-60v51h65q23 130 89 202q65 74 159 74q47 0 97 -15q49 -15 109 -49v-167h-52q-11 90 -47 135q-37 48 -97 48q-65 0 -107 -58
q-40 -60 -50 -170h246l-23 -51h-226q0 -11 -1 -18q-1 -17 -1 -33q0 -10 1 -21v-29h183l-23 -51h-156q10 -111 51 -171q41 -58 106 -58q56 0 94 41q37 40 49 118h65z" />
    <glyph glyph-name="uni20B1" unicode="&#x20b1;" horiz-adv-x="706" 
d="M512 600q-32 77 -136 77h-129v-77h265zM525 524q0 16 -1 23h-277v-42h277q1 6 1 19zM513 453h-266v-82h129q106 0 137 82zM670 453h-44q-15 -46 -53 -78q-65 -56 -173 -56h-153v-267h113v-52h-305v52h93v401h-42v52h42v42h-42v53h42v77h-93v52h345q109 0 173 -55
q36 -31 52 -74h45v-53h-34q1 -7 1 -23v-19h33v-52z" />
    <glyph glyph-name="uni20B2" unicode="&#x20b2;" horiz-adv-x="824" 
d="M744 61q-64 -37 -140 -57q-75 -18 -160 -18h-21v-55h-52v61q-115 18 -191 97q-100 103 -100 275q0 173 100 276q75 78 191 96v62h52v-57l25 1q59 0 129 -14q63 -14 142 -44v-173h-55q-16 91 -71 135t-151 44h-19v-651q7 -1 21 -1q58 0 106 14q49 12 95 41v188h-137v52
h236v-272zM371 46v636q-76 -17 -117 -73q-62 -82 -62 -245q0 -161 64 -244q44 -56 115 -74z" />
    <glyph glyph-name="uni20D0" unicode="&#x20d0;" horiz-adv-x="0" 
d="M-70 695h-424v24l129 136h24l-57 -96h328v-64z" />
    <glyph glyph-name="uni20D1" unicode="&#x20d1;" horiz-adv-x="0" 
d="M-70 695h-424v64h328l-57 96h24l129 -136v-24z" />
    <glyph glyph-name="uni20D2" unicode="&#x20d2;" horiz-adv-x="0" 
d="M-250 -147h-64v844h64v-844z" />
    <glyph glyph-name="uni20D3" unicode="&#x20d3;" horiz-adv-x="0" 
d="M-242 0h-80v550h80v-550z" />
    <glyph glyph-name="uni20D4" unicode="&#x20d4;" horiz-adv-x="0" 
d="M-51 726l-60 -22q-19 54 -65.5 87t-103.5 33q-66 0 -141 -73l115 -28l-18 -16l-173 -1l-16 18l18 172l17 17l17 -114q98 89 181 89q77 0 140.5 -44.5t88.5 -117.5z" />
    <glyph glyph-name="uni20D5" unicode="&#x20d5;" horiz-adv-x="0" 
d="M-51 724l-16 -18l-173 1l-18 16l115 28q-75 73 -141 73q-57 0 -103.5 -33t-65.5 -87l-60 22q25 73 88.5 117.5t140.5 44.5q83 0 181 -89l17 114l17 -17z" />
    <glyph glyph-name="uni20D6" unicode="&#x20d6;" horiz-adv-x="0" 
d="M-70 695h-336l65 -96h-24l-129 116v24l129 116h24l-65 -96h336v-64z" />
    <glyph glyph-name="uni20D7" unicode="&#x20d7;" horiz-adv-x="0" 
d="M-70 715l-129 -116h-24l65 96h-336v64h336l-65 96h24l129 -116v-24z" />
    <glyph glyph-name="uni20D8" unicode="&#x20d8;" horiz-adv-x="0" 
d="M-112 275q0 -71 -50 -120.5t-120 -49.5t-120 49.5t-50 120.5t50 120.5t120 49.5t120 -49.5t50 -120.5zM-176 275q0 44 -31 75t-75 31t-75 -31t-31 -75t31 -75t75 -31t75 31t31 75z" />
    <glyph glyph-name="uni20DB" unicode="&#x20db;" horiz-adv-x="0" 
d="M-434 706q0 -23 -16.5 -39.5t-39.5 -16.5t-39.5 16.5t-16.5 39.5t16.5 39.5t39.5 16.5t39.5 -16.5t16.5 -39.5zM-226 706q0 -23 -16.5 -39.5t-39.5 -16.5t-39.5 16.5t-16.5 39.5t16.5 39.5t39.5 16.5t39.5 -16.5t16.5 -39.5zM-18 706q0 -23 -16.5 -39.5t-39.5 -16.5
t-39.5 16.5t-16.5 39.5t16.5 39.5t39.5 16.5t39.5 -16.5t16.5 -39.5z" />
    <glyph glyph-name="uni20DC" unicode="&#x20dc;" horiz-adv-x="0" 
d="M-538 706q0 -23 -16.5 -39.5t-39.5 -16.5t-39.5 16.5t-16.5 39.5t16.5 39.5t39.5 16.5t39.5 -16.5t16.5 -39.5zM-330 706q0 -23 -16.5 -39.5t-39.5 -16.5t-39.5 16.5t-16.5 39.5t16.5 39.5t39.5 16.5t39.5 -16.5t16.5 -39.5zM-122 706q0 -23 -16.5 -39.5t-39.5 -16.5
t-39.5 16.5t-16.5 39.5t16.5 39.5t39.5 16.5t39.5 -16.5t16.5 -39.5zM86 706q0 -23 -16.5 -39.5t-39.5 -16.5t-39.5 16.5t-16.5 39.5t16.5 39.5t39.5 16.5t39.5 -16.5t16.5 -39.5z" />
    <glyph glyph-name="uni20DD" unicode="&#x20dd;" horiz-adv-x="0" 
d="M158 275q0 -182 -129 -311t-311 -129t-311 129t-129 311t129 311t311 129t311 -129t129 -311zM78 275q0 149 -105.5 254.5t-254.5 105.5t-254.5 -105.5t-105.5 -254.5t105.5 -254.5t254.5 -105.5t254.5 105.5t105.5 254.5z" />
    <glyph glyph-name="uni20DE" unicode="&#x20de;" horiz-adv-x="0" 
d="M140 697v-844h-844v844h844zM60 -67v684h-684v-684h684z" />
    <glyph glyph-name="uni20DF" unicode="&#x20df;" horiz-adv-x="0" 
d="M345 275l-627 -627l-627 627l627 627zM231 275l-513 514l-514 -514l514 -514z" />
    <glyph glyph-name="uni20E1" unicode="&#x20e1;" horiz-adv-x="0" 
d="M-35 715l-129 -116h-24l65 96h-318l65 -96h-24l-129 116v24l129 116h24l-65 -96h318l-65 96h24l129 -116v-24z" />
    <glyph glyph-name="uni20E4" unicode="&#x20e4;" horiz-adv-x="0" 
d="M315 -222h-1194l597 1034zM176 -142l-458 794l-458 -794h916z" />
    <glyph glyph-name="uni20E5" unicode="&#x20e5;" horiz-adv-x="0" 
d="M-136 -147h-66l-226 844h66z" />
    <glyph glyph-name="uni20E6" unicode="&#x20e6;" horiz-adv-x="0" 
d="M-342 -147h-64v844h64v-844zM-158 -147h-64v844h64v-844z" />
    <glyph glyph-name="uni20E8" unicode="&#x20e8;" horiz-adv-x="0" 
d="M-434 -136q0 -23 -16.5 -39.5t-39.5 -16.5t-39.5 16.5t-16.5 39.5t16.5 39.5t39.5 16.5t39.5 -16.5t16.5 -39.5zM-226 -136q0 -23 -16.5 -39.5t-39.5 -16.5t-39.5 16.5t-16.5 39.5t16.5 39.5t39.5 16.5t39.5 -16.5t16.5 -39.5zM-18 -136q0 -23 -16.5 -39.5t-39.5 -16.5
t-39.5 16.5t-16.5 39.5t16.5 39.5t39.5 16.5t39.5 -16.5t16.5 -39.5z" />
    <glyph glyph-name="uni20E9" unicode="&#x20e9;" horiz-adv-x="0" 
d="M-94 613h-52v118h-271v-118h-52v194h375v-194z" />
    <glyph glyph-name="uni20EA" unicode="&#x20ea;" horiz-adv-x="0" 
d="M134 235h-721l105 -164h-24l-192 192v24l192 192h24l-105 -164h721v-80z" />
    <glyph glyph-name="uni20EB" unicode="&#x20eb;" horiz-adv-x="0" 
d="M-231 697l-226 -844h-66l226 844h66zM-41 697l-226 -844h-66l226 844h66z" />
    <glyph glyph-name="uni20EC" unicode="&#x20ec;" horiz-adv-x="0" 
d="M-70 -200l-129 -136h-24l57 96h-328v64h424v-24z" />
    <glyph glyph-name="uni20ED" unicode="&#x20ed;" horiz-adv-x="0" 
d="M-70 -240h-328l57 -96h-24l-129 136v24h424v-64z" />
    <glyph glyph-name="uni20EE" unicode="&#x20ee;" horiz-adv-x="0" 
d="M-70 -240h-336l65 -96h-24l-129 116v24l129 116h24l-65 -96h336v-64z" />
    <glyph glyph-name="uni20EF" unicode="&#x20ef;" horiz-adv-x="0" 
d="M-70 -220l-129 -116h-24l65 96h-336v64h336l-65 96h24l129 -116v-24z" />
    <glyph glyph-name="uni20F0" unicode="&#x20f0;" horiz-adv-x="0" 
d="M-186 690l-29 -47l-73 46l7 -80h-59l8 80l-73 -46l-29 47l80 34l-80 34l29 47l73 -46l-8 80h59l-7 -80l73 46l29 -47l-80 -34z" />
    <glyph glyph-name="uni2102" unicode="&#x2102;" horiz-adv-x="863" 
d="M297 82l-6 8q-62 94 -61 274q0 181 61 273l6 9q-39 -20 -69 -48q-89 -84 -89 -234q0 -148 89 -234q32 -28 69 -48zM783 208q-28 -112 -103 -168q-75 -54 -201 -54q-185 0 -292 102q-107 101 -107 276t107 276q107 102 292 102q67 0 135 -16q66 -14 149 -47v-179h-62
q-19 92 -69 138q-51 45 -133 45q-106 0 -158 -79q-52 -77 -52 -240t51 -241q52 -78 160 -78q74 0 119 41q46 40 67 122h97z" />
    <glyph glyph-name="centigrade" unicode="&#x2103;" horiz-adv-x="1190" 
d="M390 586q0 -64 -45 -109q-47 -45 -111 -45q-66 0 -110 44t-44 110q0 65 45 110q45 46 110 46q31 0 60 -12q30 -13 50 -34q22 -22 34 -50q11 -30 11 -60zM332 586q0 42 -29 69q-27 29 -68 29q-42 0 -68 -28q-29 -28 -29 -70q0 -41 28 -68q27 -28 69 -28q43 0 68 28
q29 26 29 68zM1110 193q-31 -101 -108 -155q-78 -52 -192 -52q-70 0 -133 24q-63 27 -108 72q-55 55 -82 124q-26 72 -26 158q0 170 98 274t259 104q62 0 127 -16q64 -14 145 -47v-168h-55q-18 93 -72 135q-54 44 -153 44q-117 0 -177 -83t-60 -243t60 -243t177 -83
q81 0 135 39q53 40 75 116h90z" />
    <glyph glyph-name="uni2107" unicode="&#x2107;" horiz-adv-x="588" 
d="M508 35q-59 -27 -99.5 -38t-96.5 -11q-102 0 -167 59.5t-65 165.5q0 80 48 127.5t141 59.5q-73 9 -112.5 52t-39.5 109q0 89 55.5 136t156.5 47q44 0 91 -17.5t74 -48.5l-17 -27q-15 13 -49.5 27t-54.5 14q-144 0 -144 -131q0 -65 38.5 -101.5t95.5 -36.5h34v-52h-56
q-67 0 -108 -39.5t-41 -118.5q0 -82 33 -127.5t86 -45.5q61 0 99.5 35.5t42.5 103.5h55v-142z" />
    <glyph glyph-name="fahrenheit" unicode="&#x2109;" horiz-adv-x="1122" 
d="M390 586q0 -64 -45 -109q-47 -45 -111 -45q-66 0 -110 44t-44 110q0 65 45 110q45 46 110 46q31 0 60 -12q30 -13 50 -34q22 -22 34 -50q11 -30 11 -60zM332 586q0 42 -29 69q-27 29 -68 29q-42 0 -68 -28q-29 -28 -29 -70q0 -41 28 -68q27 -28 69 -28q43 0 68 28
q29 26 29 68zM1054 567h-60v102h-345v-244h249v91h60v-242h-60v91h-249v-313h117v-52h-309v52h93v625h-93v52h597v-162z" />
    <glyph glyph-name="uni210A" unicode="&#x210a;" horiz-adv-x="691" 
d="M611 457q-132 -16 -213.5 -43.5t-120.5 -64.5t-59 -93q-22 -63 -22 -120q0 -104 75 -104q20 0 39.5 7.5t34 17.5t32 31t28 35t26.5 44t23 44.5t23.5 49t21.5 45.5l23 85l78 -8q-15 -51 -47 -197.5t-40 -171.5q-3 -8 -15 -55t-27 -84t-36 -66q-53 -72 -160 -97
q-44 -6 -58 -6q-78 0 -137 34l32 88q100 -58 161 -58q7 0 19.5 2t15.5 2q34 9 49 28q20 26 32.5 60.5t21.5 74t12 49.5q8 23 32 130q-118 -148 -240 -148q-52 0 -79 41t-27 105q0 53 19 115q16 44 35 77t54.5 68.5t83 60.5t122.5 46t172 32z" />
    <glyph glyph-name="uni210B" unicode="&#x210b;" horiz-adv-x="992" 
d="M912 364q-66 -25 -137 -43q-33 -161 -55 -320l-90 -2l54 305q-73 -10 -146 -10q-80 0 -168 10q-46 -206 -59 -303l-90 -2q14 94 65 314q-104 12 -148 12l-10 68q54 -1 172 -20l9 41q13 59 34 140t28 114t-1 33q-39 0 -72.5 -10.5t-66.5 -36.5t-51 -43.5t-54 -55.5l-46 30
q82 88 163 135t187 47q10 0 10 -46q0 -103 -37 -273l-20 -88q101 -14 184 -14q71 0 128 9l13 59l74 323l84 -6l-64 -283l-16 -75q63 18 100 33z" />
    <glyph glyph-name="uni210C" unicode="&#x210c;" horiz-adv-x="904" 
d="M824 272q0 -181 -49 -290q-42 -39 -67.5 -61.5t-63 -47.5t-57.5 -25q-48 0 -78 30l54 73q22 -42 66 -42q24 0 37 10q14 10 30 42q12 29 24 103q6 61 6 154q0 78 -13 126q-15 56 -40 80q-38 37 -104 37q-50 0 -95 -34q-49 -38 -82 -77q32 -79 32 -139q0 -40 -11 -58
q-119 -152 -143 -171q-21 19 -53 41q-25 18 -48 18q-34 0 -75 -46l-14 16q27 49 65 85t71 36q25 0 53 -18.5t48 -42.5q11 13 17 27t7.5 23.5t2.5 27.5q0 50 -27 100q-33 60 -67 148q-21 48 -21 94q0 51 60 125q55 68 165 144q70 -68 146 -68q16 0 33 13q10 5 65 49l15 -18
q-101 -97 -137 -115q-15 -8 -25 -8q-31 0 -69 14q-36 11 -104 46q-28 -28 -45 -61q-11 -22 -11 -66q0 -45 59 -170q80 84 206 158q126 0 207 -61q30 -108 30 -201z" />
    <glyph glyph-name="uni210D" unicode="&#x210d;" horiz-adv-x="1013" 
d="M780 59v611h-70v-611h70zM302 59v611h-70v-611h70zM933 0h-375v59h93v299h-290v-299h94v-59h-375v59h93v611h-93v59h375v-59h-94v-245h290v245h-93v59h375v-59h-94v-611h94v-59z" />
    <glyph glyph-name="uni210E" unicode="&#x210e;" horiz-adv-x="664" 
d="M584 52l-10 -52h-170l59 302q11 50 9 84q0 31 -7 46q-17 35 -76 35q-62 0 -104 -46q-43 -46 -59 -132l-56 -289h-90l138 708h-86l10 52h176l-65 -333q35 54 80 79q45 27 98 27q86 0 117 -49q19 -29 19 -80q0 -34 -9 -74l-54 -278h80z" />
    <glyph glyph-name="uni210F" unicode="&#x210f;" horiz-adv-x="692" 
d="M612 52l-10 -52h-170l59 302q11 50 9 84q0 31 -7 46q-17 35 -76 35q-62 0 -104 -46q-43 -46 -59 -132l-56 -289h-90l103 526l-131 -80l13 66l131 81l22 115h-86l10 52h176l-20 -104l156 96l-13 -66l-156 -97l-32 -162q35 54 80 79q45 27 98 27q86 0 117 -49
q19 -29 19 -80q0 -34 -9 -74l-54 -278h80z" />
    <glyph glyph-name="uni2110" unicode="&#x2110;" horiz-adv-x="722" 
d="M642 732q0 -54 -17 -168.5t-41 -219.5q-36 -158 -45 -181q-76 -196 -279 -196q-107 0 -180 37l28 90q116 -61 212 -61q88 0 127 103q11 32 43 174q13 56 42 167t41 166.5t2 55.5q-39 0 -72.5 -10.5t-66.5 -36.5t-51 -43.5t-54 -55.5l-46 30q82 88 163 135t187 47
q7 0 7 -33z" />
    <glyph glyph-name="uni2111" unicode="&#x2111;" horiz-adv-x="736" 
d="M656 747q-88 -81 -177 -128l-147 54q-44 12 -65 12q-56 0 -91 -36q-46 -46 -77 -129l-19 12q25 66 55 128q23 50 49 76q38 46 108 46q49 0 176 -60q36 -19 60 -19q28 0 54 15q25 13 61 47zM634 659q-34 -31 -60 -73q-14 -23 -14 -57q0 -56 3 -74q14 -102 14 -176
q0 -127 -67 -195q-115 -115 -243 -115q-48 0 -109 55l-61 -42l-6 18q46 62 130 146q36 -77 52 -92q31 -33 78 -33q42 0 78 36q25 25 37 78q13 39 13 101q0 48 -11 145q-10 74 -10 108l3 39q79 88 159 139z" />
    <glyph glyph-name="uni2112" unicode="&#x2112;" horiz-adv-x="767" 
d="M687 49q-132 -115 -282 -115q-27 0 -81.5 34t-98.5 45q-9 2 -21 -1l-93 -50q-31 98 -31 189q0 80 22 165q43 171 166 306q60 64 138.5 102t142.5 38q71 0 96 -44q9 -18 9 -43q0 -35 -15.5 -69t-62.5 -70.5t-120 -54.5l-22 50q65 16 94 49t29 65q0 14 -4 21q-15 27 -60 27
q-37 0 -79 -19t-74 -54q-104 -113 -144 -270q-21 -84 -21 -159q0 -71 16 -131q52 19 91 19q9 0 19 -2q41 -10 90 -43.5t74 -33.5q90 0 184 81z" />
    <glyph glyph-name="uni2113" unicode="&#x2113;" horiz-adv-x="555" 
d="M475 155q-12 -73 -50.5 -123t-96.5 -50q-132 0 -172 181q-42 -12 -68 -16l-8 52q33 4 66 17q-9 59 -9 145q0 67 13.5 133.5t39 124t68.5 93t96 35.5q49 0 83.5 -51.5t34.5 -112.5q0 -119 -61.5 -220t-164.5 -160q11 -169 82 -169q73 0 96 131zM392 583q0 24 -0.5 38
t-4 34t-12 30t-21.5 10q-27 0 -47 -14t-32 -43.5t-19 -56.5t-10 -73.5t-3.5 -72.5t-0.5 -74v-91q70 54 110 137t40 176z" />
    <glyph glyph-name="uni2115" unicode="&#x2115;" horiz-adv-x="990" 
d="M758 59v51l-477 560h-49v-40l484 -571h42zM910 670h-93v-670h-128l-447 527v-468h93v-59h-255v59h93v611h-93v59h228l440 -516v457h-93v59h255v-59z" />
    <glyph glyph-name="numero" unicode="&#x2116;" horiz-adv-x="946" 
d="M672 661q-74 0 -91 -14t-17 -53v-608h-59l-300 614v-470q0 -68 -32 -106t-136 -38v68q75 0 91 13q17 14 17 54v556h-93v52h181l271 -575v431q0 67 32 105q32 39 136 39v-68zM896 0h-242v51h242v-51zM842 304q0 39 -19 62q-19 26 -47 26q-31 0 -48 -26q-20 -23 -20 -62
q0 -38 20 -64q19 -25 48 -25q27 0 47 25q19 26 19 64zM896 304q0 -68 -35 -114q-34 -47 -86 -47q-53 0 -85 47q-35 44 -35 114q0 65 35 114q35 46 85 46t85 -46q36 -48 36 -114z" />
    <glyph glyph-name="published" unicode="&#x2117;" horiz-adv-x="884" 
d="M804 362q0 -72 -26 -138q-27 -64 -80 -117t-118 -80q-64 -27 -138 -27q-75 0 -138 27q-64 26 -118 80q-53 53 -80 117q-26 66 -26 138q0 73 26 139q27 64 80 117t118 80q64 27 138 27q75 0 138 -27q64 -26 118 -80q53 -53 80 -117q26 -66 26 -139zM637 458q0 -57 -39 -90
q-41 -33 -104 -33h-91v-160h67v-31h-183v31h56v375h-56v31h207q65 0 104 -33q39 -34 39 -90zM754 362q0 65 -23 120q-22 55 -68 101t-101 69q-58 23 -120 23t-119 -23q-54 -22 -101 -69q-46 -45 -68 -101q-24 -56 -24 -120q0 -63 23 -118q22 -55 69 -102t101 -69
q57 -23 119 -23q63 0 120 23q55 23 101 69q45 45 68 100q23 58 23 120zM569 458q0 46 -22 69q-23 23 -67 23h-77v-184h77q44 0 67 24q22 23 22 68z" />
    <glyph glyph-name="weierstrass" unicode="&#x2118;" horiz-adv-x="771" 
d="M207 -49q0 63 -33 157q-37 -107 -37 -133q0 -69 43 -125q27 49 27 101zM691 281q0 -130 -60 -195.5t-163 -66.5q-14 0 -26.5 1.5t-21 3t-19.5 6.5t-16 7t-17 10.5t-15 11t-17 14.5t-18 15v132h55q5 -72 30 -112.5t67 -40.5q43 0 76 54t33 160q0 93 -25.5 145t-90.5 52
q-85 0 -236 -271q25 -59 36.5 -88t25 -78.5t13.5 -87.5q0 -46 -18 -89t-47 -69l4 -3h-80q-38 31 -59.5 72t-21.5 111q0 26 17 85.5t44 115.5q-17 38 -24.5 56t-13.5 45.5t-6 58.5q0 84 50 148.5t94 84.5l18 -30q-28 -27 -53.5 -79t-25.5 -94q0 -31 19 -86q23 39 33 55.5
t32 50t35 48.5t34.5 38t39 33t40.5 18t46 8q116 0 174 -71t58 -179z" />
    <glyph glyph-name="uni2119" unicode="&#x2119;" horiz-adv-x="840" 
d="M701 516q0 68 -50 109q-36 28 -86 38q49 -58 49 -147q0 -90 -50 -149q52 11 87 39q50 41 50 110zM302 59v611h-70v-611h70zM555 516q0 71 -38 112q-37 42 -101 42h-55v-309h55q63 0 101 42q38 43 38 113zM760 516q0 -98 -72 -156q-71 -58 -193 -58h-134v-243h118v-59
h-399v59h93v611h-93v59h415q123 0 194 -58q71 -59 71 -155z" />
    <glyph glyph-name="uni211A" unicode="&#x211a;" horiz-adv-x="946" 
d="M291 645q-28 -15 -53 -35q-22 -18 -39 -40q-15 -21 -27 -45q-10 -24 -18 -45q-4 -14 -10 -44q-1 -11 -4 -39q-1 -11 -1 -33t1 -33q3 -28 4 -39q6 -29 10 -44q8 -21 18 -45q12 -24 27 -45q14 -18 39 -40q24 -19 52 -34q-60 93 -60 280q0 189 61 281zM807 364q0 22 -1 32
l-4 40q-6 30 -10 44q-6 21 -18 44q-9 23 -26 46q-20 24 -40 40q-22 19 -52 35q60 -93 60 -281q0 -186 -59 -280q26 14 43 27q22 17 40 39q22 25 35 53q14 30 23 71q9 40 9 90zM657 364q0 162 -45 240q-46 79 -139 79q-92 0 -139 -79q-45 -81 -45 -240q0 -160 45 -240
q47 -79 139 -79q93 0 139 79q45 78 45 240zM866 364q0 -154 -80 -252q-81 -98 -229 -120q25 -28 63 -40t96 -12h25v-120h-14q-94 0 -155 40q-62 40 -102 126q-184 3 -288 102q-102 100 -102 276t104 278q106 100 289 100t289 -100q104 -102 104 -278z" />
    <glyph glyph-name="uni211B" unicode="&#x211b;" horiz-adv-x="844" 
d="M764 605q0 -49 -18 -89.5t-46.5 -67.5t-69 -47.5t-80 -32t-84.5 -19.5q7 -12 36 -33t62 -46.5t66 -58.5t55 -80t22 -100q0 -19 -2 -29l-90 -6q6 59 -17 109.5t-60.5 82.5t-76 56.5t-66 43t-27.5 30.5q0 39 35 62.5t85 30.5q75 10 128.5 46.5t53.5 105.5q0 65 -52.5 101.5
t-145.5 36.5q-86 0 -189 -44t-157 -102l-46 30q68 74 203.5 128t248.5 54q110 0 171 -42.5t61 -119.5zM441 582q-52 -63 -90.5 -175.5t-38.5 -236.5q0 -79 17 -150l-96 -40q-15 64 -15 141q0 144 53.5 276.5t119.5 212.5z" />
    <glyph glyph-name="uni211C" unicode="&#x211c;" horiz-adv-x="1071" 
d="M820 528q-26 2 -42 18q-12 12 -19 79q-1 30 -18 60q-15 31 -48 31q-49 0 -78 -32q-39 -36 -76 -100q6 -18 6 -70q0 -79 -3 -117q72 36 131 45zM991 84l-152 -115l-73 134q0 13 2 47.5t2 53.5q0 52 -6.5 85t-11.5 42.5t-15 19.5q-40 40 -95 40q-29 0 -105 -22
q-4 -35 -14 -76q-21 -93 -63 -157q-35 -28 -100 -86t-92 -81q-61 61 -92 61q-47 0 -83 -48l-13 18q42 66 70 89q36 32 63 32q28 0 55 -20q26 -17 53 -46q63 44 93 102q17 34 27 103q12 89 12 158q0 144 -46 210q-23 35 -59.5 58.5t-74.5 23.5q-34 0 -52 -7t-38 -27
q-21 -19 -21 -65q0 -22 41 -68q31 -38 46 -62q15 -26 15 -43q0 -43 -37 -82q-30 -35 -104 -71l-17 13q30 16 56 47q17 22 17 45q0 12 -15 31l-35 49q-16 20 -24.5 32t-15.5 31t-7 39q0 54 58 112q102 98 209 98q68 0 136 -81q21 -24 41 -76l4 5q38 46 60 68q82 84 176 84
q42 0 66 -30q19 -22 25 -78q1 -8 2.5 -27.5t3.5 -29.5q3 -10 6 -15.5t15 -11t33 -5.5q15 0 43 4l8 -14q-34 -13 -99 -47q-95 -50 -140 -86q66 0 116 -42q8 -193 18 -224q13 -43 31 -72q17 -25 30 -25q12 0 67 24v-19z" />
    <glyph glyph-name="uni211D" unicode="&#x211d;" horiz-adv-x="950" 
d="M702 533q0 32 -11 57q-11 23 -34 40q-27 20 -72 31q11 -13 20 -33q22 -46 21 -100q0 -7 -0.5 -18.5t-0.5 -15.5q-1 -4 -3 -15.5t-4 -17.5q-5 -20 -14 -37q46 12 68 33q30 27 30 76zM729 59l-93 176q-17 33 -35 45q-16 12 -46 17l-17 3q2 -3 29 -53l99 -188h63zM302 59
v611h-70v-611h70zM567 528q0 69 -37 106q-38 36 -105 36h-64v-285h64q68 0 105 37t37 106zM870 0h-240l-116 220q-34 68 -57 87t-66 19h-30v-267h94v-59h-375v59h93v611h-93v59h416q127 0 196 -51t69 -145q0 -77 -49 -120q-50 -44 -148 -57q41 -6 73 -28q30 -24 52 -66
l106 -203h75v-59z" />
    <glyph glyph-name="recipe" unicode="&#x211e;" horiz-adv-x="882" 
d="M802 0h-172l-54 110l-84 -110h-66l124 162l-34 70q-33 68 -60 87q-28 20 -75 20h-109v-287h103v-52h-295v52h93v625h-93v52h370q106 0 164 -51t58 -144q0 -75 -43 -118q-42 -43 -125 -54q35 -9 59 -32q26 -24 44 -62l9 -19l87 113h65l-126 -165l71 -145h89v-52zM560 534
q0 73 -35 108t-109 35h-144v-286h144q74 0 109 35t35 108z" />
    <glyph glyph-name="servicemark" unicode="&#x2120;" horiz-adv-x="1000" 
d="M826 447h-139v32h42v208l-102 -152h-21l-97 152v-208h41v-32h-118v32h42v218h-42v32h114l85 -132l88 132h107v-32h-42v-218h42v-32zM380 527q0 -41 -30 -62q-32 -22 -89 -22q-18 0 -52 6q-26 4 -58 14v69q6 -1 16 0t13 1q0 -30 23 -47q17 -13 56 -13q38 0 54 10
q18 13 18 34q0 17 -13 28q-9 7 -46 16l-41 11q-43 11 -64 32q-19 18 -19 52q0 37 30 56q30 21 80 21q8 0 48 -5q17 -3 59 -13v-64q-5 0 -14.5 -0.5t-13.5 -0.5q0 25 -25 42q-16 11 -53 11q-35 0 -47 -10q-16 -9 -16 -30q0 -16 12 -26q11 -10 53 -19l39 -10q38 -11 59 -29
t21 -52z" />
    <glyph glyph-name="trademark" unicode="&#x2122;" horiz-adv-x="1000" 
d="M390 646h-33v51h-75v-218h42v-32h-140v32h42v218h-76v-51h-32v83h272v-83zM826 447h-139v32h42v208l-102 -152h-21l-97 152v-208h41v-32h-118v32h42v218h-42v32h114l85 -132l88 132h107v-32h-42v-218h42v-32z" />
    <glyph glyph-name="uni2124" unicode="&#x2124;" horiz-adv-x="817" 
d="M666 670h-72l-448 -611h77zM737 0h-657v69l435 593h-349v-109h-67v176h633v-69l-430 -593h368v102h67v-169z" />
    <glyph glyph-name="uni2126" unicode="&#x2126;" horiz-adv-x="868" 
d="M788 399q0 -103 -59 -191q-61 -86 -163 -128h164v67h57v-147h-289v89q89 35 133 110q45 77 45 189q0 137 -67 219q-68 83 -175 83t-175 -83q-67 -82 -67 -219q0 -114 45 -190q45 -74 132 -109v-89h-288v147h57v-67h163q-102 42 -162 128q-59 86 -59 191q0 75 28 138
q29 65 82 114q50 45 111 67q61 24 133 24q70 0 133 -23q61 -22 110 -68q55 -50 82 -115q29 -62 29 -137z" />
    <glyph glyph-name="uni2127" unicode="&#x2127;" horiz-adv-x="868" 
d="M788 325q0 -75 -28 -138q-29 -65 -82 -114q-50 -45 -111 -67q-61 -24 -133 -24q-70 0 -133 23q-61 22 -110 68q-55 50 -82 115q-29 62 -29 137q0 103 59 191q61 86 163 128h-164v-67h-57v147h289v-89q-89 -35 -133 -110q-45 -77 -45 -189q0 -137 67 -219q68 -83 175 -83
t175 83q67 82 67 219q0 114 -45 190q-45 74 -132 109v89h288v-147h-57v67h-163q102 -42 162 -128q59 -86 59 -191z" />
    <glyph glyph-name="uni2128" unicode="&#x2128;" horiz-adv-x="755" 
d="M675 225q0 -145 -91 -280q-125 -103 -279 -103q-61 0 -110 12q0 70 -1 84q-2 23 -10 31q-13 13 -31 13q-20 0 -59 -30l-14 17q35 30 84 55q43 18 73 18q40 0 49 -18q6 -11 6 -73q0 -44 13 -57q17 -18 58 -18q73 0 126 53q39 39 62 111q20 60 20 141q0 46 -9 78t-27 50
q-54 55 -145 55q-56 0 -104 -24l-12 12l49 72q64 4 127 67q55 55 55 128q0 24 -18 42q-25 24 -67 24q-27 0 -79 -6l-91 -5q-48 0 -66 18q-13 13 -13 30l79 109h18q-9 -18 -9 -27q0 -13 9 -22q18 -17 86 -17l66 2q9 0 27 2t27 2q31 0 61 -6q23 -5 36 -18q31 -31 31 -68
q0 -84 -67 -151q-55 -55 -129 -102l6 -2q42 7 62 7q130 0 183 -79q18 -63 18 -127z" />
    <glyph glyph-name="uni212A" unicode="&#x212a;" horiz-adv-x="831" 
d="M775 0h-169l-346 346v-294h93v-52h-285v52h93v625h-93v52h285v-52h-93v-276l314 276h-79v52h242v-52h-82l-313 -275l350 -350h83v-52z" />
    <glyph glyph-name="uni212B" unicode="&#x212b;" horiz-adv-x="874" 
d="M806 0h-265v52h81l-61 160h-307l-61 -160h80v-52h-205v52h64l239 624q-35 18 -53 48q-19 28 -19 70q0 56 39 95t95 39t95 -39t39 -95q0 -39 -19 -70q-20 -32 -54 -48l240 -624h72v-52zM541 264l-133 347l-134 -347h267zM507 794q0 31 -21 52q-22 22 -53 22t-53 -21
q-21 -21 -21 -53q0 -31 21 -52q22 -22 53 -22t53 22q21 21 21 52z" />
    <glyph glyph-name="uni212C" unicode="&#x212c;" horiz-adv-x="794" 
d="M714 235q0 -52 -27 -99.5t-80 -86t-141 -61t-200 -22.5l-53 1q-17 69 -17 147q0 144 54 277.5t121 214.5l50 -28q-52 -63 -91.5 -176.5t-39.5 -237.5q0 -67 13 -131h20q144 0 220.5 45t76.5 115q0 51 -30.5 88t-67.5 53t-67.5 29.5t-30.5 21.5q0 14 16.5 29t30.5 22.5
t43 21.5q17 8 23.5 11.5t26 17t29 26t18.5 35t9 48.5q0 36 -39.5 70.5t-108.5 34.5q-84 0 -188.5 -44t-157.5 -102l-46 30q69 74 205 128t247 54q85 0 133.5 -43t48.5 -86q0 -50 -16.5 -88.5t-50.5 -65.5t-52 -38t-56 -28q-5 -3 -8 -4q8 -4 35 -15t49 -23t46.5 -30.5
t38.5 -47t14 -63.5z" />
    <glyph glyph-name="uni212D" unicode="&#x212d;" horiz-adv-x="792" 
d="M712 648q-83 -41 -134 -47q-31 18 -91 115q-22 -7 -37 -24q-19 -24 -19 -54q0 -34 15 -77q23 -69 23 -106q0 -73 -37 -110q-57 -56 -162 -73l-13 19q47 12 84 49q18 18 18 78q0 38 -24 122q-10 44 -10 69q0 19 4 34q-66 -2 -103 -48q-55 -68 -55 -182q0 -170 91 -261
q99 -100 257 -100q52 0 82 15l98 54v-23q-59 -49 -164 -116q-40 -9 -94 -9q-167 0 -271 101q-41 41 -67 121q-23 70 -23 169q0 108 49 206q99 75 188 115l37 -18q78 56 236 115l31 -92q7 -15 12 -21q6 -6 22 -6q26 0 57 11v-26z" />
    <glyph glyph-name="estimated" unicode="&#x212e;" horiz-adv-x="990" 
d="M910 365v-12l-678 -10v-205q0 -5 3 -8q104 -117 260 -117q78 0 147 32.5t118 89.5h63q-58 -67 -144.5 -105.5t-183.5 -38.5q-169 0 -292 107.5t-123 266.5q0 158 123 265.5t292 107.5t292 -107.5t123 -265.5zM758 387v204q0 5 -3 8q-104 117 -260 117t-260 -117
q-3 -3 -3 -8v-204q0 -11 11 -11h504q11 0 11 11z" />
    <glyph glyph-name="uni212F" unicode="&#x212f;" horiz-adv-x="717" 
d="M637 238q-119 -125 -195 -183q-113 -87 -201 -87q-73 0 -117 47.5t-44 131.5q0 40 12 88q15 66 54 125.5t88 94.5q89 64 166 64q67 0 93 -50q6 -11 6 -27q0 -36 -24.5 -88t-58.5 -93q-41 -51 -143 -130l-36 32q73 59 105 96q27 34 47 73.5t20 66.5q0 12 -4 19
q-17 33 -61 33q-36 0 -68 -24q-33 -23 -57.5 -66.5t-36.5 -93.5q-11 -49 -11 -85q0 -70 33.5 -110t92.5 -40q36 0 98 48q72 53 196 188z" />
    <glyph glyph-name="uni2130" unicode="&#x2130;" horiz-adv-x="692" 
d="M612 90q-102 -69 -143 -88q-77 -35 -164 -35q-98 0 -161.5 56.5t-63.5 140.5q0 27 8 59q35 119 144 174q-54 44 -54 116q0 79 71 149q51 49 115.5 76t120.5 27q75 0 99 -43q9 -13 9 -38q0 -41 -34.5 -90.5t-109.5 -95.5l-30 36q79 48 79 109q0 17 -6 27q-16 28 -68 28
q-64 0 -109 -44q-69 -68 -69 -143q0 -44 28 -70.5t79 -22.5l16 -60q-7 -1 -19 -1q-22 0 -47 5q-98 -26 -121 -107q-8 -24 -8 -52q0 -72 54 -121t137 -49q23 0 44.5 4t36.5 8.5t36.5 16t31 17.5t33.5 22.5t33 22.5z" />
    <glyph glyph-name="uni2131" unicode="&#x2131;" horiz-adv-x="928" 
d="M848 719l-48 -90q-38 30 -145.5 48.5t-182.5 18.5q-85 0 -188.5 -44t-157.5 -103l-46 30q68 74 204 128.5t248 54.5q261 0 316 -43zM564 368q-72 -47 -240 -54q-12 -69 -12 -142q0 -85 16 -152l-96 -40q-15 69 -15 139q0 97 25 192q-90 0 -123 -2l-14 62q7 1 25 1
q33 0 127 -6q27 89 67.5 162t78.5 111l44 -30q-72 -70 -113 -245q139 0 198 38z" />
    <glyph glyph-name="uni2133" unicode="&#x2133;" horiz-adv-x="1271" 
d="M1191 705q0 -27 -5 -48l-47 -209q-57 -264 -82 -446l-90 -4q26 177 78 416l47 209q8 36 5 58q-61 -77 -159 -222.5t-151 -237.5q-27 -45 -51.5 -77t-39 -45t-22.5 -13q-13 0 -13 70q0 35 4 70q6 66 6 108q0 120 -27 218t-87 133l-11 -49l-43 -188q-35 -151 -62.5 -234
t-49.5 -119t-60 -72q-56 -56 -115 -56q-37 0 -58.5 8t-47 30t-30.5 26l42 90q13 -9 35 -33.5t46.5 -38.5t63.5 -16q44 43 69.5 111t72.5 270l43 187l26 116l77 50q55 0 97 -38t65.5 -100t35 -132t11.5 -144l-1 -47q147 234 254 367q34 41 61 60t60 30l34 1q19 -11 19 -59z
" />
    <glyph glyph-name="uni2134" unicode="&#x2134;" horiz-adv-x="667" 
d="M587 457q-194 -22 -283.5 -69.5t-119.5 -131.5q-14 -39 -14 -85q0 -61 28.5 -100t86.5 -39q93 0 141.5 90.5t48.5 224.5v21l92 18v-15q0 -174 -98 -288.5t-240 -114.5q-72 0 -110.5 48.5t-38.5 122.5q0 43 14 90q20 55 49 96t81.5 81t139.5 67.5t207 41.5z" />
    <glyph glyph-name="aleph" unicode="&#x2135;" horiz-adv-x="864" 
d="M784 617h-100q35 -92 35 -222q0 -131 -68 -231l98 -130h26v-34h-130l-383 502q-31 -51 -41 -83.5t-10 -84.5q0 -63 39 -135.5t57 -86.5v-112h-217v112h98q-47 83 -47 222q0 66 28.5 128t55.5 90l-109 143h-36v34h138l396 -516q35 70 35 182q0 63 -33 136.5t-49 85.5v112
h217v-112z" />
    <glyph glyph-name="uni2136" unicode="&#x2136;" horiz-adv-x="678" 
d="M598 0h-518v112h410q1 7 23 132.5t22 177.5q0 59 -16.5 99t-49 60t-69.5 28t-88 8h-224v152h34v-40h190q110 1 193.5 -63.5t84.5 -165.5q2 -138 -49 -388h57v-112z" />
    <glyph glyph-name="uni2137" unicode="&#x2137;" horiz-adv-x="573" 
d="M493 80l-30 -88q-89 36 -108 180q-23 -71 -69 -121.5t-103 -50.5h-103v112h138q127 0 127 290q0 23 -2.5 43.5t-10.5 46t-22 43.5t-39 30.5t-59 12.5q-37 0 -68 11t-44 23l-12 11v146h34v-30q48 -40 90 -40q63 0 110 -59.5t48 -159.5q1 -56 1 -214q8 -80 43.5 -128.5
t78.5 -57.5z" />
    <glyph glyph-name="uni2138" unicode="&#x2138;" horiz-adv-x="670" 
d="M590 617h-67q39 -220 39 -388q0 -192 -113 -237l-30 88q88 18 88 227q0 157 -35 310h-392v152h34v-40h476v-112z" />
    <glyph glyph-name="uni213C" unicode="&#x213c;" horiz-adv-x="824" 
d="M611 59v401h-55v-401h55zM268 59v401h-55v-401h55zM744 0h-311v59h64v401h-170v-401h63v-59h-310v59h74v401h-74v59h664v-59h-74v-401h74v-59z" />
    <glyph glyph-name="uni213D" unicode="&#x213d;" horiz-adv-x="766" 
d="M390 -116q3 12 0 44q-6 44 -14 76l-7 29l1 1l-126 426h-43l142 -476l-14 -23q-33 -54 -33 -84q0 -15 11 -21t31 -6q25 0 52 34zM627 364q0 21 -14 41t-44 37q14 -47 14 -78q0 -47 -39 -134l18 18q65 68 65 116zM671 423q50 -95 -67 -216q-96 -101 -171 -189
q31 -134 6 -168q-44 -57 -97 -59q-71 -1 -97 49q-27 55 34 152l-141 475h-58v52h208l122 -412q91 140 112 242q4 25 -9 75q-10 37 -41 74v21h63q100 -28 136 -96z" />
    <glyph glyph-name="uni213E" unicode="&#x213e;" horiz-adv-x="810" 
d="M303 59v611h-71v-611h71zM730 557h-67v105h-301v-603h115v-59h-397v59h93v611h-93v59h650v-172z" />
    <glyph glyph-name="uni213F" unicode="&#x213f;" horiz-adv-x="1012" 
d="M302 59v611h-70v-611h70zM780 59v611h-70v-611h70zM932 0h-374v59h93v603h-290v-603h93v-59h-374v59h93v611h-93v59h852v-59h-93v-611h93v-59z" />
    <glyph glyph-name="uni2140" unicode="&#x2140;" horiz-adv-x="822" 
d="M742 -192h-662l368 457l-368 454h662v-162h-60v95h-319l240 -303l-326 -405h405v62h60v-198zM682 -133v39h-441l-32 -39h473zM534 367l-230 290h-103l284 -351z" />
    <glyph glyph-name="uni2145" unicode="&#x2145;" horiz-adv-x="1019" 
d="M879 447q0 139 -115 191q52 -88 16 -270q-36 -187 -123 -277q173 68 213 274q9 43 9 82zM433 670h-70l-119 -611h69zM939 459q0 -45 -10 -94q-34 -177 -157 -271q-121 -94 -318 -94h-374l11 59h94l119 611h-94l12 59h374q197 0 282 -94q61 -67 61 -176zM734 496
q0 174 -174 174h-68l-119 -611h67q112 0 182 73q66 74 98 233q14 73 14 131z" />
    <glyph glyph-name="uni2146" unicode="&#x2146;" horiz-adv-x="826" 
d="M307 467q-44 -12 -80 -45q-61 -56 -80 -162q-7 -35 -7 -68q0 -58 23 -93q25 -35 64 -47q-19 31 -19 83q0 49 14 125q30 152 85 207zM676 701h-55l-125 -642h55zM746 760l-136 -701h74l-11 -59h-247l13 66q-59 -80 -168 -80q-110 0 -159 73q-33 50 -32 121q0 34 8 80
q26 129 103 200q76 73 186 73q108 0 137 -80l48 248h-74l11 59h247zM490 368q0 89 -73 89q-54 0 -84 -43q-29 -41 -52 -154q-13 -66 -13 -104q0 -33 5 -51q13 -43 66 -43q50 0 84 40q31 40 48 132l10 51q9 49 9 83z" />
    <glyph glyph-name="uni2147" unicode="&#x2147;" horiz-adv-x="720" 
d="M580 294v13q1 97 -54 137q2 -20 1 -46q0 -36 -13 -104h66zM276 446q-104 -52 -129 -186q-7 -32 -7 -64q0 -98 76 -132q-11 30 -11 70q2 48 11 97l14 71q18 96 46 144zM640 318q0 -42 -7 -83h-357q-21 -105 1 -149q23 -45 84 -45q121 0 163 116h81q-37 -87 -108 -129
q-72 -42 -183 -42q-134 0 -193 71q-41 50 -41 128q0 32 8 75q26 130 113 201q89 72 218 72q130 0 184 -76q37 -52 37 -139zM467 390q0 32 -3 47q-11 42 -57 41q-45 0 -72 -40q-29 -45 -48 -145h167q13 64 13 97z" />
    <glyph glyph-name="uni2148" unicode="&#x2148;" horiz-adv-x="536" 
d="M357 460h-54l-79 -401h55zM396 677q0 7 -6 15q-8 9 -22 9q-16 0 -27 -10q-12 -11 -15 -25q-2 -14 6 -24q7 -10 22 -10q16 0 26 10q13 11 14 19q2 12 2 16zM428 519l-90 -460h74l-11 -59h-321l12 59h73l79 401h-74l11 59h247zM456 686q0 -51 -37 -82q-39 -31 -76 -31
q-38 0 -58 23q-19 23 -19 51q0 51 37 82t76 31t58 -24q19 -23 19 -50z" />
    <glyph glyph-name="uni2149" unicode="&#x2149;" horiz-adv-x="679" 
d="M504 460h-55l-101 -521q-10 -52 -29 -89q36 11 56 32q21 21 28 57zM539 669q0 32 -28 32q-16 0 -27 -10q-12 -11 -15 -25q-3 -13 5 -24q7 -10 23 -10q14 0 29 12q13 11 13 25zM575 519l-113 -580q-32 -161 -254 -161q-61 0 -128 19l21 110h56l-3 -31q0 -16 9 -29
q9 -14 43 -14t52 23q19 22 31 83l101 521h-74l12 59h247zM599 685q0 -50 -37 -81t-76 -31q-40 0 -58 23q-20 23 -20 51q0 51 37 81q36 32 76 32q38 0 59 -24q19 -25 19 -51z" />
    <glyph glyph-name="arrowleft" unicode="&#x2190;" horiz-adv-x="992" 
d="M912 235h-721l105 -164h-24l-192 192v24l192 192h24l-105 -164h721v-80z" />
    <glyph glyph-name="arrowup" unicode="&#x2191;" horiz-adv-x="568" 
d="M488 475l-164 105v-721h-80v721l-164 -105v24l192 192h24l192 -192v-24z" />
    <glyph glyph-name="arrowright" unicode="&#x2192;" horiz-adv-x="992" 
d="M912 287v-24l-192 -192h-24l105 164h-721v80h721l-105 164h24z" />
    <glyph glyph-name="arrowdown" unicode="&#x2193;" horiz-adv-x="568" 
d="M488 51l-192 -192h-24l-192 192v24l164 -105v721h80v-721l164 105v-24z" />
    <glyph glyph-name="arrowboth" unicode="&#x2194;" horiz-adv-x="992" 
d="M912 287v-24l-192 -192h-24l105 164h-610l105 -164h-24l-192 192v24l192 192h24l-105 -164h610l-105 164h24z" />
    </font>
</defs>
</svg>
