<?xml version="1.0" encoding="UTF-8" standalone="no"?>
<!-- Created with Inkscape (http://www.inkscape.org/) -->

<svg
   version="1.1"
   id="svg2"
   width="800"
   height="800"
   viewBox="0 0 800 799.99999"
   sodipodi:docname="luatex.svg"
   inkscape:version="1.4.2 (1:1.4.2+202505120737+ebf0e940d0)"
   inkscape:export-filename="luatex.png"
   inkscape:export-xdpi="30.719999"
   inkscape:export-ydpi="30.719999"
   xmlns:inkscape="http://www.inkscape.org/namespaces/inkscape"
   xmlns:sodipodi="http://sodipodi.sourceforge.net/DTD/sodipodi-0.dtd"
   xmlns="http://www.w3.org/2000/svg"
   xmlns:svg="http://www.w3.org/2000/svg">
  <defs
     id="defs6" />
  <sodipodi:namedview
     id="namedview4"
     pagecolor="#ffe7d8"
     bordercolor="#000000"
     borderopacity="0.25"
     inkscape:showpageshadow="2"
     inkscape:pageopacity="0.0"
     inkscape:pagecheckerboard="0"
     inkscape:deskcolor="#d1d1d1"
     showgrid="true"
     inkscape:zoom="0.83317106"
     inkscape:cx="1026.1998"
     inkscape:cy="696.13555"
     inkscape:window-width="3840"
     inkscape:window-height="1531"
     inkscape:window-x="0"
     inkscape:window-y="0"
     inkscape:window-maximized="1"
     inkscape:current-layer="g1566">
    <inkscape:grid
       id="grid1"
       units="px"
       originx="0"
       originy="0"
       spacingx="1"
       spacingy="0.99999999"
       empcolor="#0099e5"
       empopacity="0.30196078"
       color="#0099e5"
       opacity="0.14901961"
       empspacing="5"
       enabled="true"
       visible="true" />
  </sodipodi:namedview>
  <g
     inkscape:groupmode="layer"
     inkscape:label="Image"
     id="g8"
     transform="translate(204.42546,160.98137)">
    <g
       id="g928"
       transform="matrix(3.013956,0,0,3.013956,-701.54345,211.12775)"
       inkscape:label="LuaTeX"
       style="display:none;stroke-width:0.442386">
      <path
         style="fill:#ffffff;fill-opacity:1;stroke:none;stroke-width:0.442386"
         d="M 2.375,0 V -2.984375 H 7.078125 V -33.84375 H 2.375 v -2.984375 h 18.9375 v 2.984375 H 16.578125 V -3.375 h 14.5 V -9.203125 H 34.40625 V 0 Z m 0,0"
         id="path897"
         transform="translate(195.69579,90.089117)"
         inkscape:label="L" />
      <path
         style="fill:#ffffff;fill-opacity:1;stroke:none;stroke-width:0.442386"
         d="M 31.28125,-26.21875 V -2.984375 H 35 V 0 H 22.515625 v -3.703125 c -1.03125,1.5625 -2.226563,2.695313 -3.578125,3.390625 -1.34375,0.6875 -3.042969,1.03125 -5.09375,1.03125 -2.949219,0 -5.179688,-0.863281 -6.6875,-2.59375 -1.5,-1.738281 -2.25,-4.296875 -2.25,-7.671875 v -13.6875 h -3.75 v -2.984375 h 12.484375 v 15.3125 c 0,3.261719 0.269531,5.335938 0.8125,6.21875 0.539063,0.875 1.535156,1.3125 2.984375,1.3125 1.757812,0 3.046875,-0.648438 3.859375,-1.953125 0.8125,-1.300781 1.21875,-3.363281 1.21875,-6.1875 v -11.71875 H 19.34375 v -2.984375 z m 0,0"
         id="path901"
         transform="translate(231.2002,90.089117)"
         inkscape:label="u" />
      <path
         style="fill:#ffffff;fill-opacity:1;stroke:none;stroke-width:0.442386"
         d="m 27.828125,-16.109375 v 13.125 h 3.75 V 0 H 19.09375 v -3.328125 c -1.15625,1.375 -2.445312,2.398437 -3.859375,3.0625 C 13.828125,0.390625 12.21875,0.71875 10.40625,0.71875 7.726562,0.71875 5.671875,0 4.234375,-1.4375 c -1.4375,-1.4375 -2.15625,-3.5 -2.15625,-6.1875 0,-2.9375 1.03125,-5.132812 3.09375,-6.59375 2.0625,-1.46875 5.171875,-2.203125 9.328125,-2.203125 h 4.59375 v -1.5625 c 0,-2.113281 -0.507812,-3.675781 -1.515625,-4.6875 -1,-1.019531 -2.554687,-1.53125 -4.65625,-1.53125 -1.742187,0 -3.085937,0.359375 -4.03125,1.078125 -0.949219,0.71875 -1.621094,1.890625 -2.015625,3.515625 H 4.09375 v -5.65625 c 1.5625,-0.550781 3.179688,-0.96875 4.859375,-1.25 1.675781,-0.28125 3.441406,-0.421875 5.296875,-0.421875 4.6875,0 8.117188,0.875 10.296875,2.625 2.1875,1.742188 3.28125,4.476562 3.28125,8.203125 z m -8.734375,7.875 V -13.5 H 15.8125 c -1.625,0 -2.875,0.449219 -3.75,1.34375 -0.875,0.886719 -1.3125,2.15625 -1.3125,3.8125 0,1.667969 0.316406,2.914062 0.953125,3.734375 0.632813,0.824219 1.601563,1.234375 2.90625,1.234375 1.34375,0 2.425781,-0.441406 3.25,-1.328125 0.820313,-0.894531 1.234375,-2.070313 1.234375,-3.53125 z m 0,0"
         id="path905"
         transform="translate(267.91687,90.089117)"
         inkscape:label="a" />
      <path
         style="fill:#ffffff;fill-opacity:1;stroke:none;stroke-width:0.442386"
         d="m 9.15625,0 v -2.984375 h 4.875 v -30.46875 H 3.953125 V -27.625 H 0.5625 v -9.203125 H 37.078125 V -27.625 H 33.75 v -5.828125 H 23.578125 v 30.46875 h 4.90625 V 0 Z m 0,0"
         id="path909"
         transform="translate(300.63812,90.089117)"
         inkscape:label="T" />
      <path
         style="fill:#ffffff;fill-opacity:1;stroke:none;stroke-width:0.442386"
         d="M 2.375,0 V -2.984375 H 7.078125 V -33.84375 H 2.375 v -2.984375 h 33.09375 v 8.6875 H 32.0625 v -5.3125 H 16.578125 V -21.625 h 9.640625 v -4.6875 h 3.375 v 12.71875 h -3.375 v -4.6875 H 16.578125 V -3.375 H 32.53125 v -5.3125 h 3.375 V 0 Z m 0,0"
         id="path893"
         transform="translate(328.89661,103.19447)"
         inkscape:label="E" />
      <path
         style="fill:#ffffff;fill-opacity:1;stroke:none;stroke-width:0.442386"
         d="M 17.125,-14.1875 9.453125,-2.984375 h 4.53125 V 0 H 0.90625 V -2.984375 H 5.453125 L 15.140625,-17.0625 3.625,-33.84375 H 0.25 v -2.984375 h 18.296875 v 2.984375 H 14.5 l 7.125,10.359375 7.0625,-10.359375 h -4.296875 v -2.984375 H 37.21875 v 2.984375 H 32.6875 l -9.109375,13.21875 12.09375,17.640625 h 3.46875 V 0 h -18.375 v -2.984375 h 4.09375 z m 0,0"
         id="path889"
         transform="translate(360.39938,90.089117)"
         inkscape:label="X" />
    </g>
    <g
       id="g1"
       transform="matrix(1.3925156,0,0,1.3925157,-65.274845,-34.998891)"
       style="stroke-width:0.718125">
      <g
         id="g1063"
         transform="matrix(0.3810003,0,0,0.38100028,15.170505,-78.963928)"
         style="stroke-width:1.88484"
         inkscape:label="Lua logo">
        <path
           fill="#000080"
           d="m 835.5,473.6 c 0,-199.8 -162.2,-362 -362,-362 -199.8,0 -362,162.2 -362,362 0,199.8 162.2,362 362,362 199.8,0 362,-162.2 362,-362"
           id="path1047"
           style="stroke-width:4.83019"
           inkscape:label="big circle" />
        <path
           fill="#ffffff"
           d="m 729.5,323.6 c 0,-58.5 -47.5,-106 -106,-106 -58.5,0 -106,47.5 -106,106 0,58.5 47.5,106 106,106 58.5,0 106,-47.5 106,-106"
           id="path1049"
           style="stroke-width:4.83019"
           inkscape:label="small white circle" />
        <path
           fill="#000080"
           d="m 941.5,111.5 c 0,-58.5 -47.5,-106 -106,-106 -58.5,0 -106,47.5 -106,106 0,58.5 47.5,106 106,106 58.5,0 106,-47.4 106,-106"
           id="path1051"
           style="stroke-width:4.83019"
           inkscape:label="small blue circle" />
        <path
           fill="none"
           stroke="#808080"
           stroke-width="20.4717"
           stroke-miterlimit="10"
           stroke-dasharray="40.8475"
           d="m 890.6,261 c 33.5,65.8 51,138.6 51,212.5 0,258.4 -209.7,468.1 -468.1,468.1 C 215.1,941.6 5.4,731.9 5.4,473.5 5.4,215.1 215.1,5.4 473.5,5.4 c 83.1,0 164.6,22.1 236.2,63.9"
           id="path1061"
           inkscape:label="orbit"
           style="stroke:#c0bfbc" />
      </g>
      <g
         id="g1552"
         transform="matrix(2.103006,0,0,2.103006,-327.61738,-17.871945)"
         inkscape:label="Lua"
         style="stroke-width:0.455299">
        <path
           style="fill:#ffffff;fill-opacity:1;stroke:none;stroke-width:0.455299"
           d="M 2.375,0 V -2.984375 H 7.078125 V -33.84375 H 2.375 v -2.984375 h 18.9375 v 2.984375 H 16.578125 V -3.375 h 14.5 V -9.203125 H 34.40625 V 0 Z m 0,0"
           id="path1540"
           transform="translate(195.69579,90.089117)"
           inkscape:label="L" />
        <path
           style="fill:#ffffff;fill-opacity:1;stroke:none;stroke-width:0.455299"
           d="M 31.28125,-26.21875 V -2.984375 H 35 V 0 H 22.515625 v -3.703125 c -1.03125,1.5625 -2.226563,2.695313 -3.578125,3.390625 -1.34375,0.6875 -3.042969,1.03125 -5.09375,1.03125 -2.949219,0 -5.179688,-0.863281 -6.6875,-2.59375 -1.5,-1.738281 -2.25,-4.296875 -2.25,-7.671875 v -13.6875 h -3.75 v -2.984375 h 12.484375 v 15.3125 c 0,3.261719 0.269531,5.335938 0.8125,6.21875 0.539063,0.875 1.535156,1.3125 2.984375,1.3125 1.757812,0 3.046875,-0.648438 3.859375,-1.953125 0.8125,-1.300781 1.21875,-3.363281 1.21875,-6.1875 v -11.71875 H 19.34375 v -2.984375 z m 0,0"
           id="path1542"
           transform="translate(231.2002,90.089117)"
           inkscape:label="u" />
        <path
           style="fill:#ffffff;fill-opacity:1;stroke:none;stroke-width:0.455299"
           d="m 27.828125,-16.109375 v 13.125 h 3.75 V 0 H 19.09375 v -3.328125 c -1.15625,1.375 -2.445312,2.398437 -3.859375,3.0625 C 13.828125,0.390625 12.21875,0.71875 10.40625,0.71875 7.726562,0.71875 5.671875,0 4.234375,-1.4375 c -1.4375,-1.4375 -2.15625,-3.5 -2.15625,-6.1875 0,-2.9375 1.03125,-5.132812 3.09375,-6.59375 2.0625,-1.46875 5.171875,-2.203125 9.328125,-2.203125 h 4.59375 v -1.5625 c 0,-2.113281 -0.507812,-3.675781 -1.515625,-4.6875 -1,-1.019531 -2.554687,-1.53125 -4.65625,-1.53125 -1.742187,0 -3.085937,0.359375 -4.03125,1.078125 -0.949219,0.71875 -1.621094,1.890625 -2.015625,3.515625 H 4.09375 v -5.65625 c 1.5625,-0.550781 3.179688,-0.96875 4.859375,-1.25 1.675781,-0.28125 3.441406,-0.421875 5.296875,-0.421875 4.6875,0 8.117188,0.875 10.296875,2.625 2.1875,1.742188 3.28125,4.476562 3.28125,8.203125 z m -8.734375,7.875 V -13.5 H 15.8125 c -1.625,0 -2.875,0.449219 -3.75,1.34375 -0.875,0.886719 -1.3125,2.15625 -1.3125,3.8125 0,1.667969 0.316406,2.914062 0.953125,3.734375 0.632813,0.824219 1.601563,1.234375 2.90625,1.234375 1.34375,0 2.425781,-0.441406 3.25,-1.328125 0.820313,-0.894531 1.234375,-2.070313 1.234375,-3.53125 z m 0,0"
           id="path1544"
           transform="translate(267.91687,90.089117)"
           inkscape:label="a" />
      </g>
    </g>
    <g
       id="g1566"
       transform="matrix(6.9380052,0,0,6.9380052,-2231.331,-101.81954)"
       inkscape:label="TeX"
       style="stroke-width:0.192178">
      <path
         style="fill:#ffffff;fill-opacity:1;stroke:none;stroke-width:0.192178"
         d="m 302.22759,87.395709 v -3.334772 h 5.44738 V 50.014836 h -11.26141 v 6.512408 h -3.78872 V 46.243576 h 40.80294 v 10.283668 h -3.71888 v -6.512408 h -11.36616 v 34.046101 h 5.48229 v 3.334772 z m 0,0"
         id="path1560"
         inkscape:label="T" />
      <path
         style="fill:#ffffff;fill-opacity:1;stroke:none;stroke-width:0.192178"
         d="m 326.20471,106.46136 v -3.44333 h 5.42639 V 67.412926 h -5.42639 v -3.44333 h 38.1831 v 10.023515 h -3.93008 v -6.129487 h -17.86566 v 13.647124 h 11.12322 v -5.408372 h 3.89403 v 14.674715 h -3.89403 v -5.408372 h -11.12322 v 17.198621 h 18.4065 v -6.129487 h 3.89402 v 10.023507 z m 0,0"
         id="path1562"
         inkscape:label="E" />
      <path
         style="fill:#ffffff;fill-opacity:1;stroke:none;stroke-width:0.192179"
         d="m 382.27228,73.443834 -8.72853,12.746132 h 5.15534 v 3.395413 h -14.87937 v -3.395413 h 5.17311 L 380.01459,70.17286 366.91292,51.080329 h -3.83984 v -3.395413 h 20.8169 v 3.395413 h -4.60424 l 8.10632,11.786172 8.03522,-11.786172 h -4.88869 v -3.395413 h 14.59495 v 3.395413 h -5.15534 l -10.36401,15.039368 13.75942,20.070269 h 3.9465 v 3.395413 h -20.90579 v -3.395413 h 4.65758 z m 0,0"
         id="path1564"
         inkscape:label="X" />
    </g>
  </g>
</svg>
